{
	"asset":{
		"generator":"Khronos glTF Blender I/O v5.0.21",
		"version":"2.0"
	},
	"scene":0,
	"scenes":[
		{
			"name":"Scene",
			"nodes":[
				0
			]
		}
	],
	"nodes":[
		{
			"mesh":0,
			"name":"Hibiscus_A"
		}
	],
	"materials":[
		{
			"alphaMode":"MASK",
			"doubleSided":true,
			"name":"Hibiscus_A_HibiscusFlower",
			"normalTexture":{
				"index":0
			},
			"occlusionTexture":{
				"index":1
			},
			"pbrMetallicRoughness":{
				"baseColorTexture":{
					"index":2
				},
				"metallicRoughnessTexture":{
					"index":1
				}
			}
		},
		{
			"name":"Hibiscus_A_ShrubBark",
			"normalTexture":{
				"index":3
			},
			"occlusionTexture":{
				"index":4
			},
			"pbrMetallicRoughness":{
				"baseColorTexture":{
					"index":5
				},
				"metallicRoughnessTexture":{
					"index":4
				}
			}
		},
		{
			"alphaMode":"MASK",
			"doubleSided":true,
			"name":"Hibiscus_A_HibiscusLeaf",
			"normalTexture":{
				"index":6
			},
			"occlusionTexture":{
				"index":7
			},
			"pbrMetallicRoughness":{
				"baseColorTexture":{
					"index":8
				},
				"metallicRoughnessTexture":{
					"index":7
				}
			}
		}
	],
	"meshes":[
		{
			"name":"Hibiscus_A",
			"primitives":[
				{
					"attributes":{
						"POSITION":0,
						"NORMAL":1,
						"TEXCOORD_0":2
					},
					"indices":3,
					"material":0
				},
				{
					"attributes":{
						"POSITION":4,
						"NORMAL":5,
						"TEXCOORD_0":6
					},
					"indices":7,
					"material":1
				},
				{
					"attributes":{
						"POSITION":8,
						"NORMAL":9,
						"TEXCOORD_0":10
					},
					"indices":11,
					"material":2
				}
			]
		}
	],
	"textures":[
		{
			"sampler":0,
			"source":0
		},
		{
			"sampler":0,
			"source":1
		},
		{
			"sampler":0,
			"source":2
		},
		{
			"sampler":0,
			"source":3
		},
		{
			"sampler":0,
			"source":4
		},
		{
			"sampler":0,
			"source":5
		},
		{
			"sampler":0,
			"source":6
		},
		{
			"sampler":0,
			"source":7
		},
		{
			"sampler":0,
			"source":8
		}
	],
	"images":[
		{
			"mimeType":"image/png",
			"name":"Hibiscus_A_HibiscusFlower_Normal",
			"uri":"Hibiscus_A_HibiscusFlower_Normal.png"
		},
		{
			"mimeType":"image/png",
			"name":"Hibiscus_A_HibiscusFlower_ORM",
			"uri":"Hibiscus_A_HibiscusFlower_ORM.png"
		},
		{
			"mimeType":"image/png",
			"name":"Hibiscus_A_HibiscusFlower_BaseColor",
			"uri":"Hibiscus_A_HibiscusFlower_BaseColor.png"
		},
		{
			"mimeType":"image/png",
			"name":"Hibiscus_A_ShrubBark_Normal",
			"uri":"Hibiscus_A_ShrubBark_Normal.png"
		},
		{
			"mimeType":"image/png",
			"name":"Hibiscus_A_ShrubBark_ORM",
			"uri":"Hibiscus_A_ShrubBark_ORM.png"
		},
		{
			"mimeType":"image/png",
			"name":"Hibiscus_A_ShrubBark_BaseColor",
			"uri":"Hibiscus_A_ShrubBark_BaseColor.png"
		},
		{
			"mimeType":"image/png",
			"name":"Hibiscus_A_HibiscusLeaf_Normal",
			"uri":"Hibiscus_A_HibiscusLeaf_Normal.png"
		},
		{
			"mimeType":"image/png",
			"name":"Hibiscus_A_HibiscusLeaf_ORM",
			"uri":"Hibiscus_A_HibiscusLeaf_ORM.png"
		},
		{
			"mimeType":"image/png",
			"name":"Hibiscus_A_HibiscusLeaf_BaseColor",
			"uri":"Hibiscus_A_HibiscusLeaf_BaseColor.png"
		}
	],
	"accessors":[
		{
			"bufferView":0,
			"componentType":5126,
			"count":5656,
			"max":[
				0.7395936846733093,
				1.6363786458969116,
				0.7194477915763855
			],
			"min":[
				-0.727904200553894,
				0.5571680665016174,
				-0.5952576398849487
			],
			"type":"VEC3"
		},
		{
			"bufferView":1,
			"componentType":5126,
			"count":5656,
			"type":"VEC3"
		},
		{
			"bufferView":2,
			"componentType":5126,
			"count":5656,
			"type":"VEC2"
		},
		{
			"bufferView":3,
			"componentType":5123,
			"count":19104,
			"type":"SCALAR"
		},
		{
			"bufferView":4,
			"componentType":5126,
			"count":1868,
			"max":[
				0.751732349395752,
				1.3835155963897705,
				0.6625569462776184
			],
			"min":[
				-0.6636293530464172,
				-0.12657617032527924,
				-0.6442393064498901
			],
			"type":"VEC3"
		},
		{
			"bufferView":5,
			"componentType":5126,
			"count":1868,
			"type":"VEC3"
		},
		{
			"bufferView":6,
			"componentType":5126,
			"count":1868,
			"type":"VEC2"
		},
		{
			"bufferView":7,
			"componentType":5123,
			"count":5424,
			"type":"SCALAR"
		},
		{
			"bufferView":8,
			"componentType":5126,
			"count":8160,
			"max":[
				1.0032166242599487,
				1.649770975112915,
				0.9400652050971985
			],
			"min":[
				-0.8880903124809265,
				0.09468965232372284,
				-0.8848957419395447
			],
			"type":"VEC3"
		},
		{
			"bufferView":9,
			"componentType":5126,
			"count":8160,
			"type":"VEC3"
		},
		{
			"bufferView":10,
			"componentType":5126,
			"count":8160,
			"type":"VEC2"
		},
		{
			"bufferView":11,
			"componentType":5123,
			"count":24480,
			"type":"SCALAR"
		}
	],
	"bufferViews":[
		{
			"buffer":0,
			"byteLength":67872,
			"byteOffset":0,
			"target":34962
		},
		{
			"buffer":0,
			"byteLength":67872,
			"byteOffset":67872,
			"target":34962
		},
		{
			"buffer":0,
			"byteLength":45248,
			"byteOffset":135744,
			"target":34962
		},
		{
			"buffer":0,
			"byteLength":38208,
			"byteOffset":180992,
			"target":34963
		},
		{
			"buffer":0,
			"byteLength":22416,
			"byteOffset":219200,
			"target":34962
		},
		{
			"buffer":0,
			"byteLength":22416,
			"byteOffset":241616,
			"target":34962
		},
		{
			"buffer":0,
			"byteLength":14944,
			"byteOffset":264032,
			"target":34962
		},
		{
			"buffer":0,
			"byteLength":10848,
			"byteOffset":278976,
			"target":34963
		},
		{
			"buffer":0,
			"byteLength":97920,
			"byteOffset":289824,
			"target":34962
		},
		{
			"buffer":0,
			"byteLength":97920,
			"byteOffset":387744,
			"target":34962
		},
		{
			"buffer":0,
			"byteLength":65280,
			"byteOffset":485664,
			"target":34962
		},
		{
			"buffer":0,
			"byteLength":48960,
			"byteOffset":550944,
			"target":34963
		}
	],
	"samplers":[
		{
			"magFilter":9729,
			"minFilter":9987
		}
	],
	"buffers":[
		{
			"byteLength":599904,
			"uri":"Hibiscus_A.bin"
		}
	]
}
