{
	"asset":{
		"generator":"Khronos glTF Blender I/O v4.4.56",
		"version":"2.0"
	},
	"scene":0,
	"scenes":[
		{
			"name":"Scene",
			"nodes":[
				72
			]
		}
	],
	"nodes":[
		{
			"mesh":0,
			"name":"anchor002_Material #5017_0"
		},
		{
			"children":[
				0
			],
			"name":"anchor002"
		},
		{
			"mesh":1,
			"name":"boat-smal001_CHEST_0"
		},
		{
			"mesh":2,
			"name":"boat-smal001_wood_planked_0"
		},
		{
			"children":[
				2,
				3
			],
			"name":"boat-smal001"
		},
		{
			"mesh":3,
			"name":"floor_modul_006_Material #5539_0"
		},
		{
			"children":[
				5
			],
			"name":"floor_modul_006"
		},
		{
			"mesh":4,
			"name":"floor_plates2_LOD003_Material #5536_0"
		},
		{
			"children":[
				7
			],
			"name":"floor_plates2_LOD003"
		},
		{
			"mesh":5,
			"name":"floor_plates2_LOD004_Material #5536_0"
		},
		{
			"children":[
				9
			],
			"name":"floor_plates2_LOD004"
		},
		{
			"mesh":6,
			"name":"floor_plates2_LOD005_Material #5536_0"
		},
		{
			"children":[
				11
			],
			"name":"floor_plates2_LOD005"
		},
		{
			"mesh":7,
			"name":"floor_plates2_LOD006_Material #5536_0"
		},
		{
			"children":[
				13
			],
			"name":"floor_plates2_LOD006"
		},
		{
			"mesh":8,
			"name":"floor_plates2_LOD007_Material #5536_0"
		},
		{
			"children":[
				15
			],
			"name":"floor_plates2_LOD007"
		},
		{
			"mesh":9,
			"name":"macki001_Material #5541_0"
		},
		{
			"children":[
				17
			],
			"name":"macki001"
		},
		{
			"mesh":10,
			"name":"macki002_Material #5541_0"
		},
		{
			"children":[
				19
			],
			"name":"macki002"
		},
		{
			"mesh":11,
			"name":"macki003_Material #5541_0"
		},
		{
			"children":[
				21
			],
			"name":"macki003"
		},
		{
			"mesh":12,
			"name":"macki004_Material #5541_0"
		},
		{
			"children":[
				23
			],
			"name":"macki004"
		},
		{
			"mesh":13,
			"name":"macki005_Material #5541_0"
		},
		{
			"children":[
				25
			],
			"name":"macki005"
		},
		{
			"mesh":14,
			"name":"maczuga_heraklesa_LOD1_LOD1_LOD1_LOD1_LOD002_Material #5545_0"
		},
		{
			"children":[
				27
			],
			"name":"maczuga_heraklesa_LOD1_LOD1_LOD1_LOD1_LOD002"
		},
		{
			"mesh":15,
			"name":"maczuga_heraklesa_LOD1_LOD1_LOD1_LOD1_LOD1_Material #5545_0"
		},
		{
			"children":[
				29
			],
			"name":"maczuga_heraklesa_LOD1_LOD1_LOD1_LOD1_LOD1"
		},
		{
			"mesh":16,
			"name":"north_rock_LOD1_LOD1_LOD1_LOD002_Material #5544_0"
		},
		{
			"children":[
				31
			],
			"name":"north_rock_LOD1_LOD1_LOD1_LOD002"
		},
		{
			"mesh":17,
			"name":"north_rock_LOD1_LOD1_LOD1_LOD003_Material #5544_0"
		},
		{
			"children":[
				33
			],
			"name":"north_rock_LOD1_LOD1_LOD1_LOD003"
		},
		{
			"mesh":18,
			"name":"north_rock_LOD1_LOD1_LOD1_LOD004_Material #5544_0"
		},
		{
			"children":[
				35
			],
			"name":"north_rock_LOD1_LOD1_LOD1_LOD004"
		},
		{
			"mesh":19,
			"name":"north_rock_LOD1_LOD1_LOD1_LOD007_Material #5544_0"
		},
		{
			"children":[
				37
			],
			"name":"north_rock_LOD1_LOD1_LOD1_LOD007"
		},
		{
			"mesh":20,
			"name":"north_rock_LOD1_LOD1_LOD1_LOD008_Material #5544_0"
		},
		{
			"children":[
				39
			],
			"name":"north_rock_LOD1_LOD1_LOD1_LOD008"
		},
		{
			"mesh":21,
			"name":"north_rock_LOD1_LOD1_LOD1_LOD009_Material #5544_0"
		},
		{
			"children":[
				41
			],
			"name":"north_rock_LOD1_LOD1_LOD1_LOD009"
		},
		{
			"mesh":22,
			"name":"Object1009_Material #5540_0"
		},
		{
			"children":[
				43
			],
			"name":"Object1009"
		},
		{
			"mesh":23,
			"name":"Object1010_Material #5540_0"
		},
		{
			"children":[
				45
			],
			"name":"Object1010"
		},
		{
			"mesh":24,
			"name":"Object1035_Material #4774_0"
		},
		{
			"children":[
				47
			],
			"name":"Object1035"
		},
		{
			"mesh":25,
			"name":"Object1040_Material #5548_0"
		},
		{
			"children":[
				49
			],
			"name":"Object1040"
		},
		{
			"mesh":26,
			"name":"Object1251_default_0"
		},
		{
			"mesh":27,
			"name":"Object1251_default_0.001"
		},
		{
			"children":[
				51,
				52
			],
			"name":"Object1251"
		},
		{
			"mesh":28,
			"name":"paluszki_Material #5542_0"
		},
		{
			"children":[
				54
			],
			"name":"paluszki"
		},
		{
			"mesh":29,
			"name":"paluszki004_Material #5543_0"
		},
		{
			"children":[
				56
			],
			"name":"paluszki004"
		},
		{
			"mesh":30,
			"name":"paluszki005_Material #5543_0"
		},
		{
			"children":[
				58
			],
			"name":"paluszki005"
		},
		{
			"mesh":31,
			"name":"paluszki006_Material #5542_0"
		},
		{
			"children":[
				60
			],
			"name":"paluszki006"
		},
		{
			"mesh":32,
			"name":"pilar_rock004_default_0"
		},
		{
			"children":[
				62
			],
			"name":"pilar_rock004"
		},
		{
			"mesh":33,
			"name":"pilar_rock005_default_0"
		},
		{
			"children":[
				64
			],
			"name":"pilar_rock005"
		},
		{
			"mesh":34,
			"name":"pilar_rock006_default_0"
		},
		{
			"children":[
				66
			],
			"name":"pilar_rock006"
		},
		{
			"mesh":35,
			"name":"Plane049_Material #5547_0"
		},
		{
			"children":[
				68
			],
			"name":"Plane049"
		},
		{
			"children":[
				1,
				4,
				6,
				8,
				10,
				12,
				14,
				16,
				18,
				20,
				22,
				24,
				26,
				28,
				30,
				32,
				34,
				36,
				38,
				40,
				42,
				44,
				46,
				48,
				50,
				53,
				55,
				57,
				59,
				61,
				63,
				65,
				67,
				69
			],
			"name":"RootNode"
		},
		{
			"children":[
				70
			],
			"name":"Underwater environment 2.fbx"
		},
		{
			"children":[
				71
			],
			"name":"Sketchfab_model"
		}
	],
	"materials":[
		{
			"doubleSided":true,
			"name":"Material_5017",
			"pbrMetallicRoughness":{
				"baseColorTexture":{
					"index":0
				},
				"metallicFactor":0,
				"roughnessFactor":0.8929713368415833
			}
		},
		{
			"doubleSided":true,
			"name":"CHEST",
			"normalTexture":{
				"index":1
			},
			"pbrMetallicRoughness":{
				"baseColorTexture":{
					"index":2
				},
				"metallicFactor":0,
				"roughnessFactor":0.8929713368415833
			}
		},
		{
			"doubleSided":true,
			"name":"wood_planked",
			"normalTexture":{
				"index":3
			},
			"pbrMetallicRoughness":{
				"baseColorTexture":{
					"index":4
				},
				"metallicFactor":0,
				"roughnessFactor":0.8929713368415833
			}
		},
		{
			"doubleSided":true,
			"name":"Material_5539",
			"normalTexture":{
				"index":5
			},
			"pbrMetallicRoughness":{
				"baseColorTexture":{
					"index":6
				},
				"metallicFactor":0,
				"roughnessFactor":0.8929713368415833
			}
		},
		{
			"doubleSided":true,
			"name":"Material_5536",
			"normalTexture":{
				"index":7
			},
			"pbrMetallicRoughness":{
				"baseColorTexture":{
					"index":8
				},
				"metallicFactor":0,
				"roughnessFactor":0.8929713368415833
			}
		},
		{
			"doubleSided":true,
			"name":"Material_5541",
			"normalTexture":{
				"index":9
			},
			"pbrMetallicRoughness":{
				"baseColorTexture":{
					"index":10
				},
				"metallicFactor":0,
				"roughnessFactor":0.8929713368415833
			}
		},
		{
			"doubleSided":true,
			"name":"Material_5545",
			"normalTexture":{
				"index":11
			},
			"pbrMetallicRoughness":{
				"baseColorTexture":{
					"index":12
				},
				"metallicFactor":0,
				"roughnessFactor":0.8929713368415833
			}
		},
		{
			"doubleSided":true,
			"name":"Material_5544",
			"normalTexture":{
				"index":13
			},
			"pbrMetallicRoughness":{
				"baseColorTexture":{
					"index":14
				},
				"metallicFactor":0,
				"roughnessFactor":0.8929713368415833
			}
		},
		{
			"doubleSided":true,
			"name":"Material_5540",
			"normalTexture":{
				"index":15
			},
			"pbrMetallicRoughness":{
				"baseColorTexture":{
					"index":16
				},
				"metallicFactor":0,
				"roughnessFactor":0.8929713368415833
			}
		},
		{
			"alphaMode":"BLEND",
			"doubleSided":true,
			"name":"Material_4774",
			"pbrMetallicRoughness":{
				"baseColorFactor":[
					1,
					1,
					1,
					0.10194359719753265
				],
				"baseColorTexture":{
					"index":17
				},
				"metallicFactor":0,
				"roughnessFactor":0.8929713368415833
			}
		},
		{
			"alphaMode":"BLEND",
			"doubleSided":true,
			"name":"Material_5548",
			"normalTexture":{
				"index":18
			},
			"pbrMetallicRoughness":{
				"baseColorFactor":[
					1,
					1,
					1,
					0.36413872241973877
				],
				"baseColorTexture":{
					"index":19
				},
				"metallicFactor":0,
				"roughnessFactor":0.7360899448394775
			}
		},
		{
			"doubleSided":true,
			"name":"default",
			"normalTexture":{
				"index":20,
				"texCoord":1
			},
			"pbrMetallicRoughness":{
				"baseColorTexture":{
					"index":21
				},
				"metallicFactor":0,
				"roughnessFactor":0.8929713368415833
			}
		},
		{
			"doubleSided":true,
			"name":"Material_5542",
			"normalTexture":{
				"index":22
			},
			"pbrMetallicRoughness":{
				"baseColorTexture":{
					"index":23
				},
				"metallicFactor":0,
				"roughnessFactor":0.8929713368415833
			}
		},
		{
			"doubleSided":true,
			"name":"Material_5543",
			"normalTexture":{
				"index":24
			},
			"pbrMetallicRoughness":{
				"baseColorTexture":{
					"index":25
				},
				"metallicFactor":0,
				"roughnessFactor":0.8929713368415833
			}
		},
		{
			"doubleSided":true,
			"name":"Material_5547",
			"normalTexture":{
				"index":26
			},
			"pbrMetallicRoughness":{
				"baseColorTexture":{
					"index":27
				},
				"metallicFactor":0,
				"roughnessFactor":0.8929713368415833
			}
		}
	],
	"meshes":[
		{
			"name":"anchor002_Material #5017_0",
			"primitives":[
				{
					"attributes":{
						"POSITION":0,
						"NORMAL":1,
						"TEXCOORD_0":2,
						"TEXCOORD_1":3,
						"TEXCOORD_2":4
					},
					"indices":5,
					"material":0
				}
			]
		},
		{
			"name":"boat-smal001_CHEST_0",
			"primitives":[
				{
					"attributes":{
						"POSITION":6,
						"NORMAL":7,
						"TEXCOORD_0":8,
						"TEXCOORD_1":9,
						"TEXCOORD_2":10
					},
					"indices":11,
					"material":1
				}
			]
		},
		{
			"name":"boat-smal001_wood_planked_0",
			"primitives":[
				{
					"attributes":{
						"POSITION":12,
						"NORMAL":13,
						"TEXCOORD_0":14,
						"TEXCOORD_1":15,
						"TEXCOORD_2":16
					},
					"indices":17,
					"material":2
				}
			]
		},
		{
			"name":"floor_modul_006_Material #5539_0",
			"primitives":[
				{
					"attributes":{
						"POSITION":18,
						"NORMAL":19,
						"TEXCOORD_0":20,
						"TEXCOORD_1":21,
						"TEXCOORD_2":22
					},
					"indices":23,
					"material":3
				}
			]
		},
		{
			"name":"floor_plates2_LOD003_Material #5536_0",
			"primitives":[
				{
					"attributes":{
						"POSITION":24,
						"NORMAL":25,
						"TEXCOORD_0":26,
						"TEXCOORD_1":27
					},
					"indices":28,
					"material":4
				}
			]
		},
		{
			"name":"floor_plates2_LOD004_Material #5536_0",
			"primitives":[
				{
					"attributes":{
						"POSITION":29,
						"NORMAL":30,
						"TEXCOORD_0":31,
						"TEXCOORD_1":32
					},
					"indices":28,
					"material":4
				}
			]
		},
		{
			"name":"floor_plates2_LOD005_Material #5536_0",
			"primitives":[
				{
					"attributes":{
						"POSITION":33,
						"NORMAL":34,
						"TEXCOORD_0":35,
						"TEXCOORD_1":36
					},
					"indices":28,
					"material":4
				}
			]
		},
		{
			"name":"floor_plates2_LOD006_Material #5536_0",
			"primitives":[
				{
					"attributes":{
						"POSITION":37,
						"NORMAL":38,
						"TEXCOORD_0":39,
						"TEXCOORD_1":40
					},
					"indices":28,
					"material":4
				}
			]
		},
		{
			"name":"floor_plates2_LOD007_Material #5536_0",
			"primitives":[
				{
					"attributes":{
						"POSITION":41,
						"NORMAL":42,
						"TEXCOORD_0":43,
						"TEXCOORD_1":44
					},
					"indices":28,
					"material":4
				}
			]
		},
		{
			"name":"macki001_Material #5541_0",
			"primitives":[
				{
					"attributes":{
						"POSITION":45,
						"NORMAL":46,
						"TEXCOORD_0":47,
						"TEXCOORD_1":48
					},
					"indices":49,
					"material":5
				}
			]
		},
		{
			"name":"macki002_Material #5541_0",
			"primitives":[
				{
					"attributes":{
						"POSITION":50,
						"NORMAL":51,
						"TEXCOORD_0":52,
						"TEXCOORD_1":53
					},
					"indices":49,
					"material":5
				}
			]
		},
		{
			"name":"macki003_Material #5541_0",
			"primitives":[
				{
					"attributes":{
						"POSITION":54,
						"NORMAL":55,
						"TEXCOORD_0":56,
						"TEXCOORD_1":57
					},
					"indices":49,
					"material":5
				}
			]
		},
		{
			"name":"macki004_Material #5541_0",
			"primitives":[
				{
					"attributes":{
						"POSITION":58,
						"NORMAL":59,
						"TEXCOORD_0":60,
						"TEXCOORD_1":61
					},
					"indices":49,
					"material":5
				}
			]
		},
		{
			"name":"macki005_Material #5541_0",
			"primitives":[
				{
					"attributes":{
						"POSITION":62,
						"NORMAL":63,
						"TEXCOORD_0":64,
						"TEXCOORD_1":65
					},
					"indices":49,
					"material":5
				}
			]
		},
		{
			"name":"maczuga_heraklesa_LOD1_LOD1_LOD1_LOD1_LOD002_Material #5545_0",
			"primitives":[
				{
					"attributes":{
						"POSITION":66,
						"NORMAL":67,
						"TEXCOORD_0":68,
						"TEXCOORD_1":69
					},
					"indices":70,
					"material":6
				}
			]
		},
		{
			"name":"maczuga_heraklesa_LOD1_LOD1_LOD1_LOD1_LOD1_Material #5545_0",
			"primitives":[
				{
					"attributes":{
						"POSITION":71,
						"NORMAL":72,
						"TEXCOORD_0":73,
						"TEXCOORD_1":74
					},
					"indices":70,
					"material":6
				}
			]
		},
		{
			"name":"north_rock_LOD1_LOD1_LOD1_LOD002_Material #5544_0",
			"primitives":[
				{
					"attributes":{
						"POSITION":75,
						"NORMAL":76,
						"TEXCOORD_0":77,
						"TEXCOORD_1":78
					},
					"indices":79,
					"material":7
				}
			]
		},
		{
			"name":"north_rock_LOD1_LOD1_LOD1_LOD003_Material #5544_0",
			"primitives":[
				{
					"attributes":{
						"POSITION":80,
						"NORMAL":81,
						"TEXCOORD_0":82,
						"TEXCOORD_1":83
					},
					"indices":79,
					"material":7
				}
			]
		},
		{
			"name":"north_rock_LOD1_LOD1_LOD1_LOD004_Material #5544_0",
			"primitives":[
				{
					"attributes":{
						"POSITION":84,
						"NORMAL":85,
						"TEXCOORD_0":86,
						"TEXCOORD_1":87
					},
					"indices":79,
					"material":7
				}
			]
		},
		{
			"name":"north_rock_LOD1_LOD1_LOD1_LOD007_Material #5544_0",
			"primitives":[
				{
					"attributes":{
						"POSITION":88,
						"NORMAL":89,
						"TEXCOORD_0":90,
						"TEXCOORD_1":91
					},
					"indices":79,
					"material":7
				}
			]
		},
		{
			"name":"north_rock_LOD1_LOD1_LOD1_LOD008_Material #5544_0",
			"primitives":[
				{
					"attributes":{
						"POSITION":92,
						"NORMAL":93,
						"TEXCOORD_0":94,
						"TEXCOORD_1":95
					},
					"indices":79,
					"material":7
				}
			]
		},
		{
			"name":"north_rock_LOD1_LOD1_LOD1_LOD009_Material #5544_0",
			"primitives":[
				{
					"attributes":{
						"POSITION":96,
						"NORMAL":97,
						"TEXCOORD_0":98,
						"TEXCOORD_1":99
					},
					"indices":79,
					"material":7
				}
			]
		},
		{
			"name":"Object1009_Material #5540_0",
			"primitives":[
				{
					"attributes":{
						"POSITION":100,
						"NORMAL":101,
						"TEXCOORD_0":102,
						"TEXCOORD_1":103,
						"TEXCOORD_2":104
					},
					"indices":105,
					"material":8
				}
			]
		},
		{
			"name":"Object1010_Material #5540_0",
			"primitives":[
				{
					"attributes":{
						"POSITION":106,
						"NORMAL":107,
						"TEXCOORD_0":108,
						"TEXCOORD_1":109,
						"TEXCOORD_2":110
					},
					"indices":105,
					"material":8
				}
			]
		},
		{
			"name":"Object1035_Material #4774_0",
			"primitives":[
				{
					"attributes":{
						"POSITION":111,
						"NORMAL":112,
						"TEXCOORD_0":113,
						"TEXCOORD_1":114,
						"TEXCOORD_2":115
					},
					"indices":116,
					"material":9
				}
			]
		},
		{
			"name":"Object1040_Material #5548_0",
			"primitives":[
				{
					"attributes":{
						"POSITION":117,
						"NORMAL":118,
						"TEXCOORD_0":119,
						"TEXCOORD_1":120,
						"TEXCOORD_2":121,
						"TEXCOORD_3":122
					},
					"indices":123,
					"material":10
				}
			]
		},
		{
			"name":"Object1251_default_0",
			"primitives":[
				{
					"attributes":{
						"POSITION":124,
						"NORMAL":125,
						"TEXCOORD_0":126,
						"TEXCOORD_1":127,
						"TEXCOORD_2":128
					},
					"indices":129,
					"material":11
				}
			]
		},
		{
			"name":"Object1251_default_0.001",
			"primitives":[
				{
					"attributes":{
						"POSITION":130,
						"NORMAL":131,
						"TEXCOORD_0":132,
						"TEXCOORD_1":133,
						"TEXCOORD_2":134
					},
					"indices":135,
					"material":11
				}
			]
		},
		{
			"name":"paluszki_Material #5542_0",
			"primitives":[
				{
					"attributes":{
						"POSITION":136,
						"NORMAL":137,
						"TEXCOORD_0":138,
						"TEXCOORD_1":139
					},
					"indices":140,
					"material":12
				}
			]
		},
		{
			"name":"paluszki004_Material #5543_0",
			"primitives":[
				{
					"attributes":{
						"POSITION":141,
						"NORMAL":142,
						"TEXCOORD_0":143,
						"TEXCOORD_1":144
					},
					"indices":145,
					"material":13
				}
			]
		},
		{
			"name":"paluszki005_Material #5543_0",
			"primitives":[
				{
					"attributes":{
						"POSITION":146,
						"NORMAL":147,
						"TEXCOORD_0":148,
						"TEXCOORD_1":149
					},
					"indices":145,
					"material":13
				}
			]
		},
		{
			"name":"paluszki006_Material #5542_0",
			"primitives":[
				{
					"attributes":{
						"POSITION":150,
						"NORMAL":151,
						"TEXCOORD_0":152,
						"TEXCOORD_1":153
					},
					"indices":140,
					"material":12
				}
			]
		},
		{
			"name":"pilar_rock004_default_0",
			"primitives":[
				{
					"attributes":{
						"POSITION":154,
						"NORMAL":155,
						"TEXCOORD_0":156,
						"TEXCOORD_1":157,
						"TEXCOORD_2":158
					},
					"indices":159,
					"material":11
				}
			]
		},
		{
			"name":"pilar_rock005_default_0",
			"primitives":[
				{
					"attributes":{
						"POSITION":160,
						"NORMAL":161,
						"TEXCOORD_0":162,
						"TEXCOORD_1":163,
						"TEXCOORD_2":164
					},
					"indices":165,
					"material":11
				}
			]
		},
		{
			"name":"pilar_rock006_default_0",
			"primitives":[
				{
					"attributes":{
						"POSITION":166,
						"NORMAL":167,
						"TEXCOORD_0":168,
						"TEXCOORD_1":169,
						"TEXCOORD_2":170
					},
					"indices":171,
					"material":11
				}
			]
		},
		{
			"name":"Plane049_Material #5547_0",
			"primitives":[
				{
					"attributes":{
						"POSITION":172,
						"NORMAL":173,
						"TEXCOORD_0":174,
						"TEXCOORD_1":175,
						"TEXCOORD_2":176
					},
					"indices":177,
					"material":14
				}
			]
		}
	],
	"textures":[
		{
			"sampler":0,
			"source":0
		},
		{
			"sampler":0,
			"source":1
		},
		{
			"sampler":0,
			"source":2
		},
		{
			"sampler":0,
			"source":3
		},
		{
			"sampler":0,
			"source":4
		},
		{
			"sampler":0,
			"source":5
		},
		{
			"sampler":0,
			"source":6
		},
		{
			"sampler":0,
			"source":7
		},
		{
			"sampler":0,
			"source":8
		},
		{
			"sampler":0,
			"source":9
		},
		{
			"sampler":0,
			"source":10
		},
		{
			"sampler":0,
			"source":11
		},
		{
			"sampler":0,
			"source":12
		},
		{
			"sampler":0,
			"source":13
		},
		{
			"sampler":0,
			"source":14
		},
		{
			"sampler":0,
			"source":15
		},
		{
			"sampler":0,
			"source":16
		},
		{
			"sampler":0,
			"source":17
		},
		{
			"sampler":0,
			"source":18
		},
		{
			"sampler":0,
			"source":19
		},
		{
			"sampler":0,
			"source":20
		},
		{
			"sampler":0,
			"source":21
		},
		{
			"sampler":0,
			"source":22
		},
		{
			"sampler":0,
			"source":23
		},
		{
			"sampler":0,
			"source":24
		},
		{
			"sampler":0,
			"source":25
		},
		{
			"sampler":0,
			"source":26
		},
		{
			"sampler":0,
			"source":27
		}
	],
	"images":[
		{
			"mimeType":"image/jpeg",
			"name":"Material_5017_baseColor",
			"uri":"Material_5017_baseColor.jpg"
		},
		{
			"mimeType":"image/png",
			"name":"CHEST_normal",
			"uri":"CHEST_normal.png"
		},
		{
			"mimeType":"image/jpeg",
			"name":"CHEST_baseColor",
			"uri":"CHEST_baseColor.jpg"
		},
		{
			"mimeType":"image/png",
			"name":"wood_planked_normal",
			"uri":"wood_planked_normal.png"
		},
		{
			"mimeType":"image/jpeg",
			"name":"wood_planked_baseColor",
			"uri":"wood_planked_baseColor.jpg"
		},
		{
			"mimeType":"image/png",
			"name":"Material_5539_normal",
			"uri":"Material_5539_normal.png"
		},
		{
			"mimeType":"image/jpeg",
			"name":"Material_5539_baseColor",
			"uri":"Material_5539_baseColor.jpg"
		},
		{
			"mimeType":"image/png",
			"name":"Material_5536_normal",
			"uri":"Material_5536_normal.png"
		},
		{
			"mimeType":"image/jpeg",
			"name":"Material_5536_baseColor",
			"uri":"Material_5536_baseColor.jpg"
		},
		{
			"mimeType":"image/png",
			"name":"Material_5541_normal",
			"uri":"Material_5541_normal.png"
		},
		{
			"mimeType":"image/jpeg",
			"name":"Material_5541_baseColor",
			"uri":"Material_5541_baseColor.jpg"
		},
		{
			"mimeType":"image/png",
			"name":"Material_5545_normal",
			"uri":"Material_5545_normal.png"
		},
		{
			"mimeType":"image/jpeg",
			"name":"Material_5545_baseColor",
			"uri":"Material_5545_baseColor.jpg"
		},
		{
			"mimeType":"image/png",
			"name":"Material_5544_normal",
			"uri":"Material_5544_normal.png"
		},
		{
			"mimeType":"image/jpeg",
			"name":"Material_5544_baseColor",
			"uri":"Material_5544_baseColor.jpg"
		},
		{
			"mimeType":"image/png",
			"name":"Material_5540_normal",
			"uri":"Material_5540_normal.png"
		},
		{
			"mimeType":"image/jpeg",
			"name":"Material_5540_baseColor",
			"uri":"Material_5540_baseColor.jpg"
		},
		{
			"mimeType":"image/png",
			"name":"Material_4774_baseColor",
			"uri":"Material_4774_baseColor.png"
		},
		{
			"mimeType":"image/png",
			"name":"Material_5548_normal",
			"uri":"Material_5548_normal.png"
		},
		{
			"mimeType":"image/png",
			"name":"Material_5548_baseColor",
			"uri":"Material_5548_baseColor.png"
		},
		{
			"mimeType":"image/png",
			"name":"default_normal",
			"uri":"default_normal.png"
		},
		{
			"mimeType":"image/jpeg",
			"name":"default_baseColor",
			"uri":"default_baseColor.jpg"
		},
		{
			"mimeType":"image/png",
			"name":"Material_5542_normal",
			"uri":"Material_5542_normal.png"
		},
		{
			"mimeType":"image/jpeg",
			"name":"Material_5542_baseColor",
			"uri":"Material_5542_baseColor.jpg"
		},
		{
			"mimeType":"image/png",
			"name":"Material_5543_normal",
			"uri":"Material_5543_normal.png"
		},
		{
			"mimeType":"image/jpeg",
			"name":"Material_5543_baseColor",
			"uri":"Material_5543_baseColor.jpg"
		},
		{
			"mimeType":"image/png",
			"name":"Material_5547_normal",
			"uri":"Material_5547_normal.png"
		},
		{
			"mimeType":"image/jpeg",
			"name":"Material_5547_baseColor",
			"uri":"Material_5547_baseColor.jpg"
		}
	],
	"accessors":[
		{
			"bufferView":0,
			"componentType":5126,
			"count":1857,
			"max":[
				2.335709571838379,
				0.5495208501815796,
				0.886521577835083
			],
			"min":[
				1.8825139999389648,
				0.4584246575832367,
				0.3626147210597992
			],
			"type":"VEC3"
		},
		{
			"bufferView":1,
			"componentType":5126,
			"count":1857,
			"type":"VEC3"
		},
		{
			"bufferView":2,
			"componentType":5126,
			"count":1857,
			"type":"VEC2"
		},
		{
			"bufferView":3,
			"componentType":5126,
			"count":1857,
			"type":"VEC2"
		},
		{
			"bufferView":4,
			"componentType":5126,
			"count":1857,
			"type":"VEC2"
		},
		{
			"bufferView":5,
			"componentType":5123,
			"count":6450,
			"type":"SCALAR"
		},
		{
			"bufferView":6,
			"componentType":5126,
			"count":10708,
			"max":[
				-1.9870470762252808,
				0.8272223472595215,
				0.9323420524597168
			],
			"min":[
				-3.069100856781006,
				0.5083409547805786,
				0.34499630331993103
			],
			"type":"VEC3"
		},
		{
			"bufferView":7,
			"componentType":5126,
			"count":10708,
			"type":"VEC3"
		},
		{
			"bufferView":8,
			"componentType":5126,
			"count":10708,
			"type":"VEC2"
		},
		{
			"bufferView":9,
			"componentType":5126,
			"count":10708,
			"type":"VEC2"
		},
		{
			"bufferView":10,
			"componentType":5126,
			"count":10708,
			"type":"VEC2"
		},
		{
			"bufferView":11,
			"componentType":5123,
			"count":29088,
			"type":"SCALAR"
		},
		{
			"bufferView":12,
			"componentType":5126,
			"count":641,
			"max":[
				-1.993224859237671,
				0.7725377082824707,
				0.928746223449707
			],
			"min":[
				-3.019909381866455,
				0.5172093510627747,
				0.3516552746295929
			],
			"type":"VEC3"
		},
		{
			"bufferView":13,
			"componentType":5126,
			"count":641,
			"type":"VEC3"
		},
		{
			"bufferView":14,
			"componentType":5126,
			"count":641,
			"type":"VEC2"
		},
		{
			"bufferView":15,
			"componentType":5126,
			"count":641,
			"type":"VEC2"
		},
		{
			"bufferView":16,
			"componentType":5126,
			"count":641,
			"type":"VEC2"
		},
		{
			"bufferView":17,
			"componentType":5123,
			"count":1857,
			"type":"SCALAR"
		},
		{
			"bufferView":18,
			"componentType":5126,
			"count":24480,
			"max":[
				1.291223168373108,
				2.0449676513671875,
				0.16361388564109802
			],
			"min":[
				-0.8360480070114136,
				1.6714797019958496,
				-1.351340413093567
			],
			"type":"VEC3"
		},
		{
			"bufferView":19,
			"componentType":5126,
			"count":24480,
			"type":"VEC3"
		},
		{
			"bufferView":20,
			"componentType":5126,
			"count":24480,
			"type":"VEC2"
		},
		{
			"bufferView":21,
			"componentType":5126,
			"count":24480,
			"type":"VEC2"
		},
		{
			"bufferView":22,
			"componentType":5126,
			"count":24480,
			"type":"VEC2"
		},
		{
			"bufferView":23,
			"componentType":5123,
			"count":133410,
			"type":"SCALAR"
		},
		{
			"bufferView":24,
			"componentType":5126,
			"count":9723,
			"max":[
				-1.2881354093551636,
				0.73516845703125,
				0.8717525005340576
			],
			"min":[
				-2.116441249847412,
				0.4717569053173065,
				0.19556131958961487
			],
			"type":"VEC3"
		},
		{
			"bufferView":25,
			"componentType":5126,
			"count":9723,
			"type":"VEC3"
		},
		{
			"bufferView":26,
			"componentType":5126,
			"count":9723,
			"type":"VEC2"
		},
		{
			"bufferView":27,
			"componentType":5126,
			"count":9723,
			"type":"VEC2"
		},
		{
			"bufferView":28,
			"componentType":5123,
			"count":54411,
			"type":"SCALAR"
		},
		{
			"bufferView":29,
			"componentType":5126,
			"count":9723,
			"max":[
				-2.3250088691711426,
				0.7164655923843384,
				0.6001632213592529
			],
			"min":[
				-3.112630844116211,
				0.4719774127006531,
				-0.10421022772789001
			],
			"type":"VEC3"
		},
		{
			"bufferView":30,
			"componentType":5126,
			"count":9723,
			"type":"VEC3"
		},
		{
			"bufferView":31,
			"componentType":5126,
			"count":9723,
			"type":"VEC2"
		},
		{
			"bufferView":32,
			"componentType":5126,
			"count":9723,
			"type":"VEC2"
		},
		{
			"bufferView":33,
			"componentType":5126,
			"count":9723,
			"max":[
				-1.730435848236084,
				0.7442286014556885,
				0.26797547936439514
			],
			"min":[
				-2.5992822647094727,
				0.48081710934638977,
				-0.47496867179870605
			],
			"type":"VEC3"
		},
		{
			"bufferView":34,
			"componentType":5126,
			"count":9723,
			"type":"VEC3"
		},
		{
			"bufferView":35,
			"componentType":5126,
			"count":9723,
			"type":"VEC2"
		},
		{
			"bufferView":36,
			"componentType":5126,
			"count":9723,
			"type":"VEC2"
		},
		{
			"bufferView":37,
			"componentType":5126,
			"count":9723,
			"max":[
				2.009868621826172,
				0.7426641583442688,
				0.4629572331905365
			],
			"min":[
				1.404475450515747,
				0.49817603826522827,
				-0.3511866331100464
			],
			"type":"VEC3"
		},
		{
			"bufferView":38,
			"componentType":5126,
			"count":9723,
			"type":"VEC3"
		},
		{
			"bufferView":39,
			"componentType":5126,
			"count":9723,
			"type":"VEC2"
		},
		{
			"bufferView":40,
			"componentType":5126,
			"count":9723,
			"type":"VEC2"
		},
		{
			"bufferView":41,
			"componentType":5126,
			"count":9723,
			"max":[
				2.5747361183166504,
				0.7502239942550659,
				0.20838609337806702
			],
			"min":[
				1.7058897018432617,
				0.4868125021457672,
				-0.5345580577850342
			],
			"type":"VEC3"
		},
		{
			"bufferView":42,
			"componentType":5126,
			"count":9723,
			"type":"VEC3"
		},
		{
			"bufferView":43,
			"componentType":5126,
			"count":9723,
			"type":"VEC2"
		},
		{
			"bufferView":44,
			"componentType":5126,
			"count":9723,
			"type":"VEC2"
		},
		{
			"bufferView":45,
			"componentType":5126,
			"count":3654,
			"max":[
				-1.1525444984436035,
				-0.9038832187652588,
				2.175856828689575
			],
			"min":[
				-1.4839670658111572,
				-1.3416924476623535,
				1.774539589881897
			],
			"type":"VEC3"
		},
		{
			"bufferView":46,
			"componentType":5126,
			"count":3654,
			"type":"VEC3"
		},
		{
			"bufferView":47,
			"componentType":5126,
			"count":3654,
			"type":"VEC2"
		},
		{
			"bufferView":48,
			"componentType":5126,
			"count":3654,
			"type":"VEC2"
		},
		{
			"bufferView":49,
			"componentType":5123,
			"count":18690,
			"type":"SCALAR"
		},
		{
			"bufferView":50,
			"componentType":5126,
			"count":3654,
			"max":[
				-1.2291357517242432,
				-0.977829098701477,
				1.9678930044174194
			],
			"min":[
				-1.5610169172286987,
				-1.3417073488235474,
				1.7040106058120728
			],
			"type":"VEC3"
		},
		{
			"bufferView":51,
			"componentType":5126,
			"count":3654,
			"type":"VEC3"
		},
		{
			"bufferView":52,
			"componentType":5126,
			"count":3654,
			"type":"VEC2"
		},
		{
			"bufferView":53,
			"componentType":5126,
			"count":3654,
			"type":"VEC2"
		},
		{
			"bufferView":54,
			"componentType":5126,
			"count":3654,
			"max":[
				-1.038712501525879,
				-1.0554075241088867,
				2.1592342853546143
			],
			"min":[
				-1.2313876152038574,
				-1.341723084449768,
				1.9004515409469604
			],
			"type":"VEC3"
		},
		{
			"bufferView":55,
			"componentType":5126,
			"count":3654,
			"type":"VEC3"
		},
		{
			"bufferView":56,
			"componentType":5126,
			"count":3654,
			"type":"VEC2"
		},
		{
			"bufferView":57,
			"componentType":5126,
			"count":3654,
			"type":"VEC2"
		},
		{
			"bufferView":58,
			"componentType":5126,
			"count":3654,
			"max":[
				-1.2757840156555176,
				-1.053210735321045,
				2.253155469894409
			],
			"min":[
				-1.4854073524475098,
				-1.3417226076126099,
				2.025627851486206
			],
			"type":"VEC3"
		},
		{
			"bufferView":59,
			"componentType":5126,
			"count":3654,
			"type":"VEC3"
		},
		{
			"bufferView":60,
			"componentType":5126,
			"count":3654,
			"type":"VEC2"
		},
		{
			"bufferView":61,
			"componentType":5126,
			"count":3654,
			"type":"VEC2"
		},
		{
			"bufferView":62,
			"componentType":5126,
			"count":3654,
			"max":[
				-1.2183315753936768,
				-1.1643556356430054,
				2.2770917415618896
			],
			"min":[
				-1.3612501621246338,
				-1.2973793745040894,
				2.147416114807129
			],
			"type":"VEC3"
		},
		{
			"bufferView":63,
			"componentType":5126,
			"count":3654,
			"type":"VEC3"
		},
		{
			"bufferView":64,
			"componentType":5126,
			"count":3654,
			"type":"VEC2"
		},
		{
			"bufferView":65,
			"componentType":5126,
			"count":3654,
			"type":"VEC2"
		},
		{
			"bufferView":66,
			"componentType":5126,
			"count":2201,
			"max":[
				0.03451097011566162,
				0.6999821662902832,
				2.046663761138916
			],
			"min":[
				-1.687079906463623,
				-2.0690059661865234,
				-0.4427352249622345
			],
			"type":"VEC3"
		},
		{
			"bufferView":67,
			"componentType":5126,
			"count":2201,
			"type":"VEC3"
		},
		{
			"bufferView":68,
			"componentType":5126,
			"count":2201,
			"type":"VEC2"
		},
		{
			"bufferView":69,
			"componentType":5126,
			"count":2201,
			"type":"VEC2"
		},
		{
			"bufferView":70,
			"componentType":5123,
			"count":12330,
			"type":"SCALAR"
		},
		{
			"bufferView":71,
			"componentType":5126,
			"count":2201,
			"max":[
				2.5992138385772705,
				1.6966382265090942,
				0.5771502256393433
			],
			"min":[
				0.08672022819519043,
				-1.822468876838684,
				-2.233351945877075
			],
			"type":"VEC3"
		},
		{
			"bufferView":72,
			"componentType":5126,
			"count":2201,
			"type":"VEC3"
		},
		{
			"bufferView":73,
			"componentType":5126,
			"count":2201,
			"type":"VEC2"
		},
		{
			"bufferView":74,
			"componentType":5126,
			"count":2201,
			"type":"VEC2"
		},
		{
			"bufferView":75,
			"componentType":5126,
			"count":2044,
			"max":[
				-0.9560269117355347,
				0.5443829298019409,
				1.6023709774017334
			],
			"min":[
				-3.348538398742676,
				-1.916890263557434,
				-0.5941861867904663
			],
			"type":"VEC3"
		},
		{
			"bufferView":76,
			"componentType":5126,
			"count":2044,
			"type":"VEC3"
		},
		{
			"bufferView":77,
			"componentType":5126,
			"count":2044,
			"type":"VEC2"
		},
		{
			"bufferView":78,
			"componentType":5126,
			"count":2044,
			"type":"VEC2"
		},
		{
			"bufferView":79,
			"componentType":5123,
			"count":11508,
			"type":"SCALAR"
		},
		{
			"bufferView":80,
			"componentType":5126,
			"count":2044,
			"max":[
				-0.16467750072479248,
				2.207695484161377,
				1.724772334098816
			],
			"min":[
				-2.2569589614868164,
				-0.25357747077941895,
				-0.722515344619751
			],
			"type":"VEC3"
		},
		{
			"bufferView":81,
			"componentType":5126,
			"count":2044,
			"type":"VEC3"
		},
		{
			"bufferView":82,
			"componentType":5126,
			"count":2044,
			"type":"VEC2"
		},
		{
			"bufferView":83,
			"componentType":5126,
			"count":2044,
			"type":"VEC2"
		},
		{
			"bufferView":84,
			"componentType":5126,
			"count":2044,
			"max":[
				2.8366870880126953,
				0.5443829298019409,
				1.4942069053649902
			],
			"min":[
				0.7489480972290039,
				-1.9168905019760132,
				-1.1046087741851807
			],
			"type":"VEC3"
		},
		{
			"bufferView":85,
			"componentType":5126,
			"count":2044,
			"type":"VEC3"
		},
		{
			"bufferView":86,
			"componentType":5126,
			"count":2044,
			"type":"VEC2"
		},
		{
			"bufferView":87,
			"componentType":5126,
			"count":2044,
			"type":"VEC2"
		},
		{
			"bufferView":88,
			"componentType":5126,
			"count":2044,
			"max":[
				-2.1698412895202637,
				-0.013255000114440918,
				1.3100359439849854
			],
			"min":[
				-3.8037021160125732,
				-1.9352610111236572,
				-0.6010493040084839
			],
			"type":"VEC3"
		},
		{
			"bufferView":89,
			"componentType":5126,
			"count":2044,
			"type":"VEC3"
		},
		{
			"bufferView":90,
			"componentType":5126,
			"count":2044,
			"type":"VEC2"
		},
		{
			"bufferView":91,
			"componentType":5126,
			"count":2044,
			"type":"VEC2"
		},
		{
			"bufferView":92,
			"componentType":5126,
			"count":2044,
			"max":[
				-0.3758246898651123,
				0.8599651455879211,
				0.3378693759441376
			],
			"min":[
				-2.887521743774414,
				-1.6013081073760986,
				-1.7518293857574463
			],
			"type":"VEC3"
		},
		{
			"bufferView":93,
			"componentType":5126,
			"count":2044,
			"type":"VEC3"
		},
		{
			"bufferView":94,
			"componentType":5126,
			"count":2044,
			"type":"VEC2"
		},
		{
			"bufferView":95,
			"componentType":5126,
			"count":2044,
			"type":"VEC2"
		},
		{
			"bufferView":96,
			"componentType":5126,
			"count":2044,
			"max":[
				1.7259507179260254,
				1.8078407049179077,
				0.3200717866420746
			],
			"min":[
				-0.9411941766738892,
				-0.6534320116043091,
				-1.8558740615844727
			],
			"type":"VEC3"
		},
		{
			"bufferView":97,
			"componentType":5126,
			"count":2044,
			"type":"VEC3"
		},
		{
			"bufferView":98,
			"componentType":5126,
			"count":2044,
			"type":"VEC2"
		},
		{
			"bufferView":99,
			"componentType":5126,
			"count":2044,
			"type":"VEC2"
		},
		{
			"bufferView":100,
			"componentType":5126,
			"count":10206,
			"max":[
				-1.4939881563186646,
				0.8236100673675537,
				0.9951354265213013
			],
			"min":[
				-1.7733278274536133,
				0.5206649303436279,
				0.733945369720459
			],
			"type":"VEC3"
		},
		{
			"bufferView":101,
			"componentType":5126,
			"count":10206,
			"type":"VEC3"
		},
		{
			"bufferView":102,
			"componentType":5126,
			"count":10206,
			"type":"VEC2"
		},
		{
			"bufferView":103,
			"componentType":5126,
			"count":10206,
			"type":"VEC2"
		},
		{
			"bufferView":104,
			"componentType":5126,
			"count":10206,
			"type":"VEC2"
		},
		{
			"bufferView":105,
			"componentType":5123,
			"count":49158,
			"type":"SCALAR"
		},
		{
			"bufferView":106,
			"componentType":5126,
			"count":10206,
			"max":[
				-1.7759524583816528,
				0.7682716846466064,
				0.40159377455711365
			],
			"min":[
				-2.0552921295166016,
				0.46532654762268066,
				0.14040371775627136
			],
			"type":"VEC3"
		},
		{
			"bufferView":107,
			"componentType":5126,
			"count":10206,
			"type":"VEC3"
		},
		{
			"bufferView":108,
			"componentType":5126,
			"count":10206,
			"type":"VEC2"
		},
		{
			"bufferView":109,
			"componentType":5126,
			"count":10206,
			"type":"VEC2"
		},
		{
			"bufferView":110,
			"componentType":5126,
			"count":10206,
			"type":"VEC2"
		},
		{
			"bufferView":111,
			"componentType":5126,
			"count":17628,
			"max":[
				3.204172134399414,
				3.8306479454040527,
				2.4439005851745605
			],
			"min":[
				-4.732307434082031,
				-1.938313603401184,
				-2.868401527404785
			],
			"type":"VEC3"
		},
		{
			"bufferView":112,
			"componentType":5126,
			"count":17628,
			"type":"VEC3"
		},
		{
			"bufferView":113,
			"componentType":5126,
			"count":17628,
			"type":"VEC2"
		},
		{
			"bufferView":114,
			"componentType":5126,
			"count":17628,
			"type":"VEC2"
		},
		{
			"bufferView":115,
			"componentType":5126,
			"count":17628,
			"type":"VEC2"
		},
		{
			"bufferView":116,
			"componentType":5123,
			"count":53856,
			"type":"SCALAR"
		},
		{
			"bufferView":117,
			"componentType":5126,
			"count":600,
			"max":[
				2.7920308113098145,
				-0.5975787043571472,
				2.2163829803466797
			],
			"min":[
				-3.6128342151641846,
				-2.0756783485412598,
				-2.6280035972595215
			],
			"type":"VEC3"
		},
		{
			"bufferView":118,
			"componentType":5126,
			"count":600,
			"type":"VEC3"
		},
		{
			"bufferView":119,
			"componentType":5126,
			"count":600,
			"type":"VEC2"
		},
		{
			"bufferView":120,
			"componentType":5126,
			"count":600,
			"type":"VEC2"
		},
		{
			"bufferView":121,
			"componentType":5126,
			"count":600,
			"type":"VEC2"
		},
		{
			"bufferView":122,
			"componentType":5126,
			"count":600,
			"type":"VEC2"
		},
		{
			"bufferView":123,
			"componentType":5123,
			"count":2664,
			"type":"SCALAR"
		},
		{
			"bufferView":124,
			"componentType":5126,
			"count":65534,
			"max":[
				3.572434425354004,
				0.5818603038787842,
				2.231735944747925
			],
			"min":[
				-3.5812032222747803,
				-1.985705852508545,
				-2.3822224140167236
			],
			"type":"VEC3"
		},
		{
			"bufferView":125,
			"componentType":5126,
			"count":65534,
			"type":"VEC3"
		},
		{
			"bufferView":126,
			"componentType":5126,
			"count":65534,
			"type":"VEC2"
		},
		{
			"bufferView":127,
			"componentType":5126,
			"count":65534,
			"type":"VEC2"
		},
		{
			"bufferView":128,
			"componentType":5126,
			"count":65534,
			"type":"VEC2"
		},
		{
			"bufferView":129,
			"componentType":5123,
			"count":334794,
			"type":"SCALAR"
		},
		{
			"bufferView":130,
			"componentType":5126,
			"count":4025,
			"max":[
				-2.045208215713501,
				-0.7383498549461365,
				-0.8336533308029175
			],
			"min":[
				-3.633760929107666,
				-1.6778124570846558,
				-1.4495829343795776
			],
			"type":"VEC3"
		},
		{
			"bufferView":131,
			"componentType":5126,
			"count":4025,
			"type":"VEC3"
		},
		{
			"bufferView":132,
			"componentType":5126,
			"count":4025,
			"type":"VEC2"
		},
		{
			"bufferView":133,
			"componentType":5126,
			"count":4025,
			"type":"VEC2"
		},
		{
			"bufferView":134,
			"componentType":5126,
			"count":4025,
			"type":"VEC2"
		},
		{
			"bufferView":135,
			"componentType":5123,
			"count":20622,
			"type":"SCALAR"
		},
		{
			"bufferView":136,
			"componentType":5126,
			"count":3757,
			"max":[
				-2.130581855773926,
				0.9444897770881653,
				0.3103608787059784
			],
			"min":[
				-2.558627128601074,
				0.485348105430603,
				-0.1069982647895813
			],
			"type":"VEC3"
		},
		{
			"bufferView":137,
			"componentType":5126,
			"count":3757,
			"type":"VEC3"
		},
		{
			"bufferView":138,
			"componentType":5126,
			"count":3757,
			"type":"VEC2"
		},
		{
			"bufferView":139,
			"componentType":5126,
			"count":3757,
			"type":"VEC2"
		},
		{
			"bufferView":140,
			"componentType":5123,
			"count":19500,
			"type":"SCALAR"
		},
		{
			"bufferView":141,
			"componentType":5126,
			"count":5868,
			"max":[
				-1.999813437461853,
				0.7190778255462646,
				0.38875243067741394
			],
			"min":[
				-2.5639846324920654,
				0.5101718306541443,
				-0.0840589702129364
			],
			"type":"VEC3"
		},
		{
			"bufferView":142,
			"componentType":5126,
			"count":5868,
			"type":"VEC3"
		},
		{
			"bufferView":143,
			"componentType":5126,
			"count":5868,
			"type":"VEC2"
		},
		{
			"bufferView":144,
			"componentType":5126,
			"count":5868,
			"type":"VEC2"
		},
		{
			"bufferView":145,
			"componentType":5123,
			"count":30156,
			"type":"SCALAR"
		},
		{
			"bufferView":146,
			"componentType":5126,
			"count":5868,
			"max":[
				-1.3568854331970215,
				-1.1215929985046387,
				2.1835851669311523
			],
			"min":[
				-1.9210567474365234,
				-1.3304990530014038,
				1.7107740640640259
			],
			"type":"VEC3"
		},
		{
			"bufferView":147,
			"componentType":5126,
			"count":5868,
			"type":"VEC3"
		},
		{
			"bufferView":148,
			"componentType":5126,
			"count":5868,
			"type":"VEC2"
		},
		{
			"bufferView":149,
			"componentType":5126,
			"count":5868,
			"type":"VEC2"
		},
		{
			"bufferView":150,
			"componentType":5126,
			"count":3757,
			"max":[
				-1.4435166120529175,
				-0.8548054099082947,
				1.9691027402877808
			],
			"min":[
				-1.8715620040893555,
				-1.313947081565857,
				1.551743745803833
			],
			"type":"VEC3"
		},
		{
			"bufferView":151,
			"componentType":5126,
			"count":3757,
			"type":"VEC3"
		},
		{
			"bufferView":152,
			"componentType":5126,
			"count":3757,
			"type":"VEC2"
		},
		{
			"bufferView":153,
			"componentType":5126,
			"count":3757,
			"type":"VEC2"
		},
		{
			"bufferView":154,
			"componentType":5126,
			"count":3693,
			"max":[
				2.1858887672424316,
				0.49266839027404785,
				1.9926344156265259
			],
			"min":[
				0.637133002281189,
				-2.6081981658935547,
				0.5383259057998657
			],
			"type":"VEC3"
		},
		{
			"bufferView":155,
			"componentType":5126,
			"count":3693,
			"type":"VEC3"
		},
		{
			"bufferView":156,
			"componentType":5126,
			"count":3693,
			"type":"VEC2"
		},
		{
			"bufferView":157,
			"componentType":5126,
			"count":3693,
			"type":"VEC2"
		},
		{
			"bufferView":158,
			"componentType":5126,
			"count":3693,
			"type":"VEC2"
		},
		{
			"bufferView":159,
			"componentType":5123,
			"count":13470,
			"type":"SCALAR"
		},
		{
			"bufferView":160,
			"componentType":5126,
			"count":3691,
			"max":[
				1.519830346107483,
				3.8909878730773926,
				-0.6263612508773804
			],
			"min":[
				-0.11708122491836548,
				1.4836803674697876,
				-1.8434239625930786
			],
			"type":"VEC3"
		},
		{
			"bufferView":161,
			"componentType":5126,
			"count":3691,
			"type":"VEC3"
		},
		{
			"bufferView":162,
			"componentType":5126,
			"count":3691,
			"type":"VEC2"
		},
		{
			"bufferView":163,
			"componentType":5126,
			"count":3691,
			"type":"VEC2"
		},
		{
			"bufferView":164,
			"componentType":5126,
			"count":3691,
			"type":"VEC2"
		},
		{
			"bufferView":165,
			"componentType":5123,
			"count":13470,
			"type":"SCALAR"
		},
		{
			"bufferView":166,
			"componentType":5126,
			"count":3691,
			"max":[
				-0.07073426246643066,
				1.9355717897415161,
				0.6444369554519653
			],
			"min":[
				-1.7328274250030518,
				-0.8210963010787964,
				-1.2733274698257446
			],
			"type":"VEC3"
		},
		{
			"bufferView":167,
			"componentType":5126,
			"count":3691,
			"type":"VEC3"
		},
		{
			"bufferView":168,
			"componentType":5126,
			"count":3691,
			"type":"VEC2"
		},
		{
			"bufferView":169,
			"componentType":5126,
			"count":3691,
			"type":"VEC2"
		},
		{
			"bufferView":170,
			"componentType":5126,
			"count":3691,
			"type":"VEC2"
		},
		{
			"bufferView":171,
			"componentType":5123,
			"count":13470,
			"type":"SCALAR"
		},
		{
			"bufferView":172,
			"componentType":5126,
			"count":2623,
			"max":[
				5.101083278656006,
				-0.6060139536857605,
				3.287414073944092
			],
			"min":[
				-5.316643238067627,
				-2.3528332710266113,
				-3.3027493953704834
			],
			"type":"VEC3"
		},
		{
			"bufferView":173,
			"componentType":5126,
			"count":2623,
			"type":"VEC3"
		},
		{
			"bufferView":174,
			"componentType":5126,
			"count":2623,
			"type":"VEC2"
		},
		{
			"bufferView":175,
			"componentType":5126,
			"count":2623,
			"type":"VEC2"
		},
		{
			"bufferView":176,
			"componentType":5126,
			"count":2623,
			"type":"VEC2"
		},
		{
			"bufferView":177,
			"componentType":5123,
			"count":15120,
			"type":"SCALAR"
		}
	],
	"bufferViews":[
		{
			"buffer":0,
			"byteLength":22284,
			"byteOffset":0,
			"target":34962
		},
		{
			"buffer":0,
			"byteLength":22284,
			"byteOffset":22284,
			"target":34962
		},
		{
			"buffer":0,
			"byteLength":14856,
			"byteOffset":44568,
			"target":34962
		},
		{
			"buffer":0,
			"byteLength":14856,
			"byteOffset":59424,
			"target":34962
		},
		{
			"buffer":0,
			"byteLength":14856,
			"byteOffset":74280,
			"target":34962
		},
		{
			"buffer":0,
			"byteLength":12900,
			"byteOffset":89136,
			"target":34963
		},
		{
			"buffer":0,
			"byteLength":128496,
			"byteOffset":102036,
			"target":34962
		},
		{
			"buffer":0,
			"byteLength":128496,
			"byteOffset":230532,
			"target":34962
		},
		{
			"buffer":0,
			"byteLength":85664,
			"byteOffset":359028,
			"target":34962
		},
		{
			"buffer":0,
			"byteLength":85664,
			"byteOffset":444692,
			"target":34962
		},
		{
			"buffer":0,
			"byteLength":85664,
			"byteOffset":530356,
			"target":34962
		},
		{
			"buffer":0,
			"byteLength":58176,
			"byteOffset":616020,
			"target":34963
		},
		{
			"buffer":0,
			"byteLength":7692,
			"byteOffset":674196,
			"target":34962
		},
		{
			"buffer":0,
			"byteLength":7692,
			"byteOffset":681888,
			"target":34962
		},
		{
			"buffer":0,
			"byteLength":5128,
			"byteOffset":689580,
			"target":34962
		},
		{
			"buffer":0,
			"byteLength":5128,
			"byteOffset":694708,
			"target":34962
		},
		{
			"buffer":0,
			"byteLength":5128,
			"byteOffset":699836,
			"target":34962
		},
		{
			"buffer":0,
			"byteLength":3714,
			"byteOffset":704964,
			"target":34963
		},
		{
			"buffer":0,
			"byteLength":293760,
			"byteOffset":708680,
			"target":34962
		},
		{
			"buffer":0,
			"byteLength":293760,
			"byteOffset":1002440,
			"target":34962
		},
		{
			"buffer":0,
			"byteLength":195840,
			"byteOffset":1296200,
			"target":34962
		},
		{
			"buffer":0,
			"byteLength":195840,
			"byteOffset":1492040,
			"target":34962
		},
		{
			"buffer":0,
			"byteLength":195840,
			"byteOffset":1687880,
			"target":34962
		},
		{
			"buffer":0,
			"byteLength":266820,
			"byteOffset":1883720,
			"target":34963
		},
		{
			"buffer":0,
			"byteLength":116676,
			"byteOffset":2150540,
			"target":34962
		},
		{
			"buffer":0,
			"byteLength":116676,
			"byteOffset":2267216,
			"target":34962
		},
		{
			"buffer":0,
			"byteLength":77784,
			"byteOffset":2383892,
			"target":34962
		},
		{
			"buffer":0,
			"byteLength":77784,
			"byteOffset":2461676,
			"target":34962
		},
		{
			"buffer":0,
			"byteLength":108822,
			"byteOffset":2539460,
			"target":34963
		},
		{
			"buffer":0,
			"byteLength":116676,
			"byteOffset":2648284,
			"target":34962
		},
		{
			"buffer":0,
			"byteLength":116676,
			"byteOffset":2764960,
			"target":34962
		},
		{
			"buffer":0,
			"byteLength":77784,
			"byteOffset":2881636,
			"target":34962
		},
		{
			"buffer":0,
			"byteLength":77784,
			"byteOffset":2959420,
			"target":34962
		},
		{
			"buffer":0,
			"byteLength":116676,
			"byteOffset":3037204,
			"target":34962
		},
		{
			"buffer":0,
			"byteLength":116676,
			"byteOffset":3153880,
			"target":34962
		},
		{
			"buffer":0,
			"byteLength":77784,
			"byteOffset":3270556,
			"target":34962
		},
		{
			"buffer":0,
			"byteLength":77784,
			"byteOffset":3348340,
			"target":34962
		},
		{
			"buffer":0,
			"byteLength":116676,
			"byteOffset":3426124,
			"target":34962
		},
		{
			"buffer":0,
			"byteLength":116676,
			"byteOffset":3542800,
			"target":34962
		},
		{
			"buffer":0,
			"byteLength":77784,
			"byteOffset":3659476,
			"target":34962
		},
		{
			"buffer":0,
			"byteLength":77784,
			"byteOffset":3737260,
			"target":34962
		},
		{
			"buffer":0,
			"byteLength":116676,
			"byteOffset":3815044,
			"target":34962
		},
		{
			"buffer":0,
			"byteLength":116676,
			"byteOffset":3931720,
			"target":34962
		},
		{
			"buffer":0,
			"byteLength":77784,
			"byteOffset":4048396,
			"target":34962
		},
		{
			"buffer":0,
			"byteLength":77784,
			"byteOffset":4126180,
			"target":34962
		},
		{
			"buffer":0,
			"byteLength":43848,
			"byteOffset":4203964,
			"target":34962
		},
		{
			"buffer":0,
			"byteLength":43848,
			"byteOffset":4247812,
			"target":34962
		},
		{
			"buffer":0,
			"byteLength":29232,
			"byteOffset":4291660,
			"target":34962
		},
		{
			"buffer":0,
			"byteLength":29232,
			"byteOffset":4320892,
			"target":34962
		},
		{
			"buffer":0,
			"byteLength":37380,
			"byteOffset":4350124,
			"target":34963
		},
		{
			"buffer":0,
			"byteLength":43848,
			"byteOffset":4387504,
			"target":34962
		},
		{
			"buffer":0,
			"byteLength":43848,
			"byteOffset":4431352,
			"target":34962
		},
		{
			"buffer":0,
			"byteLength":29232,
			"byteOffset":4475200,
			"target":34962
		},
		{
			"buffer":0,
			"byteLength":29232,
			"byteOffset":4504432,
			"target":34962
		},
		{
			"buffer":0,
			"byteLength":43848,
			"byteOffset":4533664,
			"target":34962
		},
		{
			"buffer":0,
			"byteLength":43848,
			"byteOffset":4577512,
			"target":34962
		},
		{
			"buffer":0,
			"byteLength":29232,
			"byteOffset":4621360,
			"target":34962
		},
		{
			"buffer":0,
			"byteLength":29232,
			"byteOffset":4650592,
			"target":34962
		},
		{
			"buffer":0,
			"byteLength":43848,
			"byteOffset":4679824,
			"target":34962
		},
		{
			"buffer":0,
			"byteLength":43848,
			"byteOffset":4723672,
			"target":34962
		},
		{
			"buffer":0,
			"byteLength":29232,
			"byteOffset":4767520,
			"target":34962
		},
		{
			"buffer":0,
			"byteLength":29232,
			"byteOffset":4796752,
			"target":34962
		},
		{
			"buffer":0,
			"byteLength":43848,
			"byteOffset":4825984,
			"target":34962
		},
		{
			"buffer":0,
			"byteLength":43848,
			"byteOffset":4869832,
			"target":34962
		},
		{
			"buffer":0,
			"byteLength":29232,
			"byteOffset":4913680,
			"target":34962
		},
		{
			"buffer":0,
			"byteLength":29232,
			"byteOffset":4942912,
			"target":34962
		},
		{
			"buffer":0,
			"byteLength":26412,
			"byteOffset":4972144,
			"target":34962
		},
		{
			"buffer":0,
			"byteLength":26412,
			"byteOffset":4998556,
			"target":34962
		},
		{
			"buffer":0,
			"byteLength":17608,
			"byteOffset":5024968,
			"target":34962
		},
		{
			"buffer":0,
			"byteLength":17608,
			"byteOffset":5042576,
			"target":34962
		},
		{
			"buffer":0,
			"byteLength":24660,
			"byteOffset":5060184,
			"target":34963
		},
		{
			"buffer":0,
			"byteLength":26412,
			"byteOffset":5084844,
			"target":34962
		},
		{
			"buffer":0,
			"byteLength":26412,
			"byteOffset":5111256,
			"target":34962
		},
		{
			"buffer":0,
			"byteLength":17608,
			"byteOffset":5137668,
			"target":34962
		},
		{
			"buffer":0,
			"byteLength":17608,
			"byteOffset":5155276,
			"target":34962
		},
		{
			"buffer":0,
			"byteLength":24528,
			"byteOffset":5172884,
			"target":34962
		},
		{
			"buffer":0,
			"byteLength":24528,
			"byteOffset":5197412,
			"target":34962
		},
		{
			"buffer":0,
			"byteLength":16352,
			"byteOffset":5221940,
			"target":34962
		},
		{
			"buffer":0,
			"byteLength":16352,
			"byteOffset":5238292,
			"target":34962
		},
		{
			"buffer":0,
			"byteLength":23016,
			"byteOffset":5254644,
			"target":34963
		},
		{
			"buffer":0,
			"byteLength":24528,
			"byteOffset":5277660,
			"target":34962
		},
		{
			"buffer":0,
			"byteLength":24528,
			"byteOffset":5302188,
			"target":34962
		},
		{
			"buffer":0,
			"byteLength":16352,
			"byteOffset":5326716,
			"target":34962
		},
		{
			"buffer":0,
			"byteLength":16352,
			"byteOffset":5343068,
			"target":34962
		},
		{
			"buffer":0,
			"byteLength":24528,
			"byteOffset":5359420,
			"target":34962
		},
		{
			"buffer":0,
			"byteLength":24528,
			"byteOffset":5383948,
			"target":34962
		},
		{
			"buffer":0,
			"byteLength":16352,
			"byteOffset":5408476,
			"target":34962
		},
		{
			"buffer":0,
			"byteLength":16352,
			"byteOffset":5424828,
			"target":34962
		},
		{
			"buffer":0,
			"byteLength":24528,
			"byteOffset":5441180,
			"target":34962
		},
		{
			"buffer":0,
			"byteLength":24528,
			"byteOffset":5465708,
			"target":34962
		},
		{
			"buffer":0,
			"byteLength":16352,
			"byteOffset":5490236,
			"target":34962
		},
		{
			"buffer":0,
			"byteLength":16352,
			"byteOffset":5506588,
			"target":34962
		},
		{
			"buffer":0,
			"byteLength":24528,
			"byteOffset":5522940,
			"target":34962
		},
		{
			"buffer":0,
			"byteLength":24528,
			"byteOffset":5547468,
			"target":34962
		},
		{
			"buffer":0,
			"byteLength":16352,
			"byteOffset":5571996,
			"target":34962
		},
		{
			"buffer":0,
			"byteLength":16352,
			"byteOffset":5588348,
			"target":34962
		},
		{
			"buffer":0,
			"byteLength":24528,
			"byteOffset":5604700,
			"target":34962
		},
		{
			"buffer":0,
			"byteLength":24528,
			"byteOffset":5629228,
			"target":34962
		},
		{
			"buffer":0,
			"byteLength":16352,
			"byteOffset":5653756,
			"target":34962
		},
		{
			"buffer":0,
			"byteLength":16352,
			"byteOffset":5670108,
			"target":34962
		},
		{
			"buffer":0,
			"byteLength":122472,
			"byteOffset":5686460,
			"target":34962
		},
		{
			"buffer":0,
			"byteLength":122472,
			"byteOffset":5808932,
			"target":34962
		},
		{
			"buffer":0,
			"byteLength":81648,
			"byteOffset":5931404,
			"target":34962
		},
		{
			"buffer":0,
			"byteLength":81648,
			"byteOffset":6013052,
			"target":34962
		},
		{
			"buffer":0,
			"byteLength":81648,
			"byteOffset":6094700,
			"target":34962
		},
		{
			"buffer":0,
			"byteLength":98316,
			"byteOffset":6176348,
			"target":34963
		},
		{
			"buffer":0,
			"byteLength":122472,
			"byteOffset":6274664,
			"target":34962
		},
		{
			"buffer":0,
			"byteLength":122472,
			"byteOffset":6397136,
			"target":34962
		},
		{
			"buffer":0,
			"byteLength":81648,
			"byteOffset":6519608,
			"target":34962
		},
		{
			"buffer":0,
			"byteLength":81648,
			"byteOffset":6601256,
			"target":34962
		},
		{
			"buffer":0,
			"byteLength":81648,
			"byteOffset":6682904,
			"target":34962
		},
		{
			"buffer":0,
			"byteLength":211536,
			"byteOffset":6764552,
			"target":34962
		},
		{
			"buffer":0,
			"byteLength":211536,
			"byteOffset":6976088,
			"target":34962
		},
		{
			"buffer":0,
			"byteLength":141024,
			"byteOffset":7187624,
			"target":34962
		},
		{
			"buffer":0,
			"byteLength":141024,
			"byteOffset":7328648,
			"target":34962
		},
		{
			"buffer":0,
			"byteLength":141024,
			"byteOffset":7469672,
			"target":34962
		},
		{
			"buffer":0,
			"byteLength":107712,
			"byteOffset":7610696,
			"target":34963
		},
		{
			"buffer":0,
			"byteLength":7200,
			"byteOffset":7718408,
			"target":34962
		},
		{
			"buffer":0,
			"byteLength":7200,
			"byteOffset":7725608,
			"target":34962
		},
		{
			"buffer":0,
			"byteLength":4800,
			"byteOffset":7732808,
			"target":34962
		},
		{
			"buffer":0,
			"byteLength":4800,
			"byteOffset":7737608,
			"target":34962
		},
		{
			"buffer":0,
			"byteLength":4800,
			"byteOffset":7742408,
			"target":34962
		},
		{
			"buffer":0,
			"byteLength":4800,
			"byteOffset":7747208,
			"target":34962
		},
		{
			"buffer":0,
			"byteLength":5328,
			"byteOffset":7752008,
			"target":34963
		},
		{
			"buffer":0,
			"byteLength":786408,
			"byteOffset":7757336,
			"target":34962
		},
		{
			"buffer":0,
			"byteLength":786408,
			"byteOffset":8543744,
			"target":34962
		},
		{
			"buffer":0,
			"byteLength":524272,
			"byteOffset":9330152,
			"target":34962
		},
		{
			"buffer":0,
			"byteLength":524272,
			"byteOffset":9854424,
			"target":34962
		},
		{
			"buffer":0,
			"byteLength":524272,
			"byteOffset":10378696,
			"target":34962
		},
		{
			"buffer":0,
			"byteLength":669588,
			"byteOffset":10902968,
			"target":34963
		},
		{
			"buffer":0,
			"byteLength":48300,
			"byteOffset":11572556,
			"target":34962
		},
		{
			"buffer":0,
			"byteLength":48300,
			"byteOffset":11620856,
			"target":34962
		},
		{
			"buffer":0,
			"byteLength":32200,
			"byteOffset":11669156,
			"target":34962
		},
		{
			"buffer":0,
			"byteLength":32200,
			"byteOffset":11701356,
			"target":34962
		},
		{
			"buffer":0,
			"byteLength":32200,
			"byteOffset":11733556,
			"target":34962
		},
		{
			"buffer":0,
			"byteLength":41244,
			"byteOffset":11765756,
			"target":34963
		},
		{
			"buffer":0,
			"byteLength":45084,
			"byteOffset":11807000,
			"target":34962
		},
		{
			"buffer":0,
			"byteLength":45084,
			"byteOffset":11852084,
			"target":34962
		},
		{
			"buffer":0,
			"byteLength":30056,
			"byteOffset":11897168,
			"target":34962
		},
		{
			"buffer":0,
			"byteLength":30056,
			"byteOffset":11927224,
			"target":34962
		},
		{
			"buffer":0,
			"byteLength":39000,
			"byteOffset":11957280,
			"target":34963
		},
		{
			"buffer":0,
			"byteLength":70416,
			"byteOffset":11996280,
			"target":34962
		},
		{
			"buffer":0,
			"byteLength":70416,
			"byteOffset":12066696,
			"target":34962
		},
		{
			"buffer":0,
			"byteLength":46944,
			"byteOffset":12137112,
			"target":34962
		},
		{
			"buffer":0,
			"byteLength":46944,
			"byteOffset":12184056,
			"target":34962
		},
		{
			"buffer":0,
			"byteLength":60312,
			"byteOffset":12231000,
			"target":34963
		},
		{
			"buffer":0,
			"byteLength":70416,
			"byteOffset":12291312,
			"target":34962
		},
		{
			"buffer":0,
			"byteLength":70416,
			"byteOffset":12361728,
			"target":34962
		},
		{
			"buffer":0,
			"byteLength":46944,
			"byteOffset":12432144,
			"target":34962
		},
		{
			"buffer":0,
			"byteLength":46944,
			"byteOffset":12479088,
			"target":34962
		},
		{
			"buffer":0,
			"byteLength":45084,
			"byteOffset":12526032,
			"target":34962
		},
		{
			"buffer":0,
			"byteLength":45084,
			"byteOffset":12571116,
			"target":34962
		},
		{
			"buffer":0,
			"byteLength":30056,
			"byteOffset":12616200,
			"target":34962
		},
		{
			"buffer":0,
			"byteLength":30056,
			"byteOffset":12646256,
			"target":34962
		},
		{
			"buffer":0,
			"byteLength":44316,
			"byteOffset":12676312,
			"target":34962
		},
		{
			"buffer":0,
			"byteLength":44316,
			"byteOffset":12720628,
			"target":34962
		},
		{
			"buffer":0,
			"byteLength":29544,
			"byteOffset":12764944,
			"target":34962
		},
		{
			"buffer":0,
			"byteLength":29544,
			"byteOffset":12794488,
			"target":34962
		},
		{
			"buffer":0,
			"byteLength":29544,
			"byteOffset":12824032,
			"target":34962
		},
		{
			"buffer":0,
			"byteLength":26940,
			"byteOffset":12853576,
			"target":34963
		},
		{
			"buffer":0,
			"byteLength":44292,
			"byteOffset":12880516,
			"target":34962
		},
		{
			"buffer":0,
			"byteLength":44292,
			"byteOffset":12924808,
			"target":34962
		},
		{
			"buffer":0,
			"byteLength":29528,
			"byteOffset":12969100,
			"target":34962
		},
		{
			"buffer":0,
			"byteLength":29528,
			"byteOffset":12998628,
			"target":34962
		},
		{
			"buffer":0,
			"byteLength":29528,
			"byteOffset":13028156,
			"target":34962
		},
		{
			"buffer":0,
			"byteLength":26940,
			"byteOffset":13057684,
			"target":34963
		},
		{
			"buffer":0,
			"byteLength":44292,
			"byteOffset":13084624,
			"target":34962
		},
		{
			"buffer":0,
			"byteLength":44292,
			"byteOffset":13128916,
			"target":34962
		},
		{
			"buffer":0,
			"byteLength":29528,
			"byteOffset":13173208,
			"target":34962
		},
		{
			"buffer":0,
			"byteLength":29528,
			"byteOffset":13202736,
			"target":34962
		},
		{
			"buffer":0,
			"byteLength":29528,
			"byteOffset":13232264,
			"target":34962
		},
		{
			"buffer":0,
			"byteLength":26940,
			"byteOffset":13261792,
			"target":34963
		},
		{
			"buffer":0,
			"byteLength":31476,
			"byteOffset":13288732,
			"target":34962
		},
		{
			"buffer":0,
			"byteLength":31476,
			"byteOffset":13320208,
			"target":34962
		},
		{
			"buffer":0,
			"byteLength":20984,
			"byteOffset":13351684,
			"target":34962
		},
		{
			"buffer":0,
			"byteLength":20984,
			"byteOffset":13372668,
			"target":34962
		},
		{
			"buffer":0,
			"byteLength":20984,
			"byteOffset":13393652,
			"target":34962
		},
		{
			"buffer":0,
			"byteLength":30240,
			"byteOffset":13414636,
			"target":34963
		}
	],
	"samplers":[
		{
			"magFilter":9729,
			"minFilter":9987
		}
	],
	"buffers":[
		{
			"byteLength":13444876,
			"uri":"coralReef.bin"
		}
	]
}
