{
	"asset":{
		"generator":"Khronos glTF Blender I/O v5.0.21",
		"version":"2.0"
	},
	"scene":0,
	"scenes":[
		{
			"name":"Scene",
			"nodes":[
				0
			]
		}
	],
	"nodes":[
		{
			"mesh":0,
			"name":"Coral_Brain"
		}
	],
	"materials":[
		{
			"name":"Coral_Brain_Coral_Brain",
			"normalTexture":{
				"index":0
			},
			"occlusionTexture":{
				"index":1
			},
			"pbrMetallicRoughness":{
				"baseColorTexture":{
					"index":2
				},
				"metallicRoughnessTexture":{
					"index":1
				}
			}
		}
	],
	"meshes":[
		{
			"name":"Coral_Brain",
			"primitives":[
				{
					"attributes":{
						"POSITION":0,
						"NORMAL":1,
						"TEXCOORD_0":2,
						"TANGENT":3
					},
					"indices":4,
					"material":0
				}
			]
		}
	],
	"textures":[
		{
			"sampler":0,
			"source":0
		},
		{
			"sampler":0,
			"source":1
		},
		{
			"sampler":0,
			"source":2
		}
	],
	"images":[
		{
			"mimeType":"image/png",
			"name":"Coral_Brain_Coral_Brain_Normal",
			"uri":"Coral_Brain_Coral_Brain_Normal.png"
		},
		{
			"mimeType":"image/png",
			"name":"Coral_Brain_Coral_Brain_ORM",
			"uri":"Coral_Brain_Coral_Brain_ORM.png"
		},
		{
			"mimeType":"image/png",
			"name":"Coral_Brain_Coral_Brain_BaseColor",
			"uri":"Coral_Brain_Coral_Brain_BaseColor.png"
		}
	],
	"accessors":[
		{
			"bufferView":0,
			"componentType":5126,
			"count":7234,
			"max":[
				0.4212634861469269,
				0.36807191371917725,
				0.3846375048160553
			],
			"min":[
				-0.4147973954677582,
				-0.07238263636827469,
				-0.38666048645973206
			],
			"type":"VEC3"
		},
		{
			"bufferView":1,
			"componentType":5126,
			"count":7234,
			"type":"VEC3"
		},
		{
			"bufferView":2,
			"componentType":5126,
			"count":7234,
			"type":"VEC2"
		},
		{
			"bufferView":3,
			"componentType":5126,
			"count":7234,
			"type":"VEC4"
		},
		{
			"bufferView":4,
			"componentType":5123,
			"count":37500,
			"type":"SCALAR"
		}
	],
	"bufferViews":[
		{
			"buffer":0,
			"byteLength":86808,
			"byteOffset":0,
			"target":34962
		},
		{
			"buffer":0,
			"byteLength":86808,
			"byteOffset":86808,
			"target":34962
		},
		{
			"buffer":0,
			"byteLength":57872,
			"byteOffset":173616,
			"target":34962
		},
		{
			"buffer":0,
			"byteLength":115744,
			"byteOffset":231488,
			"target":34962
		},
		{
			"buffer":0,
			"byteLength":75000,
			"byteOffset":347232,
			"target":34963
		}
	],
	"samplers":[
		{
			"magFilter":9729,
			"minFilter":9987
		}
	],
	"buffers":[
		{
			"byteLength":422232,
			"uri":"Coral_Brain.bin"
		}
	]
}
