{
	"asset":{
		"generator":"Khronos glTF Blender I/O v5.0.21",
		"version":"2.0"
	},
	"scene":0,
	"scenes":[
		{
			"name":"Scene",
			"nodes":[
				0
			]
		}
	],
	"nodes":[
		{
			"mesh":0,
			"name":"GiantClam"
		}
	],
	"materials":[
		{
			"name":"GiantClam_GiantClam",
			"normalTexture":{
				"index":0
			},
			"occlusionTexture":{
				"index":1
			},
			"pbrMetallicRoughness":{
				"baseColorTexture":{
					"index":2
				},
				"metallicRoughnessTexture":{
					"index":1
				}
			}
		}
	],
	"meshes":[
		{
			"name":"GiantClam",
			"primitives":[
				{
					"attributes":{
						"POSITION":0,
						"NORMAL":1,
						"TEXCOORD_0":2,
						"TANGENT":3
					},
					"indices":4,
					"material":0
				}
			]
		}
	],
	"textures":[
		{
			"sampler":0,
			"source":0
		},
		{
			"sampler":0,
			"source":1
		},
		{
			"sampler":0,
			"source":2
		}
	],
	"images":[
		{
			"mimeType":"image/png",
			"name":"GiantClam_GiantClam_Normal",
			"uri":"GiantClam_GiantClam_Normal.png"
		},
		{
			"mimeType":"image/png",
			"name":"GiantClam_GiantClam_ORM",
			"uri":"GiantClam_GiantClam_ORM.png"
		},
		{
			"mimeType":"image/png",
			"name":"GiantClam_GiantClam_BaseColor",
			"uri":"GiantClam_GiantClam_BaseColor.png"
		}
	],
	"accessors":[
		{
			"bufferView":0,
			"componentType":5126,
			"count":7396,
			"max":[
				0.1673165261745453,
				0.12810897827148438,
				0.08456458896398544
			],
			"min":[
				-0.14325584471225739,
				-0.028774939477443695,
				-0.0842609852552414
			],
			"type":"VEC3"
		},
		{
			"bufferView":1,
			"componentType":5126,
			"count":7396,
			"type":"VEC3"
		},
		{
			"bufferView":2,
			"componentType":5126,
			"count":7396,
			"type":"VEC2"
		},
		{
			"bufferView":3,
			"componentType":5126,
			"count":7396,
			"type":"VEC4"
		},
		{
			"bufferView":4,
			"componentType":5123,
			"count":26976,
			"type":"SCALAR"
		}
	],
	"bufferViews":[
		{
			"buffer":0,
			"byteLength":88752,
			"byteOffset":0,
			"target":34962
		},
		{
			"buffer":0,
			"byteLength":88752,
			"byteOffset":88752,
			"target":34962
		},
		{
			"buffer":0,
			"byteLength":59168,
			"byteOffset":177504,
			"target":34962
		},
		{
			"buffer":0,
			"byteLength":118336,
			"byteOffset":236672,
			"target":34962
		},
		{
			"buffer":0,
			"byteLength":53952,
			"byteOffset":355008,
			"target":34963
		}
	],
	"samplers":[
		{
			"magFilter":9729,
			"minFilter":9987
		}
	],
	"buffers":[
		{
			"byteLength":408960,
			"uri":"GiantClam.bin"
		}
	]
}
