{
	"asset":{
		"generator":"Khronos glTF Blender I/O v5.0.21",
		"version":"2.0"
	},
	"scene":0,
	"scenes":[
		{
			"name":"Scene",
			"nodes":[
				0
			]
		}
	],
	"nodes":[
		{
			"mesh":0,
			"name":"Shell_SpiderConch"
		}
	],
	"materials":[
		{
			"name":"Shell_SpiderConch_SpiderConch",
			"normalTexture":{
				"index":0
			},
			"occlusionTexture":{
				"index":1
			},
			"pbrMetallicRoughness":{
				"baseColorTexture":{
					"index":2
				},
				"metallicRoughnessTexture":{
					"index":1
				}
			}
		}
	],
	"meshes":[
		{
			"name":"Shell_SpiderConch",
			"primitives":[
				{
					"attributes":{
						"POSITION":0,
						"NORMAL":1,
						"TEXCOORD_0":2,
						"TANGENT":3
					},
					"indices":4,
					"material":0
				}
			]
		}
	],
	"textures":[
		{
			"sampler":0,
			"source":0
		},
		{
			"sampler":0,
			"source":1
		},
		{
			"sampler":0,
			"source":2
		}
	],
	"images":[
		{
			"mimeType":"image/png",
			"name":"Shell_SpiderConch_SpiderConch_Normal",
			"uri":"Shell_SpiderConch_SpiderConch_Normal.png"
		},
		{
			"mimeType":"image/png",
			"name":"Shell_SpiderConch_SpiderConch_ORM",
			"uri":"Shell_SpiderConch_SpiderConch_ORM.png"
		},
		{
			"mimeType":"image/png",
			"name":"Shell_SpiderConch_SpiderConch_BaseColor",
			"uri":"Shell_SpiderConch_SpiderConch_BaseColor.png"
		}
	],
	"accessors":[
		{
			"bufferView":0,
			"componentType":5126,
			"count":5129,
			"max":[
				0.17707882821559906,
				0.08141932636499405,
				0.05962468683719635
			],
			"min":[
				-0.16502630710601807,
				0,
				-0.2045421153306961
			],
			"type":"VEC3"
		},
		{
			"bufferView":1,
			"componentType":5126,
			"count":5129,
			"type":"VEC3"
		},
		{
			"bufferView":2,
			"componentType":5126,
			"count":5129,
			"type":"VEC2"
		},
		{
			"bufferView":3,
			"componentType":5126,
			"count":5129,
			"type":"VEC4"
		},
		{
			"bufferView":4,
			"componentType":5123,
			"count":15000,
			"type":"SCALAR"
		}
	],
	"bufferViews":[
		{
			"buffer":0,
			"byteLength":61548,
			"byteOffset":0,
			"target":34962
		},
		{
			"buffer":0,
			"byteLength":61548,
			"byteOffset":61548,
			"target":34962
		},
		{
			"buffer":0,
			"byteLength":41032,
			"byteOffset":123096,
			"target":34962
		},
		{
			"buffer":0,
			"byteLength":82064,
			"byteOffset":164128,
			"target":34962
		},
		{
			"buffer":0,
			"byteLength":30000,
			"byteOffset":246192,
			"target":34963
		}
	],
	"samplers":[
		{
			"magFilter":9729,
			"minFilter":9987
		}
	],
	"buffers":[
		{
			"byteLength":276192,
			"uri":"Shell_SpiderConch.bin"
		}
	]
}
