{
	"asset":{
		"generator":"Khronos glTF Blender I/O v5.0.21",
		"version":"2.0"
	},
	"scene":0,
	"scenes":[
		{
			"name":"Scene",
			"nodes":[
				0
			]
		}
	],
	"nodes":[
		{
			"mesh":0,
			"name":"BeachRock_A"
		}
	],
	"materials":[
		{
			"name":"BeachRock_A_BeachRockA",
			"normalTexture":{
				"index":0
			},
			"occlusionTexture":{
				"index":1
			},
			"pbrMetallicRoughness":{
				"baseColorTexture":{
					"index":2
				},
				"metallicRoughnessTexture":{
					"index":1
				}
			}
		}
	],
	"meshes":[
		{
			"name":"BeachRock_A",
			"primitives":[
				{
					"attributes":{
						"POSITION":0,
						"NORMAL":1,
						"TEXCOORD_0":2,
						"TANGENT":3
					},
					"indices":4,
					"material":0
				}
			]
		}
	],
	"textures":[
		{
			"sampler":0,
			"source":0
		},
		{
			"sampler":0,
			"source":1
		},
		{
			"sampler":0,
			"source":2
		}
	],
	"images":[
		{
			"mimeType":"image/png",
			"name":"BeachRock_A_BeachRockA_Normal",
			"uri":"BeachRock_A_BeachRockA_Normal.png"
		},
		{
			"mimeType":"image/png",
			"name":"BeachRock_A_BeachRockA_ORM",
			"uri":"BeachRock_A_BeachRockA_ORM.png"
		},
		{
			"mimeType":"image/png",
			"name":"BeachRock_A_BeachRockA_BaseColor",
			"uri":"BeachRock_A_BeachRockA_BaseColor.png"
		}
	],
	"accessors":[
		{
			"bufferView":0,
			"componentType":5126,
			"count":8857,
			"max":[
				3.1619908809661865,
				0.45512327551841736,
				1.4085949659347534
			],
			"min":[
				-3.1038875579833984,
				-0.5332225561141968,
				-1.348510980606079
			],
			"type":"VEC3"
		},
		{
			"bufferView":1,
			"componentType":5126,
			"count":8857,
			"type":"VEC3"
		},
		{
			"bufferView":2,
			"componentType":5126,
			"count":8857,
			"type":"VEC2"
		},
		{
			"bufferView":3,
			"componentType":5126,
			"count":8857,
			"type":"VEC4"
		},
		{
			"bufferView":4,
			"componentType":5123,
			"count":21174,
			"type":"SCALAR"
		}
	],
	"bufferViews":[
		{
			"buffer":0,
			"byteLength":106284,
			"byteOffset":0,
			"target":34962
		},
		{
			"buffer":0,
			"byteLength":106284,
			"byteOffset":106284,
			"target":34962
		},
		{
			"buffer":0,
			"byteLength":70856,
			"byteOffset":212568,
			"target":34962
		},
		{
			"buffer":0,
			"byteLength":141712,
			"byteOffset":283424,
			"target":34962
		},
		{
			"buffer":0,
			"byteLength":42348,
			"byteOffset":425136,
			"target":34963
		}
	],
	"samplers":[
		{
			"magFilter":9729,
			"minFilter":9987
		}
	],
	"buffers":[
		{
			"byteLength":467484,
			"uri":"BeachRock_A.bin"
		}
	]
}
