{
	"asset":{
		"generator":"Khronos glTF Blender I/O v5.0.21",
		"version":"2.0"
	},
	"scene":0,
	"scenes":[
		{
			"name":"Scene",
			"nodes":[
				0
			]
		}
	],
	"nodes":[
		{
			"mesh":0,
			"name":"Coral_Soft"
		}
	],
	"materials":[
		{
			"name":"Coral_Soft_Coral_Soft",
			"normalTexture":{
				"index":0
			},
			"occlusionTexture":{
				"index":1
			},
			"pbrMetallicRoughness":{
				"baseColorTexture":{
					"index":2
				},
				"metallicRoughnessTexture":{
					"index":1
				}
			}
		}
	],
	"meshes":[
		{
			"name":"Coral_Soft",
			"primitives":[
				{
					"attributes":{
						"POSITION":0,
						"NORMAL":1,
						"TEXCOORD_0":2,
						"TANGENT":3
					},
					"indices":4,
					"material":0
				}
			]
		}
	],
	"textures":[
		{
			"sampler":0,
			"source":0
		},
		{
			"sampler":0,
			"source":1
		},
		{
			"sampler":0,
			"source":2
		}
	],
	"images":[
		{
			"mimeType":"image/png",
			"name":"Coral_Soft_Coral_Soft_Normal",
			"uri":"Coral_Soft_Coral_Soft_Normal.png"
		},
		{
			"mimeType":"image/png",
			"name":"Coral_Soft_Coral_Soft_ORM",
			"uri":"Coral_Soft_Coral_Soft_ORM.png"
		},
		{
			"mimeType":"image/png",
			"name":"Coral_Soft_Coral_Soft_BaseColor",
			"uri":"Coral_Soft_Coral_Soft_BaseColor.png"
		}
	],
	"accessors":[
		{
			"bufferView":0,
			"componentType":5126,
			"count":4784,
			"max":[
				0.3496705889701843,
				0.33388805389404297,
				0.3351265788078308
			],
			"min":[
				-0.3488585650920868,
				-0.08299177885055542,
				-0.3333553373813629
			],
			"type":"VEC3"
		},
		{
			"bufferView":1,
			"componentType":5126,
			"count":4784,
			"type":"VEC3"
		},
		{
			"bufferView":2,
			"componentType":5126,
			"count":4784,
			"type":"VEC2"
		},
		{
			"bufferView":3,
			"componentType":5126,
			"count":4784,
			"type":"VEC4"
		},
		{
			"bufferView":4,
			"componentType":5123,
			"count":22500,
			"type":"SCALAR"
		}
	],
	"bufferViews":[
		{
			"buffer":0,
			"byteLength":57408,
			"byteOffset":0,
			"target":34962
		},
		{
			"buffer":0,
			"byteLength":57408,
			"byteOffset":57408,
			"target":34962
		},
		{
			"buffer":0,
			"byteLength":38272,
			"byteOffset":114816,
			"target":34962
		},
		{
			"buffer":0,
			"byteLength":76544,
			"byteOffset":153088,
			"target":34962
		},
		{
			"buffer":0,
			"byteLength":45000,
			"byteOffset":229632,
			"target":34963
		}
	],
	"samplers":[
		{
			"magFilter":9729,
			"minFilter":9987
		}
	],
	"buffers":[
		{
			"byteLength":274632,
			"uri":"Coral_Soft.bin"
		}
	]
}
