{
	"asset":{
		"generator":"Khronos glTF Blender I/O v4.4.56",
		"version":"2.0"
	},
	"extensionsUsed":[
		"KHR_materials_specular"
	],
	"scene":0,
	"scenes":[
		{
			"name":"Scene",
			"nodes":[
				0
			]
		}
	],
	"nodes":[
		{
			"mesh":0,
			"name":"tdbmcflda_LOD0_TIER2_000",
			"scale":[
				2,
				2,
				2
			]
		}
	],
	"materials":[
		{
			"doubleSided":true,
			"extensions":{
				"KHR_materials_specular":{
					"specularTexture":{
						"index":0
					}
				}
			},
			"name":"\u30de\u30c6\u30ea\u30a2\u30eb",
			"normalTexture":{
				"index":1
			},
			"pbrMetallicRoughness":{
				"baseColorTexture":{
					"index":2
				},
				"metallicFactor":0,
				"metallicRoughnessTexture":{
					"index":3
				}
			}
		}
	],
	"meshes":[
		{
			"name":"Aset_assembly_sharp_S_tdbmcflda_LOD2",
			"primitives":[
				{
					"attributes":{
						"POSITION":0,
						"NORMAL":1,
						"TEXCOORD_0":2
					},
					"indices":3,
					"material":0
				}
			]
		}
	],
	"textures":[
		{
			"sampler":0,
			"source":0
		},
		{
			"sampler":0,
			"source":1
		},
		{
			"sampler":0,
			"source":2
		},
		{
			"sampler":0,
			"source":3
		}
	],
	"images":[
		{
			"mimeType":"image/jpeg",
			"name":"Icelandic_Rocky_Ground_tdbmcflda_Mid_2K_Specular",
			"uri":"Icelandic_Rocky_Ground_tdbmcflda_Mid_2K_Specular.jpg"
		},
		{
			"mimeType":"image/jpeg",
			"name":"Icelandic_Rocky_Ground_tdbmcflda_Mid_2K_Bump",
			"uri":"Icelandic_Rocky_Ground_tdbmcflda_Mid_2K_Bump.jpg"
		},
		{
			"mimeType":"image/jpeg",
			"name":"Icelandic_Rocky_Ground_tdbmcflda_Mid_2K_BaseColor",
			"uri":"Icelandic_Rocky_Ground_tdbmcflda_Mid_2K_BaseColor.jpg"
		},
		{
			"mimeType":"image/png",
			"name":"Icelandic_Rocky_Ground_tdbmcflda_Mid_2K_Gloss",
			"uri":"Icelandic_Rocky_Ground_tdbmcflda_Mid_2K_Gloss.png"
		}
	],
	"accessors":[
		{
			"bufferView":0,
			"componentType":5126,
			"count":7482,
			"max":[
				2.2752685546875,
				0.3623550236225128,
				1.461333155632019
			],
			"min":[
				-2.104675769805908,
				-0.044363394379615784,
				-1.5828924179077148
			],
			"type":"VEC3"
		},
		{
			"bufferView":1,
			"componentType":5126,
			"count":7482,
			"type":"VEC3"
		},
		{
			"bufferView":2,
			"componentType":5126,
			"count":7482,
			"type":"VEC2"
		},
		{
			"bufferView":3,
			"componentType":5123,
			"count":39444,
			"type":"SCALAR"
		}
	],
	"bufferViews":[
		{
			"buffer":0,
			"byteLength":89784,
			"byteOffset":0,
			"target":34962
		},
		{
			"buffer":0,
			"byteLength":89784,
			"byteOffset":89784,
			"target":34962
		},
		{
			"buffer":0,
			"byteLength":59856,
			"byteOffset":179568,
			"target":34962
		},
		{
			"buffer":0,
			"byteLength":78888,
			"byteOffset":239424,
			"target":34963
		}
	],
	"samplers":[
		{
			"magFilter":9729,
			"minFilter":9987
		}
	],
	"buffers":[
		{
			"byteLength":318312,
			"uri":"ground.bin"
		}
	]
}
