{
	"asset":{
		"generator":"Khronos glTF Blender I/O v5.0.21",
		"version":"2.0"
	},
	"scene":0,
	"scenes":[
		{
			"name":"Scene",
			"nodes":[
				0
			]
		}
	],
	"nodes":[
		{
			"mesh":0,
			"name":"Fish_BlueGreenChromis_A"
		}
	],
	"materials":[
		{
			"alphaMode":"MASK",
			"name":"Fish_BlueGreenChromis_A_BlueGreenChromis",
			"normalTexture":{
				"index":0
			},
			"occlusionTexture":{
				"index":1
			},
			"pbrMetallicRoughness":{
				"baseColorTexture":{
					"index":2
				},
				"metallicRoughnessTexture":{
					"index":1
				}
			},
			"extras":{
				"vertexAnimation":"fish"
			}
		}
	],
	"meshes":[
		{
			"name":"Fish_BlueGreenChromis_A",
			"primitives":[
				{
					"attributes":{
						"POSITION":0,
						"NORMAL":1,
						"TEXCOORD_0":2,
						"TEXCOORD_1":3,
						"TEXCOORD_2":4,
						"TANGENT":5
					},
					"indices":6,
					"material":0
				}
			]
		}
	],
	"textures":[
		{
			"sampler":0,
			"source":0
		},
		{
			"sampler":0,
			"source":1
		},
		{
			"sampler":0,
			"source":2
		}
	],
	"images":[
		{
			"mimeType":"image/png",
			"name":"Fish_BlueGreenChromis_A_BlueGreenChromis_Normal",
			"uri":"Fish_BlueGreenChromis_A_BlueGreenChromis_Normal.png"
		},
		{
			"mimeType":"image/png",
			"name":"Fish_BlueGreenChromis_A_BlueGreenChromis_ORM",
			"uri":"Fish_BlueGreenChromis_A_BlueGreenChromis_ORM.png"
		},
		{
			"mimeType":"image/png",
			"name":"Fish_BlueGreenChromis_A_BlueGreenChromis_BaseColor",
			"uri":"Fish_BlueGreenChromis_A_BlueGreenChromis_BaseColor.png"
		}
	],
	"accessors":[
		{
			"bufferView":0,
			"componentType":5126,
			"count":195,
			"max":[
				0.03500000014901161,
				0.018675127997994423,
				0.012011261656880379
			],
			"min":[
				-0.0334782637655735,
				-0.01811191998422146,
				-0.012011261656880379
			],
			"type":"VEC3"
		},
		{
			"bufferView":1,
			"componentType":5126,
			"count":195,
			"type":"VEC3"
		},
		{
			"bufferView":2,
			"componentType":5126,
			"count":195,
			"type":"VEC2"
		},
		{
			"bufferView":3,
			"componentType":5126,
			"count":195,
			"type":"VEC2"
		},
		{
			"bufferView":4,
			"componentType":5126,
			"count":195,
			"type":"VEC2"
		},
		{
			"bufferView":5,
			"componentType":5126,
			"count":195,
			"type":"VEC4"
		},
		{
			"bufferView":6,
			"componentType":5123,
			"count":672,
			"type":"SCALAR"
		}
	],
	"bufferViews":[
		{
			"buffer":0,
			"byteLength":2340,
			"byteOffset":0,
			"target":34962
		},
		{
			"buffer":0,
			"byteLength":2340,
			"byteOffset":2340,
			"target":34962
		},
		{
			"buffer":0,
			"byteLength":1560,
			"byteOffset":4680,
			"target":34962
		},
		{
			"buffer":0,
			"byteLength":1560,
			"byteOffset":6240,
			"target":34962
		},
		{
			"buffer":0,
			"byteLength":1560,
			"byteOffset":7800,
			"target":34962
		},
		{
			"buffer":0,
			"byteLength":3120,
			"byteOffset":9360,
			"target":34962
		},
		{
			"buffer":0,
			"byteLength":1344,
			"byteOffset":12480,
			"target":34963
		}
	],
	"samplers":[
		{
			"magFilter":9729,
			"minFilter":9987
		}
	],
	"buffers":[
		{
			"byteLength":13824,
			"uri":"Fish_BlueGreenChromis_A.bin"
		}
	]
}
