{
	"asset":{
		"generator":"Khronos glTF Blender I/O v5.0.21",
		"version":"2.0"
	},
	"scene":0,
	"scenes":[
		{
			"name":"Scene",
			"nodes":[
				0
			]
		}
	],
	"nodes":[
		{
			"mesh":0,
			"name":"Driftwood_A"
		}
	],
	"materials":[
		{
			"name":"Driftwood_A_DriftAWood",
			"normalTexture":{
				"index":0
			},
			"occlusionTexture":{
				"index":1
			},
			"pbrMetallicRoughness":{
				"baseColorTexture":{
					"index":2
				},
				"metallicRoughnessTexture":{
					"index":1
				}
			}
		}
	],
	"meshes":[
		{
			"name":"Driftwood_A",
			"primitives":[
				{
					"attributes":{
						"POSITION":0,
						"NORMAL":1,
						"TEXCOORD_0":2
					},
					"indices":3,
					"material":0
				}
			]
		}
	],
	"textures":[
		{
			"sampler":0,
			"source":0
		},
		{
			"sampler":0,
			"source":1
		},
		{
			"sampler":0,
			"source":2
		}
	],
	"images":[
		{
			"mimeType":"image/png",
			"name":"Driftwood_A_DriftAWood_Normal",
			"uri":"Driftwood_A_DriftAWood_Normal.png"
		},
		{
			"mimeType":"image/png",
			"name":"Driftwood_A_DriftAWood_ORM",
			"uri":"Driftwood_A_DriftAWood_ORM.png"
		},
		{
			"mimeType":"image/png",
			"name":"Driftwood_A_DriftAWood_BaseColor",
			"uri":"Driftwood_A_DriftAWood_BaseColor.png"
		}
	],
	"accessors":[
		{
			"bufferView":0,
			"componentType":5126,
			"count":1033,
			"max":[
				0.43435975909233093,
				0.33930468559265137,
				1.154261589050293
			],
			"min":[
				-1.0949918031692505,
				0,
				-0.20864611864089966
			],
			"type":"VEC3"
		},
		{
			"bufferView":1,
			"componentType":5126,
			"count":1033,
			"type":"VEC3"
		},
		{
			"bufferView":2,
			"componentType":5126,
			"count":1033,
			"type":"VEC2"
		},
		{
			"bufferView":3,
			"componentType":5123,
			"count":5244,
			"type":"SCALAR"
		}
	],
	"bufferViews":[
		{
			"buffer":0,
			"byteLength":12396,
			"byteOffset":0,
			"target":34962
		},
		{
			"buffer":0,
			"byteLength":12396,
			"byteOffset":12396,
			"target":34962
		},
		{
			"buffer":0,
			"byteLength":8264,
			"byteOffset":24792,
			"target":34962
		},
		{
			"buffer":0,
			"byteLength":10488,
			"byteOffset":33056,
			"target":34963
		}
	],
	"samplers":[
		{
			"magFilter":9729,
			"minFilter":9987
		}
	],
	"buffers":[
		{
			"byteLength":43544,
			"uri":"Driftwood_A.bin"
		}
	]
}
