{
	"asset":{
		"generator":"Khronos glTF Blender I/O v5.0.21",
		"version":"2.0"
	},
	"scene":0,
	"scenes":[
		{
			"name":"Scene",
			"nodes":[
				0
			]
		}
	],
	"nodes":[
		{
			"mesh":0,
			"name":"Coral_Table_B"
		}
	],
	"materials":[
		{
			"name":"Coral_Table_B_Coral_Table_B",
			"normalTexture":{
				"index":0
			},
			"occlusionTexture":{
				"index":1
			},
			"pbrMetallicRoughness":{
				"baseColorTexture":{
					"index":2
				},
				"metallicRoughnessTexture":{
					"index":1
				}
			}
		}
	],
	"meshes":[
		{
			"name":"Coral_Table_B",
			"primitives":[
				{
					"attributes":{
						"POSITION":0,
						"NORMAL":1,
						"TEXCOORD_0":2,
						"TANGENT":3
					},
					"indices":4,
					"material":0
				}
			]
		}
	],
	"textures":[
		{
			"sampler":0,
			"source":0
		},
		{
			"sampler":0,
			"source":1
		},
		{
			"sampler":0,
			"source":2
		}
	],
	"images":[
		{
			"mimeType":"image/png",
			"name":"Coral_Table_B_Coral_Table_B_Normal",
			"uri":"Coral_Table_B_Coral_Table_B_Normal.png"
		},
		{
			"mimeType":"image/png",
			"name":"Coral_Table_B_Coral_Table_B_ORM",
			"uri":"Coral_Table_B_Coral_Table_B_ORM.png"
		},
		{
			"mimeType":"image/png",
			"name":"Coral_Table_B_Coral_Table_B_BaseColor",
			"uri":"Coral_Table_B_Coral_Table_B_BaseColor.png"
		}
	],
	"accessors":[
		{
			"bufferView":0,
			"componentType":5126,
			"count":9676,
			"max":[
				0.4705659747123718,
				0.5197004675865173,
				0.48131611943244934
			],
			"min":[
				-0.5413167476654053,
				-0.12308971583843231,
				-0.5385090112686157
			],
			"type":"VEC3"
		},
		{
			"bufferView":1,
			"componentType":5126,
			"count":9676,
			"type":"VEC3"
		},
		{
			"bufferView":2,
			"componentType":5126,
			"count":9676,
			"type":"VEC2"
		},
		{
			"bufferView":3,
			"componentType":5126,
			"count":9676,
			"type":"VEC4"
		},
		{
			"bufferView":4,
			"componentType":5123,
			"count":37434,
			"type":"SCALAR"
		}
	],
	"bufferViews":[
		{
			"buffer":0,
			"byteLength":116112,
			"byteOffset":0,
			"target":34962
		},
		{
			"buffer":0,
			"byteLength":116112,
			"byteOffset":116112,
			"target":34962
		},
		{
			"buffer":0,
			"byteLength":77408,
			"byteOffset":232224,
			"target":34962
		},
		{
			"buffer":0,
			"byteLength":154816,
			"byteOffset":309632,
			"target":34962
		},
		{
			"buffer":0,
			"byteLength":74868,
			"byteOffset":464448,
			"target":34963
		}
	],
	"samplers":[
		{
			"magFilter":9729,
			"minFilter":9987
		}
	],
	"buffers":[
		{
			"byteLength":539316,
			"uri":"Coral_Table_B.bin"
		}
	]
}
