{
	"asset":{
		"generator":"Khronos glTF Blender I/O v4.4.56",
		"version":"2.0"
	},
	"extensionsUsed":[
		"KHR_texture_transform",
		"KHR_materials_clearcoat",
		"KHR_materials_emissive_strength",
		"KHR_materials_specular",
		"KHR_materials_ior"
	],
	"extensionsRequired":[
		"KHR_texture_transform"
	],
	"scene":0,
	"scenes":[
		{
			"name":"Scene",
			"nodes":[
				0,
				1,
				2,
				3,
				4,
				5,
				6,
				7,
				8,
				9,
				10,
				11,
				12,
				13,
				14,
				15,
				16,
				17,
				18,
				19,
				20
			]
		}
	],
	"nodes":[
		{
			"mesh":0,
			"name":"Pool Main"
		},
		{
			"mesh":1,
			"name":"Rail 2"
		},
		{
			"mesh":2,
			"name":"Rail 1"
		},
		{
			"mesh":3,
			"name":"Step 1"
		},
		{
			"mesh":4,
			"name":"Step 2"
		},
		{
			"mesh":5,
			"name":"Step 3"
		},
		{
			"mesh":6,
			"name":"Cap 1"
		},
		{
			"mesh":7,
			"name":"Cap 2"
		},
		{
			"mesh":8,
			"name":"Cap 3"
		},
		{
			"mesh":9,
			"name":"Cap 4"
		},
		{
			"mesh":10,
			"name":"Ground"
		},
		{
			"mesh":11,
			"name":"Filter 1"
		},
		{
			"mesh":12,
			"name":"Filrer 2"
		},
		{
			"mesh":13,
			"name":"Lamp 1"
		},
		{
			"mesh":14,
			"name":"Lamp 4"
		},
		{
			"mesh":15,
			"name":"Lamp 3"
		},
		{
			"mesh":16,
			"name":"Lamp 2"
		},
		{
			"mesh":17,
			"name":"Lamp 6"
		},
		{
			"mesh":18,
			"name":"Lamp 5"
		},
		{
			"mesh":19,
			"name":"Trampolin"
		},
		{
			"mesh":20,
			"name":"\u5e73\u9762"
		}
	],
	"materials":[
		{
			"doubleSided":true,
			"extensions":{
				"KHR_materials_clearcoat":{
					"clearcoatFactor":0.13295455276966095,
					"clearcoatRoughnessFactor":1,
					"clearcoatRoughnessTexture":{
						"extensions":{
							"KHR_texture_transform":{
								"offset":[
									0,
									-1
								],
								"scale":[
									2,
									2
								]
							}
						},
						"index":0
					}
				},
				"KHR_materials_specular":{
					"specularFactor":0.1818181872367859
				},
				"KHR_materials_ior":{
					"ior":1.4500000476837158
				}
			},
			"name":"Tiles",
			"normalTexture":{
				"extensions":{
					"KHR_texture_transform":{
						"offset":[
							0,
							-1
						],
						"scale":[
							2,
							2
						]
					}
				},
				"index":1,
				"scale":0.40000009536743164
			},
			"pbrMetallicRoughness":{
				"baseColorTexture":{
					"extensions":{
						"KHR_texture_transform":{
							"offset":[
								0,
								-1
							],
							"scale":[
								2,
								2
							]
						}
					},
					"index":2
				},
				"metallicFactor":0,
				"metallicRoughnessTexture":{
					"extensions":{
						"KHR_texture_transform":{
							"offset":[
								0,
								-1
							],
							"scale":[
								2,
								2
							]
						}
					},
					"index":3
				}
			}
		},
		{
			"doubleSided":true,
			"extensions":{
				"KHR_materials_specular":{
					"specularFactor":0.18181823194026947
				},
				"KHR_materials_ior":{
					"ior":1.4500000476837158
				}
			},
			"name":"Rim",
			"normalTexture":{
				"extensions":{
					"KHR_texture_transform":{
						"offset":[
							-0.020000003278255463,
							-10
						],
						"scale":[
							10.059999465942383,
							11
						]
					}
				},
				"index":4
			},
			"pbrMetallicRoughness":{
				"baseColorTexture":{
					"extensions":{
						"KHR_texture_transform":{
							"offset":[
								-0.020000003278255463,
								-10
							],
							"scale":[
								10.059999465942383,
								11
							]
						}
					},
					"index":5
				},
				"metallicFactor":0,
				"metallicRoughnessTexture":{
					"extensions":{
						"KHR_texture_transform":{
							"offset":[
								-0.020000003278255463,
								-10
							],
							"scale":[
								10.059999465942383,
								11
							]
						}
					},
					"index":6
				}
			}
		},
		{
			"doubleSided":true,
			"name":"Filling",
			"pbrMetallicRoughness":{
				"baseColorFactor":[
					0.0947105661034584,
					0.543765664100647,
					0.5595993399620056,
					1
				],
				"metallicFactor":0,
				"roughnessFactor":0.5
			}
		},
		{
			"doubleSided":true,
			"extensions":{
				"KHR_materials_specular":{
					"specularFactor":0
				},
				"KHR_materials_ior":{
					"ior":1.4500000476837158
				}
			},
			"name":"Cement",
			"pbrMetallicRoughness":{
				"baseColorFactor":[
					0.09083821624517441,
					0.09083821624517441,
					0.09083821624517441,
					1
				],
				"metallicFactor":0
			}
		},
		{
			"doubleSided":true,
			"extensions":{
				"KHR_materials_clearcoat":{
					"clearcoatFactor":0.13295455276966095,
					"clearcoatRoughnessFactor":1,
					"clearcoatRoughnessTexture":{
						"extensions":{
							"KHR_texture_transform":{
								"offset":[
									0,
									-1
								],
								"scale":[
									2,
									2
								]
							}
						},
						"index":7
					}
				},
				"KHR_materials_specular":{
					"specularFactor":0.1818181872367859
				},
				"KHR_materials_ior":{
					"ior":1.4500000476837158
				}
			},
			"name":"Tiles.001",
			"normalTexture":{
				"extensions":{
					"KHR_texture_transform":{
						"offset":[
							0,
							-1
						],
						"scale":[
							2,
							2
						]
					}
				},
				"index":8,
				"scale":0.40000009536743164
			},
			"pbrMetallicRoughness":{
				"baseColorTexture":{
					"extensions":{
						"KHR_texture_transform":{
							"offset":[
								0,
								-1
							],
							"scale":[
								2,
								2
							]
						}
					},
					"index":9
				},
				"metallicFactor":0,
				"metallicRoughnessTexture":{
					"extensions":{
						"KHR_texture_transform":{
							"offset":[
								0,
								-1
							],
							"scale":[
								2,
								2
							]
						}
					},
					"index":10
				}
			}
		},
		{
			"doubleSided":true,
			"extensions":{
				"KHR_materials_specular":{
					"specularColorFactor":[
						2.0,
						2.0,
						2.0
					]
				},
				"KHR_materials_ior":{
					"ior":1.4500000476837158
				}
			},
			"name":"Metal",
			"pbrMetallicRoughness":{
				"baseColorFactor":[
					0.800000011920929,
					0.800000011920929,
					0.800000011920929,
					1
				],
				"roughnessFactor":0.15000000596046448
			}
		},
		{
			"doubleSided":true,
			"name":"Material",
			"pbrMetallicRoughness":{
				"baseColorFactor":[
					0.800000011920929,
					0.800000011920929,
					0.800000011920929,
					1
				],
				"metallicFactor":0,
				"roughnessFactor":0.4000000059604645
			}
		},
		{
			"doubleSided":true,
			"name":"Material.010",
			"pbrMetallicRoughness":{
				"baseColorFactor":[
					0.2345489114522934,
					0.28744107484817505,
					0.3324516713619232,
					1
				],
				"metallicFactor":0,
				"roughnessFactor":0.904411792755127
			}
		},
		{
			"doubleSided":true,
			"extensions":{
				"KHR_materials_clearcoat":{
					"clearcoatFactor":0.03492647036910057,
					"clearcoatRoughnessFactor":0.13294117152690887
				}
			},
			"name":"Material.003",
			"pbrMetallicRoughness":{
				"baseColorFactor":[
					0.7105534672737122,
					0.6500389575958252,
					0.39938607811927795,
					1
				],
				"metallicFactor":0
			}
		},
		{
			"doubleSided":true,
			"emissiveFactor":[
				1,
				0.8227859139442444,
				0.4564110338687897
			],
			"extensions":{
				"KHR_materials_emissive_strength":{
					"emissiveStrength":10
				}
			},
			"name":"Material.007",
			"pbrMetallicRoughness":{
				"baseColorFactor":[
					0,
					0,
					0,
					1
				]
			}
		},
		{
			"doubleSided":true,
			"name":"Material.001",
			"pbrMetallicRoughness":{
				"baseColorFactor":[
					0.8761076331138611,
					1,
					0.9061858057975769,
					1
				],
				"metallicFactor":0
			}
		},
		{
			"doubleSided":true,
			"name":"Material.005",
			"pbrMetallicRoughness":{
				"baseColorFactor":[
					0.800000011920929,
					0.800000011920929,
					0.800000011920929,
					1
				],
				"metallicFactor":0,
				"roughnessFactor":0.5
			}
		},
		{
			"doubleSided":true,
			"name":"Material.009",
			"pbrMetallicRoughness":{
				"baseColorFactor":[
					0.8000000715255737,
					0.6151505708694458,
					0.40873220562934875,
					1
				],
				"metallicFactor":0,
				"roughnessFactor":0.5
			}
		},
		{
			"doubleSided":true,
			"name":"\u30de\u30c6\u30ea\u30a2\u30eb",
			"pbrMetallicRoughness":{
				"baseColorFactor":[
					0.2345489114522934,
					0.28744107484817505,
					0.3324516713619232,
					1
				],
				"metallicFactor":0,
				"roughnessFactor":0.5
			}
		}
	],
	"meshes":[
		{
			"name":"Cube.001",
			"primitives":[
				{
					"attributes":{
						"POSITION":0,
						"NORMAL":1,
						"TEXCOORD_0":2
					},
					"indices":3,
					"material":0
				},
				{
					"attributes":{
						"POSITION":4,
						"NORMAL":5,
						"TEXCOORD_0":6
					},
					"indices":7,
					"material":1
				},
				{
					"attributes":{
						"POSITION":8,
						"NORMAL":9,
						"TEXCOORD_0":10
					},
					"indices":11,
					"material":2
				},
				{
					"attributes":{
						"POSITION":12,
						"NORMAL":13,
						"TEXCOORD_0":14
					},
					"indices":15,
					"material":3
				},
				{
					"attributes":{
						"POSITION":16,
						"NORMAL":17,
						"TEXCOORD_0":18
					},
					"indices":19,
					"material":4
				}
			]
		},
		{
			"name":"NurbsPath",
			"primitives":[
				{
					"attributes":{
						"POSITION":20,
						"NORMAL":21,
						"TEXCOORD_0":22
					},
					"indices":23,
					"material":5
				}
			]
		},
		{
			"name":"NurbsPath.001",
			"primitives":[
				{
					"attributes":{
						"POSITION":24,
						"NORMAL":25,
						"TEXCOORD_0":26
					},
					"indices":23,
					"material":5
				}
			]
		},
		{
			"name":"Cube.002",
			"primitives":[
				{
					"attributes":{
						"POSITION":27,
						"NORMAL":28,
						"TEXCOORD_0":29
					},
					"indices":30,
					"material":6
				}
			]
		},
		{
			"name":"Cube.003",
			"primitives":[
				{
					"attributes":{
						"POSITION":31,
						"NORMAL":32,
						"TEXCOORD_0":33
					},
					"indices":34,
					"material":6
				}
			]
		},
		{
			"name":"Cube.004",
			"primitives":[
				{
					"attributes":{
						"POSITION":35,
						"NORMAL":36,
						"TEXCOORD_0":37
					},
					"indices":38,
					"material":6
				}
			]
		},
		{
			"name":"Circle",
			"primitives":[
				{
					"attributes":{
						"POSITION":39,
						"NORMAL":40,
						"TEXCOORD_0":41
					},
					"indices":42,
					"material":5
				}
			]
		},
		{
			"name":"Circle.001",
			"primitives":[
				{
					"attributes":{
						"POSITION":43,
						"NORMAL":44,
						"TEXCOORD_0":45
					},
					"indices":42,
					"material":5
				}
			]
		},
		{
			"name":"Circle.002",
			"primitives":[
				{
					"attributes":{
						"POSITION":46,
						"NORMAL":47,
						"TEXCOORD_0":48
					},
					"indices":42,
					"material":5
				}
			]
		},
		{
			"name":"Circle.003",
			"primitives":[
				{
					"attributes":{
						"POSITION":49,
						"NORMAL":50,
						"TEXCOORD_0":51
					},
					"indices":42,
					"material":5
				}
			]
		},
		{
			"name":"Plane.002",
			"primitives":[
				{
					"attributes":{
						"POSITION":52,
						"NORMAL":53,
						"TEXCOORD_0":54
					},
					"indices":55,
					"material":7
				}
			]
		},
		{
			"name":"Plane.003",
			"primitives":[
				{
					"attributes":{
						"POSITION":56,
						"NORMAL":57,
						"TEXCOORD_0":58
					},
					"indices":59,
					"material":8
				}
			]
		},
		{
			"name":"Plane.005",
			"primitives":[
				{
					"attributes":{
						"POSITION":60,
						"NORMAL":61,
						"TEXCOORD_0":62
					},
					"indices":59,
					"material":8
				}
			]
		},
		{
			"name":"Sphere",
			"primitives":[
				{
					"attributes":{
						"POSITION":63,
						"NORMAL":64,
						"TEXCOORD_0":65
					},
					"indices":66,
					"material":9
				},
				{
					"attributes":{
						"POSITION":67,
						"NORMAL":68,
						"TEXCOORD_0":69
					},
					"indices":70,
					"material":10
				}
			]
		},
		{
			"name":"Sphere.001",
			"primitives":[
				{
					"attributes":{
						"POSITION":71,
						"NORMAL":72,
						"TEXCOORD_0":73
					},
					"indices":66,
					"material":9
				},
				{
					"attributes":{
						"POSITION":74,
						"NORMAL":75,
						"TEXCOORD_0":76
					},
					"indices":70,
					"material":10
				}
			]
		},
		{
			"name":"Sphere.002",
			"primitives":[
				{
					"attributes":{
						"POSITION":77,
						"NORMAL":78,
						"TEXCOORD_0":79
					},
					"indices":66,
					"material":9
				},
				{
					"attributes":{
						"POSITION":80,
						"NORMAL":81,
						"TEXCOORD_0":82
					},
					"indices":70,
					"material":10
				}
			]
		},
		{
			"name":"Sphere.003",
			"primitives":[
				{
					"attributes":{
						"POSITION":83,
						"NORMAL":84,
						"TEXCOORD_0":85
					},
					"indices":66,
					"material":9
				},
				{
					"attributes":{
						"POSITION":86,
						"NORMAL":87,
						"TEXCOORD_0":88
					},
					"indices":70,
					"material":10
				}
			]
		},
		{
			"name":"Sphere.004",
			"primitives":[
				{
					"attributes":{
						"POSITION":89,
						"NORMAL":90,
						"TEXCOORD_0":91
					},
					"indices":66,
					"material":9
				},
				{
					"attributes":{
						"POSITION":92,
						"NORMAL":93,
						"TEXCOORD_0":94
					},
					"indices":70,
					"material":10
				}
			]
		},
		{
			"name":"Sphere.005",
			"primitives":[
				{
					"attributes":{
						"POSITION":95,
						"NORMAL":96,
						"TEXCOORD_0":97
					},
					"indices":66,
					"material":9
				},
				{
					"attributes":{
						"POSITION":98,
						"NORMAL":99,
						"TEXCOORD_0":100
					},
					"indices":70,
					"material":10
				}
			]
		},
		{
			"name":"Cube.006",
			"primitives":[
				{
					"attributes":{
						"POSITION":101,
						"NORMAL":102,
						"TEXCOORD_0":103
					},
					"indices":104,
					"material":11
				},
				{
					"attributes":{
						"POSITION":105,
						"NORMAL":106,
						"TEXCOORD_0":107
					},
					"indices":108,
					"material":12
				}
			]
		},
		{
			"name":"\u5e73\u9762",
			"primitives":[
				{
					"attributes":{
						"POSITION":109,
						"NORMAL":110,
						"TEXCOORD_0":111
					},
					"indices":112,
					"material":13
				}
			]
		}
	],
	"textures":[
		{
			"sampler":0,
			"source":0
		},
		{
			"sampler":0,
			"source":1
		},
		{
			"sampler":0,
			"source":2
		},
		{
			"sampler":0,
			"source":3
		},
		{
			"sampler":0,
			"source":4
		},
		{
			"sampler":0,
			"source":5
		},
		{
			"sampler":0,
			"source":6
		},
		{
			"sampler":0,
			"source":0
		},
		{
			"sampler":0,
			"source":1
		},
		{
			"sampler":0,
			"source":2
		},
		{
			"sampler":0,
			"source":3
		}
	],
	"images":[
		{
			"mimeType":"image/jpeg",
			"name":"arroway.de_tiles-42_b010",
			"uri":"arroway_de_tiles-42_b010.jpg"
		},
		{
			"mimeType":"image/jpeg",
			"name":"arroway.de_tiles-42_s100-g100",
			"uri":"arroway_de_tiles-42_s100-g100.jpg"
		},
		{
			"mimeType":"image/jpeg",
			"name":"arroway.de_tiles-42_d100",
			"uri":"arroway_de_tiles-42_d100.jpg"
		},
		{
			"mimeType":"image/png",
			"name":"arroway.de_tiles-42_b010",
			"uri":"arroway_de_tiles-42_b010.png"
		},
		{
			"mimeType":"image/jpeg",
			"name":"stone_0104_N",
			"uri":"stone_0104_N.jpg"
		},
		{
			"mimeType":"image/jpeg",
			"name":"stone_0104_c",
			"uri":"stone_0104_c.jpg"
		},
		{
			"mimeType":"image/png",
			"name":"stone_0104_R",
			"uri":"stone_0104_R.png"
		}
	],
	"accessors":[
		{
			"bufferView":0,
			"componentType":5126,
			"count":68,
			"max":[
				3,
				0.9943732023239136,
				2
			],
			"min":[
				-3,
				-0.9974836111068726,
				-2
			],
			"type":"VEC3"
		},
		{
			"bufferView":1,
			"componentType":5126,
			"count":68,
			"type":"VEC3"
		},
		{
			"bufferView":2,
			"componentType":5126,
			"count":68,
			"type":"VEC2"
		},
		{
			"bufferView":3,
			"componentType":5123,
			"count":156,
			"type":"SCALAR"
		},
		{
			"bufferView":4,
			"componentType":5126,
			"count":350,
			"max":[
				3.6241092681884766,
				1,
				2.5646309852600098
			],
			"min":[
				-3.6241092681884766,
				0.9850566387176514,
				-2.5646309852600098
			],
			"type":"VEC3"
		},
		{
			"bufferView":5,
			"componentType":5126,
			"count":350,
			"type":"VEC3"
		},
		{
			"bufferView":6,
			"componentType":5126,
			"count":350,
			"type":"VEC2"
		},
		{
			"bufferView":7,
			"componentType":5123,
			"count":1578,
			"type":"SCALAR"
		},
		{
			"bufferView":8,
			"componentType":5126,
			"count":462,
			"max":[
				3.016880512237549,
				1,
				2.011253595352173
			],
			"min":[
				-3.016880512237549,
				-0.9981655478477478,
				-2.011253595352173
			],
			"type":"VEC3"
		},
		{
			"bufferView":9,
			"componentType":5126,
			"count":462,
			"type":"VEC3"
		},
		{
			"bufferView":10,
			"componentType":5126,
			"count":462,
			"type":"VEC2"
		},
		{
			"bufferView":11,
			"componentType":5123,
			"count":1824,
			"type":"SCALAR"
		},
		{
			"bufferView":12,
			"componentType":5126,
			"count":162,
			"max":[
				2.3469839096069336,
				1,
				2.2554523944854736
			],
			"min":[
				-2.337437629699707,
				0.8642802238464355,
				-2.2568728923797607
			],
			"type":"VEC3"
		},
		{
			"bufferView":13,
			"componentType":5126,
			"count":162,
			"type":"VEC3"
		},
		{
			"bufferView":14,
			"componentType":5126,
			"count":162,
			"type":"VEC2"
		},
		{
			"bufferView":15,
			"componentType":5123,
			"count":930,
			"type":"SCALAR"
		},
		{
			"bufferView":16,
			"componentType":5126,
			"count":18,
			"max":[
				1.679697036743164,
				0.9943732023239136,
				2
			],
			"min":[
				1.5004711151123047,
				-0.2497720718383789,
				-2
			],
			"type":"VEC3"
		},
		{
			"bufferView":17,
			"componentType":5126,
			"count":18,
			"type":"VEC3"
		},
		{
			"bufferView":18,
			"componentType":5126,
			"count":18,
			"type":"VEC2"
		},
		{
			"bufferView":19,
			"componentType":5123,
			"count":36,
			"type":"SCALAR"
		},
		{
			"bufferView":20,
			"componentType":5126,
			"count":4788,
			"max":[
				2.4859142303466797,
				1.5445868968963623,
				-1.8505645990371704
			],
			"min":[
				2.4559133052825928,
				0.4579838514328003,
				-2.327676296234131
			],
			"type":"VEC3"
		},
		{
			"bufferView":21,
			"componentType":5126,
			"count":4788,
			"type":"VEC3"
		},
		{
			"bufferView":22,
			"componentType":5126,
			"count":4788,
			"type":"VEC2"
		},
		{
			"bufferView":23,
			"componentType":5123,
			"count":27240,
			"type":"SCALAR"
		},
		{
			"bufferView":24,
			"componentType":5126,
			"count":4788,
			"max":[
				2.008460521697998,
				1.5445868968963623,
				-1.8505645990371704
			],
			"min":[
				1.9784597158432007,
				0.4579838514328003,
				-2.327676296234131
			],
			"type":"VEC3"
		},
		{
			"bufferView":25,
			"componentType":5126,
			"count":4788,
			"type":"VEC3"
		},
		{
			"bufferView":26,
			"componentType":5126,
			"count":4788,
			"type":"VEC2"
		},
		{
			"bufferView":27,
			"componentType":5126,
			"count":1540,
			"max":[
				2.5222668647766113,
				0.906709611415863,
				-1.8222862482070923
			],
			"min":[
				1.9398273229599,
				0.8835235238075256,
				-1.9093397855758667
			],
			"type":"VEC3"
		},
		{
			"bufferView":28,
			"componentType":5126,
			"count":1540,
			"type":"VEC3"
		},
		{
			"bufferView":29,
			"componentType":5126,
			"count":1540,
			"type":"VEC2"
		},
		{
			"bufferView":30,
			"componentType":5123,
			"count":2700,
			"type":"SCALAR"
		},
		{
			"bufferView":31,
			"componentType":5126,
			"count":1520,
			"max":[
				2.5222668647766113,
				0.7604953646659851,
				-1.8222862482070923
			],
			"min":[
				1.9398273229599,
				0.7373092770576477,
				-1.9093397855758667
			],
			"type":"VEC3"
		},
		{
			"bufferView":32,
			"componentType":5126,
			"count":1520,
			"type":"VEC3"
		},
		{
			"bufferView":33,
			"componentType":5126,
			"count":1520,
			"type":"VEC2"
		},
		{
			"bufferView":34,
			"componentType":5123,
			"count":2700,
			"type":"SCALAR"
		},
		{
			"bufferView":35,
			"componentType":5126,
			"count":1557,
			"max":[
				2.5222668647766113,
				0.62471604347229,
				-1.8222862482070923
			],
			"min":[
				1.9398273229599,
				0.6015299558639526,
				-1.9093397855758667
			],
			"type":"VEC3"
		},
		{
			"bufferView":36,
			"componentType":5126,
			"count":1557,
			"type":"VEC3"
		},
		{
			"bufferView":37,
			"componentType":5126,
			"count":1557,
			"type":"VEC2"
		},
		{
			"bufferView":38,
			"componentType":5123,
			"count":2700,
			"type":"SCALAR"
		},
		{
			"bufferView":39,
			"componentType":5126,
			"count":224,
			"max":[
				2.0379531383514404,
				1.0102424621582031,
				-2.0422513484954834
			],
			"min":[
				1.9488672018051147,
				0.9640604257583618,
				-2.1313374042510986
			],
			"type":"VEC3"
		},
		{
			"bufferView":40,
			"componentType":5126,
			"count":224,
			"type":"VEC3"
		},
		{
			"bufferView":41,
			"componentType":5126,
			"count":224,
			"type":"VEC2"
		},
		{
			"bufferView":42,
			"componentType":5123,
			"count":1152,
			"type":"SCALAR"
		},
		{
			"bufferView":43,
			"componentType":5126,
			"count":224,
			"max":[
				2.5153379440307617,
				1.0102424621582031,
				-2.0422513484954834
			],
			"min":[
				2.4262518882751465,
				0.9640604257583618,
				-2.1313374042510986
			],
			"type":"VEC3"
		},
		{
			"bufferView":44,
			"componentType":5126,
			"count":224,
			"type":"VEC3"
		},
		{
			"bufferView":45,
			"componentType":5126,
			"count":224,
			"type":"VEC2"
		},
		{
			"bufferView":46,
			"componentType":5126,
			"count":224,
			"max":[
				2.039771795272827,
				0.5237237811088562,
				-1.9891666173934937
			],
			"min":[
				1.9484312534332275,
				0.4323832392692566,
				-2.039362668991089
			],
			"type":"VEC3"
		},
		{
			"bufferView":47,
			"componentType":5126,
			"count":224,
			"type":"VEC3"
		},
		{
			"bufferView":48,
			"componentType":5126,
			"count":224,
			"type":"VEC2"
		},
		{
			"bufferView":49,
			"componentType":5126,
			"count":224,
			"max":[
				2.5159313678741455,
				0.5228619575500488,
				-1.9897937774658203
			],
			"min":[
				2.42631459236145,
				0.43324506282806396,
				-2.0362510681152344
			],
			"type":"VEC3"
		},
		{
			"bufferView":50,
			"componentType":5126,
			"count":224,
			"type":"VEC3"
		},
		{
			"bufferView":51,
			"componentType":5126,
			"count":224,
			"type":"VEC2"
		},
		{
			"bufferView":52,
			"componentType":5126,
			"count":16,
			"max":[
				49.434715270996094,
				1,
				46.27043151855469
			],
			"min":[
				-49.434715270996094,
				1,
				-46.27043151855469
			],
			"type":"VEC3"
		},
		{
			"bufferView":53,
			"componentType":5126,
			"count":16,
			"type":"VEC3"
		},
		{
			"bufferView":54,
			"componentType":5126,
			"count":16,
			"type":"VEC2"
		},
		{
			"bufferView":55,
			"componentType":5123,
			"count":48,
			"type":"SCALAR"
		},
		{
			"bufferView":56,
			"componentType":5126,
			"count":4522,
			"max":[
				1.6801421642303467,
				1.0032657384872437,
				-2.0342817306518555
			],
			"min":[
				1.3389155864715576,
				0.9979199171066284,
				-2.256438732147217
			],
			"type":"VEC3"
		},
		{
			"bufferView":57,
			"componentType":5126,
			"count":4522,
			"type":"VEC3"
		},
		{
			"bufferView":58,
			"componentType":5126,
			"count":4522,
			"type":"VEC2"
		},
		{
			"bufferView":59,
			"componentType":5123,
			"count":18732,
			"type":"SCALAR"
		},
		{
			"bufferView":60,
			"componentType":5126,
			"count":4522,
			"max":[
				-1.3355854749679565,
				1.0033129453659058,
				2.2549145221710205
			],
			"min":[
				-1.673543095588684,
				0.9978750944137573,
				2.0343525409698486
			],
			"type":"VEC3"
		},
		{
			"bufferView":61,
			"componentType":5126,
			"count":4522,
			"type":"VEC3"
		},
		{
			"bufferView":62,
			"componentType":5126,
			"count":4522,
			"type":"VEC2"
		},
		{
			"bufferView":63,
			"componentType":5126,
			"count":559,
			"max":[
				2.9982471466064453,
				0.41910281777381897,
				0.017602084204554558
			],
			"min":[
				2.984452724456787,
				0.38389867544174194,
				-0.01760208234190941
			],
			"type":"VEC3"
		},
		{
			"bufferView":64,
			"componentType":5126,
			"count":559,
			"type":"VEC3"
		},
		{
			"bufferView":65,
			"componentType":5126,
			"count":559,
			"type":"VEC2"
		},
		{
			"bufferView":66,
			"componentType":5123,
			"count":2880,
			"type":"SCALAR"
		},
		{
			"bufferView":67,
			"componentType":5126,
			"count":561,
			"max":[
				3.007767915725708,
				0.4491173326969147,
				0.047616615891456604
			],
			"min":[
				2.988358736038208,
				0.35388413071632385,
				-0.04761660471558571
			],
			"type":"VEC3"
		},
		{
			"bufferView":68,
			"componentType":5126,
			"count":561,
			"type":"VEC3"
		},
		{
			"bufferView":69,
			"componentType":5126,
			"count":561,
			"type":"VEC2"
		},
		{
			"bufferView":70,
			"componentType":5123,
			"count":3264,
			"type":"SCALAR"
		},
		{
			"bufferView":71,
			"componentType":5126,
			"count":559,
			"max":[
				-2.984161853790283,
				0.41910281777381897,
				0.017572807148098946
			],
			"min":[
				-2.9979562759399414,
				0.38389867544174194,
				-0.01763135939836502
			],
			"type":"VEC3"
		},
		{
			"bufferView":72,
			"componentType":5126,
			"count":559,
			"type":"VEC3"
		},
		{
			"bufferView":73,
			"componentType":5126,
			"count":559,
			"type":"VEC2"
		},
		{
			"bufferView":74,
			"componentType":5126,
			"count":561,
			"max":[
				-2.988067865371704,
				0.4491173326969147,
				0.047587331384420395
			],
			"min":[
				-3.007477045059204,
				0.35388413071632385,
				-0.047645892947912216
			],
			"type":"VEC3"
		},
		{
			"bufferView":75,
			"componentType":5126,
			"count":561,
			"type":"VEC3"
		},
		{
			"bufferView":76,
			"componentType":5126,
			"count":561,
			"type":"VEC2"
		},
		{
			"bufferView":77,
			"componentType":5126,
			"count":559,
			"max":[
				-0.9920303821563721,
				0.41910281777381897,
				1.997772216796875
			],
			"min":[
				-1.0272345542907715,
				0.38389867544174194,
				1.9839777946472168
			],
			"type":"VEC3"
		},
		{
			"bufferView":78,
			"componentType":5126,
			"count":559,
			"type":"VEC3"
		},
		{
			"bufferView":79,
			"componentType":5126,
			"count":559,
			"type":"VEC2"
		},
		{
			"bufferView":80,
			"componentType":5126,
			"count":561,
			"max":[
				-0.9620158672332764,
				0.4491173326969147,
				2.0072929859161377
			],
			"min":[
				-1.0572490692138672,
				0.35388413071632385,
				1.9878838062286377
			],
			"type":"VEC3"
		},
		{
			"bufferView":81,
			"componentType":5126,
			"count":561,
			"type":"VEC3"
		},
		{
			"bufferView":82,
			"componentType":5126,
			"count":561,
			"type":"VEC2"
		},
		{
			"bufferView":83,
			"componentType":5126,
			"count":559,
			"max":[
				1.0193891525268555,
				0.41910281777381897,
				1.997772216796875
			],
			"min":[
				0.984184980392456,
				0.38389867544174194,
				1.9839777946472168
			],
			"type":"VEC3"
		},
		{
			"bufferView":84,
			"componentType":5126,
			"count":559,
			"type":"VEC3"
		},
		{
			"bufferView":85,
			"componentType":5126,
			"count":559,
			"type":"VEC2"
		},
		{
			"bufferView":86,
			"componentType":5126,
			"count":561,
			"max":[
				1.0494036674499512,
				0.4491173326969147,
				2.0072929859161377
			],
			"min":[
				0.9541704654693604,
				0.35388413071632385,
				1.9878838062286377
			],
			"type":"VEC3"
		},
		{
			"bufferView":87,
			"componentType":5126,
			"count":561,
			"type":"VEC3"
		},
		{
			"bufferView":88,
			"componentType":5126,
			"count":561,
			"type":"VEC2"
		},
		{
			"bufferView":89,
			"componentType":5126,
			"count":559,
			"max":[
				1.019418716430664,
				0.41910281777381897,
				-1.9841084480285645
			],
			"min":[
				0.9842145442962646,
				0.38389867544174194,
				-1.9979028701782227
			],
			"type":"VEC3"
		},
		{
			"bufferView":90,
			"componentType":5126,
			"count":559,
			"type":"VEC3"
		},
		{
			"bufferView":91,
			"componentType":5126,
			"count":559,
			"type":"VEC2"
		},
		{
			"bufferView":92,
			"componentType":5126,
			"count":561,
			"max":[
				1.0494332313537598,
				0.4491173326969147,
				-1.9880144596099854
			],
			"min":[
				0.954200029373169,
				0.35388413071632385,
				-2.0074236392974854
			],
			"type":"VEC3"
		},
		{
			"bufferView":93,
			"componentType":5126,
			"count":561,
			"type":"VEC3"
		},
		{
			"bufferView":94,
			"componentType":5126,
			"count":561,
			"type":"VEC2"
		},
		{
			"bufferView":95,
			"componentType":5126,
			"count":559,
			"max":[
				-0.9889452457427979,
				0.41910281777381897,
				-1.9841084480285645
			],
			"min":[
				-1.0241494178771973,
				0.38389867544174194,
				-1.9979028701782227
			],
			"type":"VEC3"
		},
		{
			"bufferView":96,
			"componentType":5126,
			"count":559,
			"type":"VEC3"
		},
		{
			"bufferView":97,
			"componentType":5126,
			"count":559,
			"type":"VEC2"
		},
		{
			"bufferView":98,
			"componentType":5126,
			"count":561,
			"max":[
				-0.9589307308197021,
				0.4491173326969147,
				-1.9880144596099854
			],
			"min":[
				-1.054163932800293,
				0.35388413071632385,
				-2.0074236392974854
			],
			"type":"VEC3"
		},
		{
			"bufferView":99,
			"componentType":5126,
			"count":561,
			"type":"VEC3"
		},
		{
			"bufferView":100,
			"componentType":5126,
			"count":561,
			"type":"VEC2"
		},
		{
			"bufferView":101,
			"componentType":5126,
			"count":282,
			"max":[
				-3.5328803062438965,
				1.458284854888916,
				0.23039139807224274
			],
			"min":[
				-5.133922100067139,
				0.99796462059021,
				-0.2299288958311081
			],
			"type":"VEC3"
		},
		{
			"bufferView":102,
			"componentType":5126,
			"count":282,
			"type":"VEC3"
		},
		{
			"bufferView":103,
			"componentType":5126,
			"count":282,
			"type":"VEC2"
		},
		{
			"bufferView":104,
			"componentType":5123,
			"count":1440,
			"type":"SCALAR"
		},
		{
			"bufferView":105,
			"componentType":5126,
			"count":152,
			"max":[
				-2.62508225440979,
				1.4894797801971436,
				0.23039136826992035
			],
			"min":[
				-4.742555618286133,
				1.4528038501739502,
				-0.22992902994155884
			],
			"type":"VEC3"
		},
		{
			"bufferView":106,
			"componentType":5126,
			"count":152,
			"type":"VEC3"
		},
		{
			"bufferView":107,
			"componentType":5126,
			"count":152,
			"type":"VEC2"
		},
		{
			"bufferView":108,
			"componentType":5123,
			"count":564,
			"type":"SCALAR"
		},
		{
			"bufferView":109,
			"componentType":5126,
			"count":4,
			"max":[
				4.036672592163086,
				1.0034741163253784,
				2.5697946548461914
			],
			"min":[
				3.6238365173339844,
				1.0034741163253784,
				-2.5697946548461914
			],
			"type":"VEC3"
		},
		{
			"bufferView":110,
			"componentType":5126,
			"count":4,
			"type":"VEC3"
		},
		{
			"bufferView":111,
			"componentType":5126,
			"count":4,
			"type":"VEC2"
		},
		{
			"bufferView":112,
			"componentType":5123,
			"count":6,
			"type":"SCALAR"
		}
	],
	"bufferViews":[
		{
			"buffer":0,
			"byteLength":816,
			"byteOffset":0,
			"target":34962
		},
		{
			"buffer":0,
			"byteLength":816,
			"byteOffset":816,
			"target":34962
		},
		{
			"buffer":0,
			"byteLength":544,
			"byteOffset":1632,
			"target":34962
		},
		{
			"buffer":0,
			"byteLength":312,
			"byteOffset":2176,
			"target":34963
		},
		{
			"buffer":0,
			"byteLength":4200,
			"byteOffset":2488,
			"target":34962
		},
		{
			"buffer":0,
			"byteLength":4200,
			"byteOffset":6688,
			"target":34962
		},
		{
			"buffer":0,
			"byteLength":2800,
			"byteOffset":10888,
			"target":34962
		},
		{
			"buffer":0,
			"byteLength":3156,
			"byteOffset":13688,
			"target":34963
		},
		{
			"buffer":0,
			"byteLength":5544,
			"byteOffset":16844,
			"target":34962
		},
		{
			"buffer":0,
			"byteLength":5544,
			"byteOffset":22388,
			"target":34962
		},
		{
			"buffer":0,
			"byteLength":3696,
			"byteOffset":27932,
			"target":34962
		},
		{
			"buffer":0,
			"byteLength":3648,
			"byteOffset":31628,
			"target":34963
		},
		{
			"buffer":0,
			"byteLength":1944,
			"byteOffset":35276,
			"target":34962
		},
		{
			"buffer":0,
			"byteLength":1944,
			"byteOffset":37220,
			"target":34962
		},
		{
			"buffer":0,
			"byteLength":1296,
			"byteOffset":39164,
			"target":34962
		},
		{
			"buffer":0,
			"byteLength":1860,
			"byteOffset":40460,
			"target":34963
		},
		{
			"buffer":0,
			"byteLength":216,
			"byteOffset":42320,
			"target":34962
		},
		{
			"buffer":0,
			"byteLength":216,
			"byteOffset":42536,
			"target":34962
		},
		{
			"buffer":0,
			"byteLength":144,
			"byteOffset":42752,
			"target":34962
		},
		{
			"buffer":0,
			"byteLength":72,
			"byteOffset":42896,
			"target":34963
		},
		{
			"buffer":0,
			"byteLength":57456,
			"byteOffset":42968,
			"target":34962
		},
		{
			"buffer":0,
			"byteLength":57456,
			"byteOffset":100424,
			"target":34962
		},
		{
			"buffer":0,
			"byteLength":38304,
			"byteOffset":157880,
			"target":34962
		},
		{
			"buffer":0,
			"byteLength":54480,
			"byteOffset":196184,
			"target":34963
		},
		{
			"buffer":0,
			"byteLength":57456,
			"byteOffset":250664,
			"target":34962
		},
		{
			"buffer":0,
			"byteLength":57456,
			"byteOffset":308120,
			"target":34962
		},
		{
			"buffer":0,
			"byteLength":38304,
			"byteOffset":365576,
			"target":34962
		},
		{
			"buffer":0,
			"byteLength":18480,
			"byteOffset":403880,
			"target":34962
		},
		{
			"buffer":0,
			"byteLength":18480,
			"byteOffset":422360,
			"target":34962
		},
		{
			"buffer":0,
			"byteLength":12320,
			"byteOffset":440840,
			"target":34962
		},
		{
			"buffer":0,
			"byteLength":5400,
			"byteOffset":453160,
			"target":34963
		},
		{
			"buffer":0,
			"byteLength":18240,
			"byteOffset":458560,
			"target":34962
		},
		{
			"buffer":0,
			"byteLength":18240,
			"byteOffset":476800,
			"target":34962
		},
		{
			"buffer":0,
			"byteLength":12160,
			"byteOffset":495040,
			"target":34962
		},
		{
			"buffer":0,
			"byteLength":5400,
			"byteOffset":507200,
			"target":34963
		},
		{
			"buffer":0,
			"byteLength":18684,
			"byteOffset":512600,
			"target":34962
		},
		{
			"buffer":0,
			"byteLength":18684,
			"byteOffset":531284,
			"target":34962
		},
		{
			"buffer":0,
			"byteLength":12456,
			"byteOffset":549968,
			"target":34962
		},
		{
			"buffer":0,
			"byteLength":5400,
			"byteOffset":562424,
			"target":34963
		},
		{
			"buffer":0,
			"byteLength":2688,
			"byteOffset":567824,
			"target":34962
		},
		{
			"buffer":0,
			"byteLength":2688,
			"byteOffset":570512,
			"target":34962
		},
		{
			"buffer":0,
			"byteLength":1792,
			"byteOffset":573200,
			"target":34962
		},
		{
			"buffer":0,
			"byteLength":2304,
			"byteOffset":574992,
			"target":34963
		},
		{
			"buffer":0,
			"byteLength":2688,
			"byteOffset":577296,
			"target":34962
		},
		{
			"buffer":0,
			"byteLength":2688,
			"byteOffset":579984,
			"target":34962
		},
		{
			"buffer":0,
			"byteLength":1792,
			"byteOffset":582672,
			"target":34962
		},
		{
			"buffer":0,
			"byteLength":2688,
			"byteOffset":584464,
			"target":34962
		},
		{
			"buffer":0,
			"byteLength":2688,
			"byteOffset":587152,
			"target":34962
		},
		{
			"buffer":0,
			"byteLength":1792,
			"byteOffset":589840,
			"target":34962
		},
		{
			"buffer":0,
			"byteLength":2688,
			"byteOffset":591632,
			"target":34962
		},
		{
			"buffer":0,
			"byteLength":2688,
			"byteOffset":594320,
			"target":34962
		},
		{
			"buffer":0,
			"byteLength":1792,
			"byteOffset":597008,
			"target":34962
		},
		{
			"buffer":0,
			"byteLength":192,
			"byteOffset":598800,
			"target":34962
		},
		{
			"buffer":0,
			"byteLength":192,
			"byteOffset":598992,
			"target":34962
		},
		{
			"buffer":0,
			"byteLength":128,
			"byteOffset":599184,
			"target":34962
		},
		{
			"buffer":0,
			"byteLength":96,
			"byteOffset":599312,
			"target":34963
		},
		{
			"buffer":0,
			"byteLength":54264,
			"byteOffset":599408,
			"target":34962
		},
		{
			"buffer":0,
			"byteLength":54264,
			"byteOffset":653672,
			"target":34962
		},
		{
			"buffer":0,
			"byteLength":36176,
			"byteOffset":707936,
			"target":34962
		},
		{
			"buffer":0,
			"byteLength":37464,
			"byteOffset":744112,
			"target":34963
		},
		{
			"buffer":0,
			"byteLength":54264,
			"byteOffset":781576,
			"target":34962
		},
		{
			"buffer":0,
			"byteLength":54264,
			"byteOffset":835840,
			"target":34962
		},
		{
			"buffer":0,
			"byteLength":36176,
			"byteOffset":890104,
			"target":34962
		},
		{
			"buffer":0,
			"byteLength":6708,
			"byteOffset":926280,
			"target":34962
		},
		{
			"buffer":0,
			"byteLength":6708,
			"byteOffset":932988,
			"target":34962
		},
		{
			"buffer":0,
			"byteLength":4472,
			"byteOffset":939696,
			"target":34962
		},
		{
			"buffer":0,
			"byteLength":5760,
			"byteOffset":944168,
			"target":34963
		},
		{
			"buffer":0,
			"byteLength":6732,
			"byteOffset":949928,
			"target":34962
		},
		{
			"buffer":0,
			"byteLength":6732,
			"byteOffset":956660,
			"target":34962
		},
		{
			"buffer":0,
			"byteLength":4488,
			"byteOffset":963392,
			"target":34962
		},
		{
			"buffer":0,
			"byteLength":6528,
			"byteOffset":967880,
			"target":34963
		},
		{
			"buffer":0,
			"byteLength":6708,
			"byteOffset":974408,
			"target":34962
		},
		{
			"buffer":0,
			"byteLength":6708,
			"byteOffset":981116,
			"target":34962
		},
		{
			"buffer":0,
			"byteLength":4472,
			"byteOffset":987824,
			"target":34962
		},
		{
			"buffer":0,
			"byteLength":6732,
			"byteOffset":992296,
			"target":34962
		},
		{
			"buffer":0,
			"byteLength":6732,
			"byteOffset":999028,
			"target":34962
		},
		{
			"buffer":0,
			"byteLength":4488,
			"byteOffset":1005760,
			"target":34962
		},
		{
			"buffer":0,
			"byteLength":6708,
			"byteOffset":1010248,
			"target":34962
		},
		{
			"buffer":0,
			"byteLength":6708,
			"byteOffset":1016956,
			"target":34962
		},
		{
			"buffer":0,
			"byteLength":4472,
			"byteOffset":1023664,
			"target":34962
		},
		{
			"buffer":0,
			"byteLength":6732,
			"byteOffset":1028136,
			"target":34962
		},
		{
			"buffer":0,
			"byteLength":6732,
			"byteOffset":1034868,
			"target":34962
		},
		{
			"buffer":0,
			"byteLength":4488,
			"byteOffset":1041600,
			"target":34962
		},
		{
			"buffer":0,
			"byteLength":6708,
			"byteOffset":1046088,
			"target":34962
		},
		{
			"buffer":0,
			"byteLength":6708,
			"byteOffset":1052796,
			"target":34962
		},
		{
			"buffer":0,
			"byteLength":4472,
			"byteOffset":1059504,
			"target":34962
		},
		{
			"buffer":0,
			"byteLength":6732,
			"byteOffset":1063976,
			"target":34962
		},
		{
			"buffer":0,
			"byteLength":6732,
			"byteOffset":1070708,
			"target":34962
		},
		{
			"buffer":0,
			"byteLength":4488,
			"byteOffset":1077440,
			"target":34962
		},
		{
			"buffer":0,
			"byteLength":6708,
			"byteOffset":1081928,
			"target":34962
		},
		{
			"buffer":0,
			"byteLength":6708,
			"byteOffset":1088636,
			"target":34962
		},
		{
			"buffer":0,
			"byteLength":4472,
			"byteOffset":1095344,
			"target":34962
		},
		{
			"buffer":0,
			"byteLength":6732,
			"byteOffset":1099816,
			"target":34962
		},
		{
			"buffer":0,
			"byteLength":6732,
			"byteOffset":1106548,
			"target":34962
		},
		{
			"buffer":0,
			"byteLength":4488,
			"byteOffset":1113280,
			"target":34962
		},
		{
			"buffer":0,
			"byteLength":6708,
			"byteOffset":1117768,
			"target":34962
		},
		{
			"buffer":0,
			"byteLength":6708,
			"byteOffset":1124476,
			"target":34962
		},
		{
			"buffer":0,
			"byteLength":4472,
			"byteOffset":1131184,
			"target":34962
		},
		{
			"buffer":0,
			"byteLength":6732,
			"byteOffset":1135656,
			"target":34962
		},
		{
			"buffer":0,
			"byteLength":6732,
			"byteOffset":1142388,
			"target":34962
		},
		{
			"buffer":0,
			"byteLength":4488,
			"byteOffset":1149120,
			"target":34962
		},
		{
			"buffer":0,
			"byteLength":3384,
			"byteOffset":1153608,
			"target":34962
		},
		{
			"buffer":0,
			"byteLength":3384,
			"byteOffset":1156992,
			"target":34962
		},
		{
			"buffer":0,
			"byteLength":2256,
			"byteOffset":1160376,
			"target":34962
		},
		{
			"buffer":0,
			"byteLength":2880,
			"byteOffset":1162632,
			"target":34963
		},
		{
			"buffer":0,
			"byteLength":1824,
			"byteOffset":1165512,
			"target":34962
		},
		{
			"buffer":0,
			"byteLength":1824,
			"byteOffset":1167336,
			"target":34962
		},
		{
			"buffer":0,
			"byteLength":1216,
			"byteOffset":1169160,
			"target":34962
		},
		{
			"buffer":0,
			"byteLength":1128,
			"byteOffset":1170376,
			"target":34963
		},
		{
			"buffer":0,
			"byteLength":48,
			"byteOffset":1171504,
			"target":34962
		},
		{
			"buffer":0,
			"byteLength":48,
			"byteOffset":1171552,
			"target":34962
		},
		{
			"buffer":0,
			"byteLength":32,
			"byteOffset":1171600,
			"target":34962
		},
		{
			"buffer":0,
			"byteLength":12,
			"byteOffset":1171632,
			"target":34963
		}
	],
	"samplers":[
		{
			"magFilter":9729,
			"minFilter":9987
		}
	],
	"buffers":[
		{
			"byteLength":1171644,
			"uri":"pool.bin"
		}
	]
}
