{
	"asset":{
		"generator":"Khronos glTF Blender I/O v5.0.21",
		"version":"2.0"
	},
	"scene":0,
	"scenes":[
		{
			"name":"Scene",
			"nodes":[
				0
			]
		}
	],
	"nodes":[
		{
			"mesh":0,
			"name":"NotchRock_B"
		}
	],
	"materials":[
		{
			"name":"NotchRock_B_NotchRockB",
			"normalTexture":{
				"index":0
			},
			"occlusionTexture":{
				"index":1
			},
			"pbrMetallicRoughness":{
				"baseColorTexture":{
					"index":2
				},
				"metallicRoughnessTexture":{
					"index":1
				}
			}
		}
	],
	"meshes":[
		{
			"name":"NotchRock_B",
			"primitives":[
				{
					"attributes":{
						"POSITION":0,
						"NORMAL":1,
						"TEXCOORD_0":2,
						"TANGENT":3
					},
					"indices":4,
					"material":0
				}
			]
		}
	],
	"textures":[
		{
			"sampler":0,
			"source":0
		},
		{
			"sampler":0,
			"source":1
		},
		{
			"sampler":0,
			"source":2
		}
	],
	"images":[
		{
			"mimeType":"image/png",
			"name":"NotchRock_B_NotchRockB_Normal",
			"uri":"NotchRock_B_NotchRockB_Normal.png"
		},
		{
			"mimeType":"image/png",
			"name":"NotchRock_B_NotchRockB_ORM",
			"uri":"NotchRock_B_NotchRockB_ORM.png"
		},
		{
			"mimeType":"image/png",
			"name":"NotchRock_B_NotchRockB_BaseColor",
			"uri":"NotchRock_B_NotchRockB_BaseColor.png"
		}
	],
	"accessors":[
		{
			"bufferView":0,
			"componentType":5126,
			"count":12336,
			"max":[
				2.4541304111480713,
				3.4848039150238037,
				2.5713019371032715
			],
			"min":[
				-2.584548234939575,
				-0.5024790167808533,
				-2.34208083152771
			],
			"type":"VEC3"
		},
		{
			"bufferView":1,
			"componentType":5126,
			"count":12336,
			"type":"VEC3"
		},
		{
			"bufferView":2,
			"componentType":5126,
			"count":12336,
			"type":"VEC2"
		},
		{
			"bufferView":3,
			"componentType":5126,
			"count":12336,
			"type":"VEC4"
		},
		{
			"bufferView":4,
			"componentType":5123,
			"count":24000,
			"type":"SCALAR"
		}
	],
	"bufferViews":[
		{
			"buffer":0,
			"byteLength":148032,
			"byteOffset":0,
			"target":34962
		},
		{
			"buffer":0,
			"byteLength":148032,
			"byteOffset":148032,
			"target":34962
		},
		{
			"buffer":0,
			"byteLength":98688,
			"byteOffset":296064,
			"target":34962
		},
		{
			"buffer":0,
			"byteLength":197376,
			"byteOffset":394752,
			"target":34962
		},
		{
			"buffer":0,
			"byteLength":48000,
			"byteOffset":592128,
			"target":34963
		}
	],
	"samplers":[
		{
			"magFilter":9729,
			"minFilter":9987
		}
	],
	"buffers":[
		{
			"byteLength":640128,
			"uri":"NotchRock_B.bin"
		}
	]
}
