# MagicaVoxel @ Ephtracy

# group
o 

# material
mtllib banana_tree.mtl
usemtl palette

# normals
vn -1 0 0
vn 1 0 0
vn 0 0 1
vn 0 0 -1
vn 0 -1 0
vn 0 1 0

# texcoords
vt 0.337891 0.5
vt 0.482422 0.5
vt 0.583984 0.5

# verts
v -0.7 1.2 0.6
v -0.7 1.2 0.5
v -0.7 1.3 0.5
v -0.7 1.3 0.4
v -0.7 1.4 0.6
v -0.7 1.4 0.4
v -0.6 1.4 0.5
v -0.6 1.4 0.4
v -0.6 1.4 0.3
v -0.6 1.5 0.5
v -0.6 1.5 0.3
v -0.5 1.3 0.4
v -0.5 1.3 0.3
v -0.5 1.4 0.4
v -0.5 1.4 0.3
v -0.5 1.4 0.2
v -0.5 1.4 -0.4
v -0.5 1.4 -0.5
v -0.5 1.5 0.3
v -0.5 1.5 0.2
v -0.5 1.5 -0.3
v -0.5 1.5 -0.4
v -0.5 1.6 -0.3
v -0.5 1.6 -0.5
v -0.4 1.3 0.3
v -0.4 1.3 0.1
v -0.4 1.4 0.3
v -0.4 1.4 0.2
v -0.4 1.4 0.1
v -0.4 1.5 -0.2
v -0.4 1.5 -0.3
v -0.4 1.6 -0.2
v -0.4 1.6 -0.3
v -0.3 0.8 0.3
v -0.3 0.8 -0.1
v -0.3 0.9 0.3
v -0.3 0.9 -0.1
v -0.3 1.2 0.2
v -0.3 1.2 0.1
v -0.3 1.3 0.2
v -0.3 1.3 0.1
v -0.3 1.4 -0.1
v -0.3 1.4 -0.3
v -0.3 1.5 -0.1
v -0.3 1.5 -0.2
v -0.3 1.5 -0.3
v -0.2 0 0.2
v -0.2 0 -0.2
v -0.2 0.1 0.2
v -0.2 0.1 -0.2
v -0.2 0.8 -0.1
v -0.2 0.8 -0.2
v -0.2 0.9 0.2
v -0.2 0.9 -0.1
v -0.2 0.9 -0.2
v -0.2 1.1 0.2
v -0.2 1.1 0.1
v -0.2 1.2 0.1
v -0.2 1.2 -0.1
v -0.2 1.3 0
v -0.2 1.3 -0.2
v -0.2 1.4 0
v -0.2 1.4 -0.1
v -0.2 1.4 -0.2
v -0.1 0.1 0.1
v -0.1 0.1 -0.2
v -0.1 0.4 0.1
v -0.1 0.4 -0.2
v -0.1 0.8 0
v -0.1 0.8 -0.1
v -0.1 0.9 0
v -0.1 0.9 -0.1
v -0.1 0.9 -0.2
v -0.1 1.1 0.2
v -0.1 1.1 0.1
v -0.1 1.2 0.2
v -0.1 1.2 0.1
v -0.1 1.2 -0.1
v -0.1 1.2 -0.2
v -0.1 1.3 0.1
v -0.1 1.3 0
v -0.1 1.3 -0.1
v 0 0.4 0
v 0 0.4 -0.2
v 0 0.8 0.2
v 0 0.8 0.1
v 0 0.8 0
v 0 0.8 -0.1
v 0 0.8 -0.2
v 0 0.9 0.2
v 0 0.9 0.1
v 0 0.9 0
v 0 1.2 0.2
v 0 1.2 0.1
v 0 1.3 0.2
v 0 1.3 0.1
v 0.1 1.3 0.3
v 0.1 1.3 0.2
v 0.1 1.3 0.1
v 0.1 1.4 0.3
v 0.1 1.4 0.1
v 0.2 1.4 0.4
v 0.2 1.4 0.3
v 0.2 1.4 0.2
v 0.2 1.5 0.4
v 0.2 1.5 0.2
v 0.3 1.3 0.5
v 0.3 1.3 0.4
v 0.3 1.4 0.5
v 0.3 1.4 0.4
v 0.4 1.2 0.5
v 0.4 1.2 0.4
v 0.4 1.3 0.5
v 0.4 1.3 0.4
v 0.4 1.3 0.3
v 0.4 1.4 0.4
v 0.4 1.4 0.3
v -0.6 1.2 0.6
v -0.6 1.2 0.5
v -0.6 1.3 0.6
v -0.6 1.3 0.5
v -0.5 1.3 0.6
v -0.5 1.3 0.4
v -0.5 1.4 0.6
v -0.5 1.4 0.5
v -0.5 1.4 0.4
v -0.4 1.3 0.4
v -0.4 1.3 0.3
v -0.4 1.4 0.5
v -0.4 1.4 0.4
v -0.4 1.4 0.3
v -0.4 1.4 -0.4
v -0.4 1.4 -0.5
v -0.4 1.5 0.5
v -0.4 1.5 0.4
v -0.4 1.5 -0.4
v -0.4 1.5 -0.5
v -0.3 1.4 0.4
v -0.3 1.4 0.3
v -0.3 1.4 0.2
v -0.3 1.5 0.4
v -0.3 1.5 0.2
v -0.3 1.5 -0.4
v -0.3 1.5 -0.5
v -0.3 1.6 -0.4
v -0.3 1.6 -0.5
v -0.2 0.8 0.2
v -0.2 0.8 -0.1
v -0.2 0.9 0.2
v -0.2 0.9 -0.1
v -0.2 1.3 0.3
v -0.2 1.3 0.2
v -0.2 1.3 0.1
v -0.2 1.4 0.3
v -0.2 1.4 0.1
v -0.2 1.5 -0.2
v -0.2 1.5 -0.3
v -0.2 1.5 -0.4
v -0.2 1.6 -0.2
v -0.2 1.6 -0.4
v -0.1 1.2 0.2
v -0.1 1.2 0.1
v -0.1 1.3 0.2
v -0.1 1.3 0.1
v -0.1 1.4 -0.1
v -0.1 1.4 -0.2
v -0.1 1.4 -0.3
v -0.1 1.5 -0.1
v -0.1 1.5 -0.3
v 0 0.9 0.2
v 0 0.9 0.1
v 0 1 -0.1
v 0 1 -0.2
v 0 1.2 0.2
v 0 1.2 0.1
v 0 1.2 0
v 0 1.2 -0.1
v 0 1.2 -0.2
v 0 1.3 0
v 0 1.3 -0.1
v 0 1.3 -0.2
v 0 1.4 0
v 0 1.4 -0.2
v 0.1 0.8 0.3
v 0.1 0.8 0.1
v 0.1 0.8 0
v 0.1 0.9 0.3
v 0.1 0.9 0.1
v 0.1 1 0
v 0.1 1 -0.1
v 0.1 1.2 0.1
v 0.1 1.2 0
v 0.1 1.2 -0.1
v 0.1 1.3 0.1
v 0.1 1.3 0
v 0.2 0 0.2
v 0.2 0 -0.2
v 0.2 0.1 0.2
v 0.2 0.1 0.1
v 0.2 0.4 0.1
v 0.2 0.4 0
v 0.2 1 0
v 0.2 1 -0.2
v 0.2 1.2 0.2
v 0.2 1.2 0.1
v 0.2 1.3 0.3
v 0.2 1.3 0.2
v 0.2 1.3 0.1
v 0.2 1.4 0.3
v 0.2 1.4 0.2
v 0.3 1.3 0.2
v 0.3 1.3 0.1
v 0.3 1.4 0.2
v 0.3 1.4 0.1
v 0.4 1.4 0.4
v 0.4 1.4 0.3
v 0.4 1.4 0.2
v 0.4 1.5 0.4
v 0.4 1.5 0.2
v 0.5 1.3 0.4
v 0.5 1.3 0.3
v 0.5 1.4 0.4
v 0.5 1.4 0.3
v 0.6 1.2 0.5
v 0.6 1.2 0.4
v 0.6 1.4 0.5
v 0.6 1.4 0.4
v -0.7 1.2 0.6
v -0.7 1.4 0.6
v -0.6 1.2 0.6
v -0.6 1.3 0.6
v -0.5 1.3 0.6
v -0.5 1.4 0.6
v -0.6 1.4 0.5
v -0.6 1.5 0.5
v -0.5 1.4 0.5
v -0.4 1.4 0.5
v -0.4 1.5 0.5
v 0.3 1.3 0.5
v 0.3 1.4 0.5
v 0.4 1.2 0.5
v 0.4 1.3 0.5
v 0.6 1.2 0.5
v 0.6 1.4 0.5
v -0.5 1.3 0.4
v -0.5 1.4 0.4
v -0.4 1.3 0.4
v -0.4 1.4 0.4
v -0.4 1.5 0.4
v -0.3 1.4 0.4
v -0.3 1.5 0.4
v 0.2 1.4 0.4
v 0.2 1.5 0.4
v 0.3 1.4 0.4
v 0.4 1.4 0.4
v 0.4 1.5 0.4
v -0.4 1.3 0.3
v -0.4 1.4 0.3
v -0.3 0.8 0.3
v -0.3 0.9 0.3
v -0.3 1.4 0.3
v -0.2 1.3 0.3
v -0.2 1.4 0.3
v 0.1 0.8 0.3
v 0.1 0.9 0.3
v 0.1 1.3 0.3
v 0.1 1.4 0.3
v 0.2 1.3 0.3
v 0.2 1.4 0.3
v -0.3 1.2 0.2
v -0.3 1.3 0.2
v -0.2 0 0.2
v -0.2 0.1 0.2
v -0.2 0.9 0.2
v -0.2 1.1 0.2
v -0.2 1.3 0.2
v -0.1 1.1 0.2
v -0.1 1.2 0.2
v -0.1 1.3 0.2
v 0 0.9 0.2
v 0 1.2 0.2
v 0 1.3 0.2
v 0.1 1.3 0.2
v 0.2 0 0.2
v 0.2 0.1 0.2
v 0.2 1.2 0.2
v 0.2 1.3 0.2
v 0.2 1.4 0.2
v 0.3 1.3 0.2
v 0.3 1.4 0.2
v -0.2 1.1 0.1
v -0.2 1.2 0.1
v -0.1 0.1 0.1
v -0.1 0.4 0.1
v -0.1 1.1 0.1
v -0.1 1.2 0.1
v -0.1 1.3 0.1
v 0 0.9 0.1
v 0 1.2 0.1
v 0 1.3 0.1
v 0.1 0.9 0.1
v 0.1 1.2 0.1
v 0.2 0.1 0.1
v 0.2 0.4 0.1
v -0.2 1.3 0
v -0.2 1.4 0
v -0.1 0.8 0
v -0.1 0.9 0
v -0.1 1.3 0
v 0 0.4 0
v 0 0.8 0
v 0 0.9 0
v 0 1.3 0
v 0 1.4 0
v 0.1 0.8 0
v 0.1 1 0
v 0.2 0.4 0
v 0.2 1 0
v -0.3 1.4 -0.1
v -0.3 1.5 -0.1
v -0.2 0.8 -0.1
v -0.2 0.9 -0.1
v -0.2 1.4 -0.1
v -0.1 0.8 -0.1
v -0.1 0.9 -0.1
v -0.1 1.4 -0.1
v -0.1 1.5 -0.1
v -0.4 1.5 -0.2
v -0.4 1.6 -0.2
v -0.3 1.5 -0.2
v -0.2 1.5 -0.2
v -0.2 1.6 -0.2
v -0.5 1.5 -0.3
v -0.5 1.6 -0.3
v -0.4 1.5 -0.3
v -0.4 1.6 -0.3
v -0.5 1.4 -0.4
v -0.5 1.5 -0.4
v -0.4 1.4 -0.4
v -0.4 1.5 -0.4
v -0.7 1.2 0.5
v -0.7 1.3 0.5
v -0.6 1.2 0.5
v -0.6 1.3 0.5
v -0.7 1.3 0.4
v -0.7 1.4 0.4
v -0.6 1.4 0.4
v -0.5 1.3 0.4
v -0.5 1.4 0.4
v 0.3 1.3 0.4
v 0.3 1.4 0.4
v 0.4 1.2 0.4
v 0.4 1.3 0.4
v 0.4 1.4 0.4
v 0.5 1.3 0.4
v 0.5 1.4 0.4
v 0.6 1.2 0.4
v 0.6 1.4 0.4
v -0.6 1.4 0.3
v -0.6 1.5 0.3
v -0.5 1.3 0.3
v -0.5 1.4 0.3
v -0.5 1.5 0.3
v -0.4 1.3 0.3
v -0.4 1.4 0.3
v 0.4 1.3 0.3
v 0.4 1.4 0.3
v 0.5 1.3 0.3
v 0.5 1.4 0.3
v -0.5 1.4 0.2
v -0.5 1.5 0.2
v -0.4 1.4 0.2
v -0.3 1.4 0.2
v -0.3 1.5 0.2
v -0.2 0.8 0.2
v -0.2 0.9 0.2
v 0 0.8 0.2
v 0 0.9 0.2
v 0.2 1.4 0.2
v 0.2 1.5 0.2
v 0.3 1.4 0.2
v 0.4 1.4 0.2
v 0.4 1.5 0.2
v -0.4 1.3 0.1
v -0.4 1.4 0.1
v -0.3 1.2 0.1
v -0.3 1.3 0.1
v -0.2 1.2 0.1
v -0.2 1.3 0.1
v -0.2 1.4 0.1
v -0.1 1.2 0.1
v -0.1 1.3 0.1
v 0.1 1.2 0.1
v 0.1 1.3 0.1
v 0.1 1.4 0.1
v 0.2 1.2 0.1
v 0.2 1.3 0.1
v 0.3 1.3 0.1
v 0.3 1.4 0.1
v 0 1.2 0
v 0 1.3 0
v 0.1 1.2 0
v 0.1 1.3 0
v -0.3 0.8 -0.1
v -0.3 0.9 -0.1
v -0.2 0.8 -0.1
v -0.2 0.9 -0.1
v -0.2 1.2 -0.1
v -0.1 0.9 -0.1
v -0.1 1.2 -0.1
v -0.1 1.3 -0.1
v 0 1 -0.1
v 0 1.2 -0.1
v 0 1.3 -0.1
v 0.1 1 -0.1
v 0.1 1.2 -0.1
v -0.2 0 -0.2
v -0.2 0.1 -0.2
v -0.2 0.8 -0.2
v -0.2 0.9 -0.2
v -0.2 1.3 -0.2
v -0.2 1.4 -0.2
v -0.1 0.1 -0.2
v -0.1 0.4 -0.2
v -0.1 0.9 -0.2
v -0.1 1.2 -0.2
v -0.1 1.4 -0.2
v 0 0.4 -0.2
v 0 0.8 -0.2
v 0 1 -0.2
v 0 1.2 -0.2
v 0 1.3 -0.2
v 0 1.4 -0.2
v 0.2 0 -0.2
v 0.2 1 -0.2
v -0.3 1.4 -0.3
v -0.3 1.5 -0.3
v -0.2 1.5 -0.3
v -0.1 1.4 -0.3
v -0.1 1.5 -0.3
v -0.3 1.5 -0.4
v -0.3 1.6 -0.4
v -0.2 1.5 -0.4
v -0.2 1.6 -0.4
v -0.5 1.4 -0.5
v -0.5 1.6 -0.5
v -0.4 1.4 -0.5
v -0.4 1.5 -0.5
v -0.3 1.5 -0.5
v -0.3 1.6 -0.5
v -0.2 0 0.2
v 0.2 0 0.2
v -0.2 0 -0.2
v 0.2 0 -0.2
v -0.3 0.8 0.3
v 0.1 0.8 0.3
v -0.2 0.8 0.2
v 0 0.8 0.2
v 0 0.8 0.1
v 0.1 0.8 0.1
v -0.1 0.8 0
v 0 0.8 0
v 0.1 0.8 0
v -0.3 0.8 -0.1
v -0.2 0.8 -0.1
v -0.1 0.8 -0.1
v 0 0.8 -0.1
v -0.2 0.8 -0.2
v 0 0.8 -0.2
v -0.2 0.9 0.2
v 0 0.9 0.2
v -0.1 0.9 0.1
v 0 0.9 0.1
v -0.1 0.9 0
v 0 0.9 0
v -0.2 0.9 -0.1
v -0.1 0.9 -0.1
v -0.7 1.2 0.6
v -0.6 1.2 0.6
v -0.7 1.2 0.5
v -0.6 1.2 0.5
v 0.4 1.2 0.5
v 0.6 1.2 0.5
v 0.4 1.2 0.4
v 0.6 1.2 0.4
v -0.3 1.2 0.2
v -0.1 1.2 0.2
v 0 1.2 0.2
v 0.2 1.2 0.2
v -0.3 1.2 0.1
v -0.2 1.2 0.1
v -0.1 1.2 0.1
v 0 1.2 0.1
v 0.1 1.2 0.1
v 0.2 1.2 0.1
v -0.6 1.3 0.6
v -0.5 1.3 0.6
v -0.7 1.3 0.5
v -0.6 1.3 0.5
v 0.3 1.3 0.5
v 0.4 1.3 0.5
v -0.7 1.3 0.4
v -0.5 1.3 0.4
v -0.4 1.3 0.4
v 0.3 1.3 0.4
v 0.4 1.3 0.4
v 0.5 1.3 0.4
v -0.5 1.3 0.3
v -0.4 1.3 0.3
v -0.2 1.3 0.3
v 0.1 1.3 0.3
v 0.2 1.3 0.3
v 0.4 1.3 0.3
v 0.5 1.3 0.3
v -0.3 1.3 0.2
v -0.2 1.3 0.2
v 0.1 1.3 0.2
v 0.2 1.3 0.2
v 0.3 1.3 0.2
v -0.4 1.3 0.1
v -0.3 1.3 0.1
v 0.2 1.3 0.1
v 0.3 1.3 0.1
v -0.2 1.3 0
v -0.1 1.3 0
v -0.1 1.3 -0.1
v 0 1.3 -0.1
v -0.2 1.3 -0.2
v 0 1.3 -0.2
v -0.5 1.4 0.5
v -0.4 1.4 0.5
v -0.6 1.4 0.4
v -0.5 1.4 0.4
v -0.4 1.4 0.4
v -0.3 1.4 0.4
v 0.2 1.4 0.4
v 0.3 1.4 0.4
v 0.4 1.4 0.4
v -0.6 1.4 0.3
v -0.5 1.4 0.3
v -0.4 1.4 0.3
v -0.3 1.4 0.3
v 0.2 1.4 0.3
v 0.4 1.4 0.3
v -0.5 1.4 0.2
v -0.4 1.4 0.2
v 0.2 1.4 0.2
v 0.3 1.4 0.2
v 0.4 1.4 0.2
v -0.3 1.4 -0.1
v -0.2 1.4 -0.1
v -0.2 1.4 -0.2
v -0.1 1.4 -0.2
v -0.3 1.4 -0.3
v -0.1 1.4 -0.3
v -0.5 1.4 -0.4
v -0.4 1.4 -0.4
v -0.5 1.4 -0.5
v -0.4 1.4 -0.5
v -0.4 1.5 -0.2
v -0.3 1.5 -0.2
v -0.5 1.5 -0.3
v -0.4 1.5 -0.3
v -0.3 1.5 -0.3
v -0.2 1.5 -0.3
v -0.5 1.5 -0.4
v -0.4 1.5 -0.4
v -0.3 1.5 -0.4
v -0.2 1.5 -0.4
v -0.4 1.5 -0.5
v -0.3 1.5 -0.5
v -0.2 0.1 0.2
v 0.2 0.1 0.2
v -0.1 0.1 0.1
v 0.2 0.1 0.1
v -0.2 0.1 -0.2
v -0.1 0.1 -0.2
v -0.1 0.4 0.1
v 0.2 0.4 0.1
v 0 0.4 0
v 0.2 0.4 0
v -0.1 0.4 -0.2
v 0 0.4 -0.2
v -0.3 0.9 0.3
v 0.1 0.9 0.3
v -0.2 0.9 0.2
v 0 0.9 0.2
v 0 0.9 0.1
v 0.1 0.9 0.1
v -0.3 0.9 -0.1
v -0.2 0.9 -0.1
v -0.1 0.9 -0.1
v -0.2 0.9 -0.2
v -0.1 0.9 -0.2
v 0.1 1 0
v 0.2 1 0
v 0 1 -0.1
v 0.1 1 -0.1
v 0 1 -0.2
v 0.2 1 -0.2
v -0.2 1.1 0.2
v -0.1 1.1 0.2
v -0.2 1.1 0.1
v -0.1 1.1 0.1
v -0.1 1.2 0.2
v 0 1.2 0.2
v -0.2 1.2 0.1
v -0.1 1.2 0.1
v 0 1.2 0.1
v 0 1.2 0
v 0.1 1.2 0
v -0.2 1.2 -0.1
v -0.1 1.2 -0.1
v 0 1.2 -0.1
v 0.1 1.2 -0.1
v -0.1 1.2 -0.2
v 0 1.2 -0.2
v -0.2 1.3 0.2
v -0.1 1.3 0.2
v 0 1.3 0.2
v 0.1 1.3 0.2
v -0.2 1.3 0.1
v -0.1 1.3 0.1
v 0 1.3 0.1
v 0.1 1.3 0.1
v -0.1 1.3 0
v 0 1.3 0
v 0.1 1.3 0
v -0.7 1.4 0.6
v -0.5 1.4 0.6
v -0.6 1.4 0.5
v -0.5 1.4 0.5
v 0.3 1.4 0.5
v 0.6 1.4 0.5
v -0.7 1.4 0.4
v -0.6 1.4 0.4
v 0.3 1.4 0.4
v 0.4 1.4 0.4
v 0.5 1.4 0.4
v 0.6 1.4 0.4
v -0.3 1.4 0.3
v -0.2 1.4 0.3
v 0.1 1.4 0.3
v 0.2 1.4 0.3
v 0.4 1.4 0.3
v 0.5 1.4 0.3
v -0.4 1.4 0.2
v -0.3 1.4 0.2
v 0.2 1.4 0.2
v 0.3 1.4 0.2
v -0.4 1.4 0.1
v -0.2 1.4 0.1
v 0.1 1.4 0.1
v 0.3 1.4 0.1
v -0.2 1.4 0
v 0 1.4 0
v -0.2 1.4 -0.1
v -0.1 1.4 -0.1
v -0.1 1.4 -0.2
v 0 1.4 -0.2
v -0.6 1.5 0.5
v -0.4 1.5 0.5
v -0.4 1.5 0.4
v -0.3 1.5 0.4
v 0.2 1.5 0.4
v 0.4 1.5 0.4
v -0.6 1.5 0.3
v -0.5 1.5 0.3
v -0.5 1.5 0.2
v -0.3 1.5 0.2
v 0.2 1.5 0.2
v 0.4 1.5 0.2
v -0.3 1.5 -0.1
v -0.1 1.5 -0.1
v -0.3 1.5 -0.2
v -0.2 1.5 -0.2
v -0.2 1.5 -0.3
v -0.1 1.5 -0.3
v -0.4 1.6 -0.2
v -0.2 1.6 -0.2
v -0.5 1.6 -0.3
v -0.4 1.6 -0.3
v -0.3 1.6 -0.4
v -0.2 1.6 -0.4
v -0.5 1.6 -0.5
v -0.3 1.6 -0.5

# faces
f 3/3/1 2/3/1 1/3/1
f 5/3/1 3/3/1 1/3/1
f 5/3/1 4/3/1 3/3/1
f 6/3/1 4/3/1 5/3/1
f 10/3/1 8/3/1 7/3/1
f 10/3/1 9/3/1 8/3/1
f 11/3/1 9/3/1 10/3/1
f 14/3/1 13/3/1 12/3/1
f 15/3/1 13/3/1 14/3/1
f 19/3/1 16/3/1 15/3/1
f 20/3/1 16/3/1 19/3/1
f 22/3/1 18/3/1 17/3/1
f 23/3/1 22/3/1 21/3/1
f 24/3/1 18/3/1 22/3/1
f 24/3/1 22/3/1 23/3/1
f 27/3/1 26/3/1 25/3/1
f 28/3/1 26/3/1 27/3/1
f 29/3/1 26/3/1 28/3/1
f 32/3/1 31/3/1 30/3/1
f 33/3/1 31/3/1 32/3/1
f 36/2/1 35/2/1 34/2/1
f 37/2/1 35/2/1 36/2/1
f 40/3/1 39/3/1 38/3/1
f 41/3/1 39/3/1 40/3/1
f 44/3/1 43/3/1 42/3/1
f 45/3/1 43/3/1 44/3/1
f 46/3/1 43/3/1 45/3/1
f 49/1/1 48/1/1 47/1/1
f 50/1/1 48/1/1 49/1/1
f 54/2/1 52/2/1 51/2/1
f 55/2/1 52/2/1 54/2/1
f 56/2/1 54/2/1 53/2/1
f 57/2/1 54/2/1 56/2/1
f 58/2/1 54/2/1 57/2/1
f 59/2/1 54/2/1 58/2/1
f 62/3/1 61/3/1 60/3/1
f 63/3/1 61/3/1 62/3/1
f 64/3/1 61/3/1 63/3/1
f 67/1/1 66/1/1 65/1/1
f 68/1/1 66/1/1 67/1/1
f 71/1/1 70/1/1 69/1/1
f 72/1/1 70/1/1 71/1/1
f 76/2/1 75/2/1 74/2/1
f 77/2/1 75/2/1 76/2/1
f 78/2/1 73/2/1 72/2/1
f 79/2/1 73/2/1 78/2/1
f 80/3/1 78/3/1 77/3/1
f 81/3/1 78/3/1 80/3/1
f 82/3/1 78/3/1 81/3/1
f 87/1/1 84/1/1 83/1/1
f 88/1/1 84/1/1 87/1/1
f 89/1/1 84/1/1 88/1/1
f 90/2/1 86/2/1 85/2/1
f 91/1/1 87/1/1 86/1/1
f 91/2/1 86/2/1 90/2/1
f 92/1/1 87/1/1 91/1/1
f 95/3/1 94/3/1 93/3/1
f 96/3/1 94/3/1 95/3/1
f 100/3/1 98/3/1 97/3/1
f 100/3/1 99/3/1 98/3/1
f 101/3/1 99/3/1 100/3/1
f 105/3/1 103/3/1 102/3/1
f 105/3/1 104/3/1 103/3/1
f 106/3/1 104/3/1 105/3/1
f 109/3/1 108/3/1 107/3/1
f 110/3/1 108/3/1 109/3/1
f 113/3/1 112/3/1 111/3/1
f 114/3/1 112/3/1 113/3/1
f 116/3/1 115/3/1 114/3/1
f 117/3/1 115/3/1 116/3/1
f 118/3/2 119/3/2 120/3/2
f 120/3/2 119/3/2 121/3/2
f 122/3/2 123/3/2 124/3/2
f 124/3/2 123/3/2 125/3/2
f 125/3/2 123/3/2 126/3/2
f 127/3/2 128/3/2 130/3/2
f 130/3/2 128/3/2 131/3/2
f 129/3/2 130/3/2 134/3/2
f 134/3/2 130/3/2 135/3/2
f 132/3/2 133/3/2 136/3/2
f 136/3/2 133/3/2 137/3/2
f 138/3/2 139/3/2 141/3/2
f 139/3/2 140/3/2 141/3/2
f 141/3/2 140/3/2 142/3/2
f 143/3/2 144/3/2 145/3/2
f 145/3/2 144/3/2 146/3/2
f 147/2/2 148/2/2 149/2/2
f 149/2/2 148/2/2 150/2/2
f 151/3/2 152/3/2 154/3/2
f 152/3/2 153/3/2 154/3/2
f 154/3/2 153/3/2 155/3/2
f 156/3/2 157/3/2 159/3/2
f 157/3/2 158/3/2 159/3/2
f 159/3/2 158/3/2 160/3/2
f 161/3/2 162/3/2 163/3/2
f 163/3/2 162/3/2 164/3/2
f 165/3/2 166/3/2 168/3/2
f 166/3/2 167/3/2 168/3/2
f 168/3/2 167/3/2 169/3/2
f 170/2/2 171/2/2 174/2/2
f 174/2/2 171/2/2 175/2/2
f 172/2/2 173/2/2 177/2/2
f 177/2/2 173/2/2 178/2/2
f 176/3/2 177/3/2 179/3/2
f 179/3/2 177/3/2 180/3/2
f 179/3/2 180/3/2 182/3/2
f 180/3/2 181/3/2 182/3/2
f 182/3/2 181/3/2 183/3/2
f 184/2/2 185/2/2 187/2/2
f 185/1/2 186/1/2 188/1/2
f 187/2/2 185/2/2 188/2/2
f 188/1/2 186/1/2 189/1/2
f 188/1/2 189/1/2 191/1/2
f 189/1/2 190/1/2 191/1/2
f 191/1/2 190/1/2 192/1/2
f 192/1/2 190/1/2 193/1/2
f 191/3/2 192/3/2 194/3/2
f 194/3/2 192/3/2 195/3/2
f 196/1/2 197/1/2 198/1/2
f 198/1/2 197/1/2 199/1/2
f 199/1/2 197/1/2 200/1/2
f 200/1/2 197/1/2 201/1/2
f 201/1/2 197/1/2 202/1/2
f 202/1/2 197/1/2 203/1/2
f 204/3/2 205/3/2 207/3/2
f 207/3/2 205/3/2 208/3/2
f 206/3/2 207/3/2 209/3/2
f 209/3/2 207/3/2 210/3/2
f 211/3/2 212/3/2 213/3/2
f 213/3/2 212/3/2 214/3/2
f 215/3/2 216/3/2 218/3/2
f 216/3/2 217/3/2 218/3/2
f 218/3/2 217/3/2 219/3/2
f 220/3/2 221/3/2 222/3/2
f 222/3/2 221/3/2 223/3/2
f 224/3/2 225/3/2 226/3/2
f 226/3/2 225/3/2 227/3/2
f 230/3/3 229/3/3 228/3/3
f 231/3/3 229/3/3 230/3/3
f 232/3/3 229/3/3 231/3/3
f 233/3/3 229/3/3 232/3/3
f 236/3/3 235/3/3 234/3/3
f 237/3/3 235/3/3 236/3/3
f 238/3/3 235/3/3 237/3/3
f 242/3/3 240/3/3 239/3/3
f 243/3/3 242/3/3 241/3/3
f 244/3/3 240/3/3 242/3/3
f 244/3/3 242/3/3 243/3/3
f 247/3/3 246/3/3 245/3/3
f 248/3/3 246/3/3 247/3/3
f 250/3/3 249/3/3 248/3/3
f 251/3/3 249/3/3 250/3/3
f 254/3/3 253/3/3 252/3/3
f 255/3/3 253/3/3 254/3/3
f 256/3/3 253/3/3 255/3/3
f 261/3/3 258/3/3 257/3/3
f 262/3/3 261/3/3 257/3/3
f 263/3/3 261/3/3 262/3/3
f 264/2/3 260/2/3 259/2/3
f 265/2/3 260/2/3 264/2/3
f 268/3/3 267/3/3 266/3/3
f 269/3/3 267/3/3 268/3/3
f 276/3/3 271/3/3 270/3/3
f 277/2/3 275/2/3 274/2/3
f 278/3/3 276/3/3 270/3/3
f 279/3/3 276/3/3 278/3/3
f 280/2/3 277/2/3 274/2/3
f 280/2/3 278/2/3 277/2/3
f 281/2/3 278/2/3 280/2/3
f 283/3/3 282/3/3 281/3/3
f 284/1/3 273/1/3 272/1/3
f 285/1/3 273/1/3 284/1/3
f 286/3/3 283/3/3 281/3/3
f 287/3/3 283/3/3 286/3/3
f 289/3/3 288/3/3 287/3/3
f 290/3/3 288/3/3 289/3/3
f 295/2/3 292/2/3 291/2/3
f 296/2/3 292/2/3 295/2/3
f 299/3/3 297/3/3 296/3/3
f 300/3/3 297/3/3 299/3/3
f 301/1/3 299/1/3 298/1/3
f 302/1/3 299/1/3 301/1/3
f 303/1/3 294/1/3 293/1/3
f 304/1/3 294/1/3 303/1/3
f 309/3/3 306/3/3 305/3/3
f 311/1/3 308/1/3 307/1/3
f 312/1/3 308/1/3 311/1/3
f 313/3/3 306/3/3 309/3/3
f 314/3/3 306/3/3 313/3/3
f 315/1/3 311/1/3 310/1/3
f 317/1/3 315/1/3 310/1/3
f 317/1/3 316/1/3 315/1/3
f 318/1/3 316/1/3 317/1/3
f 323/3/3 320/3/3 319/3/3
f 324/2/3 322/2/3 321/2/3
f 325/2/3 322/2/3 324/2/3
f 326/3/3 320/3/3 323/3/3
f 327/3/3 320/3/3 326/3/3
f 330/3/3 329/3/3 328/3/3
f 331/3/3 329/3/3 330/3/3
f 332/3/3 329/3/3 331/3/3
f 335/3/3 334/3/3 333/3/3
f 336/3/3 334/3/3 335/3/3
f 339/3/3 338/3/3 337/3/3
f 340/3/3 338/3/3 339/3/3
f 341/3/4 342/3/4 343/3/4
f 343/3/4 342/3/4 344/3/4
f 345/3/4 346/3/4 347/3/4
f 345/3/4 347/3/4 348/3/4
f 348/3/4 347/3/4 349/3/4
f 350/3/4 351/3/4 353/3/4
f 353/3/4 351/3/4 354/3/4
f 352/3/4 353/3/4 355/3/4
f 352/3/4 355/3/4 357/3/4
f 355/3/4 356/3/4 357/3/4
f 357/3/4 356/3/4 358/3/4
f 359/3/4 360/3/4 362/3/4
f 362/3/4 360/3/4 363/3/4
f 361/3/4 362/3/4 364/3/4
f 364/3/4 362/3/4 365/3/4
f 366/3/4 367/3/4 368/3/4
f 368/3/4 367/3/4 369/3/4
f 370/3/4 371/3/4 372/3/4
f 372/3/4 371/3/4 373/3/4
f 373/3/4 371/3/4 374/3/4
f 375/2/4 376/2/4 377/2/4
f 377/2/4 376/2/4 378/2/4
f 379/3/4 380/3/4 381/3/4
f 381/3/4 380/3/4 382/3/4
f 382/3/4 380/3/4 383/3/4
f 384/3/4 385/3/4 387/3/4
f 386/3/4 387/3/4 388/3/4
f 387/3/4 385/3/4 389/3/4
f 388/3/4 387/3/4 389/3/4
f 389/3/4 385/3/4 390/3/4
f 388/3/4 389/3/4 391/3/4
f 391/3/4 389/3/4 392/3/4
f 393/3/4 394/3/4 396/3/4
f 394/3/4 395/3/4 396/3/4
f 396/3/4 395/3/4 397/3/4
f 397/3/4 395/3/4 398/3/4
f 398/3/4 395/3/4 399/3/4
f 400/3/4 401/3/4 402/3/4
f 402/3/4 401/3/4 403/3/4
f 404/2/4 405/2/4 406/2/4
f 406/2/4 405/2/4 407/2/4
f 407/2/4 408/2/4 409/2/4
f 409/2/4 408/2/4 410/2/4
f 410/3/4 411/3/4 413/3/4
f 413/3/4 411/3/4 414/3/4
f 412/1/4 413/1/4 415/1/4
f 415/1/4 413/1/4 416/1/4
f 417/1/4 418/1/4 423/1/4
f 419/2/4 420/2/4 425/2/4
f 421/3/4 422/3/4 427/3/4
f 423/1/4 424/1/4 428/1/4
f 425/2/4 426/2/4 429/2/4
f 419/2/4 425/2/4 429/2/4
f 429/2/4 426/2/4 430/2/4
f 430/2/4 426/2/4 431/2/4
f 421/3/4 427/3/4 432/3/4
f 432/3/4 427/3/4 433/3/4
f 423/1/4 428/1/4 434/1/4
f 417/1/4 423/1/4 434/1/4
f 429/1/4 430/1/4 434/1/4
f 428/1/4 429/1/4 434/1/4
f 434/1/4 430/1/4 435/1/4
f 436/3/4 437/3/4 438/3/4
f 436/3/4 438/3/4 439/3/4
f 439/3/4 438/3/4 440/3/4
f 441/3/4 442/3/4 443/3/4
f 443/3/4 442/3/4 444/3/4
f 445/3/4 446/3/4 447/3/4
f 447/3/4 446/3/4 448/3/4
f 448/3/4 446/3/4 449/3/4
f 449/3/4 446/3/4 450/3/4
f 453/1/5 452/1/5 451/1/5
f 454/1/5 452/1/5 453/1/5
f 457/2/5 456/2/5 455/2/5
f 458/2/5 456/2/5 457/2/5
f 459/2/5 456/2/5 458/2/5
f 460/2/5 456/2/5 459/2/5
f 462/1/5 460/1/5 459/1/5
f 463/1/5 460/1/5 462/1/5
f 464/2/5 457/2/5 455/2/5
f 465/2/5 457/2/5 464/2/5
f 466/1/5 462/1/5 461/1/5
f 467/1/5 462/1/5 466/1/5
f 468/2/5 466/2/5 465/2/5
f 468/2/5 467/2/5 466/2/5
f 469/2/5 467/2/5 468/2/5
f 472/2/5 471/2/5 470/2/5
f 473/2/5 471/2/5 472/2/5
f 474/2/5 472/2/5 470/2/5
f 474/1/5 473/1/5 472/1/5
f 475/1/5 473/1/5 474/1/5
f 476/2/5 474/2/5 470/2/5
f 477/2/5 474/2/5 476/2/5
f 480/3/5 479/3/5 478/3/5
f 481/3/5 479/3/5 480/3/5
f 484/3/5 483/3/5 482/3/5
f 485/3/5 483/3/5 484/3/5
f 490/3/5 487/3/5 486/3/5
f 491/3/5 487/3/5 490/3/5
f 492/3/5 487/3/5 491/3/5
f 493/3/5 489/3/5 488/3/5
f 494/3/5 489/3/5 493/3/5
f 495/3/5 489/3/5 494/3/5
f 499/3/5 497/3/5 496/3/5
f 502/3/5 499/3/5 498/3/5
f 503/3/5 497/3/5 499/3/5
f 503/3/5 499/3/5 502/3/5
f 505/3/5 501/3/5 500/3/5
f 506/3/5 501/3/5 505/3/5
f 508/3/5 504/3/5 503/3/5
f 509/3/5 504/3/5 508/3/5
f 513/3/5 507/3/5 506/3/5
f 514/3/5 507/3/5 513/3/5
f 515/3/5 510/3/5 509/3/5
f 516/3/5 510/3/5 515/3/5
f 517/3/5 512/3/5 511/3/5
f 518/3/5 512/3/5 517/3/5
f 520/3/5 515/3/5 509/3/5
f 521/3/5 515/3/5 520/3/5
f 522/3/5 519/3/5 518/3/5
f 523/3/5 519/3/5 522/3/5
f 526/3/5 525/3/5 524/3/5
f 528/3/5 526/3/5 524/3/5
f 528/3/5 527/3/5 526/3/5
f 529/3/5 527/3/5 528/3/5
f 533/3/5 531/3/5 530/3/5
f 534/3/5 531/3/5 533/3/5
f 539/3/5 533/3/5 532/3/5
f 540/3/5 533/3/5 539/3/5
f 541/3/5 535/3/5 534/3/5
f 542/3/5 535/3/5 541/3/5
f 543/3/5 538/3/5 537/3/5
f 543/3/5 537/3/5 536/3/5
f 544/3/5 538/3/5 543/3/5
f 545/3/5 541/3/5 540/3/5
f 546/3/5 541/3/5 545/3/5
f 547/3/5 544/3/5 543/3/5
f 548/3/5 544/3/5 547/3/5
f 549/3/5 544/3/5 548/3/5
f 552/3/5 551/3/5 550/3/5
f 554/3/5 552/3/5 550/3/5
f 554/3/5 553/3/5 552/3/5
f 555/3/5 553/3/5 554/3/5
f 558/3/5 557/3/5 556/3/5
f 559/3/5 557/3/5 558/3/5
f 563/3/5 561/3/5 560/3/5
f 564/3/5 561/3/5 563/3/5
f 566/3/5 563/3/5 562/3/5
f 566/3/5 565/3/5 564/3/5
f 566/3/5 564/3/5 563/3/5
f 567/3/5 565/3/5 566/3/5
f 568/3/5 565/3/5 567/3/5
f 569/3/5 565/3/5 568/3/5
f 570/3/5 568/3/5 567/3/5
f 571/3/5 568/3/5 570/3/5
f 572/1/6 573/1/6 574/1/6
f 574/1/6 573/1/6 575/1/6
f 572/1/6 574/1/6 576/1/6
f 576/1/6 574/1/6 577/1/6
f 578/1/6 579/1/6 580/1/6
f 580/1/6 579/1/6 581/1/6
f 578/1/6 580/1/6 582/1/6
f 582/1/6 580/1/6 583/1/6
f 584/2/6 585/2/6 586/2/6
f 586/2/6 585/2/6 587/2/6
f 587/2/6 585/2/6 588/2/6
f 588/2/6 585/2/6 589/2/6
f 584/2/6 586/2/6 590/2/6
f 590/2/6 586/2/6 591/2/6
f 591/2/6 592/2/6 593/2/6
f 593/2/6 592/2/6 594/2/6
f 595/1/6 596/1/6 598/1/6
f 597/1/6 598/1/6 599/1/6
f 598/1/6 596/1/6 600/1/6
f 599/1/6 598/1/6 600/1/6
f 601/2/6 602/2/6 603/2/6
f 603/2/6 602/2/6 604/2/6
f 605/2/6 606/2/6 608/2/6
f 608/2/6 606/2/6 609/2/6
f 607/2/6 608/2/6 612/2/6
f 612/2/6 608/2/6 613/2/6
f 610/1/6 611/1/6 614/1/6
f 614/1/6 611/1/6 615/1/6
f 613/2/6 614/2/6 616/2/6
f 616/2/6 614/2/6 617/2/6
f 618/3/6 619/3/6 622/3/6
f 622/3/6 619/3/6 623/3/6
f 620/3/6 621/3/6 624/3/6
f 624/3/6 621/3/6 625/3/6
f 623/3/6 624/3/6 626/3/6
f 624/3/6 625/3/6 626/3/6
f 626/3/6 625/3/6 627/3/6
f 627/3/6 625/3/6 628/3/6
f 629/3/6 630/3/6 631/3/6
f 631/3/6 630/3/6 632/3/6
f 629/3/6 631/3/6 635/3/6
f 635/3/6 631/3/6 636/3/6
f 633/3/6 634/3/6 637/3/6
f 637/3/6 634/3/6 638/3/6
f 638/3/6 634/3/6 639/3/6
f 639/3/6 634/3/6 640/3/6
f 638/3/6 639/3/6 645/3/6
f 645/3/6 639/3/6 646/3/6
f 641/3/6 642/3/6 648/3/6
f 643/3/6 644/3/6 649/3/6
f 647/3/6 648/3/6 651/3/6
f 648/3/6 642/3/6 652/3/6
f 651/3/6 648/3/6 652/3/6
f 649/3/6 650/3/6 653/3/6
f 643/3/6 649/3/6 653/3/6
f 653/3/6 650/3/6 654/3/6
f 655/3/6 656/3/6 657/3/6
f 657/3/6 656/3/6 658/3/6
f 658/3/6 656/3/6 659/3/6
f 659/3/6 656/3/6 660/3/6
f 661/3/6 662/3/6 663/3/6
f 661/3/6 663/3/6 667/3/6
f 663/3/6 664/3/6 667/3/6
f 667/3/6 664/3/6 668/3/6
f 668/3/6 664/3/6 669/3/6
f 669/3/6 664/3/6 670/3/6
f 665/3/6 666/3/6 671/3/6
f 671/3/6 666/3/6 672/3/6
f 673/3/6 674/3/6 675/3/6
f 675/3/6 674/3/6 676/3/6
f 676/3/6 674/3/6 677/3/6
f 677/3/6 674/3/6 678/3/6
f 679/3/6 680/3/6 682/3/6
f 682/3/6 680/3/6 683/3/6
f 681/3/6 682/3/6 683/3/6
f 683/3/6 680/3/6 684/3/6
f 681/3/6 683/3/6 685/3/6
f 685/3/6 683/3/6 686/3/6
