{
	"asset":{
		"generator":"Khronos glTF Blender I/O v5.0.21",
		"version":"2.0"
	},
	"scene":0,
	"scenes":[
		{
			"name":"Scene",
			"nodes":[
				0
			]
		}
	],
	"nodes":[
		{
			"mesh":0,
			"name":"Ishigaki_Straight"
		}
	],
	"materials":[
		{
			"name":"Ishigaki_Straight_IshigakiStraight",
			"normalTexture":{
				"index":0
			},
			"occlusionTexture":{
				"index":1
			},
			"pbrMetallicRoughness":{
				"baseColorTexture":{
					"index":2
				},
				"metallicRoughnessTexture":{
					"index":1
				}
			}
		}
	],
	"meshes":[
		{
			"name":"Ishigaki_Straight",
			"primitives":[
				{
					"attributes":{
						"POSITION":0,
						"NORMAL":1,
						"TEXCOORD_0":2
					},
					"indices":3,
					"material":0
				}
			]
		}
	],
	"textures":[
		{
			"sampler":0,
			"source":0
		},
		{
			"sampler":0,
			"source":1
		},
		{
			"sampler":0,
			"source":2
		}
	],
	"images":[
		{
			"mimeType":"image/png",
			"name":"Ishigaki_Straight_IshigakiStraight_Normal",
			"uri":"Ishigaki_Straight_IshigakiStraight_Normal.png"
		},
		{
			"mimeType":"image/png",
			"name":"Ishigaki_Straight_IshigakiStraight_ORM",
			"uri":"Ishigaki_Straight_IshigakiStraight_ORM.png"
		},
		{
			"mimeType":"image/png",
			"name":"Ishigaki_Straight_IshigakiStraight_BaseColor",
			"uri":"Ishigaki_Straight_IshigakiStraight_BaseColor.png"
		}
	],
	"accessors":[
		{
			"bufferView":0,
			"componentType":5126,
			"count":15422,
			"max":[
				4,
				1.4187171459197998,
				0.4171643853187561
			],
			"min":[
				-3.725290298461914e-09,
				-0.09497807174921036,
				-0.40734782814979553
			],
			"type":"VEC3"
		},
		{
			"bufferView":1,
			"componentType":5126,
			"count":15422,
			"type":"VEC3"
		},
		{
			"bufferView":2,
			"componentType":5126,
			"count":15422,
			"type":"VEC2"
		},
		{
			"bufferView":3,
			"componentType":5123,
			"count":42024,
			"type":"SCALAR"
		}
	],
	"bufferViews":[
		{
			"buffer":0,
			"byteLength":185064,
			"byteOffset":0,
			"target":34962
		},
		{
			"buffer":0,
			"byteLength":185064,
			"byteOffset":185064,
			"target":34962
		},
		{
			"buffer":0,
			"byteLength":123376,
			"byteOffset":370128,
			"target":34962
		},
		{
			"buffer":0,
			"byteLength":84048,
			"byteOffset":493504,
			"target":34963
		}
	],
	"samplers":[
		{
			"magFilter":9729,
			"minFilter":9987
		}
	],
	"buffers":[
		{
			"byteLength":577552,
			"uri":"Ishigaki_Straight.bin"
		}
	]
}
