# MagicaVoxel @ Ephtracy

# group
o 

# material
mtllib station.mtl
usemtl palette

# normals
vn -1 0 0
vn 1 0 0
vn 0 0 1
vn 0 0 -1
vn 0 -1 0
vn 0 1 0

# texcoords
vt 0.306641 0.5
vt 0.482422 0.5
vt 0.958984 0.5
vt 0.994141 0.5

# verts
v -0.8 0 0.7
v -0.8 0 -0.7
v -0.8 1.4 0.7
v -0.8 1.4 -0.7
v -0.8 1.6 0.7
v -0.8 1.6 -0.7
v -0.7 1.6 0.6
v -0.7 1.6 -0.6
v -0.7 1.8 0.6
v -0.7 1.8 -0.6
v -0.5 1.8 0.5
v -0.5 1.8 -0.5
v -0.5 2.6 0.5
v -0.5 2.6 -0.5
v -0.5 2.8 0.5
v -0.5 2.8 -0.5
v -0.4 2.8 0.4
v -0.4 2.8 -0.4
v -0.4 3 0.4
v -0.4 3 -0.4
v 0.2 1.9 0.5
v 0.2 1.9 0.4
v 0.2 2 0.5
v 0.2 2 0.4
v 0.2 2.4 0.5
v 0.2 2.4 0.4
v 0.2 2.5 0.5
v 0.2 2.5 0.4
v 0.3 1 0.7
v 0.3 1 0.6
v 0.3 1.1 0.7
v 0.3 1.1 0.6
v 0.3 2 0.5
v 0.3 2 0.4
v 0.3 2.4 0.5
v 0.3 2.4 0.4
v 0.4 0 0.7
v 0.4 0 0.6
v 0.4 1 0.7
v 0.4 1 0.6
v -0.4 0 0.7
v -0.4 0 0.6
v -0.4 1 0.7
v -0.4 1 0.6
v -0.3 1 0.7
v -0.3 1 0.6
v -0.3 1.1 0.7
v -0.3 1.1 0.6
v -0.3 2 0.5
v -0.3 2 0.4
v -0.3 2.4 0.5
v -0.3 2.4 0.4
v -0.2 1.9 0.5
v -0.2 1.9 0.4
v -0.2 2 0.5
v -0.2 2 0.4
v -0.2 2.4 0.5
v -0.2 2.4 0.4
v -0.2 2.5 0.5
v -0.2 2.5 0.4
v 0.4 2.8 0.4
v 0.4 2.8 -0.4
v 0.4 3 0.4
v 0.4 3 -0.4
v 0.5 1.8 0.5
v 0.5 1.8 -0.5
v 0.5 2.6 0.5
v 0.5 2.6 -0.5
v 0.5 2.8 0.5
v 0.5 2.8 -0.5
v 0.7 1.6 0.6
v 0.7 1.6 -0.6
v 0.7 1.8 0.6
v 0.7 1.8 -0.6
v 0.8 0 0.7
v 0.8 0 -0.7
v 0.8 1.4 0.7
v 0.8 1.4 -0.7
v 0.8 1.6 0.7
v 0.8 1.6 -0.7
v -0.8 0 0.7
v -0.8 1.4 0.7
v -0.8 1.6 0.7
v -0.4 0 0.7
v -0.4 1 0.7
v -0.3 1 0.7
v -0.3 1.1 0.7
v 0.3 1 0.7
v 0.3 1.1 0.7
v 0.4 0 0.7
v 0.4 1 0.7
v 0.8 0 0.7
v 0.8 1.4 0.7
v 0.8 1.6 0.7
v -0.7 1.6 0.6
v -0.7 1.8 0.6
v -0.4 0 0.6
v -0.4 1 0.6
v -0.3 1 0.6
v -0.3 1.1 0.6
v 0.3 1 0.6
v 0.3 1.1 0.6
v 0.4 0 0.6
v 0.4 1 0.6
v 0.7 1.6 0.6
v 0.7 1.8 0.6
v -0.5 1.8 0.5
v -0.5 2.6 0.5
v -0.5 2.8 0.5
v -0.3 2 0.5
v -0.3 2.4 0.5
v -0.2 1.9 0.5
v -0.2 2 0.5
v -0.2 2.4 0.5
v -0.2 2.5 0.5
v 0.2 1.9 0.5
v 0.2 2 0.5
v 0.2 2.4 0.5
v 0.2 2.5 0.5
v 0.3 2 0.5
v 0.3 2.4 0.5
v 0.5 1.8 0.5
v 0.5 2.6 0.5
v 0.5 2.8 0.5
v -0.4 2.8 0.4
v -0.4 3 0.4
v -0.3 2 0.4
v -0.3 2.4 0.4
v -0.2 1.9 0.4
v -0.2 2 0.4
v -0.2 2.4 0.4
v -0.2 2.5 0.4
v -0.1 2.1 0.4
v -0.1 2.4 0.4
v 0 2.2 0.4
v 0 2.4 0.4
v 0.2 1.9 0.4
v 0.2 2 0.4
v 0.2 2.1 0.4
v 0.2 2.2 0.4
v 0.2 2.4 0.4
v 0.2 2.5 0.4
v 0.3 2 0.4
v 0.3 2.4 0.4
v 0.4 2.8 0.4
v 0.4 3 0.4
v -0.4 2.8 -0.4
v -0.4 3 -0.4
v 0.4 2.8 -0.4
v 0.4 3 -0.4
v -0.5 1.8 -0.5
v -0.5 2.6 -0.5
v -0.5 2.8 -0.5
v 0.5 1.8 -0.5
v 0.5 2.6 -0.5
v 0.5 2.8 -0.5
v -0.7 1.6 -0.6
v -0.7 1.8 -0.6
v 0.7 1.6 -0.6
v 0.7 1.8 -0.6
v -0.8 0 -0.7
v -0.8 1.4 -0.7
v -0.8 1.6 -0.7
v 0.8 0 -0.7
v 0.8 1.4 -0.7
v 0.8 1.6 -0.7
v -0.8 0 0.7
v -0.4 0 0.7
v 0.4 0 0.7
v 0.8 0 0.7
v -0.4 0 0.6
v 0.4 0 0.6
v -0.8 0 -0.7
v 0.8 0 -0.7
v -0.4 1 0.7
v -0.3 1 0.7
v 0.3 1 0.7
v 0.4 1 0.7
v -0.4 1 0.6
v -0.3 1 0.6
v 0.3 1 0.6
v 0.4 1 0.6
v -0.3 1.1 0.7
v 0.3 1.1 0.7
v -0.3 1.1 0.6
v 0.3 1.1 0.6
v -0.3 2.4 0.5
v -0.2 2.4 0.5
v 0.2 2.4 0.5
v 0.3 2.4 0.5
v -0.3 2.4 0.4
v -0.2 2.4 0.4
v 0.2 2.4 0.4
v 0.3 2.4 0.4
v -0.2 2.5 0.5
v 0.2 2.5 0.5
v -0.2 2.5 0.4
v 0.2 2.5 0.4
v -0.8 1.6 0.7
v 0.8 1.6 0.7
v -0.7 1.6 0.6
v 0.7 1.6 0.6
v -0.7 1.6 -0.6
v 0.7 1.6 -0.6
v -0.8 1.6 -0.7
v 0.8 1.6 -0.7
v -0.7 1.8 0.6
v 0.7 1.8 0.6
v -0.5 1.8 0.5
v 0.5 1.8 0.5
v -0.5 1.8 -0.5
v 0.5 1.8 -0.5
v -0.7 1.8 -0.6
v 0.7 1.8 -0.6
v -0.2 1.9 0.5
v 0.2 1.9 0.5
v -0.2 1.9 0.4
v 0.2 1.9 0.4
v -0.3 2 0.5
v -0.2 2 0.5
v 0.2 2 0.5
v 0.3 2 0.5
v -0.3 2 0.4
v -0.2 2 0.4
v 0.2 2 0.4
v 0.3 2 0.4
v -0.5 2.8 0.5
v 0.5 2.8 0.5
v -0.4 2.8 0.4
v 0.4 2.8 0.4
v -0.4 2.8 -0.4
v 0.4 2.8 -0.4
v -0.5 2.8 -0.5
v 0.5 2.8 -0.5
v -0.4 3 0.4
v 0.4 3 0.4
v -0.4 3 -0.4
v 0.4 3 -0.4

# faces
f 3/1/1 2/1/1 1/1/1
f 4/1/1 2/1/1 3/1/1
f 5/2/1 4/2/1 3/2/1
f 6/2/1 4/2/1 5/2/1
f 9/2/1 8/2/1 7/2/1
f 10/2/1 8/2/1 9/2/1
f 13/1/1 12/1/1 11/1/1
f 14/1/1 12/1/1 13/1/1
f 15/2/1 14/2/1 13/2/1
f 16/2/1 14/2/1 15/2/1
f 19/2/1 18/2/1 17/2/1
f 20/2/1 18/2/1 19/2/1
f 23/1/1 22/1/1 21/1/1
f 24/1/1 22/1/1 23/1/1
f 27/1/1 26/1/1 25/1/1
f 28/1/1 26/1/1 27/1/1
f 31/1/1 30/1/1 29/1/1
f 32/1/1 30/1/1 31/1/1
f 35/1/1 34/1/1 33/1/1
f 36/1/1 34/1/1 35/1/1
f 39/1/1 38/1/1 37/1/1
f 40/1/1 38/1/1 39/1/1
f 41/1/2 42/1/2 43/1/2
f 43/1/2 42/1/2 44/1/2
f 45/1/2 46/1/2 47/1/2
f 47/1/2 46/1/2 48/1/2
f 49/1/2 50/1/2 51/1/2
f 51/1/2 50/1/2 52/1/2
f 53/1/2 54/1/2 55/1/2
f 55/1/2 54/1/2 56/1/2
f 57/1/2 58/1/2 59/1/2
f 59/1/2 58/1/2 60/1/2
f 61/2/2 62/2/2 63/2/2
f 63/2/2 62/2/2 64/2/2
f 65/1/2 66/1/2 67/1/2
f 67/1/2 66/1/2 68/1/2
f 67/2/2 68/2/2 69/2/2
f 69/2/2 68/2/2 70/2/2
f 71/2/2 72/2/2 73/2/2
f 73/2/2 72/2/2 74/2/2
f 75/1/2 76/1/2 77/1/2
f 77/1/2 76/1/2 78/1/2
f 77/2/2 78/2/2 79/2/2
f 79/2/2 78/2/2 80/2/2
f 84/1/3 82/1/3 81/1/3
f 85/1/3 82/1/3 84/1/3
f 86/1/3 82/1/3 85/1/3
f 87/1/3 82/1/3 86/1/3
f 89/1/3 82/1/3 87/1/3
f 91/1/3 89/1/3 88/1/3
f 92/1/3 91/1/3 90/1/3
f 93/2/3 83/2/3 82/2/3
f 93/1/3 91/1/3 92/1/3
f 93/1/3 82/1/3 89/1/3
f 93/1/3 89/1/3 91/1/3
f 94/2/3 83/2/3 93/2/3
f 99/1/3 98/1/3 97/1/3
f 101/1/3 99/1/3 97/1/3
f 101/1/3 100/1/3 99/1/3
f 102/1/3 100/1/3 101/1/3
f 103/1/3 101/1/3 97/1/3
f 104/1/3 101/1/3 103/1/3
f 105/2/3 96/2/3 95/2/3
f 106/2/3 96/2/3 105/2/3
f 110/1/3 108/1/3 107/1/3
f 111/1/3 108/1/3 110/1/3
f 112/1/3 110/1/3 107/1/3
f 113/1/3 110/1/3 112/1/3
f 114/1/3 108/1/3 111/1/3
f 115/1/3 108/1/3 114/1/3
f 116/1/3 112/1/3 107/1/3
f 119/1/3 108/1/3 115/1/3
f 120/1/3 117/1/3 116/1/3
f 121/1/3 119/1/3 118/1/3
f 122/1/3 120/1/3 116/1/3
f 122/1/3 121/1/3 120/1/3
f 122/1/3 116/1/3 107/1/3
f 123/2/3 109/2/3 108/2/3
f 123/1/3 121/1/3 122/1/3
f 123/1/3 119/1/3 121/1/3
f 123/1/3 108/1/3 119/1/3
f 124/2/3 109/2/3 123/2/3
f 130/3/3 128/3/3 127/3/3
f 131/3/3 128/3/3 130/3/3
f 133/3/3 130/3/3 129/3/3
f 133/3/3 132/3/3 131/3/3
f 133/3/3 131/3/3 130/3/3
f 134/3/3 132/3/3 133/3/3
f 135/4/3 134/4/3 133/4/3
f 136/3/3 132/3/3 134/3/3
f 136/4/3 134/4/3 135/4/3
f 137/3/3 133/3/3 129/3/3
f 138/3/3 133/3/3 137/3/3
f 139/4/3 135/4/3 133/4/3
f 139/3/3 133/3/3 138/3/3
f 140/3/3 136/3/3 135/3/3
f 140/4/3 135/4/3 139/4/3
f 141/3/3 132/3/3 136/3/3
f 141/3/3 136/3/3 140/3/3
f 142/3/3 132/3/3 141/3/3
f 143/3/3 140/3/3 139/3/3
f 143/3/3 141/3/3 140/3/3
f 143/3/3 139/3/3 138/3/3
f 144/3/3 141/3/3 143/3/3
f 145/2/3 126/2/3 125/2/3
f 146/2/3 126/2/3 145/2/3
f 147/2/4 148/2/4 149/2/4
f 149/2/4 148/2/4 150/2/4
f 151/1/4 152/1/4 154/1/4
f 152/2/4 153/2/4 155/2/4
f 154/1/4 152/1/4 155/1/4
f 155/2/4 153/2/4 156/2/4
f 157/2/4 158/2/4 159/2/4
f 159/2/4 158/2/4 160/2/4
f 161/1/4 162/1/4 164/1/4
f 162/2/4 163/2/4 165/2/4
f 164/1/4 162/1/4 165/1/4
f 165/2/4 163/2/4 166/2/4
f 171/1/5 168/1/5 167/1/5
f 172/1/5 170/1/5 169/1/5
f 173/1/5 171/1/5 167/1/5
f 173/1/5 172/1/5 171/1/5
f 174/1/5 170/1/5 172/1/5
f 174/1/5 172/1/5 173/1/5
f 179/1/5 176/1/5 175/1/5
f 180/1/5 176/1/5 179/1/5
f 181/1/5 178/1/5 177/1/5
f 182/1/5 178/1/5 181/1/5
f 185/1/5 184/1/5 183/1/5
f 186/1/5 184/1/5 185/1/5
f 191/1/5 188/1/5 187/1/5
f 192/1/5 188/1/5 191/1/5
f 193/1/5 190/1/5 189/1/5
f 194/1/5 190/1/5 193/1/5
f 197/1/5 196/1/5 195/1/5
f 198/1/5 196/1/5 197/1/5
f 199/2/6 200/2/6 201/2/6
f 201/2/6 200/2/6 202/2/6
f 199/2/6 201/2/6 203/2/6
f 202/2/6 200/2/6 204/2/6
f 199/2/6 203/2/6 205/2/6
f 203/2/6 204/2/6 205/2/6
f 204/2/6 200/2/6 206/2/6
f 205/2/6 204/2/6 206/2/6
f 207/2/6 208/2/6 209/2/6
f 209/2/6 208/2/6 210/2/6
f 207/2/6 209/2/6 211/2/6
f 210/2/6 208/2/6 212/2/6
f 207/2/6 211/2/6 213/2/6
f 211/2/6 212/2/6 213/2/6
f 212/2/6 208/2/6 214/2/6
f 213/2/6 212/2/6 214/2/6
f 215/1/6 216/1/6 217/1/6
f 217/1/6 216/1/6 218/1/6
f 219/1/6 220/1/6 223/1/6
f 223/1/6 220/1/6 224/1/6
f 221/1/6 222/1/6 225/1/6
f 225/1/6 222/1/6 226/1/6
f 227/2/6 228/2/6 229/2/6
f 229/2/6 228/2/6 230/2/6
f 227/2/6 229/2/6 231/2/6
f 230/2/6 228/2/6 232/2/6
f 227/2/6 231/2/6 233/2/6
f 231/2/6 232/2/6 233/2/6
f 232/2/6 228/2/6 234/2/6
f 233/2/6 232/2/6 234/2/6
f 235/2/6 236/2/6 237/2/6
f 237/2/6 236/2/6 238/2/6
