{
	"asset":{
		"generator":"Khronos glTF Blender I/O v5.0.21",
		"version":"2.0"
	},
	"scene":0,
	"scenes":[
		{
			"name":"Scene",
			"nodes":[
				0
			]
		}
	],
	"nodes":[
		{
			"mesh":0,
			"name":"ReefRock_B"
		}
	],
	"materials":[
		{
			"name":"ReefRock_B_ReefRockB",
			"normalTexture":{
				"index":0
			},
			"occlusionTexture":{
				"index":1
			},
			"pbrMetallicRoughness":{
				"baseColorTexture":{
					"index":2
				},
				"metallicRoughnessTexture":{
					"index":1
				}
			}
		}
	],
	"meshes":[
		{
			"name":"ReefRock_B",
			"primitives":[
				{
					"attributes":{
						"POSITION":0,
						"NORMAL":1,
						"TEXCOORD_0":2,
						"TANGENT":3
					},
					"indices":4,
					"material":0
				}
			]
		}
	],
	"textures":[
		{
			"sampler":0,
			"source":0
		},
		{
			"sampler":0,
			"source":1
		},
		{
			"sampler":0,
			"source":2
		}
	],
	"images":[
		{
			"mimeType":"image/png",
			"name":"ReefRock_B_ReefRockB_Normal",
			"uri":"ReefRock_B_ReefRockB_Normal.png"
		},
		{
			"mimeType":"image/png",
			"name":"ReefRock_B_ReefRockB_ORM",
			"uri":"ReefRock_B_ReefRockB_ORM.png"
		},
		{
			"mimeType":"image/png",
			"name":"ReefRock_B_ReefRockB_BaseColor",
			"uri":"ReefRock_B_ReefRockB_BaseColor.png"
		}
	],
	"accessors":[
		{
			"bufferView":0,
			"componentType":5126,
			"count":4488,
			"max":[
				1.1458203792572021,
				0.6634282469749451,
				0.8328201770782471
			],
			"min":[
				-1.3071951866149902,
				-0.349649578332901,
				-0.7605866193771362
			],
			"type":"VEC3"
		},
		{
			"bufferView":1,
			"componentType":5126,
			"count":4488,
			"type":"VEC3"
		},
		{
			"bufferView":2,
			"componentType":5126,
			"count":4488,
			"type":"VEC2"
		},
		{
			"bufferView":3,
			"componentType":5126,
			"count":4488,
			"type":"VEC4"
		},
		{
			"bufferView":4,
			"componentType":5123,
			"count":12000,
			"type":"SCALAR"
		}
	],
	"bufferViews":[
		{
			"buffer":0,
			"byteLength":53856,
			"byteOffset":0,
			"target":34962
		},
		{
			"buffer":0,
			"byteLength":53856,
			"byteOffset":53856,
			"target":34962
		},
		{
			"buffer":0,
			"byteLength":35904,
			"byteOffset":107712,
			"target":34962
		},
		{
			"buffer":0,
			"byteLength":71808,
			"byteOffset":143616,
			"target":34962
		},
		{
			"buffer":0,
			"byteLength":24000,
			"byteOffset":215424,
			"target":34963
		}
	],
	"samplers":[
		{
			"magFilter":9729,
			"minFilter":9987
		}
	],
	"buffers":[
		{
			"byteLength":239424,
			"uri":"ReefRock_B.bin"
		}
	]
}
