{
	"asset":{
		"generator":"Khronos glTF Blender I/O v5.0.21",
		"version":"2.0"
	},
	"scene":0,
	"scenes":[
		{
			"name":"Scene",
			"nodes":[
				0
			]
		}
	],
	"nodes":[
		{
			"mesh":0,
			"name":"Bougainvillea_A"
		}
	],
	"materials":[
		{
			"alphaMode":"MASK",
			"doubleSided":true,
			"name":"Bougainvillea_A_BougainLeaf",
			"normalTexture":{
				"index":0
			},
			"occlusionTexture":{
				"index":1
			},
			"pbrMetallicRoughness":{
				"baseColorTexture":{
					"index":2
				},
				"metallicRoughnessTexture":{
					"index":1
				}
			},
			"extras":{
				"vertexAnimation":"plant"
			}
		},
		{
			"name":"Bougainvillea_A_ShrubBark",
			"normalTexture":{
				"index":3
			},
			"occlusionTexture":{
				"index":4
			},
			"pbrMetallicRoughness":{
				"baseColorTexture":{
					"index":5
				},
				"metallicRoughnessTexture":{
					"index":4
				}
			},
			"extras":{
				"vertexAnimation":"plant"
			}
		}
	],
	"meshes":[
		{
			"name":"Bougainvillea_A",
			"primitives":[
				{
					"attributes":{
						"POSITION":0,
						"NORMAL":1,
						"TEXCOORD_0":2,
						"TEXCOORD_1":3,
						"TEXCOORD_2":4,
						"TANGENT":5
					},
					"indices":6,
					"material":0
				},
				{
					"attributes":{
						"POSITION":7,
						"NORMAL":8,
						"TEXCOORD_0":9,
						"TEXCOORD_1":10,
						"TEXCOORD_2":11,
						"TANGENT":12
					},
					"indices":13,
					"material":1
				}
			]
		}
	],
	"textures":[
		{
			"sampler":0,
			"source":0
		},
		{
			"sampler":0,
			"source":1
		},
		{
			"sampler":0,
			"source":2
		},
		{
			"sampler":0,
			"source":3
		},
		{
			"sampler":0,
			"source":4
		},
		{
			"sampler":0,
			"source":5
		}
	],
	"images":[
		{
			"mimeType":"image/png",
			"name":"Bougainvillea_A_BougainLeaf_Normal",
			"uri":"Bougainvillea_A_BougainLeaf_Normal.png"
		},
		{
			"mimeType":"image/png",
			"name":"Bougainvillea_A_BougainLeaf_ORM",
			"uri":"Bougainvillea_A_BougainLeaf_ORM.png"
		},
		{
			"mimeType":"image/png",
			"name":"Bougainvillea_A_BougainLeaf_BaseColor",
			"uri":"Bougainvillea_A_BougainLeaf_BaseColor.png"
		},
		{
			"mimeType":"image/png",
			"name":"Bougainvillea_A_ShrubBark_Normal",
			"uri":"Bougainvillea_A_ShrubBark_Normal.png"
		},
		{
			"mimeType":"image/png",
			"name":"Bougainvillea_A_ShrubBark_ORM",
			"uri":"Bougainvillea_A_ShrubBark_ORM.png"
		},
		{
			"mimeType":"image/png",
			"name":"Bougainvillea_A_ShrubBark_BaseColor",
			"uri":"Bougainvillea_A_ShrubBark_BaseColor.png"
		}
	],
	"accessors":[
		{
			"bufferView":0,
			"componentType":5126,
			"count":11520,
			"max":[
				1.203827977180481,
				2.009218215942383,
				1.0085387229919434
			],
			"min":[
				-1.1877158880233765,
				0.03521069139242172,
				-1.1660341024398804
			],
			"type":"VEC3"
		},
		{
			"bufferView":1,
			"componentType":5126,
			"count":11520,
			"type":"VEC3"
		},
		{
			"bufferView":2,
			"componentType":5126,
			"count":11520,
			"type":"VEC2"
		},
		{
			"bufferView":3,
			"componentType":5126,
			"count":11520,
			"type":"VEC2"
		},
		{
			"bufferView":4,
			"componentType":5126,
			"count":11520,
			"type":"VEC2"
		},
		{
			"bufferView":5,
			"componentType":5126,
			"count":11520,
			"type":"VEC4"
		},
		{
			"bufferView":6,
			"componentType":5123,
			"count":34560,
			"type":"SCALAR"
		},
		{
			"bufferView":7,
			"componentType":5126,
			"count":2741,
			"max":[
				0.9265632629394531,
				1.7087938785552979,
				0.8040875196456909
			],
			"min":[
				-0.8890937566757202,
				-0.12890276312828064,
				-0.8826946020126343
			],
			"type":"VEC3"
		},
		{
			"bufferView":8,
			"componentType":5126,
			"count":2741,
			"type":"VEC3"
		},
		{
			"bufferView":9,
			"componentType":5126,
			"count":2741,
			"type":"VEC2"
		},
		{
			"bufferView":10,
			"componentType":5126,
			"count":2741,
			"type":"VEC2"
		},
		{
			"bufferView":11,
			"componentType":5126,
			"count":2741,
			"type":"VEC2"
		},
		{
			"bufferView":12,
			"componentType":5126,
			"count":2741,
			"type":"VEC4"
		},
		{
			"bufferView":13,
			"componentType":5123,
			"count":7908,
			"type":"SCALAR"
		}
	],
	"bufferViews":[
		{
			"buffer":0,
			"byteLength":138240,
			"byteOffset":0,
			"target":34962
		},
		{
			"buffer":0,
			"byteLength":138240,
			"byteOffset":138240,
			"target":34962
		},
		{
			"buffer":0,
			"byteLength":92160,
			"byteOffset":276480,
			"target":34962
		},
		{
			"buffer":0,
			"byteLength":92160,
			"byteOffset":368640,
			"target":34962
		},
		{
			"buffer":0,
			"byteLength":92160,
			"byteOffset":460800,
			"target":34962
		},
		{
			"buffer":0,
			"byteLength":184320,
			"byteOffset":552960,
			"target":34962
		},
		{
			"buffer":0,
			"byteLength":69120,
			"byteOffset":737280,
			"target":34963
		},
		{
			"buffer":0,
			"byteLength":32892,
			"byteOffset":806400,
			"target":34962
		},
		{
			"buffer":0,
			"byteLength":32892,
			"byteOffset":839292,
			"target":34962
		},
		{
			"buffer":0,
			"byteLength":21928,
			"byteOffset":872184,
			"target":34962
		},
		{
			"buffer":0,
			"byteLength":21928,
			"byteOffset":894112,
			"target":34962
		},
		{
			"buffer":0,
			"byteLength":21928,
			"byteOffset":916040,
			"target":34962
		},
		{
			"buffer":0,
			"byteLength":43856,
			"byteOffset":937968,
			"target":34962
		},
		{
			"buffer":0,
			"byteLength":15816,
			"byteOffset":981824,
			"target":34963
		}
	],
	"samplers":[
		{
			"magFilter":9729,
			"minFilter":9987
		}
	],
	"buffers":[
		{
			"byteLength":997640,
			"uri":"Bougainvillea_A.bin"
		}
	]
}
