# MagicaVoxel @ Ephtracy

# group
o 

# material
mtllib ground.mtl
usemtl palette

# normals
vn -1 0 0
vn 1 0 0
vn 0 0 1
vn 0 0 -1
vn 0 -1 0
vn 0 1 0

# texcoords
vt 0.337891 0.5
vt 0.560547 0.5

# verts
v -0.8 0 0.8
v -0.8 0 -0.8
v -0.8 1 0.8
v -0.8 1 0.7
v -0.8 1 0.6
v -0.8 1 0.5
v -0.8 1 0
v -0.8 1 -0.1
v -0.8 1 -0.3
v -0.8 1 -0.4
v -0.8 1.1 0.4
v -0.8 1.1 0.2
v -0.8 1.1 0.1
v -0.8 1.1 0
v -0.8 1.1 -0.1
v -0.8 1.1 -0.2
v -0.8 1.1 -0.4
v -0.8 1.1 -0.5
v -0.8 1.1 -0.7
v -0.8 1.1 -0.8
v -0.8 1.2 0.7
v -0.8 1.2 0.6
v -0.8 1.2 0.5
v -0.8 1.2 0.4
v -0.8 1.2 0.2
v -0.8 1.2 0.1
v -0.8 1.2 -0.2
v -0.8 1.2 -0.3
v -0.8 1.2 -0.5
v -0.8 1.2 -0.7
v -0.8 1.6 0.8
v -0.8 1.6 -0.8
v 0.8 0 0.8
v 0.8 0 -0.8
v 0.8 1 0.6
v 0.8 1 0.5
v 0.8 1 0.2
v 0.8 1 0.1
v 0.8 1 -0.2
v 0.8 1 -0.3
v 0.8 1 -0.6
v 0.8 1 -0.7
v 0.8 1.1 0.8
v 0.8 1.1 0.7
v 0.8 1.1 0.5
v 0.8 1.1 0.4
v 0.8 1.1 0.3
v 0.8 1.1 0.2
v 0.8 1.1 0.1
v 0.8 1.1 0
v 0.8 1.1 -0.1
v 0.8 1.1 -0.2
v 0.8 1.1 -0.4
v 0.8 1.1 -0.5
v 0.8 1.2 0.7
v 0.8 1.2 0.6
v 0.8 1.2 0.4
v 0.8 1.2 0.3
v 0.8 1.2 0
v 0.8 1.2 -0.1
v 0.8 1.2 -0.3
v 0.8 1.2 -0.4
v 0.8 1.2 -0.5
v 0.8 1.2 -0.6
v 0.8 1.2 -0.7
v 0.8 1.2 -0.8
v 0.8 1.6 0.8
v 0.8 1.6 -0.8
v -0.8 0 0.8
v -0.8 1 0.8
v -0.8 1.6 0.8
v -0.7 1 0.8
v -0.7 1.1 0.8
v -0.6 1.1 0.8
v -0.6 1.2 0.8
v -0.4 1.1 0.8
v -0.4 1.2 0.8
v -0.3 1 0.8
v -0.3 1.1 0.8
v -0.2 1 0.8
v -0.2 1.1 0.8
v -0.1 1.1 0.8
v -0.1 1.2 0.8
v 0 1 0.8
v 0 1.2 0.8
v 0.1 1 0.8
v 0.1 1.1 0.8
v 0.2 1.1 0.8
v 0.2 1.2 0.8
v 0.3 1.1 0.8
v 0.3 1.2 0.8
v 0.4 1.1 0.8
v 0.4 1.2 0.8
v 0.5 1.1 0.8
v 0.5 1.2 0.8
v 0.6 1 0.8
v 0.6 1.1 0.8
v 0.7 1 0.8
v 0.7 1.1 0.8
v 0.8 0 0.8
v 0.8 1.1 0.8
v 0.8 1.6 0.8
v -0.8 0 -0.8
v -0.8 1.1 -0.8
v -0.8 1.6 -0.8
v -0.7 1.1 -0.8
v -0.7 1.2 -0.8
v -0.6 1.1 -0.8
v -0.6 1.2 -0.8
v -0.5 1 -0.8
v -0.5 1.1 -0.8
v -0.4 1 -0.8
v -0.4 1.1 -0.8
v -0.3 1.1 -0.8
v -0.3 1.2 -0.8
v -0.2 1.1 -0.8
v -0.2 1.2 -0.8
v -0.1 1 -0.8
v -0.1 1.1 -0.8
v 0 1 -0.8
v 0 1.2 -0.8
v 0.1 1.1 -0.8
v 0.1 1.2 -0.8
v 0.2 1 -0.8
v 0.2 1.1 -0.8
v 0.3 1 -0.8
v 0.3 1.1 -0.8
v 0.4 1.1 -0.8
v 0.4 1.2 -0.8
v 0.5 1.1 -0.8
v 0.5 1.2 -0.8
v 0.6 1 -0.8
v 0.6 1.1 -0.8
v 0.7 1 -0.8
v 0.7 1.2 -0.8
v 0.8 0 -0.8
v 0.8 1.2 -0.8
v 0.8 1.6 -0.8
v -0.8 0 0.8
v 0.8 0 0.8
v -0.8 0 -0.8
v 0.8 0 -0.8
v -0.8 1.6 0.8
v 0.8 1.6 0.8
v -0.8 1.6 -0.8
v 0.8 1.6 -0.8

# faces
f 3/1/1 2/1/1 1/1/1
f 4/1/1 2/1/1 3/1/1
f 5/1/1 2/1/1 4/1/1
f 6/1/1 2/1/1 5/1/1
f 7/1/1 2/1/1 6/1/1
f 8/1/1 2/1/1 7/1/1
f 9/1/1 2/1/1 8/1/1
f 10/1/1 2/1/1 9/1/1
f 11/1/1 7/1/1 6/1/1
f 12/1/1 7/1/1 11/1/1
f 13/1/1 7/1/1 12/1/1
f 14/2/1 8/2/1 7/2/1
f 14/1/1 7/1/1 13/1/1
f 15/1/1 9/1/1 8/1/1
f 15/2/1 8/2/1 14/2/1
f 16/1/1 9/1/1 15/1/1
f 17/1/1 2/1/1 10/1/1
f 17/2/1 10/2/1 9/2/1
f 18/1/1 2/1/1 17/1/1
f 19/1/1 2/1/1 18/1/1
f 20/1/1 2/1/1 19/1/1
f 21/2/1 4/2/1 3/2/1
f 21/1/1 5/1/1 4/1/1
f 22/2/1 6/2/1 5/2/1
f 22/1/1 5/1/1 21/1/1
f 23/1/1 11/1/1 6/1/1
f 23/2/1 6/2/1 22/2/1
f 24/2/1 12/2/1 11/2/1
f 24/1/1 11/1/1 23/1/1
f 25/1/1 13/1/1 12/1/1
f 25/2/1 12/2/1 24/2/1
f 26/2/1 14/2/1 13/2/1
f 26/1/1 13/1/1 25/1/1
f 26/2/1 16/2/1 15/2/1
f 26/2/1 15/2/1 14/2/1
f 27/1/1 9/1/1 16/1/1
f 27/2/1 16/2/1 26/2/1
f 28/2/1 18/2/1 17/2/1
f 28/1/1 9/1/1 27/1/1
f 28/2/1 17/2/1 9/2/1
f 29/1/1 19/1/1 18/1/1
f 29/2/1 18/2/1 28/2/1
f 30/2/1 20/2/1 19/2/1
f 30/1/1 19/1/1 29/1/1
f 31/2/1 29/2/1 28/2/1
f 31/2/1 21/2/1 3/2/1
f 31/2/1 30/2/1 29/2/1
f 31/2/1 27/2/1 26/2/1
f 31/2/1 23/2/1 22/2/1
f 31/2/1 22/2/1 21/2/1
f 31/2/1 28/2/1 27/2/1
f 31/2/1 25/2/1 24/2/1
f 31/2/1 24/2/1 23/2/1
f 31/2/1 26/2/1 25/2/1
f 32/2/1 20/2/1 30/2/1
f 32/2/1 30/2/1 31/2/1
f 33/1/2 34/1/2 35/1/2
f 35/1/2 34/1/2 36/1/2
f 36/1/2 34/1/2 37/1/2
f 37/1/2 34/1/2 38/1/2
f 38/1/2 34/1/2 39/1/2
f 39/1/2 34/1/2 40/1/2
f 40/1/2 34/1/2 41/1/2
f 41/1/2 34/1/2 42/1/2
f 33/1/2 35/1/2 43/1/2
f 43/1/2 35/1/2 44/1/2
f 35/2/2 36/2/2 45/2/2
f 36/1/2 37/1/2 45/1/2
f 45/1/2 37/1/2 46/1/2
f 46/1/2 37/1/2 47/1/2
f 37/2/2 38/2/2 48/2/2
f 47/1/2 37/1/2 48/1/2
f 38/1/2 39/1/2 49/1/2
f 48/2/2 38/2/2 49/2/2
f 49/1/2 39/1/2 50/1/2
f 50/1/2 39/1/2 51/1/2
f 39/2/2 40/2/2 52/2/2
f 51/1/2 39/1/2 52/1/2
f 40/1/2 41/1/2 53/1/2
f 53/1/2 41/1/2 54/1/2
f 44/1/2 35/1/2 55/1/2
f 43/2/2 44/2/2 55/2/2
f 35/2/2 45/2/2 56/2/2
f 55/1/2 35/1/2 56/1/2
f 45/2/2 46/2/2 56/2/2
f 46/1/2 47/1/2 57/1/2
f 56/2/2 46/2/2 57/2/2
f 47/2/2 48/2/2 58/2/2
f 57/1/2 47/1/2 58/1/2
f 48/2/2 49/2/2 58/2/2
f 49/2/2 50/2/2 58/2/2
f 50/1/2 51/1/2 59/1/2
f 58/2/2 50/2/2 59/2/2
f 51/2/2 52/2/2 60/2/2
f 59/1/2 51/1/2 60/1/2
f 52/2/2 40/2/2 61/2/2
f 60/2/2 52/2/2 61/2/2
f 40/1/2 53/1/2 61/1/2
f 53/2/2 54/2/2 62/2/2
f 61/1/2 53/1/2 62/1/2
f 54/1/2 41/1/2 63/1/2
f 62/2/2 54/2/2 63/2/2
f 41/2/2 42/2/2 64/2/2
f 63/1/2 41/1/2 64/1/2
f 42/1/2 34/1/2 65/1/2
f 64/2/2 42/2/2 65/2/2
f 65/1/2 34/1/2 66/1/2
f 63/2/2 64/2/2 67/2/2
f 61/2/2 62/2/2 67/2/2
f 65/2/2 66/2/2 67/2/2
f 64/2/2 65/2/2 67/2/2
f 58/2/2 59/2/2 67/2/2
f 43/2/2 55/2/2 67/2/2
f 60/2/2 61/2/2 67/2/2
f 62/2/2 63/2/2 67/2/2
f 59/2/2 60/2/2 67/2/2
f 57/2/2 58/2/2 67/2/2
f 56/2/2 57/2/2 67/2/2
f 55/2/2 56/2/2 67/2/2
f 67/2/2 66/2/2 68/2/2
f 72/1/3 70/1/3 69/1/3
f 72/2/3 71/2/3 70/2/3
f 73/2/3 71/2/3 72/2/3
f 74/1/3 73/1/3 72/1/3
f 74/2/3 71/2/3 73/2/3
f 75/2/3 71/2/3 74/2/3
f 76/1/3 74/1/3 72/1/3
f 76/1/3 75/1/3 74/1/3
f 77/2/3 71/2/3 75/2/3
f 77/1/3 75/1/3 76/1/3
f 78/1/3 72/1/3 69/1/3
f 78/1/3 76/1/3 72/1/3
f 79/2/3 77/2/3 76/2/3
f 79/1/3 76/1/3 78/1/3
f 80/1/3 78/1/3 69/1/3
f 80/2/3 79/2/3 78/2/3
f 81/2/3 77/2/3 79/2/3
f 81/2/3 79/2/3 80/2/3
f 82/1/3 81/1/3 80/1/3
f 82/2/3 77/2/3 81/2/3
f 83/2/3 71/2/3 77/2/3
f 83/2/3 77/2/3 82/2/3
f 84/1/3 82/1/3 80/1/3
f 84/1/3 80/1/3 69/1/3
f 84/1/3 83/1/3 82/1/3
f 85/2/3 71/2/3 83/2/3
f 85/1/3 83/1/3 84/1/3
f 86/1/3 84/1/3 69/1/3
f 86/2/3 85/2/3 84/2/3
f 87/2/3 85/2/3 86/2/3
f 88/1/3 87/1/3 86/1/3
f 88/2/3 85/2/3 87/2/3
f 89/2/3 71/2/3 85/2/3
f 89/2/3 85/2/3 88/2/3
f 90/1/3 88/1/3 86/1/3
f 90/1/3 89/1/3 88/1/3
f 91/2/3 71/2/3 89/2/3
f 91/1/3 89/1/3 90/1/3
f 92/1/3 90/1/3 86/1/3
f 92/2/3 91/2/3 90/2/3
f 93/2/3 71/2/3 91/2/3
f 93/2/3 91/2/3 92/2/3
f 94/1/3 92/1/3 86/1/3
f 94/1/3 93/1/3 92/1/3
f 95/2/3 71/2/3 93/2/3
f 95/1/3 93/1/3 94/1/3
f 96/1/3 94/1/3 86/1/3
f 96/1/3 86/1/3 69/1/3
f 97/2/3 95/2/3 94/2/3
f 97/1/3 94/1/3 96/1/3
f 98/1/3 96/1/3 69/1/3
f 98/2/3 97/2/3 96/2/3
f 99/2/3 95/2/3 97/2/3
f 99/2/3 97/2/3 98/2/3
f 100/1/3 98/1/3 69/1/3
f 100/1/3 99/1/3 98/1/3
f 101/2/3 95/2/3 99/2/3
f 101/1/3 99/1/3 100/1/3
f 102/2/3 71/2/3 95/2/3
f 102/2/3 95/2/3 101/2/3
f 103/1/4 104/1/4 106/1/4
f 104/2/4 105/2/4 106/2/4
f 106/2/4 105/2/4 107/2/4
f 103/1/4 106/1/4 108/1/4
f 106/1/4 107/1/4 108/1/4
f 107/2/4 105/2/4 109/2/4
f 108/1/4 107/1/4 109/1/4
f 103/1/4 108/1/4 110/1/4
f 108/2/4 109/2/4 111/2/4
f 110/1/4 108/1/4 111/1/4
f 103/1/4 110/1/4 112/1/4
f 110/2/4 111/2/4 112/2/4
f 111/2/4 109/2/4 113/2/4
f 112/2/4 111/2/4 113/2/4
f 112/1/4 113/1/4 114/1/4
f 113/2/4 109/2/4 114/2/4
f 109/2/4 105/2/4 115/2/4
f 114/2/4 109/2/4 115/2/4
f 112/1/4 114/1/4 116/1/4
f 114/1/4 115/1/4 116/1/4
f 115/2/4 105/2/4 117/2/4
f 116/1/4 115/1/4 117/1/4
f 112/1/4 116/1/4 118/1/4
f 103/1/4 112/1/4 118/1/4
f 116/2/4 117/2/4 119/2/4
f 118/1/4 116/1/4 119/1/4
f 103/1/4 118/1/4 120/1/4
f 118/2/4 119/2/4 120/2/4
f 117/2/4 105/2/4 121/2/4
f 120/2/4 119/2/4 121/2/4
f 119/2/4 117/2/4 121/2/4
f 120/1/4 121/1/4 122/1/4
f 121/2/4 105/2/4 123/2/4
f 122/1/4 121/1/4 123/1/4
f 103/1/4 120/1/4 124/1/4
f 120/1/4 122/1/4 124/1/4
f 122/2/4 123/2/4 125/2/4
f 124/1/4 122/1/4 125/1/4
f 103/1/4 124/1/4 126/1/4
f 124/2/4 125/2/4 126/2/4
f 125/2/4 123/2/4 127/2/4
f 126/2/4 125/2/4 127/2/4
f 126/1/4 127/1/4 128/1/4
f 127/2/4 123/2/4 128/2/4
f 123/2/4 105/2/4 129/2/4
f 128/2/4 123/2/4 129/2/4
f 126/1/4 128/1/4 130/1/4
f 128/1/4 129/1/4 130/1/4
f 129/2/4 105/2/4 131/2/4
f 130/1/4 129/1/4 131/1/4
f 126/1/4 130/1/4 132/1/4
f 103/1/4 126/1/4 132/1/4
f 130/2/4 131/2/4 133/2/4
f 132/1/4 130/1/4 133/1/4
f 103/1/4 132/1/4 134/1/4
f 132/2/4 133/2/4 134/2/4
f 131/2/4 105/2/4 135/2/4
f 134/2/4 133/2/4 135/2/4
f 133/2/4 131/2/4 135/2/4
f 103/1/4 134/1/4 136/1/4
f 134/1/4 135/1/4 136/1/4
f 135/2/4 105/2/4 137/2/4
f 136/1/4 135/1/4 137/1/4
f 137/2/4 105/2/4 138/2/4
f 141/1/5 140/1/5 139/1/5
f 142/1/5 140/1/5 141/1/5
f 143/2/6 144/2/6 145/2/6
f 145/2/6 144/2/6 146/2/6
