{
	"asset":{
		"generator":"Khronos glTF Blender I/O v5.0.21",
		"version":"2.0"
	},
	"scene":0,
	"scenes":[
		{
			"name":"Scene",
			"nodes":[
				0
			]
		}
	],
	"nodes":[
		{
			"mesh":0,
			"name":"BlueStarfish"
		}
	],
	"materials":[
		{
			"name":"BlueStarfish_BlueStarfish",
			"normalTexture":{
				"index":0
			},
			"occlusionTexture":{
				"index":1
			},
			"pbrMetallicRoughness":{
				"baseColorTexture":{
					"index":2
				},
				"metallicRoughnessTexture":{
					"index":1
				}
			}
		}
	],
	"meshes":[
		{
			"name":"BlueStarfish",
			"primitives":[
				{
					"attributes":{
						"POSITION":0,
						"NORMAL":1,
						"TEXCOORD_0":2,
						"TANGENT":3
					},
					"indices":4,
					"material":0
				}
			]
		}
	],
	"textures":[
		{
			"sampler":0,
			"source":0
		},
		{
			"sampler":0,
			"source":1
		},
		{
			"sampler":0,
			"source":2
		}
	],
	"images":[
		{
			"mimeType":"image/png",
			"name":"BlueStarfish_BlueStarfish_Normal",
			"uri":"BlueStarfish_BlueStarfish_Normal.png"
		},
		{
			"mimeType":"image/png",
			"name":"BlueStarfish_BlueStarfish_ORM",
			"uri":"BlueStarfish_BlueStarfish_ORM.png"
		},
		{
			"mimeType":"image/png",
			"name":"BlueStarfish_BlueStarfish_BaseColor",
			"uri":"BlueStarfish_BlueStarfish_BaseColor.png"
		}
	],
	"accessors":[
		{
			"bufferView":0,
			"componentType":5126,
			"count":2257,
			"max":[
				0.16600823402404785,
				0.03377874568104744,
				0.13552717864513397
			],
			"min":[
				-0.14592057466506958,
				-0.0005969319608993828,
				-0.16509559750556946
			],
			"type":"VEC3"
		},
		{
			"bufferView":1,
			"componentType":5126,
			"count":2257,
			"type":"VEC3"
		},
		{
			"bufferView":2,
			"componentType":5126,
			"count":2257,
			"type":"VEC2"
		},
		{
			"bufferView":3,
			"componentType":5126,
			"count":2257,
			"type":"VEC4"
		},
		{
			"bufferView":4,
			"componentType":5123,
			"count":9600,
			"type":"SCALAR"
		}
	],
	"bufferViews":[
		{
			"buffer":0,
			"byteLength":27084,
			"byteOffset":0,
			"target":34962
		},
		{
			"buffer":0,
			"byteLength":27084,
			"byteOffset":27084,
			"target":34962
		},
		{
			"buffer":0,
			"byteLength":18056,
			"byteOffset":54168,
			"target":34962
		},
		{
			"buffer":0,
			"byteLength":36112,
			"byteOffset":72224,
			"target":34962
		},
		{
			"buffer":0,
			"byteLength":19200,
			"byteOffset":108336,
			"target":34963
		}
	],
	"samplers":[
		{
			"magFilter":9729,
			"minFilter":9987
		}
	],
	"buffers":[
		{
			"byteLength":127536,
			"uri":"BlueStarfish.bin"
		}
	]
}
