{
	"asset":{
		"generator":"Khronos glTF Blender I/O v5.0.21",
		"version":"2.0"
	},
	"scene":0,
	"scenes":[
		{
			"name":"Scene",
			"nodes":[
				0
			]
		}
	],
	"nodes":[
		{
			"mesh":0,
			"name":"Azumaya_A"
		}
	],
	"materials":[
		{
			"name":"Azumaya_A_AzumayaStone",
			"normalTexture":{
				"index":0
			},
			"occlusionTexture":{
				"index":1
			},
			"pbrMetallicRoughness":{
				"baseColorTexture":{
					"index":2
				},
				"metallicRoughnessTexture":{
					"index":1
				}
			}
		},
		{
			"name":"Azumaya_A_AzumayaTile",
			"normalTexture":{
				"index":3
			},
			"occlusionTexture":{
				"index":4
			},
			"pbrMetallicRoughness":{
				"baseColorTexture":{
					"index":5
				},
				"metallicRoughnessTexture":{
					"index":4
				}
			}
		},
		{
			"name":"Azumaya_A_AzumayaPlaster",
			"normalTexture":{
				"index":6
			},
			"occlusionTexture":{
				"index":7
			},
			"pbrMetallicRoughness":{
				"baseColorTexture":{
					"index":8
				},
				"metallicRoughnessTexture":{
					"index":7
				}
			}
		},
		{
			"name":"Azumaya_A_AzumayaWood",
			"normalTexture":{
				"index":9
			},
			"occlusionTexture":{
				"index":10
			},
			"pbrMetallicRoughness":{
				"baseColorTexture":{
					"index":11
				},
				"metallicRoughnessTexture":{
					"index":10
				}
			}
		},
		{
			"name":"Azumaya_A_AzumayaShisa",
			"normalTexture":{
				"index":12
			},
			"occlusionTexture":{
				"index":13
			},
			"pbrMetallicRoughness":{
				"baseColorTexture":{
					"index":14
				},
				"metallicRoughnessTexture":{
					"index":13
				}
			}
		},
		{
			"name":"Azumaya_A_AzumayaFloor",
			"normalTexture":{
				"index":15
			},
			"occlusionTexture":{
				"index":16
			},
			"pbrMetallicRoughness":{
				"baseColorTexture":{
					"index":17
				},
				"metallicRoughnessTexture":{
					"index":16
				}
			}
		}
	],
	"meshes":[
		{
			"name":"Azumaya_A",
			"primitives":[
				{
					"attributes":{
						"POSITION":0,
						"NORMAL":1,
						"TEXCOORD_0":2
					},
					"indices":3,
					"material":0
				},
				{
					"attributes":{
						"POSITION":4,
						"NORMAL":5,
						"TEXCOORD_0":6
					},
					"indices":7,
					"material":1
				},
				{
					"attributes":{
						"POSITION":8,
						"NORMAL":9,
						"TEXCOORD_0":10
					},
					"indices":11,
					"material":2
				},
				{
					"attributes":{
						"POSITION":12,
						"NORMAL":13,
						"TEXCOORD_0":14
					},
					"indices":15,
					"material":3
				},
				{
					"attributes":{
						"POSITION":16,
						"NORMAL":17,
						"TEXCOORD_0":18
					},
					"indices":19,
					"material":4
				},
				{
					"attributes":{
						"POSITION":20,
						"NORMAL":21,
						"TEXCOORD_0":22
					},
					"indices":23,
					"material":5
				}
			]
		}
	],
	"textures":[
		{
			"sampler":0,
			"source":0
		},
		{
			"sampler":0,
			"source":1
		},
		{
			"sampler":0,
			"source":2
		},
		{
			"sampler":0,
			"source":3
		},
		{
			"sampler":0,
			"source":4
		},
		{
			"sampler":0,
			"source":5
		},
		{
			"sampler":0,
			"source":6
		},
		{
			"sampler":0,
			"source":7
		},
		{
			"sampler":0,
			"source":8
		},
		{
			"sampler":0,
			"source":9
		},
		{
			"sampler":0,
			"source":10
		},
		{
			"sampler":0,
			"source":11
		},
		{
			"sampler":0,
			"source":12
		},
		{
			"sampler":0,
			"source":13
		},
		{
			"sampler":0,
			"source":14
		},
		{
			"sampler":0,
			"source":15
		},
		{
			"sampler":0,
			"source":16
		},
		{
			"sampler":0,
			"source":17
		}
	],
	"images":[
		{
			"mimeType":"image/png",
			"name":"Azumaya_A_AzumayaStone_Normal",
			"uri":"Azumaya_A_AzumayaStone_Normal.png"
		},
		{
			"mimeType":"image/png",
			"name":"Azumaya_A_AzumayaStone_ORM",
			"uri":"Azumaya_A_AzumayaStone_ORM.png"
		},
		{
			"mimeType":"image/png",
			"name":"Azumaya_A_AzumayaStone_BaseColor",
			"uri":"Azumaya_A_AzumayaStone_BaseColor.png"
		},
		{
			"mimeType":"image/png",
			"name":"Azumaya_A_AzumayaTile_Normal",
			"uri":"Azumaya_A_AzumayaTile_Normal.png"
		},
		{
			"mimeType":"image/png",
			"name":"Azumaya_A_AzumayaTile_ORM",
			"uri":"Azumaya_A_AzumayaTile_ORM.png"
		},
		{
			"mimeType":"image/png",
			"name":"Azumaya_A_AzumayaTile_BaseColor",
			"uri":"Azumaya_A_AzumayaTile_BaseColor.png"
		},
		{
			"mimeType":"image/png",
			"name":"Azumaya_A_AzumayaPlaster_Normal",
			"uri":"Azumaya_A_AzumayaPlaster_Normal.png"
		},
		{
			"mimeType":"image/png",
			"name":"Azumaya_A_AzumayaPlaster_ORM",
			"uri":"Azumaya_A_AzumayaPlaster_ORM.png"
		},
		{
			"mimeType":"image/png",
			"name":"Azumaya_A_AzumayaPlaster_BaseColor",
			"uri":"Azumaya_A_AzumayaPlaster_BaseColor.png"
		},
		{
			"mimeType":"image/png",
			"name":"Azumaya_A_AzumayaWood_Normal",
			"uri":"Azumaya_A_AzumayaWood_Normal.png"
		},
		{
			"mimeType":"image/png",
			"name":"Azumaya_A_AzumayaWood_ORM",
			"uri":"Azumaya_A_AzumayaWood_ORM.png"
		},
		{
			"mimeType":"image/png",
			"name":"Azumaya_A_AzumayaWood_BaseColor",
			"uri":"Azumaya_A_AzumayaWood_BaseColor.png"
		},
		{
			"mimeType":"image/png",
			"name":"Azumaya_A_AzumayaShisa_Normal",
			"uri":"Azumaya_A_AzumayaShisa_Normal.png"
		},
		{
			"mimeType":"image/png",
			"name":"Azumaya_A_AzumayaShisa_ORM",
			"uri":"Azumaya_A_AzumayaShisa_ORM.png"
		},
		{
			"mimeType":"image/png",
			"name":"Azumaya_A_AzumayaShisa_BaseColor",
			"uri":"Azumaya_A_AzumayaShisa_BaseColor.png"
		},
		{
			"mimeType":"image/png",
			"name":"Azumaya_A_AzumayaFloor_Normal",
			"uri":"Azumaya_A_AzumayaFloor_Normal.png"
		},
		{
			"mimeType":"image/png",
			"name":"Azumaya_A_AzumayaFloor_ORM",
			"uri":"Azumaya_A_AzumayaFloor_ORM.png"
		},
		{
			"mimeType":"image/png",
			"name":"Azumaya_A_AzumayaFloor_BaseColor",
			"uri":"Azumaya_A_AzumayaFloor_BaseColor.png"
		}
	],
	"accessors":[
		{
			"bufferView":0,
			"componentType":5126,
			"count":384,
			"max":[
				1.899999976158142,
				0.25,
				1.899999976158142
			],
			"min":[
				-1.899999976158142,
				0.11000000685453415,
				-1.899999976158142
			],
			"type":"VEC3"
		},
		{
			"bufferView":1,
			"componentType":5126,
			"count":384,
			"type":"VEC3"
		},
		{
			"bufferView":2,
			"componentType":5126,
			"count":384,
			"type":"VEC2"
		},
		{
			"bufferView":3,
			"componentType":5123,
			"count":528,
			"type":"SCALAR"
		},
		{
			"bufferView":4,
			"componentType":5126,
			"count":17952,
			"max":[
				2.585282564163208,
				3.5536272525787354,
				2.5796597003936768
			],
			"min":[
				-2.585282564163208,
				2.288518190383911,
				-2.5796597003936768
			],
			"type":"VEC3"
		},
		{
			"bufferView":5,
			"componentType":5126,
			"count":17952,
			"type":"VEC3"
		},
		{
			"bufferView":6,
			"componentType":5126,
			"count":17952,
			"type":"VEC2"
		},
		{
			"bufferView":7,
			"componentType":5123,
			"count":26928,
			"type":"SCALAR"
		},
		{
			"bufferView":8,
			"componentType":5126,
			"count":16034,
			"max":[
				2.669903039932251,
				3.778369665145874,
				2.6685829162597656
			],
			"min":[
				-2.669903039932251,
				2.283414840698242,
				-2.6685829162597656
			],
			"type":"VEC3"
		},
		{
			"bufferView":9,
			"componentType":5126,
			"count":16034,
			"type":"VEC3"
		},
		{
			"bufferView":10,
			"componentType":5126,
			"count":16034,
			"type":"VEC2"
		},
		{
			"bufferView":11,
			"componentType":5123,
			"count":24510,
			"type":"SCALAR"
		},
		{
			"bufferView":12,
			"componentType":5126,
			"count":11892,
			"max":[
				2.5341577529907227,
				3.440000057220459,
				2.527754068374634
			],
			"min":[
				-2.5341577529907227,
				0.11999999731779099,
				-2.527754068374634
			],
			"type":"VEC3"
		},
		{
			"bufferView":13,
			"componentType":5126,
			"count":11892,
			"type":"VEC3"
		},
		{
			"bufferView":14,
			"componentType":5126,
			"count":11892,
			"type":"VEC2"
		},
		{
			"bufferView":15,
			"componentType":5123,
			"count":19956,
			"type":"SCALAR"
		},
		{
			"bufferView":16,
			"componentType":5126,
			"count":8781,
			"max":[
				0.1292971670627594,
				4.190000057220459,
				0.14924219250679016
			],
			"min":[
				-0.12557360529899597,
				3.738051176071167,
				-0.23721446096897125
			],
			"type":"VEC3"
		},
		{
			"bufferView":17,
			"componentType":5126,
			"count":8781,
			"type":"VEC3"
		},
		{
			"bufferView":18,
			"componentType":5126,
			"count":8781,
			"type":"VEC2"
		},
		{
			"bufferView":19,
			"componentType":5123,
			"count":13578,
			"type":"SCALAR"
		},
		{
			"bufferView":20,
			"componentType":5126,
			"count":92,
			"max":[
				2.1500000953674316,
				0.11999999731779099,
				2.1500000953674316
			],
			"min":[
				-2.1500000953674316,
				0,
				-2.1500000953674316
			],
			"type":"VEC3"
		},
		{
			"bufferView":21,
			"componentType":5126,
			"count":92,
			"type":"VEC3"
		},
		{
			"bufferView":22,
			"componentType":5126,
			"count":92,
			"type":"VEC2"
		},
		{
			"bufferView":23,
			"componentType":5123,
			"count":126,
			"type":"SCALAR"
		}
	],
	"bufferViews":[
		{
			"buffer":0,
			"byteLength":4608,
			"byteOffset":0,
			"target":34962
		},
		{
			"buffer":0,
			"byteLength":4608,
			"byteOffset":4608,
			"target":34962
		},
		{
			"buffer":0,
			"byteLength":3072,
			"byteOffset":9216,
			"target":34962
		},
		{
			"buffer":0,
			"byteLength":1056,
			"byteOffset":12288,
			"target":34963
		},
		{
			"buffer":0,
			"byteLength":215424,
			"byteOffset":13344,
			"target":34962
		},
		{
			"buffer":0,
			"byteLength":215424,
			"byteOffset":228768,
			"target":34962
		},
		{
			"buffer":0,
			"byteLength":143616,
			"byteOffset":444192,
			"target":34962
		},
		{
			"buffer":0,
			"byteLength":53856,
			"byteOffset":587808,
			"target":34963
		},
		{
			"buffer":0,
			"byteLength":192408,
			"byteOffset":641664,
			"target":34962
		},
		{
			"buffer":0,
			"byteLength":192408,
			"byteOffset":834072,
			"target":34962
		},
		{
			"buffer":0,
			"byteLength":128272,
			"byteOffset":1026480,
			"target":34962
		},
		{
			"buffer":0,
			"byteLength":49020,
			"byteOffset":1154752,
			"target":34963
		},
		{
			"buffer":0,
			"byteLength":142704,
			"byteOffset":1203772,
			"target":34962
		},
		{
			"buffer":0,
			"byteLength":142704,
			"byteOffset":1346476,
			"target":34962
		},
		{
			"buffer":0,
			"byteLength":95136,
			"byteOffset":1489180,
			"target":34962
		},
		{
			"buffer":0,
			"byteLength":39912,
			"byteOffset":1584316,
			"target":34963
		},
		{
			"buffer":0,
			"byteLength":105372,
			"byteOffset":1624228,
			"target":34962
		},
		{
			"buffer":0,
			"byteLength":105372,
			"byteOffset":1729600,
			"target":34962
		},
		{
			"buffer":0,
			"byteLength":70248,
			"byteOffset":1834972,
			"target":34962
		},
		{
			"buffer":0,
			"byteLength":27156,
			"byteOffset":1905220,
			"target":34963
		},
		{
			"buffer":0,
			"byteLength":1104,
			"byteOffset":1932376,
			"target":34962
		},
		{
			"buffer":0,
			"byteLength":1104,
			"byteOffset":1933480,
			"target":34962
		},
		{
			"buffer":0,
			"byteLength":736,
			"byteOffset":1934584,
			"target":34962
		},
		{
			"buffer":0,
			"byteLength":252,
			"byteOffset":1935320,
			"target":34963
		}
	],
	"samplers":[
		{
			"magFilter":9729,
			"minFilter":9987
		}
	],
	"buffers":[
		{
			"byteLength":1935572,
			"uri":"Azumaya_A.bin"
		}
	]
}
