{
	"asset":{
		"generator":"Khronos glTF Blender I/O v5.0.21",
		"version":"2.0"
	},
	"scene":0,
	"scenes":[
		{
			"name":"Scene",
			"nodes":[
				0
			]
		}
	],
	"nodes":[
		{
			"mesh":0,
			"name":"Coral_Branch_A"
		}
	],
	"materials":[
		{
			"name":"Coral_Branch_A_Coral_Branch_A",
			"normalTexture":{
				"index":0
			},
			"occlusionTexture":{
				"index":1
			},
			"pbrMetallicRoughness":{
				"baseColorTexture":{
					"index":2
				},
				"metallicRoughnessTexture":{
					"index":1
				}
			}
		}
	],
	"meshes":[
		{
			"name":"Coral_Branch_A",
			"primitives":[
				{
					"attributes":{
						"POSITION":0,
						"NORMAL":1,
						"TEXCOORD_0":2,
						"TANGENT":3
					},
					"indices":4,
					"material":0
				}
			]
		}
	],
	"textures":[
		{
			"sampler":0,
			"source":0
		},
		{
			"sampler":0,
			"source":1
		},
		{
			"sampler":0,
			"source":2
		}
	],
	"images":[
		{
			"mimeType":"image/png",
			"name":"Coral_Branch_A_Coral_Branch_A_Normal",
			"uri":"Coral_Branch_A_Coral_Branch_A_Normal.png"
		},
		{
			"mimeType":"image/png",
			"name":"Coral_Branch_A_Coral_Branch_A_ORM",
			"uri":"Coral_Branch_A_Coral_Branch_A_ORM.png"
		},
		{
			"mimeType":"image/png",
			"name":"Coral_Branch_A_Coral_Branch_A_BaseColor",
			"uri":"Coral_Branch_A_Coral_Branch_A_BaseColor.png"
		}
	],
	"accessors":[
		{
			"bufferView":0,
			"componentType":5126,
			"count":10813,
			"max":[
				0.7144896388053894,
				0.8100694417953491,
				0.6405534148216248
			],
			"min":[
				-0.6634682416915894,
				-0.08707932382822037,
				-0.5635095834732056
			],
			"type":"VEC3"
		},
		{
			"bufferView":1,
			"componentType":5126,
			"count":10813,
			"type":"VEC3"
		},
		{
			"bufferView":2,
			"componentType":5126,
			"count":10813,
			"type":"VEC2"
		},
		{
			"bufferView":3,
			"componentType":5126,
			"count":10813,
			"type":"VEC4"
		},
		{
			"bufferView":4,
			"componentType":5123,
			"count":45132,
			"type":"SCALAR"
		}
	],
	"bufferViews":[
		{
			"buffer":0,
			"byteLength":129756,
			"byteOffset":0,
			"target":34962
		},
		{
			"buffer":0,
			"byteLength":129756,
			"byteOffset":129756,
			"target":34962
		},
		{
			"buffer":0,
			"byteLength":86504,
			"byteOffset":259512,
			"target":34962
		},
		{
			"buffer":0,
			"byteLength":173008,
			"byteOffset":346016,
			"target":34962
		},
		{
			"buffer":0,
			"byteLength":90264,
			"byteOffset":519024,
			"target":34963
		}
	],
	"samplers":[
		{
			"magFilter":9729,
			"minFilter":9987
		}
	],
	"buffers":[
		{
			"byteLength":609288,
			"uri":"Coral_Branch_A.bin"
		}
	]
}
