{
	"asset":{
		"generator":"Khronos glTF Blender I/O v5.0.21",
		"version":"2.0"
	},
	"scene":0,
	"scenes":[
		{
			"name":"Scene",
			"nodes":[
				0
			]
		}
	],
	"nodes":[
		{
			"mesh":0,
			"name":"Shell_Cowrie"
		}
	],
	"materials":[
		{
			"name":"Shell_Cowrie_Cowrie",
			"normalTexture":{
				"index":0
			},
			"occlusionTexture":{
				"index":1
			},
			"pbrMetallicRoughness":{
				"baseColorTexture":{
					"index":2
				},
				"metallicRoughnessTexture":{
					"index":1
				}
			}
		}
	],
	"meshes":[
		{
			"name":"Shell_Cowrie",
			"primitives":[
				{
					"attributes":{
						"POSITION":0,
						"NORMAL":1,
						"TEXCOORD_0":2,
						"TANGENT":3
					},
					"indices":4,
					"material":0
				}
			]
		}
	],
	"textures":[
		{
			"sampler":0,
			"source":0
		},
		{
			"sampler":0,
			"source":1
		},
		{
			"sampler":0,
			"source":2
		}
	],
	"images":[
		{
			"mimeType":"image/png",
			"name":"Shell_Cowrie_Cowrie_Normal",
			"uri":"Shell_Cowrie_Cowrie_Normal.png"
		},
		{
			"mimeType":"image/png",
			"name":"Shell_Cowrie_Cowrie_ORM",
			"uri":"Shell_Cowrie_Cowrie_ORM.png"
		},
		{
			"mimeType":"image/png",
			"name":"Shell_Cowrie_Cowrie_BaseColor",
			"uri":"Shell_Cowrie_Cowrie_BaseColor.png"
		}
	],
	"accessors":[
		{
			"bufferView":0,
			"componentType":5126,
			"count":1334,
			"max":[
				0.028804052621126175,
				0.024888938292860985,
				0.02324390597641468
			],
			"min":[
				-0.028413530439138412,
				0,
				-0.023243898525834084
			],
			"type":"VEC3"
		},
		{
			"bufferView":1,
			"componentType":5126,
			"count":1334,
			"type":"VEC3"
		},
		{
			"bufferView":2,
			"componentType":5126,
			"count":1334,
			"type":"VEC2"
		},
		{
			"bufferView":3,
			"componentType":5126,
			"count":1334,
			"type":"VEC4"
		},
		{
			"bufferView":4,
			"componentType":5123,
			"count":5520,
			"type":"SCALAR"
		}
	],
	"bufferViews":[
		{
			"buffer":0,
			"byteLength":16008,
			"byteOffset":0,
			"target":34962
		},
		{
			"buffer":0,
			"byteLength":16008,
			"byteOffset":16008,
			"target":34962
		},
		{
			"buffer":0,
			"byteLength":10672,
			"byteOffset":32016,
			"target":34962
		},
		{
			"buffer":0,
			"byteLength":21344,
			"byteOffset":42688,
			"target":34962
		},
		{
			"buffer":0,
			"byteLength":11040,
			"byteOffset":64032,
			"target":34963
		}
	],
	"samplers":[
		{
			"magFilter":9729,
			"minFilter":9987
		}
	],
	"buffers":[
		{
			"byteLength":75072,
			"uri":"Shell_Cowrie.bin"
		}
	]
}
