{
	"asset":{
		"generator":"Khronos glTF Blender I/O v5.0.21",
		"version":"2.0"
	},
	"scene":0,
	"scenes":[
		{
			"name":"Scene",
			"nodes":[
				0
			]
		}
	],
	"nodes":[
		{
			"mesh":0,
			"name":"SeaCucumber"
		}
	],
	"materials":[
		{
			"name":"SeaCucumber_SeaCucumber",
			"normalTexture":{
				"index":0
			},
			"occlusionTexture":{
				"index":1
			},
			"pbrMetallicRoughness":{
				"baseColorTexture":{
					"index":2
				},
				"metallicRoughnessTexture":{
					"index":1
				}
			}
		}
	],
	"meshes":[
		{
			"name":"SeaCucumber",
			"primitives":[
				{
					"attributes":{
						"POSITION":0,
						"NORMAL":1,
						"TEXCOORD_0":2,
						"TANGENT":3
					},
					"indices":4,
					"material":0
				}
			]
		}
	],
	"textures":[
		{
			"sampler":0,
			"source":0
		},
		{
			"sampler":0,
			"source":1
		},
		{
			"sampler":0,
			"source":2
		}
	],
	"images":[
		{
			"mimeType":"image/png",
			"name":"SeaCucumber_SeaCucumber_Normal",
			"uri":"SeaCucumber_SeaCucumber_Normal.png"
		},
		{
			"mimeType":"image/png",
			"name":"SeaCucumber_SeaCucumber_ORM",
			"uri":"SeaCucumber_SeaCucumber_ORM.png"
		},
		{
			"mimeType":"image/png",
			"name":"SeaCucumber_SeaCucumber_BaseColor",
			"uri":"SeaCucumber_SeaCucumber_BaseColor.png"
		}
	],
	"accessors":[
		{
			"bufferView":0,
			"componentType":5126,
			"count":1658,
			"max":[
				0.1538521945476532,
				0.035662006586790085,
				0.054852087050676346
			],
			"min":[
				-0.1537904441356659,
				-0.003000000026077032,
				-0.04379882290959358
			],
			"type":"VEC3"
		},
		{
			"bufferView":1,
			"componentType":5126,
			"count":1658,
			"type":"VEC3"
		},
		{
			"bufferView":2,
			"componentType":5126,
			"count":1658,
			"type":"VEC2"
		},
		{
			"bufferView":3,
			"componentType":5126,
			"count":1658,
			"type":"VEC4"
		},
		{
			"bufferView":4,
			"componentType":5123,
			"count":9504,
			"type":"SCALAR"
		}
	],
	"bufferViews":[
		{
			"buffer":0,
			"byteLength":19896,
			"byteOffset":0,
			"target":34962
		},
		{
			"buffer":0,
			"byteLength":19896,
			"byteOffset":19896,
			"target":34962
		},
		{
			"buffer":0,
			"byteLength":13264,
			"byteOffset":39792,
			"target":34962
		},
		{
			"buffer":0,
			"byteLength":26528,
			"byteOffset":53056,
			"target":34962
		},
		{
			"buffer":0,
			"byteLength":19008,
			"byteOffset":79584,
			"target":34963
		}
	],
	"samplers":[
		{
			"magFilter":9729,
			"minFilter":9987
		}
	],
	"buffers":[
		{
			"byteLength":98592,
			"uri":"SeaCucumber.bin"
		}
	]
}
