{
	"asset":{
		"generator":"Khronos glTF Blender I/O v5.0.21",
		"version":"2.0"
	},
	"scene":0,
	"scenes":[
		{
			"name":"Scene",
			"nodes":[
				0
			]
		}
	],
	"nodes":[
		{
			"mesh":0,
			"name":"Coral_MicroAtoll"
		}
	],
	"materials":[
		{
			"name":"Coral_MicroAtoll_Coral_MicroAtoll",
			"normalTexture":{
				"index":0
			},
			"occlusionTexture":{
				"index":1
			},
			"pbrMetallicRoughness":{
				"baseColorTexture":{
					"index":2
				},
				"metallicRoughnessTexture":{
					"index":1
				}
			}
		}
	],
	"meshes":[
		{
			"name":"Coral_MicroAtoll",
			"primitives":[
				{
					"attributes":{
						"POSITION":0,
						"NORMAL":1,
						"TEXCOORD_0":2,
						"TANGENT":3
					},
					"indices":4,
					"material":0
				}
			]
		}
	],
	"textures":[
		{
			"sampler":0,
			"source":0
		},
		{
			"sampler":0,
			"source":1
		},
		{
			"sampler":0,
			"source":2
		}
	],
	"images":[
		{
			"mimeType":"image/png",
			"name":"Coral_MicroAtoll_Coral_MicroAtoll_Normal",
			"uri":"Coral_MicroAtoll_Coral_MicroAtoll_Normal.png"
		},
		{
			"mimeType":"image/png",
			"name":"Coral_MicroAtoll_Coral_MicroAtoll_ORM",
			"uri":"Coral_MicroAtoll_Coral_MicroAtoll_ORM.png"
		},
		{
			"mimeType":"image/png",
			"name":"Coral_MicroAtoll_Coral_MicroAtoll_BaseColor",
			"uri":"Coral_MicroAtoll_Coral_MicroAtoll_BaseColor.png"
		}
	],
	"accessors":[
		{
			"bufferView":0,
			"componentType":5126,
			"count":7825,
			"max":[
				1.4135217666625977,
				0.8837579488754272,
				1.4048144817352295
			],
			"min":[
				-1.4459494352340698,
				-0.09999991208314896,
				-1.4721016883850098
			],
			"type":"VEC3"
		},
		{
			"bufferView":1,
			"componentType":5126,
			"count":7825,
			"type":"VEC3"
		},
		{
			"bufferView":2,
			"componentType":5126,
			"count":7825,
			"type":"VEC2"
		},
		{
			"bufferView":3,
			"componentType":5126,
			"count":7825,
			"type":"VEC4"
		},
		{
			"bufferView":4,
			"componentType":5123,
			"count":40500,
			"type":"SCALAR"
		}
	],
	"bufferViews":[
		{
			"buffer":0,
			"byteLength":93900,
			"byteOffset":0,
			"target":34962
		},
		{
			"buffer":0,
			"byteLength":93900,
			"byteOffset":93900,
			"target":34962
		},
		{
			"buffer":0,
			"byteLength":62600,
			"byteOffset":187800,
			"target":34962
		},
		{
			"buffer":0,
			"byteLength":125200,
			"byteOffset":250400,
			"target":34962
		},
		{
			"buffer":0,
			"byteLength":81000,
			"byteOffset":375600,
			"target":34963
		}
	],
	"samplers":[
		{
			"magFilter":9729,
			"minFilter":9987
		}
	],
	"buffers":[
		{
			"byteLength":456600,
			"uri":"Coral_MicroAtoll.bin"
		}
	]
}
