{
	"asset":{
		"generator":"Khronos glTF Blender I/O v5.0.21",
		"version":"2.0"
	},
	"scene":0,
	"scenes":[
		{
			"name":"Scene",
			"nodes":[
				0
			]
		}
	],
	"nodes":[
		{
			"mesh":0,
			"name":"CoralPiece_A"
		}
	],
	"materials":[
		{
			"name":"CoralPiece_A_CoralA",
			"normalTexture":{
				"index":0
			},
			"occlusionTexture":{
				"index":1
			},
			"pbrMetallicRoughness":{
				"baseColorTexture":{
					"index":2
				},
				"metallicRoughnessTexture":{
					"index":1
				}
			}
		}
	],
	"meshes":[
		{
			"name":"CoralPiece_A",
			"primitives":[
				{
					"attributes":{
						"POSITION":0,
						"NORMAL":1,
						"TEXCOORD_0":2,
						"TANGENT":3
					},
					"indices":4,
					"material":0
				}
			]
		}
	],
	"textures":[
		{
			"sampler":0,
			"source":0
		},
		{
			"sampler":0,
			"source":1
		},
		{
			"sampler":0,
			"source":2
		}
	],
	"images":[
		{
			"mimeType":"image/png",
			"name":"CoralPiece_A_CoralA_Normal",
			"uri":"CoralPiece_A_CoralA_Normal.png"
		},
		{
			"mimeType":"image/png",
			"name":"CoralPiece_A_CoralA_ORM",
			"uri":"CoralPiece_A_CoralA_ORM.png"
		},
		{
			"mimeType":"image/png",
			"name":"CoralPiece_A_CoralA_BaseColor",
			"uri":"CoralPiece_A_CoralA_BaseColor.png"
		}
	],
	"accessors":[
		{
			"bufferView":0,
			"componentType":5126,
			"count":4218,
			"max":[
				0.1539706289768219,
				0.06589458137750626,
				0.06903941929340363
			],
			"min":[
				-0.15217991173267365,
				0,
				-0.1632184535264969
			],
			"type":"VEC3"
		},
		{
			"bufferView":1,
			"componentType":5126,
			"count":4218,
			"type":"VEC3"
		},
		{
			"bufferView":2,
			"componentType":5126,
			"count":4218,
			"type":"VEC2"
		},
		{
			"bufferView":3,
			"componentType":5126,
			"count":4218,
			"type":"VEC4"
		},
		{
			"bufferView":4,
			"componentType":5123,
			"count":12000,
			"type":"SCALAR"
		}
	],
	"bufferViews":[
		{
			"buffer":0,
			"byteLength":50616,
			"byteOffset":0,
			"target":34962
		},
		{
			"buffer":0,
			"byteLength":50616,
			"byteOffset":50616,
			"target":34962
		},
		{
			"buffer":0,
			"byteLength":33744,
			"byteOffset":101232,
			"target":34962
		},
		{
			"buffer":0,
			"byteLength":67488,
			"byteOffset":134976,
			"target":34962
		},
		{
			"buffer":0,
			"byteLength":24000,
			"byteOffset":202464,
			"target":34963
		}
	],
	"samplers":[
		{
			"magFilter":9729,
			"minFilter":9987
		}
	],
	"buffers":[
		{
			"byteLength":226464,
			"uri":"CoralPiece_A.bin"
		}
	]
}
