{
	"asset":{
		"generator":"Khronos glTF Blender I/O v5.0.21",
		"version":"2.0"
	},
	"scene":0,
	"scenes":[
		{
			"name":"Scene",
			"nodes":[
				0
			]
		}
	],
	"nodes":[
		{
			"mesh":0,
			"name":"Shisa_Ungyo"
		}
	],
	"materials":[
		{
			"name":"Shisa_Ungyo_ShisaPedestal",
			"normalTexture":{
				"index":0
			},
			"occlusionTexture":{
				"index":1
			},
			"pbrMetallicRoughness":{
				"baseColorTexture":{
					"index":2
				},
				"metallicRoughnessTexture":{
					"index":1
				}
			}
		},
		{
			"name":"Shisa_Ungyo_ShisaClay",
			"normalTexture":{
				"index":3
			},
			"occlusionTexture":{
				"index":4
			},
			"pbrMetallicRoughness":{
				"baseColorTexture":{
					"index":5
				},
				"metallicRoughnessTexture":{
					"index":4
				}
			}
		}
	],
	"meshes":[
		{
			"name":"Shisa_Ungyo",
			"primitives":[
				{
					"attributes":{
						"POSITION":0,
						"NORMAL":1,
						"TEXCOORD_0":2,
						"TANGENT":3
					},
					"indices":4,
					"material":0
				},
				{
					"attributes":{
						"POSITION":5,
						"NORMAL":6,
						"TEXCOORD_0":7,
						"TANGENT":8
					},
					"indices":9,
					"material":1
				}
			]
		}
	],
	"textures":[
		{
			"sampler":0,
			"source":0
		},
		{
			"sampler":0,
			"source":1
		},
		{
			"sampler":0,
			"source":2
		},
		{
			"sampler":0,
			"source":3
		},
		{
			"sampler":0,
			"source":4
		},
		{
			"sampler":0,
			"source":5
		}
	],
	"images":[
		{
			"mimeType":"image/png",
			"name":"Shisa_Ungyo_ShisaPedestal_Normal",
			"uri":"Shisa_Ungyo_ShisaPedestal_Normal.png"
		},
		{
			"mimeType":"image/png",
			"name":"Shisa_Ungyo_ShisaPedestal_ORM",
			"uri":"Shisa_Ungyo_ShisaPedestal_ORM.png"
		},
		{
			"mimeType":"image/png",
			"name":"Shisa_Ungyo_ShisaPedestal_BaseColor",
			"uri":"Shisa_Ungyo_ShisaPedestal_BaseColor.png"
		},
		{
			"mimeType":"image/png",
			"name":"Shisa_Ungyo_ShisaClay_Normal",
			"uri":"Shisa_Ungyo_ShisaClay_Normal.png"
		},
		{
			"mimeType":"image/png",
			"name":"Shisa_Ungyo_ShisaClay_ORM",
			"uri":"Shisa_Ungyo_ShisaClay_ORM.png"
		},
		{
			"mimeType":"image/png",
			"name":"Shisa_Ungyo_ShisaClay_BaseColor",
			"uri":"Shisa_Ungyo_ShisaClay_BaseColor.png"
		}
	],
	"accessors":[
		{
			"bufferView":0,
			"componentType":5126,
			"count":432,
			"max":[
				0.3044453561306,
				0.2199999988079071,
				0.3925916254520416
			],
			"min":[
				-0.3044270873069763,
				-0.019999999552965164,
				-0.33049505949020386
			],
			"type":"VEC3"
		},
		{
			"bufferView":1,
			"componentType":5126,
			"count":432,
			"type":"VEC3"
		},
		{
			"bufferView":2,
			"componentType":5126,
			"count":432,
			"type":"VEC2"
		},
		{
			"bufferView":3,
			"componentType":5126,
			"count":432,
			"type":"VEC4"
		},
		{
			"bufferView":4,
			"componentType":5123,
			"count":648,
			"type":"SCALAR"
		},
		{
			"bufferView":5,
			"componentType":5126,
			"count":31129,
			"max":[
				0.2406318485736847,
				1.065999984741211,
				0.32442399859428406
			],
			"min":[
				-0.24234263598918915,
				0.20927704870700836,
				-0.41764000058174133
			],
			"type":"VEC3"
		},
		{
			"bufferView":6,
			"componentType":5126,
			"count":31129,
			"type":"VEC3"
		},
		{
			"bufferView":7,
			"componentType":5126,
			"count":31129,
			"type":"VEC2"
		},
		{
			"bufferView":8,
			"componentType":5126,
			"count":31129,
			"type":"VEC4"
		},
		{
			"bufferView":9,
			"componentType":5123,
			"count":71967,
			"type":"SCALAR"
		}
	],
	"bufferViews":[
		{
			"buffer":0,
			"byteLength":5184,
			"byteOffset":0,
			"target":34962
		},
		{
			"buffer":0,
			"byteLength":5184,
			"byteOffset":5184,
			"target":34962
		},
		{
			"buffer":0,
			"byteLength":3456,
			"byteOffset":10368,
			"target":34962
		},
		{
			"buffer":0,
			"byteLength":6912,
			"byteOffset":13824,
			"target":34962
		},
		{
			"buffer":0,
			"byteLength":1296,
			"byteOffset":20736,
			"target":34963
		},
		{
			"buffer":0,
			"byteLength":373548,
			"byteOffset":22032,
			"target":34962
		},
		{
			"buffer":0,
			"byteLength":373548,
			"byteOffset":395580,
			"target":34962
		},
		{
			"buffer":0,
			"byteLength":249032,
			"byteOffset":769128,
			"target":34962
		},
		{
			"buffer":0,
			"byteLength":498064,
			"byteOffset":1018160,
			"target":34962
		},
		{
			"buffer":0,
			"byteLength":143934,
			"byteOffset":1516224,
			"target":34963
		}
	],
	"samplers":[
		{
			"magFilter":9729,
			"minFilter":9987
		}
	],
	"buffers":[
		{
			"byteLength":1660160,
			"uri":"Shisa_Ungyo.bin"
		}
	]
}
