{
	"asset":{
		"generator":"Khronos glTF Blender I/O v5.0.21",
		"version":"2.0"
	},
	"scene":0,
	"scenes":[
		{
			"name":"Scene",
			"nodes":[
				0
			]
		}
	],
	"nodes":[
		{
			"mesh":0,
			"name":"ReefRock_C"
		}
	],
	"materials":[
		{
			"name":"ReefRock_C_ReefRockC",
			"normalTexture":{
				"index":0
			},
			"occlusionTexture":{
				"index":1
			},
			"pbrMetallicRoughness":{
				"baseColorTexture":{
					"index":2
				},
				"metallicRoughnessTexture":{
					"index":1
				}
			}
		}
	],
	"meshes":[
		{
			"name":"ReefRock_C",
			"primitives":[
				{
					"attributes":{
						"POSITION":0,
						"NORMAL":1,
						"TEXCOORD_0":2,
						"TANGENT":3
					},
					"indices":4,
					"material":0
				}
			]
		}
	],
	"textures":[
		{
			"sampler":0,
			"source":0
		},
		{
			"sampler":0,
			"source":1
		},
		{
			"sampler":0,
			"source":2
		}
	],
	"images":[
		{
			"mimeType":"image/png",
			"name":"ReefRock_C_ReefRockC_Normal",
			"uri":"ReefRock_C_ReefRockC_Normal.png"
		},
		{
			"mimeType":"image/png",
			"name":"ReefRock_C_ReefRockC_ORM",
			"uri":"ReefRock_C_ReefRockC_ORM.png"
		},
		{
			"mimeType":"image/png",
			"name":"ReefRock_C_ReefRockC_BaseColor",
			"uri":"ReefRock_C_ReefRockC_BaseColor.png"
		}
	],
	"accessors":[
		{
			"bufferView":0,
			"componentType":5126,
			"count":3585,
			"max":[
				0.6752633452415466,
				0.4579217731952667,
				0.5043380856513977
			],
			"min":[
				-0.6205204129219055,
				-0.34854620695114136,
				-0.4723875820636749
			],
			"type":"VEC3"
		},
		{
			"bufferView":1,
			"componentType":5126,
			"count":3585,
			"type":"VEC3"
		},
		{
			"bufferView":2,
			"componentType":5126,
			"count":3585,
			"type":"VEC2"
		},
		{
			"bufferView":3,
			"componentType":5126,
			"count":3585,
			"type":"VEC4"
		},
		{
			"bufferView":4,
			"componentType":5123,
			"count":7500,
			"type":"SCALAR"
		}
	],
	"bufferViews":[
		{
			"buffer":0,
			"byteLength":43020,
			"byteOffset":0,
			"target":34962
		},
		{
			"buffer":0,
			"byteLength":43020,
			"byteOffset":43020,
			"target":34962
		},
		{
			"buffer":0,
			"byteLength":28680,
			"byteOffset":86040,
			"target":34962
		},
		{
			"buffer":0,
			"byteLength":57360,
			"byteOffset":114720,
			"target":34962
		},
		{
			"buffer":0,
			"byteLength":15000,
			"byteOffset":172080,
			"target":34963
		}
	],
	"samplers":[
		{
			"magFilter":9729,
			"minFilter":9987
		}
	],
	"buffers":[
		{
			"byteLength":187080,
			"uri":"ReefRock_C.bin"
		}
	]
}
