{
	"asset":{
		"generator":"Khronos glTF Blender I/O v5.0.21",
		"version":"2.0"
	},
	"scene":0,
	"scenes":[
		{
			"name":"Scene",
			"nodes":[
				0
			]
		}
	],
	"nodes":[
		{
			"mesh":0,
			"name":"DeckChair_A"
		}
	],
	"materials":[
		{
			"name":"DeckChair_A_ChairSteel",
			"normalTexture":{
				"index":0
			},
			"occlusionTexture":{
				"index":1
			},
			"pbrMetallicRoughness":{
				"baseColorTexture":{
					"index":2
				},
				"metallicRoughnessTexture":{
					"index":1
				}
			}
		},
		{
			"name":"DeckChair_A_ChairTeak",
			"normalTexture":{
				"index":3
			},
			"occlusionTexture":{
				"index":4
			},
			"pbrMetallicRoughness":{
				"baseColorTexture":{
					"index":5
				},
				"metallicRoughnessTexture":{
					"index":4
				}
			}
		}
	],
	"meshes":[
		{
			"name":"DeckChair_A",
			"primitives":[
				{
					"attributes":{
						"POSITION":0,
						"NORMAL":1,
						"TEXCOORD_0":2,
						"TANGENT":3
					},
					"indices":4,
					"material":0
				},
				{
					"attributes":{
						"POSITION":5,
						"NORMAL":6,
						"TEXCOORD_0":7,
						"TANGENT":8
					},
					"indices":9,
					"material":1
				}
			]
		}
	],
	"textures":[
		{
			"sampler":0,
			"source":0
		},
		{
			"sampler":0,
			"source":1
		},
		{
			"sampler":0,
			"source":2
		},
		{
			"sampler":0,
			"source":3
		},
		{
			"sampler":0,
			"source":4
		},
		{
			"sampler":0,
			"source":5
		}
	],
	"images":[
		{
			"mimeType":"image/png",
			"name":"DeckChair_A_ChairSteel_Normal",
			"uri":"DeckChair_A_ChairSteel_Normal.png"
		},
		{
			"mimeType":"image/png",
			"name":"DeckChair_A_ChairSteel_ORM",
			"uri":"DeckChair_A_ChairSteel_ORM.png"
		},
		{
			"mimeType":"image/png",
			"name":"DeckChair_A_ChairSteel_BaseColor",
			"uri":"DeckChair_A_ChairSteel_BaseColor.png"
		},
		{
			"mimeType":"image/png",
			"name":"DeckChair_A_ChairTeak_Normal",
			"uri":"DeckChair_A_ChairTeak_Normal.png"
		},
		{
			"mimeType":"image/png",
			"name":"DeckChair_A_ChairTeak_ORM",
			"uri":"DeckChair_A_ChairTeak_ORM.png"
		},
		{
			"mimeType":"image/png",
			"name":"DeckChair_A_ChairTeak_BaseColor",
			"uri":"DeckChair_A_ChairTeak_BaseColor.png"
		}
	],
	"accessors":[
		{
			"bufferView":0,
			"componentType":5126,
			"count":866,
			"max":[
				0.9089999794960022,
				0.6325012445449829,
				0.3879999816417694
			],
			"min":[
				-0.9089999794960022,
				0.05597887188196182,
				-0.3879999816417694
			],
			"type":"VEC3"
		},
		{
			"bufferView":1,
			"componentType":5126,
			"count":866,
			"type":"VEC3"
		},
		{
			"bufferView":2,
			"componentType":5126,
			"count":866,
			"type":"VEC2"
		},
		{
			"bufferView":3,
			"componentType":5126,
			"count":866,
			"type":"VEC4"
		},
		{
			"bufferView":4,
			"componentType":5123,
			"count":2136,
			"type":"SCALAR"
		},
		{
			"bufferView":5,
			"componentType":5126,
			"count":4543,
			"max":[
				0.949999988079071,
				0.8885093331336975,
				0.37800002098083496
			],
			"min":[
				-0.949999988079071,
				0,
				-0.37800002098083496
			],
			"type":"VEC3"
		},
		{
			"bufferView":6,
			"componentType":5126,
			"count":4543,
			"type":"VEC3"
		},
		{
			"bufferView":7,
			"componentType":5126,
			"count":4543,
			"type":"VEC2"
		},
		{
			"bufferView":8,
			"componentType":5126,
			"count":4543,
			"type":"VEC4"
		},
		{
			"bufferView":9,
			"componentType":5123,
			"count":6408,
			"type":"SCALAR"
		}
	],
	"bufferViews":[
		{
			"buffer":0,
			"byteLength":10392,
			"byteOffset":0,
			"target":34962
		},
		{
			"buffer":0,
			"byteLength":10392,
			"byteOffset":10392,
			"target":34962
		},
		{
			"buffer":0,
			"byteLength":6928,
			"byteOffset":20784,
			"target":34962
		},
		{
			"buffer":0,
			"byteLength":13856,
			"byteOffset":27712,
			"target":34962
		},
		{
			"buffer":0,
			"byteLength":4272,
			"byteOffset":41568,
			"target":34963
		},
		{
			"buffer":0,
			"byteLength":54516,
			"byteOffset":45840,
			"target":34962
		},
		{
			"buffer":0,
			"byteLength":54516,
			"byteOffset":100356,
			"target":34962
		},
		{
			"buffer":0,
			"byteLength":36344,
			"byteOffset":154872,
			"target":34962
		},
		{
			"buffer":0,
			"byteLength":72688,
			"byteOffset":191216,
			"target":34962
		},
		{
			"buffer":0,
			"byteLength":12816,
			"byteOffset":263904,
			"target":34963
		}
	],
	"samplers":[
		{
			"magFilter":9729,
			"minFilter":9987
		}
	],
	"buffers":[
		{
			"byteLength":276720,
			"uri":"DeckChair_A.bin"
		}
	]
}
