{
	"asset":{
		"generator":"Khronos glTF Blender I/O v5.0.21",
		"version":"2.0"
	},
	"scene":0,
	"scenes":[
		{
			"name":"Scene",
			"nodes":[
				0
			]
		}
	],
	"nodes":[
		{
			"mesh":0,
			"name":"Pier_Straight"
		}
	],
	"materials":[
		{
			"name":"Pier_Straight_PierMetal",
			"normalTexture":{
				"index":0
			},
			"occlusionTexture":{
				"index":1
			},
			"pbrMetallicRoughness":{
				"baseColorTexture":{
					"index":2
				},
				"metallicRoughnessTexture":{
					"index":1
				}
			}
		},
		{
			"name":"Pier_Straight_PierDeck",
			"normalTexture":{
				"index":3
			},
			"occlusionTexture":{
				"index":4
			},
			"pbrMetallicRoughness":{
				"baseColorTexture":{
					"index":5
				},
				"metallicRoughnessTexture":{
					"index":4
				}
			}
		},
		{
			"name":"Pier_Straight_PierFrame",
			"normalTexture":{
				"index":6
			},
			"occlusionTexture":{
				"index":7
			},
			"pbrMetallicRoughness":{
				"baseColorTexture":{
					"index":8
				},
				"metallicRoughnessTexture":{
					"index":7
				}
			}
		},
		{
			"name":"Pier_Straight_PierPiling",
			"normalTexture":{
				"index":9
			},
			"occlusionTexture":{
				"index":10
			},
			"pbrMetallicRoughness":{
				"baseColorTexture":{
					"index":11
				},
				"metallicRoughnessTexture":{
					"index":10
				}
			}
		}
	],
	"meshes":[
		{
			"name":"Pier_Straight",
			"primitives":[
				{
					"attributes":{
						"POSITION":0,
						"NORMAL":1,
						"TEXCOORD_0":2,
						"TANGENT":3
					},
					"indices":4,
					"material":0
				},
				{
					"attributes":{
						"POSITION":5,
						"NORMAL":6,
						"TEXCOORD_0":7,
						"TANGENT":8
					},
					"indices":9,
					"material":1
				},
				{
					"attributes":{
						"POSITION":10,
						"NORMAL":11,
						"TEXCOORD_0":12,
						"TANGENT":13
					},
					"indices":14,
					"material":2
				},
				{
					"attributes":{
						"POSITION":15,
						"NORMAL":16,
						"TEXCOORD_0":17,
						"TANGENT":18
					},
					"indices":19,
					"material":3
				}
			]
		}
	],
	"textures":[
		{
			"sampler":0,
			"source":0
		},
		{
			"sampler":0,
			"source":1
		},
		{
			"sampler":0,
			"source":2
		},
		{
			"sampler":0,
			"source":3
		},
		{
			"sampler":0,
			"source":4
		},
		{
			"sampler":0,
			"source":5
		},
		{
			"sampler":0,
			"source":6
		},
		{
			"sampler":0,
			"source":7
		},
		{
			"sampler":0,
			"source":8
		},
		{
			"sampler":0,
			"source":9
		},
		{
			"sampler":0,
			"source":10
		},
		{
			"sampler":0,
			"source":11
		}
	],
	"images":[
		{
			"mimeType":"image/png",
			"name":"Pier_Straight_PierMetal_Normal",
			"uri":"Pier_Straight_PierMetal_Normal.png"
		},
		{
			"mimeType":"image/png",
			"name":"Pier_Straight_PierMetal_ORM",
			"uri":"Pier_Straight_PierMetal_ORM.png"
		},
		{
			"mimeType":"image/png",
			"name":"Pier_Straight_PierMetal_BaseColor",
			"uri":"Pier_Straight_PierMetal_BaseColor.png"
		},
		{
			"mimeType":"image/png",
			"name":"Pier_Straight_PierDeck_Normal",
			"uri":"Pier_Straight_PierDeck_Normal.png"
		},
		{
			"mimeType":"image/png",
			"name":"Pier_Straight_PierDeck_ORM",
			"uri":"Pier_Straight_PierDeck_ORM.png"
		},
		{
			"mimeType":"image/png",
			"name":"Pier_Straight_PierDeck_BaseColor",
			"uri":"Pier_Straight_PierDeck_BaseColor.png"
		},
		{
			"mimeType":"image/png",
			"name":"Pier_Straight_PierFrame_Normal",
			"uri":"Pier_Straight_PierFrame_Normal.png"
		},
		{
			"mimeType":"image/png",
			"name":"Pier_Straight_PierFrame_ORM",
			"uri":"Pier_Straight_PierFrame_ORM.png"
		},
		{
			"mimeType":"image/png",
			"name":"Pier_Straight_PierFrame_BaseColor",
			"uri":"Pier_Straight_PierFrame_BaseColor.png"
		},
		{
			"mimeType":"image/png",
			"name":"Pier_Straight_PierPiling_Normal",
			"uri":"Pier_Straight_PierPiling_Normal.png"
		},
		{
			"mimeType":"image/png",
			"name":"Pier_Straight_PierPiling_ORM",
			"uri":"Pier_Straight_PierPiling_ORM.png"
		},
		{
			"mimeType":"image/png",
			"name":"Pier_Straight_PierPiling_BaseColor",
			"uri":"Pier_Straight_PierPiling_BaseColor.png"
		}
	],
	"accessors":[
		{
			"bufferView":0,
			"componentType":5126,
			"count":5235,
			"max":[
				1.1110000610351562,
				0.8700000047683716,
				-0.7639999389648438
			],
			"min":[
				-1.1110000610351562,
				-1.5121614933013916,
				-3.263000011444092
			],
			"type":"VEC3"
		},
		{
			"bufferView":1,
			"componentType":5126,
			"count":5235,
			"type":"VEC3"
		},
		{
			"bufferView":2,
			"componentType":5126,
			"count":5235,
			"type":"VEC2"
		},
		{
			"bufferView":3,
			"componentType":5126,
			"count":5235,
			"type":"VEC4"
		},
		{
			"bufferView":4,
			"componentType":5123,
			"count":9312,
			"type":"SCALAR"
		},
		{
			"bufferView":5,
			"componentType":5126,
			"count":2496,
			"max":[
				1.0170239210128784,
				1.0000734329223633,
				-0.005223385989665985
			],
			"min":[
				-1.0152246952056885,
				0.9476758241653442,
				-3.992504596710205
			],
			"type":"VEC3"
		},
		{
			"bufferView":6,
			"componentType":5126,
			"count":2496,
			"type":"VEC3"
		},
		{
			"bufferView":7,
			"componentType":5126,
			"count":2496,
			"type":"VEC2"
		},
		{
			"bufferView":8,
			"componentType":5126,
			"count":2496,
			"type":"VEC4"
		},
		{
			"bufferView":9,
			"componentType":5123,
			"count":3432,
			"type":"SCALAR"
		},
		{
			"bufferView":10,
			"componentType":5126,
			"count":1344,
			"max":[
				1.1513779163360596,
				0.9500000476837158,
				-0.001999974250793457
			],
			"min":[
				-1.1569465398788452,
				-1.5992217063903809,
				-3.998000144958496
			],
			"type":"VEC3"
		},
		{
			"bufferView":11,
			"componentType":5126,
			"count":1344,
			"type":"VEC3"
		},
		{
			"bufferView":12,
			"componentType":5126,
			"count":1344,
			"type":"VEC2"
		},
		{
			"bufferView":13,
			"componentType":5126,
			"count":1344,
			"type":"VEC4"
		},
		{
			"bufferView":14,
			"componentType":5123,
			"count":1848,
			"type":"SCALAR"
		},
		{
			"bufferView":15,
			"componentType":5126,
			"count":840,
			"max":[
				1.061877727508545,
				0.7516583204269409,
				-0.8518019914627075
			],
			"min":[
				-1.0616929531097412,
				-2.5016870498657227,
				-3.16339111328125
			],
			"type":"VEC3"
		},
		{
			"bufferView":16,
			"componentType":5126,
			"count":840,
			"type":"VEC3"
		},
		{
			"bufferView":17,
			"componentType":5126,
			"count":840,
			"type":"VEC2"
		},
		{
			"bufferView":18,
			"componentType":5126,
			"count":840,
			"type":"VEC4"
		},
		{
			"bufferView":19,
			"componentType":5123,
			"count":4032,
			"type":"SCALAR"
		}
	],
	"bufferViews":[
		{
			"buffer":0,
			"byteLength":62820,
			"byteOffset":0,
			"target":34962
		},
		{
			"buffer":0,
			"byteLength":62820,
			"byteOffset":62820,
			"target":34962
		},
		{
			"buffer":0,
			"byteLength":41880,
			"byteOffset":125640,
			"target":34962
		},
		{
			"buffer":0,
			"byteLength":83760,
			"byteOffset":167520,
			"target":34962
		},
		{
			"buffer":0,
			"byteLength":18624,
			"byteOffset":251280,
			"target":34963
		},
		{
			"buffer":0,
			"byteLength":29952,
			"byteOffset":269904,
			"target":34962
		},
		{
			"buffer":0,
			"byteLength":29952,
			"byteOffset":299856,
			"target":34962
		},
		{
			"buffer":0,
			"byteLength":19968,
			"byteOffset":329808,
			"target":34962
		},
		{
			"buffer":0,
			"byteLength":39936,
			"byteOffset":349776,
			"target":34962
		},
		{
			"buffer":0,
			"byteLength":6864,
			"byteOffset":389712,
			"target":34963
		},
		{
			"buffer":0,
			"byteLength":16128,
			"byteOffset":396576,
			"target":34962
		},
		{
			"buffer":0,
			"byteLength":16128,
			"byteOffset":412704,
			"target":34962
		},
		{
			"buffer":0,
			"byteLength":10752,
			"byteOffset":428832,
			"target":34962
		},
		{
			"buffer":0,
			"byteLength":21504,
			"byteOffset":439584,
			"target":34962
		},
		{
			"buffer":0,
			"byteLength":3696,
			"byteOffset":461088,
			"target":34963
		},
		{
			"buffer":0,
			"byteLength":10080,
			"byteOffset":464784,
			"target":34962
		},
		{
			"buffer":0,
			"byteLength":10080,
			"byteOffset":474864,
			"target":34962
		},
		{
			"buffer":0,
			"byteLength":6720,
			"byteOffset":484944,
			"target":34962
		},
		{
			"buffer":0,
			"byteLength":13440,
			"byteOffset":491664,
			"target":34962
		},
		{
			"buffer":0,
			"byteLength":8064,
			"byteOffset":505104,
			"target":34963
		}
	],
	"samplers":[
		{
			"magFilter":9729,
			"minFilter":9987
		}
	],
	"buffers":[
		{
			"byteLength":513168,
			"uri":"Pier_Straight.bin"
		}
	]
}
