{
	"asset":{
		"generator":"Khronos glTF Blender I/O v5.0.21",
		"version":"2.0"
	},
	"scene":0,
	"scenes":[
		{
			"name":"Scene",
			"nodes":[
				0
			]
		}
	],
	"nodes":[
		{
			"mesh":0,
			"name":"ReefTerrain_Deep"
		}
	],
	"materials":[
		{
			"name":"ReefTerrain_Deep_ReefDeep",
			"normalTexture":{
				"index":0
			},
			"occlusionTexture":{
				"index":1
			},
			"pbrMetallicRoughness":{
				"baseColorTexture":{
					"index":2
				},
				"metallicRoughnessTexture":{
					"index":1
				}
			}
		}
	],
	"meshes":[
		{
			"name":"ReefTerrain_Deep",
			"primitives":[
				{
					"attributes":{
						"POSITION":0,
						"NORMAL":1,
						"TEXCOORD_0":2,
						"TANGENT":3
					},
					"indices":4,
					"material":0
				}
			]
		}
	],
	"textures":[
		{
			"sampler":0,
			"source":0
		},
		{
			"sampler":0,
			"source":1
		},
		{
			"sampler":0,
			"source":2
		}
	],
	"images":[
		{
			"mimeType":"image/png",
			"name":"ReefTerrain_Deep_ReefDeep_Normal",
			"uri":"ReefTerrain_Deep_ReefDeep_Normal.png"
		},
		{
			"mimeType":"image/png",
			"name":"ReefTerrain_Deep_ReefDeep_ORM",
			"uri":"ReefTerrain_Deep_ReefDeep_ORM.png"
		},
		{
			"mimeType":"image/png",
			"name":"ReefTerrain_Deep_ReefDeep_BaseColor",
			"uri":"ReefTerrain_Deep_ReefDeep_BaseColor.png"
		}
	],
	"accessors":[
		{
			"bufferView":0,
			"componentType":5126,
			"count":12513,
			"max":[
				20,
				-19.254159927368164,
				20
			],
			"min":[
				-20,
				-34.89203643798828,
				-20
			],
			"type":"VEC3"
		},
		{
			"bufferView":1,
			"componentType":5126,
			"count":12513,
			"type":"VEC3"
		},
		{
			"bufferView":2,
			"componentType":5126,
			"count":12513,
			"type":"VEC2"
		},
		{
			"bufferView":3,
			"componentType":5126,
			"count":12513,
			"type":"VEC4"
		},
		{
			"bufferView":4,
			"componentType":5123,
			"count":73728,
			"type":"SCALAR"
		}
	],
	"bufferViews":[
		{
			"buffer":0,
			"byteLength":150156,
			"byteOffset":0,
			"target":34962
		},
		{
			"buffer":0,
			"byteLength":150156,
			"byteOffset":150156,
			"target":34962
		},
		{
			"buffer":0,
			"byteLength":100104,
			"byteOffset":300312,
			"target":34962
		},
		{
			"buffer":0,
			"byteLength":200208,
			"byteOffset":400416,
			"target":34962
		},
		{
			"buffer":0,
			"byteLength":147456,
			"byteOffset":600624,
			"target":34963
		}
	],
	"samplers":[
		{
			"magFilter":9729,
			"minFilter":9987
		}
	],
	"buffers":[
		{
			"byteLength":748080,
			"uri":"ReefTerrain_Deep.bin"
		}
	]
}
