{
	"asset":{
		"generator":"Khronos glTF Blender I/O v5.0.21",
		"version":"2.0"
	},
	"scene":0,
	"scenes":[
		{
			"name":"Scene",
			"nodes":[
				0
			]
		}
	],
	"nodes":[
		{
			"mesh":0,
			"name":"CoconutPalm_B"
		}
	],
	"materials":[
		{
			"name":"CoconutPalm_B_Coconut",
			"normalTexture":{
				"index":0
			},
			"occlusionTexture":{
				"index":1
			},
			"pbrMetallicRoughness":{
				"baseColorTexture":{
					"index":2
				},
				"metallicRoughnessTexture":{
					"index":1
				}
			}
		},
		{
			"name":"CoconutPalm_B_PalmTrunk",
			"normalTexture":{
				"index":3
			},
			"occlusionTexture":{
				"index":4
			},
			"pbrMetallicRoughness":{
				"baseColorTexture":{
					"index":5
				},
				"metallicRoughnessTexture":{
					"index":4
				}
			}
		},
		{
			"alphaMode":"MASK",
			"doubleSided":true,
			"name":"CoconutPalm_B_PalmFrond",
			"normalTexture":{
				"index":6
			},
			"occlusionTexture":{
				"index":7
			},
			"pbrMetallicRoughness":{
				"baseColorTexture":{
					"index":8
				},
				"metallicRoughnessTexture":{
					"index":7
				}
			}
		}
	],
	"meshes":[
		{
			"name":"CoconutPalm_B",
			"primitives":[
				{
					"attributes":{
						"POSITION":0,
						"NORMAL":1,
						"TEXCOORD_0":2,
						"TEXCOORD_1":3,
						"TEXCOORD_2":4,
						"TANGENT":5
					},
					"indices":6,
					"material":0
				},
				{
					"attributes":{
						"POSITION":7,
						"NORMAL":8,
						"TEXCOORD_0":9,
						"TEXCOORD_1":10,
						"TEXCOORD_2":11,
						"TANGENT":12
					},
					"indices":13,
					"material":1
				},
				{
					"attributes":{
						"POSITION":14,
						"NORMAL":15,
						"TEXCOORD_0":16,
						"TEXCOORD_1":17,
						"TEXCOORD_2":18,
						"TANGENT":19
					},
					"indices":20,
					"material":2
				}
			]
		}
	],
	"textures":[
		{
			"sampler":0,
			"source":0
		},
		{
			"sampler":0,
			"source":1
		},
		{
			"sampler":0,
			"source":2
		},
		{
			"sampler":0,
			"source":3
		},
		{
			"sampler":0,
			"source":4
		},
		{
			"sampler":0,
			"source":5
		},
		{
			"sampler":0,
			"source":6
		},
		{
			"sampler":0,
			"source":7
		},
		{
			"sampler":0,
			"source":8
		}
	],
	"images":[
		{
			"mimeType":"image/png",
			"name":"CoconutPalm_B_Coconut_Normal",
			"uri":"CoconutPalm_B_Coconut_Normal.png"
		},
		{
			"mimeType":"image/png",
			"name":"CoconutPalm_B_Coconut_ORM",
			"uri":"CoconutPalm_B_Coconut_ORM.png"
		},
		{
			"mimeType":"image/png",
			"name":"CoconutPalm_B_Coconut_BaseColor",
			"uri":"CoconutPalm_B_Coconut_BaseColor.png"
		},
		{
			"mimeType":"image/png",
			"name":"CoconutPalm_B_PalmTrunk_Normal",
			"uri":"CoconutPalm_B_PalmTrunk_Normal.png"
		},
		{
			"mimeType":"image/png",
			"name":"CoconutPalm_B_PalmTrunk_ORM",
			"uri":"CoconutPalm_B_PalmTrunk_ORM.png"
		},
		{
			"mimeType":"image/png",
			"name":"CoconutPalm_B_PalmTrunk_BaseColor",
			"uri":"CoconutPalm_B_PalmTrunk_BaseColor.png"
		},
		{
			"mimeType":"image/png",
			"name":"CoconutPalm_B_PalmFrond_Normal",
			"uri":"CoconutPalm_B_PalmFrond_Normal.png"
		},
		{
			"mimeType":"image/png",
			"name":"CoconutPalm_B_PalmFrond_ORM",
			"uri":"CoconutPalm_B_PalmFrond_ORM.png"
		},
		{
			"mimeType":"image/png",
			"name":"CoconutPalm_B_PalmFrond_BaseColor",
			"uri":"CoconutPalm_B_PalmFrond_BaseColor.png"
		}
	],
	"accessors":[
		{
			"bufferView":0,
			"componentType":5126,
			"count":1648,
			"max":[
				1.2338355779647827,
				6.9591875076293945,
				1.0820778608322144
			],
			"min":[
				0.16160057485103607,
				6.415074825286865,
				0.0940602570772171
			],
			"type":"VEC3"
		},
		{
			"bufferView":1,
			"componentType":5126,
			"count":1648,
			"type":"VEC3"
		},
		{
			"bufferView":2,
			"componentType":5126,
			"count":1648,
			"type":"VEC2"
		},
		{
			"bufferView":3,
			"componentType":5126,
			"count":1648,
			"type":"VEC2"
		},
		{
			"bufferView":4,
			"componentType":5126,
			"count":1648,
			"type":"VEC2"
		},
		{
			"bufferView":5,
			"componentType":5126,
			"count":1648,
			"type":"VEC4"
		},
		{
			"bufferView":6,
			"componentType":5123,
			"count":5760,
			"type":"SCALAR"
		},
		{
			"bufferView":7,
			"componentType":5126,
			"count":746,
			"max":[
				0.8791006803512573,
				7.023684024810791,
				0.674232006072998
			],
			"min":[
				-0.33874037861824036,
				-0.31252384185791016,
				-0.3458419442176819
			],
			"type":"VEC3"
		},
		{
			"bufferView":8,
			"componentType":5126,
			"count":746,
			"type":"VEC3"
		},
		{
			"bufferView":9,
			"componentType":5126,
			"count":746,
			"type":"VEC2"
		},
		{
			"bufferView":10,
			"componentType":5126,
			"count":746,
			"type":"VEC2"
		},
		{
			"bufferView":11,
			"componentType":5126,
			"count":746,
			"type":"VEC2"
		},
		{
			"bufferView":12,
			"componentType":5126,
			"count":746,
			"type":"VEC4"
		},
		{
			"bufferView":13,
			"componentType":5123,
			"count":3828,
			"type":"SCALAR"
		},
		{
			"bufferView":14,
			"componentType":5126,
			"count":27386,
			"max":[
				4.53833532333374,
				8.00535774230957,
				4.263640880584717
			],
			"min":[
				-3.117908477783203,
				3.6145362854003906,
				-3.647860050201416
			],
			"type":"VEC3"
		},
		{
			"bufferView":15,
			"componentType":5126,
			"count":27386,
			"type":"VEC3"
		},
		{
			"bufferView":16,
			"componentType":5126,
			"count":27386,
			"type":"VEC2"
		},
		{
			"bufferView":17,
			"componentType":5126,
			"count":27386,
			"type":"VEC2"
		},
		{
			"bufferView":18,
			"componentType":5126,
			"count":27386,
			"type":"VEC2"
		},
		{
			"bufferView":19,
			"componentType":5126,
			"count":27386,
			"type":"VEC4"
		},
		{
			"bufferView":20,
			"componentType":5123,
			"count":40896,
			"type":"SCALAR"
		}
	],
	"bufferViews":[
		{
			"buffer":0,
			"byteLength":19776,
			"byteOffset":0,
			"target":34962
		},
		{
			"buffer":0,
			"byteLength":19776,
			"byteOffset":19776,
			"target":34962
		},
		{
			"buffer":0,
			"byteLength":13184,
			"byteOffset":39552,
			"target":34962
		},
		{
			"buffer":0,
			"byteLength":13184,
			"byteOffset":52736,
			"target":34962
		},
		{
			"buffer":0,
			"byteLength":13184,
			"byteOffset":65920,
			"target":34962
		},
		{
			"buffer":0,
			"byteLength":26368,
			"byteOffset":79104,
			"target":34962
		},
		{
			"buffer":0,
			"byteLength":11520,
			"byteOffset":105472,
			"target":34963
		},
		{
			"buffer":0,
			"byteLength":8952,
			"byteOffset":116992,
			"target":34962
		},
		{
			"buffer":0,
			"byteLength":8952,
			"byteOffset":125944,
			"target":34962
		},
		{
			"buffer":0,
			"byteLength":5968,
			"byteOffset":134896,
			"target":34962
		},
		{
			"buffer":0,
			"byteLength":5968,
			"byteOffset":140864,
			"target":34962
		},
		{
			"buffer":0,
			"byteLength":5968,
			"byteOffset":146832,
			"target":34962
		},
		{
			"buffer":0,
			"byteLength":11936,
			"byteOffset":152800,
			"target":34962
		},
		{
			"buffer":0,
			"byteLength":7656,
			"byteOffset":164736,
			"target":34963
		},
		{
			"buffer":0,
			"byteLength":328632,
			"byteOffset":172392,
			"target":34962
		},
		{
			"buffer":0,
			"byteLength":328632,
			"byteOffset":501024,
			"target":34962
		},
		{
			"buffer":0,
			"byteLength":219088,
			"byteOffset":829656,
			"target":34962
		},
		{
			"buffer":0,
			"byteLength":219088,
			"byteOffset":1048744,
			"target":34962
		},
		{
			"buffer":0,
			"byteLength":219088,
			"byteOffset":1267832,
			"target":34962
		},
		{
			"buffer":0,
			"byteLength":438176,
			"byteOffset":1486920,
			"target":34962
		},
		{
			"buffer":0,
			"byteLength":81792,
			"byteOffset":1925096,
			"target":34963
		}
	],
	"samplers":[
		{
			"magFilter":9729,
			"minFilter":9987
		}
	],
	"buffers":[
		{
			"byteLength":2006888,
			"uri":"CoconutPalm_B.bin"
		}
	]
}
