{
	"asset":{
		"generator":"Khronos glTF Blender I/O v5.0.21",
		"version":"2.0"
	},
	"scene":0,
	"scenes":[
		{
			"name":"Scene",
			"nodes":[
				0
			]
		}
	],
	"nodes":[
		{
			"mesh":0,
			"name":"Coral_Massive_B"
		}
	],
	"materials":[
		{
			"name":"Coral_Massive_B_Coral_Massive_B",
			"normalTexture":{
				"index":0
			},
			"occlusionTexture":{
				"index":1
			},
			"pbrMetallicRoughness":{
				"baseColorTexture":{
					"index":2
				},
				"metallicRoughnessTexture":{
					"index":1
				}
			}
		}
	],
	"meshes":[
		{
			"name":"Coral_Massive_B",
			"primitives":[
				{
					"attributes":{
						"POSITION":0,
						"NORMAL":1,
						"TEXCOORD_0":2,
						"TANGENT":3
					},
					"indices":4,
					"material":0
				}
			]
		}
	],
	"textures":[
		{
			"sampler":0,
			"source":0
		},
		{
			"sampler":0,
			"source":1
		},
		{
			"sampler":0,
			"source":2
		}
	],
	"images":[
		{
			"mimeType":"image/png",
			"name":"Coral_Massive_B_Coral_Massive_B_Normal",
			"uri":"Coral_Massive_B_Coral_Massive_B_Normal.png"
		},
		{
			"mimeType":"image/png",
			"name":"Coral_Massive_B_Coral_Massive_B_ORM",
			"uri":"Coral_Massive_B_Coral_Massive_B_ORM.png"
		},
		{
			"mimeType":"image/png",
			"name":"Coral_Massive_B_Coral_Massive_B_BaseColor",
			"uri":"Coral_Massive_B_Coral_Massive_B_BaseColor.png"
		}
	],
	"accessors":[
		{
			"bufferView":0,
			"componentType":5126,
			"count":5433,
			"max":[
				0.5645928978919983,
				0.660233736038208,
				0.562124490737915
			],
			"min":[
				-0.6314496397972107,
				-0.09999965876340866,
				-0.5180227756500244
			],
			"type":"VEC3"
		},
		{
			"bufferView":1,
			"componentType":5126,
			"count":5433,
			"type":"VEC3"
		},
		{
			"bufferView":2,
			"componentType":5126,
			"count":5433,
			"type":"VEC2"
		},
		{
			"bufferView":3,
			"componentType":5126,
			"count":5433,
			"type":"VEC4"
		},
		{
			"bufferView":4,
			"componentType":5123,
			"count":28500,
			"type":"SCALAR"
		}
	],
	"bufferViews":[
		{
			"buffer":0,
			"byteLength":65196,
			"byteOffset":0,
			"target":34962
		},
		{
			"buffer":0,
			"byteLength":65196,
			"byteOffset":65196,
			"target":34962
		},
		{
			"buffer":0,
			"byteLength":43464,
			"byteOffset":130392,
			"target":34962
		},
		{
			"buffer":0,
			"byteLength":86928,
			"byteOffset":173856,
			"target":34962
		},
		{
			"buffer":0,
			"byteLength":57000,
			"byteOffset":260784,
			"target":34963
		}
	],
	"samplers":[
		{
			"magFilter":9729,
			"minFilter":9987
		}
	],
	"buffers":[
		{
			"byteLength":317784,
			"uri":"Coral_Massive_B.bin"
		}
	]
}
