{
	"asset":{
		"generator":"Khronos glTF Blender I/O v5.0.21",
		"version":"2.0"
	},
	"scene":0,
	"scenes":[
		{
			"name":"Scene",
			"nodes":[
				0
			]
		}
	],
	"nodes":[
		{
			"mesh":0,
			"name":"CoconutPalm_A"
		}
	],
	"materials":[
		{
			"name":"CoconutPalm_A_Coconut",
			"normalTexture":{
				"index":0
			},
			"occlusionTexture":{
				"index":1
			},
			"pbrMetallicRoughness":{
				"baseColorTexture":{
					"index":2
				},
				"metallicRoughnessTexture":{
					"index":1
				}
			},
			"extras":{
				"vertexAnimation":"plant"
			}
		},
		{
			"name":"CoconutPalm_A_PalmTrunk",
			"normalTexture":{
				"index":3
			},
			"occlusionTexture":{
				"index":4
			},
			"pbrMetallicRoughness":{
				"baseColorTexture":{
					"index":5
				},
				"metallicRoughnessTexture":{
					"index":4
				}
			},
			"extras":{
				"vertexAnimation":"plant"
			}
		},
		{
			"alphaMode":"MASK",
			"doubleSided":true,
			"name":"CoconutPalm_A_PalmFrond",
			"normalTexture":{
				"index":6
			},
			"occlusionTexture":{
				"index":7
			},
			"pbrMetallicRoughness":{
				"baseColorTexture":{
					"index":8
				},
				"metallicRoughnessTexture":{
					"index":7
				}
			},
			"extras":{
				"vertexAnimation":"plant"
			}
		}
	],
	"meshes":[
		{
			"name":"CoconutPalm_A",
			"primitives":[
				{
					"attributes":{
						"POSITION":0,
						"NORMAL":1,
						"TEXCOORD_0":2,
						"TEXCOORD_1":3,
						"TEXCOORD_2":4,
						"TANGENT":5
					},
					"indices":6,
					"material":0
				},
				{
					"attributes":{
						"POSITION":7,
						"NORMAL":8,
						"TEXCOORD_0":9,
						"TEXCOORD_1":10,
						"TEXCOORD_2":11,
						"TANGENT":12
					},
					"indices":13,
					"material":1
				},
				{
					"attributes":{
						"POSITION":14,
						"NORMAL":15,
						"TEXCOORD_0":16,
						"TEXCOORD_1":17,
						"TEXCOORD_2":18,
						"TANGENT":19
					},
					"indices":20,
					"material":2
				}
			]
		}
	],
	"textures":[
		{
			"sampler":0,
			"source":0
		},
		{
			"sampler":0,
			"source":1
		},
		{
			"sampler":0,
			"source":2
		},
		{
			"sampler":0,
			"source":3
		},
		{
			"sampler":0,
			"source":4
		},
		{
			"sampler":0,
			"source":5
		},
		{
			"sampler":0,
			"source":6
		},
		{
			"sampler":0,
			"source":7
		},
		{
			"sampler":0,
			"source":8
		}
	],
	"images":[
		{
			"mimeType":"image/png",
			"name":"CoconutPalm_A_Coconut_Normal",
			"uri":"CoconutPalm_A_Coconut_Normal.png"
		},
		{
			"mimeType":"image/png",
			"name":"CoconutPalm_A_Coconut_ORM",
			"uri":"CoconutPalm_A_Coconut_ORM.png"
		},
		{
			"mimeType":"image/png",
			"name":"CoconutPalm_A_Coconut_BaseColor",
			"uri":"CoconutPalm_A_Coconut_BaseColor.png"
		},
		{
			"mimeType":"image/png",
			"name":"CoconutPalm_A_PalmTrunk_Normal",
			"uri":"CoconutPalm_A_PalmTrunk_Normal.png"
		},
		{
			"mimeType":"image/png",
			"name":"CoconutPalm_A_PalmTrunk_ORM",
			"uri":"CoconutPalm_A_PalmTrunk_ORM.png"
		},
		{
			"mimeType":"image/png",
			"name":"CoconutPalm_A_PalmTrunk_BaseColor",
			"uri":"CoconutPalm_A_PalmTrunk_BaseColor.png"
		},
		{
			"mimeType":"image/png",
			"name":"CoconutPalm_A_PalmFrond_Normal",
			"uri":"CoconutPalm_A_PalmFrond_Normal.png"
		},
		{
			"mimeType":"image/png",
			"name":"CoconutPalm_A_PalmFrond_ORM",
			"uri":"CoconutPalm_A_PalmFrond_ORM.png"
		},
		{
			"mimeType":"image/png",
			"name":"CoconutPalm_A_PalmFrond_BaseColor",
			"uri":"CoconutPalm_A_PalmFrond_BaseColor.png"
		}
	],
	"accessors":[
		{
			"bufferView":0,
			"componentType":5126,
			"count":2308,
			"max":[
				2.4380314350128174,
				8.45634651184082,
				0.06238126754760742
			],
			"min":[
				1.560131311416626,
				7.88673734664917,
				-1.0865713357925415
			],
			"type":"VEC3"
		},
		{
			"bufferView":1,
			"componentType":5126,
			"count":2308,
			"type":"VEC3"
		},
		{
			"bufferView":2,
			"componentType":5126,
			"count":2308,
			"type":"VEC2"
		},
		{
			"bufferView":3,
			"componentType":5126,
			"count":2308,
			"type":"VEC2"
		},
		{
			"bufferView":4,
			"componentType":5126,
			"count":2308,
			"type":"VEC2"
		},
		{
			"bufferView":5,
			"componentType":5126,
			"count":2308,
			"type":"VEC4"
		},
		{
			"bufferView":6,
			"componentType":5123,
			"count":7680,
			"type":"SCALAR"
		},
		{
			"bufferView":7,
			"componentType":5126,
			"count":746,
			"max":[
				2.078268527984619,
				8.568764686584473,
				0.3665911853313446
			],
			"min":[
				-0.3584064245223999,
				-0.3259882926940918,
				-0.6925387382507324
			],
			"type":"VEC3"
		},
		{
			"bufferView":8,
			"componentType":5126,
			"count":746,
			"type":"VEC3"
		},
		{
			"bufferView":9,
			"componentType":5126,
			"count":746,
			"type":"VEC2"
		},
		{
			"bufferView":10,
			"componentType":5126,
			"count":746,
			"type":"VEC2"
		},
		{
			"bufferView":11,
			"componentType":5126,
			"count":746,
			"type":"VEC2"
		},
		{
			"bufferView":12,
			"componentType":5126,
			"count":746,
			"type":"VEC4"
		},
		{
			"bufferView":13,
			"componentType":5123,
			"count":3828,
			"type":"SCALAR"
		},
		{
			"bufferView":14,
			"componentType":5126,
			"count":30814,
			"max":[
				6.116250991821289,
				9.738700866699219,
				3.657057523727417
			],
			"min":[
				-2.5096521377563477,
				5.245176792144775,
				-4.515084743499756
			],
			"type":"VEC3"
		},
		{
			"bufferView":15,
			"componentType":5126,
			"count":30814,
			"type":"VEC3"
		},
		{
			"bufferView":16,
			"componentType":5126,
			"count":30814,
			"type":"VEC2"
		},
		{
			"bufferView":17,
			"componentType":5126,
			"count":30814,
			"type":"VEC2"
		},
		{
			"bufferView":18,
			"componentType":5126,
			"count":30814,
			"type":"VEC2"
		},
		{
			"bufferView":19,
			"componentType":5126,
			"count":30814,
			"type":"VEC4"
		},
		{
			"bufferView":20,
			"componentType":5123,
			"count":46008,
			"type":"SCALAR"
		}
	],
	"bufferViews":[
		{
			"buffer":0,
			"byteLength":27696,
			"byteOffset":0,
			"target":34962
		},
		{
			"buffer":0,
			"byteLength":27696,
			"byteOffset":27696,
			"target":34962
		},
		{
			"buffer":0,
			"byteLength":18464,
			"byteOffset":55392,
			"target":34962
		},
		{
			"buffer":0,
			"byteLength":18464,
			"byteOffset":73856,
			"target":34962
		},
		{
			"buffer":0,
			"byteLength":18464,
			"byteOffset":92320,
			"target":34962
		},
		{
			"buffer":0,
			"byteLength":36928,
			"byteOffset":110784,
			"target":34962
		},
		{
			"buffer":0,
			"byteLength":15360,
			"byteOffset":147712,
			"target":34963
		},
		{
			"buffer":0,
			"byteLength":8952,
			"byteOffset":163072,
			"target":34962
		},
		{
			"buffer":0,
			"byteLength":8952,
			"byteOffset":172024,
			"target":34962
		},
		{
			"buffer":0,
			"byteLength":5968,
			"byteOffset":180976,
			"target":34962
		},
		{
			"buffer":0,
			"byteLength":5968,
			"byteOffset":186944,
			"target":34962
		},
		{
			"buffer":0,
			"byteLength":5968,
			"byteOffset":192912,
			"target":34962
		},
		{
			"buffer":0,
			"byteLength":11936,
			"byteOffset":198880,
			"target":34962
		},
		{
			"buffer":0,
			"byteLength":7656,
			"byteOffset":210816,
			"target":34963
		},
		{
			"buffer":0,
			"byteLength":369768,
			"byteOffset":218472,
			"target":34962
		},
		{
			"buffer":0,
			"byteLength":369768,
			"byteOffset":588240,
			"target":34962
		},
		{
			"buffer":0,
			"byteLength":246512,
			"byteOffset":958008,
			"target":34962
		},
		{
			"buffer":0,
			"byteLength":246512,
			"byteOffset":1204520,
			"target":34962
		},
		{
			"buffer":0,
			"byteLength":246512,
			"byteOffset":1451032,
			"target":34962
		},
		{
			"buffer":0,
			"byteLength":493024,
			"byteOffset":1697544,
			"target":34962
		},
		{
			"buffer":0,
			"byteLength":92016,
			"byteOffset":2190568,
			"target":34963
		}
	],
	"samplers":[
		{
			"magFilter":9729,
			"minFilter":9987
		}
	],
	"buffers":[
		{
			"byteLength":2282584,
			"uri":"CoconutPalm_A.bin"
		}
	]
}
