{
	"asset":{
		"generator":"Khronos glTF Blender I/O v5.0.21",
		"version":"2.0"
	},
	"scene":0,
	"scenes":[
		{
			"name":"Scene",
			"nodes":[
				0
			]
		}
	],
	"nodes":[
		{
			"mesh":0,
			"name":"SeaUrchin"
		}
	],
	"materials":[
		{
			"name":"SeaUrchin_UrchinSpine",
			"normalTexture":{
				"index":0
			},
			"occlusionTexture":{
				"index":1
			},
			"pbrMetallicRoughness":{
				"baseColorTexture":{
					"index":2
				},
				"metallicRoughnessTexture":{
					"index":1
				}
			}
		},
		{
			"name":"SeaUrchin_UrchinTest",
			"normalTexture":{
				"index":3
			},
			"occlusionTexture":{
				"index":4
			},
			"pbrMetallicRoughness":{
				"baseColorTexture":{
					"index":5
				},
				"metallicRoughnessTexture":{
					"index":4
				}
			}
		}
	],
	"meshes":[
		{
			"name":"SeaUrchin",
			"primitives":[
				{
					"attributes":{
						"POSITION":0,
						"NORMAL":1,
						"TEXCOORD_0":2,
						"TANGENT":3
					},
					"indices":4,
					"material":0
				},
				{
					"attributes":{
						"POSITION":5,
						"NORMAL":6,
						"TEXCOORD_0":7,
						"TANGENT":8
					},
					"indices":9,
					"material":1
				}
			]
		}
	],
	"textures":[
		{
			"sampler":0,
			"source":0
		},
		{
			"sampler":0,
			"source":1
		},
		{
			"sampler":0,
			"source":2
		},
		{
			"sampler":0,
			"source":3
		},
		{
			"sampler":0,
			"source":4
		},
		{
			"sampler":0,
			"source":5
		}
	],
	"images":[
		{
			"mimeType":"image/png",
			"name":"SeaUrchin_UrchinSpine_Normal",
			"uri":"SeaUrchin_UrchinSpine_Normal.png"
		},
		{
			"mimeType":"image/png",
			"name":"SeaUrchin_UrchinSpine_ORM",
			"uri":"SeaUrchin_UrchinSpine_ORM.png"
		},
		{
			"mimeType":"image/png",
			"name":"SeaUrchin_UrchinSpine_BaseColor",
			"uri":"SeaUrchin_UrchinSpine_BaseColor.png"
		},
		{
			"mimeType":"image/png",
			"name":"SeaUrchin_UrchinTest_Normal",
			"uri":"SeaUrchin_UrchinTest_Normal.png"
		},
		{
			"mimeType":"image/png",
			"name":"SeaUrchin_UrchinTest_ORM",
			"uri":"SeaUrchin_UrchinTest_ORM.png"
		},
		{
			"mimeType":"image/png",
			"name":"SeaUrchin_UrchinTest_BaseColor",
			"uri":"SeaUrchin_UrchinTest_BaseColor.png"
		}
	],
	"accessors":[
		{
			"bufferView":0,
			"componentType":5126,
			"count":2632,
			"max":[
				0.2098274976015091,
				0.2755950093269348,
				0.18207228183746338
			],
			"min":[
				-0.1834365427494049,
				-0.0011686277575790882,
				-0.21742092072963715
			],
			"type":"VEC3"
		},
		{
			"bufferView":1,
			"componentType":5126,
			"count":2632,
			"type":"VEC3"
		},
		{
			"bufferView":2,
			"componentType":5126,
			"count":2632,
			"type":"VEC2"
		},
		{
			"bufferView":3,
			"componentType":5126,
			"count":2632,
			"type":"VEC4"
		},
		{
			"bufferView":4,
			"componentType":5123,
			"count":9408,
			"type":"SCALAR"
		},
		{
			"bufferView":5,
			"componentType":5126,
			"count":626,
			"max":[
				0.03604999929666519,
				0.0754999965429306,
				0.0353303886950016
			],
			"min":[
				-0.03395000100135803,
				0.03200000151991844,
				-0.0353303886950016
			],
			"type":"VEC3"
		},
		{
			"bufferView":6,
			"componentType":5126,
			"count":626,
			"type":"VEC3"
		},
		{
			"bufferView":7,
			"componentType":5126,
			"count":626,
			"type":"VEC2"
		},
		{
			"bufferView":8,
			"componentType":5126,
			"count":626,
			"type":"VEC4"
		},
		{
			"bufferView":9,
			"componentType":5123,
			"count":2700,
			"type":"SCALAR"
		}
	],
	"bufferViews":[
		{
			"buffer":0,
			"byteLength":31584,
			"byteOffset":0,
			"target":34962
		},
		{
			"buffer":0,
			"byteLength":31584,
			"byteOffset":31584,
			"target":34962
		},
		{
			"buffer":0,
			"byteLength":21056,
			"byteOffset":63168,
			"target":34962
		},
		{
			"buffer":0,
			"byteLength":42112,
			"byteOffset":84224,
			"target":34962
		},
		{
			"buffer":0,
			"byteLength":18816,
			"byteOffset":126336,
			"target":34963
		},
		{
			"buffer":0,
			"byteLength":7512,
			"byteOffset":145152,
			"target":34962
		},
		{
			"buffer":0,
			"byteLength":7512,
			"byteOffset":152664,
			"target":34962
		},
		{
			"buffer":0,
			"byteLength":5008,
			"byteOffset":160176,
			"target":34962
		},
		{
			"buffer":0,
			"byteLength":10016,
			"byteOffset":165184,
			"target":34962
		},
		{
			"buffer":0,
			"byteLength":5400,
			"byteOffset":175200,
			"target":34963
		}
	],
	"samplers":[
		{
			"magFilter":9729,
			"minFilter":9987
		}
	],
	"buffers":[
		{
			"byteLength":180600,
			"uri":"SeaUrchin.bin"
		}
	]
}
