{
	"asset":{
		"generator":"Khronos glTF Blender I/O v5.0.21",
		"version":"2.0"
	},
	"scene":0,
	"scenes":[
		{
			"name":"Scene",
			"nodes":[
				0
			]
		}
	],
	"nodes":[
		{
			"mesh":0,
			"name":"Fish_ThreadfinButterfly"
		}
	],
	"materials":[
		{
			"alphaMode":"MASK",
			"name":"Fish_ThreadfinButterfly_ThreadfinButterfly",
			"normalTexture":{
				"index":0
			},
			"occlusionTexture":{
				"index":1
			},
			"pbrMetallicRoughness":{
				"baseColorTexture":{
					"index":2
				},
				"metallicRoughnessTexture":{
					"index":1
				}
			},
			"extras":{
				"vertexAnimation":"fish",
				"vertexAnimSpeed":0.6364
			}
		}
	],
	"meshes":[
		{
			"name":"Fish_ThreadfinButterfly",
			"primitives":[
				{
					"attributes":{
						"POSITION":0,
						"NORMAL":1,
						"TEXCOORD_0":2,
						"TEXCOORD_1":3,
						"TEXCOORD_2":4,
						"TANGENT":5
					},
					"indices":6,
					"material":0
				}
			]
		}
	],
	"textures":[
		{
			"sampler":0,
			"source":0
		},
		{
			"sampler":0,
			"source":1
		},
		{
			"sampler":0,
			"source":2
		}
	],
	"images":[
		{
			"mimeType":"image/png",
			"name":"Fish_ThreadfinButterfly_ThreadfinButterfly_Normal",
			"uri":"Fish_ThreadfinButterfly_ThreadfinButterfly_Normal.png"
		},
		{
			"mimeType":"image/png",
			"name":"Fish_ThreadfinButterfly_ThreadfinButterfly_ORM",
			"uri":"Fish_ThreadfinButterfly_ThreadfinButterfly_ORM.png"
		},
		{
			"mimeType":"image/png",
			"name":"Fish_ThreadfinButterfly_ThreadfinButterfly_BaseColor",
			"uri":"Fish_ThreadfinButterfly_ThreadfinButterfly_BaseColor.png"
		}
	],
	"accessors":[
		{
			"bufferView":0,
			"componentType":5126,
			"count":253,
			"max":[
				0.07500000298023224,
				0.0563557893037796,
				0.022205160930752754
			],
			"min":[
				-0.08034774661064148,
				-0.04999375715851784,
				-0.022205160930752754
			],
			"type":"VEC3"
		},
		{
			"bufferView":1,
			"componentType":5126,
			"count":253,
			"type":"VEC3"
		},
		{
			"bufferView":2,
			"componentType":5126,
			"count":253,
			"type":"VEC2"
		},
		{
			"bufferView":3,
			"componentType":5126,
			"count":253,
			"type":"VEC2"
		},
		{
			"bufferView":4,
			"componentType":5126,
			"count":253,
			"type":"VEC2"
		},
		{
			"bufferView":5,
			"componentType":5126,
			"count":253,
			"type":"VEC4"
		},
		{
			"bufferView":6,
			"componentType":5123,
			"count":888,
			"type":"SCALAR"
		}
	],
	"bufferViews":[
		{
			"buffer":0,
			"byteLength":3036,
			"byteOffset":0,
			"target":34962
		},
		{
			"buffer":0,
			"byteLength":3036,
			"byteOffset":3036,
			"target":34962
		},
		{
			"buffer":0,
			"byteLength":2024,
			"byteOffset":6072,
			"target":34962
		},
		{
			"buffer":0,
			"byteLength":2024,
			"byteOffset":8096,
			"target":34962
		},
		{
			"buffer":0,
			"byteLength":2024,
			"byteOffset":10120,
			"target":34962
		},
		{
			"buffer":0,
			"byteLength":4048,
			"byteOffset":12144,
			"target":34962
		},
		{
			"buffer":0,
			"byteLength":1776,
			"byteOffset":16192,
			"target":34963
		}
	],
	"samplers":[
		{
			"magFilter":9729,
			"minFilter":9987
		}
	],
	"buffers":[
		{
			"byteLength":17968,
			"uri":"Fish_ThreadfinButterfly.bin"
		}
	]
}
