{
	"asset":{
		"generator":"Khronos glTF Blender I/O v5.0.21",
		"version":"2.0"
	},
	"scene":0,
	"scenes":[
		{
			"name":"Scene",
			"nodes":[
				0
			]
		}
	],
	"nodes":[
		{
			"mesh":0,
			"name":"Fish_Butterfly"
		}
	],
	"materials":[
		{
			"alphaMode":"MASK",
			"name":"Fish_Butterfly_ThreadfinButterfly",
			"normalTexture":{
				"index":0
			},
			"occlusionTexture":{
				"index":1
			},
			"pbrMetallicRoughness":{
				"baseColorTexture":{
					"index":2
				},
				"metallicRoughnessTexture":{
					"index":1
				}
			}
		}
	],
	"meshes":[
		{
			"name":"Fish_Butterfly",
			"primitives":[
				{
					"attributes":{
						"POSITION":0,
						"NORMAL":1,
						"TEXCOORD_0":2,
						"TANGENT":3
					},
					"indices":4,
					"material":0
				}
			]
		}
	],
	"textures":[
		{
			"sampler":0,
			"source":0
		},
		{
			"sampler":0,
			"source":1
		},
		{
			"sampler":0,
			"source":2
		}
	],
	"images":[
		{
			"mimeType":"image/png",
			"name":"Fish_Butterfly_ThreadfinButterfly_Normal",
			"uri":"Fish_Butterfly_ThreadfinButterfly_Normal.png"
		},
		{
			"mimeType":"image/png",
			"name":"Fish_Butterfly_ThreadfinButterfly_ORM",
			"uri":"Fish_Butterfly_ThreadfinButterfly_ORM.png"
		},
		{
			"mimeType":"image/png",
			"name":"Fish_Butterfly_ThreadfinButterfly_BaseColor",
			"uri":"Fish_Butterfly_ThreadfinButterfly_BaseColor.png"
		}
	],
	"accessors":[
		{
			"bufferView":0,
			"componentType":5126,
			"count":506,
			"max":[
				0.12570209801197052,
				0.08525204658508301,
				0.08231934159994125
			],
			"min":[
				-0.1650010347366333,
				-0.05078436806797981,
				-0.10024678707122803
			],
			"type":"VEC3"
		},
		{
			"bufferView":1,
			"componentType":5126,
			"count":506,
			"type":"VEC3"
		},
		{
			"bufferView":2,
			"componentType":5126,
			"count":506,
			"type":"VEC2"
		},
		{
			"bufferView":3,
			"componentType":5126,
			"count":506,
			"type":"VEC4"
		},
		{
			"bufferView":4,
			"componentType":5123,
			"count":1776,
			"type":"SCALAR"
		}
	],
	"bufferViews":[
		{
			"buffer":0,
			"byteLength":6072,
			"byteOffset":0,
			"target":34962
		},
		{
			"buffer":0,
			"byteLength":6072,
			"byteOffset":6072,
			"target":34962
		},
		{
			"buffer":0,
			"byteLength":4048,
			"byteOffset":12144,
			"target":34962
		},
		{
			"buffer":0,
			"byteLength":8096,
			"byteOffset":16192,
			"target":34962
		},
		{
			"buffer":0,
			"byteLength":3552,
			"byteOffset":24288,
			"target":34963
		}
	],
	"samplers":[
		{
			"magFilter":9729,
			"minFilter":9987
		}
	],
	"buffers":[
		{
			"byteLength":27840,
			"uri":"Fish_Butterfly.bin"
		}
	]
}
