{
	"asset":{
		"generator":"Khronos glTF Blender I/O v5.0.21",
		"version":"2.0"
	},
	"scene":0,
	"scenes":[
		{
			"name":"Scene",
			"nodes":[
				0
			]
		}
	],
	"nodes":[
		{
			"mesh":0,
			"name":"BeachParasol_B"
		}
	],
	"materials":[
		{
			"alphaMode":"MASK",
			"doubleSided":true,
			"name":"BeachParasol_B_ThatchLeaf",
			"normalTexture":{
				"index":0
			},
			"occlusionTexture":{
				"index":1
			},
			"pbrMetallicRoughness":{
				"baseColorTexture":{
					"index":2
				},
				"metallicRoughnessTexture":{
					"index":1
				}
			}
		},
		{
			"name":"BeachParasol_B_ThatchWood",
			"normalTexture":{
				"index":3
			},
			"occlusionTexture":{
				"index":4
			},
			"pbrMetallicRoughness":{
				"baseColorTexture":{
					"index":5
				},
				"metallicRoughnessTexture":{
					"index":4
				}
			}
		}
	],
	"meshes":[
		{
			"name":"BeachParasol_B",
			"primitives":[
				{
					"attributes":{
						"POSITION":0,
						"NORMAL":1,
						"TEXCOORD_0":2
					},
					"indices":3,
					"material":0
				},
				{
					"attributes":{
						"POSITION":4,
						"NORMAL":5,
						"TEXCOORD_0":6
					},
					"indices":7,
					"material":1
				}
			]
		}
	],
	"textures":[
		{
			"sampler":0,
			"source":0
		},
		{
			"sampler":0,
			"source":1
		},
		{
			"sampler":0,
			"source":2
		},
		{
			"sampler":0,
			"source":3
		},
		{
			"sampler":0,
			"source":4
		},
		{
			"sampler":0,
			"source":5
		}
	],
	"images":[
		{
			"mimeType":"image/png",
			"name":"BeachParasol_B_ThatchLeaf_Normal",
			"uri":"BeachParasol_B_ThatchLeaf_Normal.png"
		},
		{
			"mimeType":"image/png",
			"name":"BeachParasol_B_ThatchLeaf_ORM",
			"uri":"BeachParasol_B_ThatchLeaf_ORM.png"
		},
		{
			"mimeType":"image/png",
			"name":"BeachParasol_B_ThatchLeaf_BaseColor",
			"uri":"BeachParasol_B_ThatchLeaf_BaseColor.png"
		},
		{
			"mimeType":"image/png",
			"name":"BeachParasol_B_ThatchWood_Normal",
			"uri":"BeachParasol_B_ThatchWood_Normal.png"
		},
		{
			"mimeType":"image/png",
			"name":"BeachParasol_B_ThatchWood_ORM",
			"uri":"BeachParasol_B_ThatchWood_ORM.png"
		},
		{
			"mimeType":"image/png",
			"name":"BeachParasol_B_ThatchWood_BaseColor",
			"uri":"BeachParasol_B_ThatchWood_BaseColor.png"
		}
	],
	"accessors":[
		{
			"bufferView":0,
			"componentType":5126,
			"count":2930,
			"max":[
				1.5547534227371216,
				3.0799999237060547,
				1.548134207725525
			],
			"min":[
				-1.5634480714797974,
				1.7397644519805908,
				-1.5618903636932373
			],
			"type":"VEC3"
		},
		{
			"bufferView":1,
			"componentType":5126,
			"count":2930,
			"type":"VEC3"
		},
		{
			"bufferView":2,
			"componentType":5126,
			"count":2930,
			"type":"VEC2"
		},
		{
			"bufferView":3,
			"componentType":5123,
			"count":11124,
			"type":"SCALAR"
		},
		{
			"bufferView":4,
			"componentType":5126,
			"count":2273,
			"max":[
				1.3522024154663086,
				2.872124195098877,
				1.3522024154663086
			],
			"min":[
				-1.3522024154663086,
				-0.30153778195381165,
				-1.3522024154663086
			],
			"type":"VEC3"
		},
		{
			"bufferView":5,
			"componentType":5126,
			"count":2273,
			"type":"VEC3"
		},
		{
			"bufferView":6,
			"componentType":5126,
			"count":2273,
			"type":"VEC2"
		},
		{
			"bufferView":7,
			"componentType":5123,
			"count":5976,
			"type":"SCALAR"
		}
	],
	"bufferViews":[
		{
			"buffer":0,
			"byteLength":35160,
			"byteOffset":0,
			"target":34962
		},
		{
			"buffer":0,
			"byteLength":35160,
			"byteOffset":35160,
			"target":34962
		},
		{
			"buffer":0,
			"byteLength":23440,
			"byteOffset":70320,
			"target":34962
		},
		{
			"buffer":0,
			"byteLength":22248,
			"byteOffset":93760,
			"target":34963
		},
		{
			"buffer":0,
			"byteLength":27276,
			"byteOffset":116008,
			"target":34962
		},
		{
			"buffer":0,
			"byteLength":27276,
			"byteOffset":143284,
			"target":34962
		},
		{
			"buffer":0,
			"byteLength":18184,
			"byteOffset":170560,
			"target":34962
		},
		{
			"buffer":0,
			"byteLength":11952,
			"byteOffset":188744,
			"target":34963
		}
	],
	"samplers":[
		{
			"magFilter":9729,
			"minFilter":9987
		}
	],
	"buffers":[
		{
			"byteLength":200696,
			"uri":"BeachParasol_B.bin"
		}
	]
}
