{
	"asset":{
		"generator":"Khronos glTF Blender I/O v5.0.21",
		"version":"2.0"
	},
	"scene":0,
	"scenes":[
		{
			"name":"Scene",
			"nodes":[
				0
			]
		}
	],
	"nodes":[
		{
			"mesh":0,
			"name":"Coral_Branch_B"
		}
	],
	"materials":[
		{
			"name":"Coral_Branch_B_Coral_Branch_B",
			"normalTexture":{
				"index":0
			},
			"occlusionTexture":{
				"index":1
			},
			"pbrMetallicRoughness":{
				"baseColorTexture":{
					"index":2
				},
				"metallicRoughnessTexture":{
					"index":1
				}
			}
		}
	],
	"meshes":[
		{
			"name":"Coral_Branch_B",
			"primitives":[
				{
					"attributes":{
						"POSITION":0,
						"NORMAL":1,
						"TEXCOORD_0":2,
						"TANGENT":3
					},
					"indices":4,
					"material":0
				}
			]
		}
	],
	"textures":[
		{
			"sampler":0,
			"source":0
		},
		{
			"sampler":0,
			"source":1
		},
		{
			"sampler":0,
			"source":2
		}
	],
	"images":[
		{
			"mimeType":"image/png",
			"name":"Coral_Branch_B_Coral_Branch_B_Normal",
			"uri":"Coral_Branch_B_Coral_Branch_B_Normal.png"
		},
		{
			"mimeType":"image/png",
			"name":"Coral_Branch_B_Coral_Branch_B_ORM",
			"uri":"Coral_Branch_B_Coral_Branch_B_ORM.png"
		},
		{
			"mimeType":"image/png",
			"name":"Coral_Branch_B_Coral_Branch_B_BaseColor",
			"uri":"Coral_Branch_B_Coral_Branch_B_BaseColor.png"
		}
	],
	"accessors":[
		{
			"bufferView":0,
			"componentType":5126,
			"count":10442,
			"max":[
				0.33407139778137207,
				0.3620591461658478,
				0.34942275285720825
			],
			"min":[
				-0.3835866451263428,
				-0.05877663567662239,
				-0.32962140440940857
			],
			"type":"VEC3"
		},
		{
			"bufferView":1,
			"componentType":5126,
			"count":10442,
			"type":"VEC3"
		},
		{
			"bufferView":2,
			"componentType":5126,
			"count":10442,
			"type":"VEC2"
		},
		{
			"bufferView":3,
			"componentType":5126,
			"count":10442,
			"type":"VEC4"
		},
		{
			"bufferView":4,
			"componentType":5123,
			"count":42081,
			"type":"SCALAR"
		}
	],
	"bufferViews":[
		{
			"buffer":0,
			"byteLength":125304,
			"byteOffset":0,
			"target":34962
		},
		{
			"buffer":0,
			"byteLength":125304,
			"byteOffset":125304,
			"target":34962
		},
		{
			"buffer":0,
			"byteLength":83536,
			"byteOffset":250608,
			"target":34962
		},
		{
			"buffer":0,
			"byteLength":167072,
			"byteOffset":334144,
			"target":34962
		},
		{
			"buffer":0,
			"byteLength":84162,
			"byteOffset":501216,
			"target":34963
		}
	],
	"samplers":[
		{
			"magFilter":9729,
			"minFilter":9987
		}
	],
	"buffers":[
		{
			"byteLength":585380,
			"uri":"Coral_Branch_B.bin"
		}
	]
}
