{
	"asset":{
		"generator":"Khronos glTF Blender I/O v5.0.21",
		"version":"2.0"
	},
	"scene":0,
	"scenes":[
		{
			"name":"Scene",
			"nodes":[
				0
			]
		}
	],
	"nodes":[
		{
			"mesh":0,
			"name":"SeaTurtle"
		}
	],
	"materials":[
		{
			"name":"SeaTurtle_TurtleSkin",
			"normalTexture":{
				"index":0
			},
			"occlusionTexture":{
				"index":1
			},
			"pbrMetallicRoughness":{
				"baseColorTexture":{
					"index":2
				},
				"metallicRoughnessTexture":{
					"index":1
				}
			}
		},
		{
			"name":"SeaTurtle_TurtleShell",
			"normalTexture":{
				"index":3
			},
			"occlusionTexture":{
				"index":4
			},
			"pbrMetallicRoughness":{
				"baseColorTexture":{
					"index":5
				},
				"metallicRoughnessTexture":{
					"index":4
				}
			}
		}
	],
	"meshes":[
		{
			"name":"SeaTurtle",
			"primitives":[
				{
					"attributes":{
						"POSITION":0,
						"NORMAL":1,
						"TEXCOORD_0":2,
						"TANGENT":3
					},
					"indices":4,
					"material":0
				},
				{
					"attributes":{
						"POSITION":5,
						"NORMAL":6,
						"TEXCOORD_0":7,
						"TANGENT":8
					},
					"indices":9,
					"material":1
				}
			]
		}
	],
	"textures":[
		{
			"sampler":0,
			"source":0
		},
		{
			"sampler":0,
			"source":1
		},
		{
			"sampler":0,
			"source":2
		},
		{
			"sampler":0,
			"source":3
		},
		{
			"sampler":0,
			"source":4
		},
		{
			"sampler":0,
			"source":5
		}
	],
	"images":[
		{
			"mimeType":"image/png",
			"name":"SeaTurtle_TurtleSkin_Normal",
			"uri":"SeaTurtle_TurtleSkin_Normal.png"
		},
		{
			"mimeType":"image/png",
			"name":"SeaTurtle_TurtleSkin_ORM",
			"uri":"SeaTurtle_TurtleSkin_ORM.png"
		},
		{
			"mimeType":"image/png",
			"name":"SeaTurtle_TurtleSkin_BaseColor",
			"uri":"SeaTurtle_TurtleSkin_BaseColor.png"
		},
		{
			"mimeType":"image/png",
			"name":"SeaTurtle_TurtleShell_Normal",
			"uri":"SeaTurtle_TurtleShell_Normal.png"
		},
		{
			"mimeType":"image/png",
			"name":"SeaTurtle_TurtleShell_ORM",
			"uri":"SeaTurtle_TurtleShell_ORM.png"
		},
		{
			"mimeType":"image/png",
			"name":"SeaTurtle_TurtleShell_BaseColor",
			"uri":"SeaTurtle_TurtleShell_BaseColor.png"
		}
	],
	"accessors":[
		{
			"bufferView":0,
			"componentType":5126,
			"count":3065,
			"max":[
				0.7412705421447754,
				0.24938631057739258,
				0.6453912854194641
			],
			"min":[
				-0.5444480776786804,
				-0.20360097289085388,
				-0.6476613283157349
			],
			"type":"VEC3"
		},
		{
			"bufferView":1,
			"componentType":5126,
			"count":3065,
			"type":"VEC3"
		},
		{
			"bufferView":2,
			"componentType":5126,
			"count":3065,
			"type":"VEC2"
		},
		{
			"bufferView":3,
			"componentType":5126,
			"count":3065,
			"type":"VEC4"
		},
		{
			"bufferView":4,
			"componentType":5123,
			"count":15234,
			"type":"SCALAR"
		},
		{
			"bufferView":5,
			"componentType":5126,
			"count":1786,
			"max":[
				0.5070440769195557,
				0.195233553647995,
				0.421205073595047
			],
			"min":[
				-0.49148526787757874,
				-0.18364766240119934,
				-0.42450228333473206
			],
			"type":"VEC3"
		},
		{
			"bufferView":6,
			"componentType":5126,
			"count":1786,
			"type":"VEC3"
		},
		{
			"bufferView":7,
			"componentType":5126,
			"count":1786,
			"type":"VEC2"
		},
		{
			"bufferView":8,
			"componentType":5126,
			"count":1786,
			"type":"VEC4"
		},
		{
			"bufferView":9,
			"componentType":5123,
			"count":9984,
			"type":"SCALAR"
		}
	],
	"bufferViews":[
		{
			"buffer":0,
			"byteLength":36780,
			"byteOffset":0,
			"target":34962
		},
		{
			"buffer":0,
			"byteLength":36780,
			"byteOffset":36780,
			"target":34962
		},
		{
			"buffer":0,
			"byteLength":24520,
			"byteOffset":73560,
			"target":34962
		},
		{
			"buffer":0,
			"byteLength":49040,
			"byteOffset":98080,
			"target":34962
		},
		{
			"buffer":0,
			"byteLength":30468,
			"byteOffset":147120,
			"target":34963
		},
		{
			"buffer":0,
			"byteLength":21432,
			"byteOffset":177588,
			"target":34962
		},
		{
			"buffer":0,
			"byteLength":21432,
			"byteOffset":199020,
			"target":34962
		},
		{
			"buffer":0,
			"byteLength":14288,
			"byteOffset":220452,
			"target":34962
		},
		{
			"buffer":0,
			"byteLength":28576,
			"byteOffset":234740,
			"target":34962
		},
		{
			"buffer":0,
			"byteLength":19968,
			"byteOffset":263316,
			"target":34963
		}
	],
	"samplers":[
		{
			"magFilter":9729,
			"minFilter":9987
		}
	],
	"buffers":[
		{
			"byteLength":283284,
			"uri":"SeaTurtle.bin"
		}
	]
}
