# MagicaVoxel @ Ephtracy

# group
o 

# material
mtllib rock.mtl
usemtl palette

# normals
vn -1 0 0
vn 1 0 0
vn 0 0 1
vn 0 0 -1
vn 0 -1 0
vn 0 1 0

# texcoords
vt 0.982422 0.5
vt 0.990234 0.5

# verts
v -0.8 0 0.2
v -0.8 0 -0.2
v -0.8 0.1 0.2
v -0.8 0.1 -0.2
v -0.7 0 0.5
v -0.7 0 0.2
v -0.7 0 -0.2
v -0.7 0 -0.5
v -0.7 0.1 0.2
v -0.7 0.1 -0.2
v -0.7 0.2 0.5
v -0.7 0.2 0.4
v -0.7 0.2 -0.4
v -0.7 0.2 -0.5
v -0.7 0.3 0.4
v -0.7 0.3 0.3
v -0.7 0.3 -0.3
v -0.7 0.3 -0.4
v -0.7 0.4 -0.2
v -0.7 0.4 -0.3
v -0.7 0.5 0.3
v -0.7 0.5 -0.2
v -0.6 0 0.7
v -0.6 0 0.5
v -0.6 0.2 0.7
v -0.6 0.2 0.6
v -0.6 0.2 0.5
v -0.6 0.2 0.4
v -0.6 0.2 -0.4
v -0.6 0.2 -0.5
v -0.6 0.3 0.4
v -0.6 0.3 0.3
v -0.6 0.3 -0.3
v -0.6 0.3 -0.4
v -0.6 0.4 -0.2
v -0.6 0.4 -0.3
v -0.6 0.5 0.3
v -0.6 0.5 -0.2
v -0.6 0.6 -0.2
v -0.6 0.6 -0.5
v -0.6 0.7 0.6
v -0.6 0.7 0.3
v -0.6 0.8 -0.1
v -0.6 0.8 -0.2
v -0.6 0.9 0.3
v -0.6 0.9 -0.1
v -0.5 0 -0.5
v -0.5 0 -0.7
v -0.5 0.2 -0.5
v -0.5 0.2 -0.7
v -0.5 0.7 0.5
v -0.5 0.7 0.3
v -0.5 0.9 0.5
v -0.5 0.9 0.3
v -0.4 0 0.8
v -0.4 0 0.7
v -0.4 0.1 0.8
v -0.4 0.1 0.7
v -0.4 0.2 0.7
v -0.4 0.2 0.6
v -0.4 0.2 -0.5
v -0.4 0.2 -0.6
v -0.4 0.4 0.7
v -0.4 0.4 0.6
v -0.4 0.4 0.5
v -0.4 0.5 0.7
v -0.4 0.5 0.5
v -0.4 0.6 -0.2
v -0.4 0.6 -0.5
v -0.4 0.8 -0.1
v -0.4 0.8 -0.2
v -0.4 0.9 0.5
v -0.4 0.9 -0.1
v -0.4 0.9 -0.5
v -0.4 0.9 -0.6
v -0.4 1 -0.3
v -0.4 1 -0.5
v -0.4 1.2 0.5
v -0.4 1.2 0.3
v -0.4 1.3 0.3
v -0.4 1.3 -0.3
v -0.3 0.1 0.8
v -0.3 0.1 0.7
v -0.3 0.2 0.8
v -0.3 0.2 0.7
v -0.3 0.2 -0.6
v -0.3 0.2 -0.7
v -0.3 0.5 0.7
v -0.3 0.5 0.5
v -0.3 0.5 -0.6
v -0.3 0.5 -0.7
v -0.3 0.6 0.7
v -0.3 0.6 0.6
v -0.3 0.8 0.6
v -0.3 0.8 0.5
v -0.3 0.9 0.6
v -0.3 0.9 0.5
v -0.3 1.2 0.4
v -0.3 1.2 0.3
v -0.3 1.3 0.3
v -0.3 1.3 -0.2
v -0.3 1.4 0.4
v -0.3 1.4 -0.2
v -0.2 0 -0.7
v -0.2 0 -0.8
v -0.2 0.1 -0.7
v -0.2 0.1 -0.8
v -0.2 0.2 0.8
v -0.2 0.2 0.7
v -0.2 0.3 0.8
v -0.2 0.3 0.7
v -0.2 0.5 -0.6
v -0.2 0.5 -0.7
v -0.2 0.6 0.7
v -0.2 0.6 0.6
v -0.2 0.7 0.7
v -0.2 0.7 0.6
v -0.2 0.7 -0.6
v -0.2 0.7 -0.7
v -0.2 0.9 0.6
v -0.2 0.9 0.5
v -0.2 1 0.6
v -0.2 1 0.5
v -0.1 1 0.6
v -0.1 1 0.4
v -0.1 1 -0.3
v -0.1 1 -0.5
v -0.1 1.1 0.4
v -0.1 1.1 0.3
v -0.1 1.1 -0.3
v -0.1 1.1 -0.5
v -0.1 1.2 0.6
v -0.1 1.2 0.4
v -0.1 1.3 0.4
v -0.1 1.3 0.3
v 0 1.3 0.3
v 0 1.3 0
v 0 1.4 0.3
v 0 1.4 0
v 0.1 1.1 0.4
v 0.1 1.1 0.3
v 0.1 1.2 0.4
v 0.1 1.2 0.3
v 0.1 1.2 -0.1
v 0.1 1.2 -0.2
v 0.1 1.2 -0.3
v 0.1 1.3 -0.1
v 0.1 1.3 -0.3
v 0.2 0.5 -0.6
v 0.2 0.5 -0.7
v 0.2 0.6 -0.6
v 0.2 0.6 -0.7
v 0.2 0.8 -0.4
v 0.2 0.8 -0.5
v 0.2 0.9 -0.4
v 0.2 0.9 -0.5
v 0.2 1 -0.2
v 0.2 1 -0.3
v 0.2 1.2 -0.2
v 0.2 1.2 -0.3
v 0.3 0.6 0.6
v 0.3 0.6 0.5
v 0.3 0.8 0.6
v 0.3 0.8 0.5
v 0.3 0.8 0.4
v 0.3 0.8 0.3
v 0.3 1 0.4
v 0.3 1 0.3
v 0.4 0.4 0.7
v 0.4 0.4 0.6
v 0.4 0.5 0.7
v 0.4 0.5 0.6
v 0.4 0.5 0.5
v 0.4 0.6 0.6
v 0.4 0.6 0.5
v -0.5 0.4 0.6
v -0.5 0.4 0.5
v -0.5 0.6 0.6
v -0.5 0.6 0.5
v -0.4 0.6 0.6
v -0.4 0.6 0.5
v -0.4 0.7 0.6
v -0.4 0.7 0.5
v -0.3 1 0.5
v -0.3 1 0.4
v -0.3 1.1 0.4
v -0.3 1.2 0.5
v -0.3 1.2 0.4
v -0.2 1.1 0.4
v -0.2 1.1 0.3
v -0.2 1.3 0.3
v -0.2 1.3 0.2
v -0.2 1.4 0.4
v -0.2 1.4 0.2
v -0.1 1.3 0.2
v -0.1 1.3 0
v -0.1 1.4 0.2
v -0.1 1.4 0
v 0 1.1 0.4
v 0 1.1 0.3
v 0 1.1 -0.2
v 0 1.1 -0.3
v 0 1.2 0.4
v 0 1.2 -0.1
v 0 1.2 -0.2
v 0 1.3 0.4
v 0 1.3 0.3
v 0 1.3 0
v 0 1.3 -0.1
v 0 1.3 -0.2
v 0 1.3 -0.3
v 0 1.4 0
v 0 1.4 -0.2
v 0.1 0.5 -0.6
v 0.1 0.5 -0.7
v 0.1 0.6 -0.5
v 0.1 0.6 -0.6
v 0.1 0.7 -0.6
v 0.1 0.7 -0.7
v 0.1 0.8 -0.4
v 0.1 0.8 -0.5
v 0.1 0.9 -0.5
v 0.1 0.9 -0.6
v 0.1 1 -0.2
v 0.1 1 -0.3
v 0.1 1 -0.4
v 0.1 1.1 0.5
v 0.1 1.1 0.4
v 0.1 1.1 -0.2
v 0.1 1.1 -0.3
v 0.1 1.1 -0.5
v 0.1 1.2 0.5
v 0.1 1.2 0.4
v 0.1 1.3 0.3
v 0.1 1.3 0
v 0.1 1.4 0.3
v 0.1 1.4 0
v 0.2 0 -0.7
v 0.2 0 -0.8
v 0.2 0.1 -0.7
v 0.2 0.1 -0.8
v 0.2 0.2 0.8
v 0.2 0.2 0.7
v 0.2 0.3 0.8
v 0.2 0.3 0.7
v 0.2 0.6 0.7
v 0.2 0.6 0.5
v 0.2 0.7 0.7
v 0.2 0.7 0.6
v 0.2 0.8 0.5
v 0.2 0.8 0.4
v 0.2 0.8 0.3
v 0.2 0.9 0.5
v 0.2 0.9 0.4
v 0.2 0.9 -0.3
v 0.2 0.9 -0.4
v 0.2 1 0.4
v 0.2 1 0.3
v 0.2 1 -0.3
v 0.2 1 -0.4
v 0.2 1.1 0.5
v 0.2 1.1 0.4
v 0.2 1.2 0.6
v 0.2 1.2 0.5
v 0.3 0.1 0.8
v 0.3 0.1 0.7
v 0.3 0.2 0.8
v 0.3 0.2 0.7
v 0.3 0.4 0.7
v 0.3 0.4 0.6
v 0.3 0.5 0.7
v 0.3 0.5 0.6
v 0.3 0.5 0.5
v 0.3 0.5 -0.5
v 0.3 0.5 -0.6
v 0.3 0.5 -0.7
v 0.3 0.6 0.7
v 0.3 0.6 0.6
v 0.3 0.6 0.5
v 0.3 0.6 -0.5
v 0.3 0.6 -0.6
v 0.3 0.6 -0.7
v 0.3 1 -0.1
v 0.3 1 -0.3
v 0.3 1.2 0.3
v 0.3 1.2 -0.1
v 0.3 1.3 0.3
v 0.3 1.3 -0.3
v 0.4 0 0.8
v 0.4 0 0.7
v 0.4 0.1 0.8
v 0.4 0.1 0.7
v 0.4 0.3 -0.5
v 0.4 0.3 -0.7
v 0.4 0.5 -0.5
v 0.4 0.5 -0.7
v 0.5 1 0.4
v 0.5 1 -0.1
v 0.5 1.2 0.4
v 0.5 1.2 -0.1
v 0.6 0 0.7
v 0.6 0 0.5
v 0.6 0 -0.5
v 0.6 0 -0.7
v 0.6 0.2 -0.4
v 0.6 0.2 -0.5
v 0.6 0.3 0.5
v 0.6 0.3 0.3
v 0.6 0.3 -0.3
v 0.6 0.3 -0.4
v 0.6 0.3 -0.5
v 0.6 0.3 -0.7
v 0.6 0.4 0.3
v 0.6 0.4 0.2
v 0.6 0.4 -0.2
v 0.6 0.4 -0.3
v 0.6 0.5 0.7
v 0.6 0.5 0.6
v 0.6 0.5 0.2
v 0.6 0.5 -0.2
v 0.6 0.8 0.6
v 0.6 0.8 0.4
v 0.6 0.9 -0.3
v 0.6 0.9 -0.5
v 0.6 1 0.4
v 0.6 1 -0.3
v 0.7 0 0.5
v 0.7 0 0.2
v 0.7 0 -0.2
v 0.7 0 -0.5
v 0.7 0.1 0.2
v 0.7 0.1 -0.2
v 0.7 0.2 -0.4
v 0.7 0.2 -0.5
v 0.7 0.3 0.5
v 0.7 0.3 0.3
v 0.7 0.3 -0.3
v 0.7 0.3 -0.4
v 0.7 0.4 0.3
v 0.7 0.4 0.2
v 0.7 0.4 -0.2
v 0.7 0.4 -0.3
v 0.7 0.5 0.2
v 0.7 0.5 -0.2
v 0.8 0 0.2
v 0.8 0 -0.2
v 0.8 0.1 0.2
v 0.8 0.1 -0.2
v -0.4 0 0.8
v -0.4 0.1 0.8
v -0.3 0.1 0.8
v -0.3 0.2 0.8
v -0.2 0.2 0.8
v -0.2 0.3 0.8
v 0.2 0.2 0.8
v 0.2 0.3 0.8
v 0.3 0.1 0.8
v 0.3 0.2 0.8
v 0.4 0 0.8
v 0.4 0.1 0.8
v -0.6 0 0.7
v -0.6 0.2 0.7
v -0.4 0 0.7
v -0.4 0.1 0.7
v -0.4 0.2 0.7
v -0.4 0.4 0.7
v -0.4 0.5 0.7
v -0.3 0.1 0.7
v -0.3 0.2 0.7
v -0.3 0.4 0.7
v -0.3 0.5 0.7
v -0.3 0.6 0.7
v -0.2 0.2 0.7
v -0.2 0.3 0.7
v -0.2 0.6 0.7
v -0.2 0.7 0.7
v 0.1 0.4 0.7
v 0.1 0.6 0.7
v 0.2 0.2 0.7
v 0.2 0.3 0.7
v 0.2 0.4 0.7
v 0.2 0.5 0.7
v 0.2 0.6 0.7
v 0.2 0.7 0.7
v 0.3 0.1 0.7
v 0.3 0.2 0.7
v 0.3 0.4 0.7
v 0.3 0.5 0.7
v 0.3 0.6 0.7
v 0.4 0 0.7
v 0.4 0.1 0.7
v 0.4 0.4 0.7
v 0.4 0.5 0.7
v 0.6 0 0.7
v 0.6 0.5 0.7
v -0.6 0.2 0.6
v -0.6 0.7 0.6
v -0.5 0.4 0.6
v -0.5 0.6 0.6
v -0.4 0.2 0.6
v -0.4 0.4 0.6
v -0.4 0.6 0.6
v -0.4 0.7 0.6
v -0.3 0.6 0.6
v -0.3 0.8 0.6
v -0.3 0.9 0.6
v -0.2 0.6 0.6
v -0.2 0.7 0.6
v -0.2 0.8 0.6
v -0.2 0.9 0.6
v -0.2 1 0.6
v -0.1 1 0.6
v -0.1 1.2 0.6
v 0.2 0.7 0.6
v 0.2 1.2 0.6
v 0.3 0.4 0.6
v 0.3 0.5 0.6
v 0.3 0.6 0.6
v 0.3 0.8 0.6
v 0.4 0.4 0.6
v 0.4 0.5 0.6
v 0.4 0.6 0.6
v 0.6 0.5 0.6
v 0.6 0.8 0.6
v -0.7 0 0.5
v -0.7 0.2 0.5
v -0.6 0 0.5
v -0.6 0.2 0.5
v -0.5 0.4 0.5
v -0.5 0.6 0.5
v -0.5 0.7 0.5
v -0.5 0.9 0.5
v -0.4 0.4 0.5
v -0.4 0.5 0.5
v -0.4 0.6 0.5
v -0.4 0.7 0.5
v -0.4 0.9 0.5
v -0.4 1.2 0.5
v -0.3 0.5 0.5
v -0.3 0.8 0.5
v -0.3 0.9 0.5
v -0.3 1 0.5
v -0.3 1.2 0.5
v -0.2 0.9 0.5
v -0.2 1 0.5
v 0.2 0.6 0.5
v 0.2 0.8 0.5
v 0.3 0.5 0.5
v 0.3 0.6 0.5
v 0.3 0.8 0.5
v 0.4 0.5 0.5
v 0.4 0.6 0.5
v 0.6 0 0.5
v 0.6 0.3 0.5
v 0.7 0 0.5
v 0.7 0.3 0.5
v -0.7 0.2 0.4
v -0.7 0.3 0.4
v -0.6 0.2 0.4
v -0.6 0.3 0.4
v -0.3 1 0.4
v -0.3 1.1 0.4
v -0.3 1.2 0.4
v -0.3 1.4 0.4
v -0.2 1 0.4
v -0.2 1.1 0.4
v -0.2 1.4 0.4
v -0.1 1 0.4
v -0.1 1.1 0.4
v -0.1 1.2 0.4
v -0.1 1.3 0.4
v 0 1.2 0.4
v 0 1.3 0.4
v 0.1 1.1 0.4
v 0.1 1.2 0.4
v 0.2 1 0.4
v 0.2 1.1 0.4
v 0.2 1.2 0.4
v 0.3 0.8 0.4
v 0.3 1 0.4
v 0.5 1 0.4
v 0.5 1.2 0.4
v 0.6 0.8 0.4
v 0.6 1 0.4
v -0.7 0.3 0.3
v -0.7 0.5 0.3
v -0.6 0.3 0.3
v -0.6 0.5 0.3
v -0.6 0.7 0.3
v -0.6 0.9 0.3
v -0.5 0.7 0.3
v -0.5 0.9 0.3
v -0.4 1.2 0.3
v -0.4 1.3 0.3
v -0.3 1.2 0.3
v -0.3 1.3 0.3
v -0.2 1.1 0.3
v -0.2 1.3 0.3
v -0.1 1.1 0.3
v -0.1 1.3 0.3
v 0 1.1 0.3
v 0 1.3 0.3
v 0 1.4 0.3
v 0.1 1.1 0.3
v 0.1 1.2 0.3
v 0.1 1.3 0.3
v 0.1 1.4 0.3
v 0.2 0.8 0.3
v 0.2 1 0.3
v 0.2 1.2 0.3
v 0.3 0.8 0.3
v 0.3 1 0.3
v 0.3 1.2 0.3
v 0.3 1.3 0.3
v 0.6 0.3 0.3
v 0.6 0.4 0.3
v 0.7 0.3 0.3
v 0.7 0.4 0.3
v -0.8 0 0.2
v -0.8 0.1 0.2
v -0.7 0 0.2
v -0.7 0.1 0.2
v -0.2 1.3 0.2
v -0.2 1.4 0.2
v -0.1 1.3 0.2
v -0.1 1.4 0.2
v 0.6 0.4 0.2
v 0.6 0.5 0.2
v 0.7 0 0.2
v 0.7 0.1 0.2
v 0.7 0.4 0.2
v 0.7 0.5 0.2
v 0.8 0 0.2
v 0.8 0.1 0.2
v -0.1 1.3 0
v -0.1 1.4 0
v 0 1.3 0
v 0 1.4 0
v 0.1 1.1 0.5
v 0.1 1.2 0.5
v 0.2 1.1 0.5
v 0.2 1.2 0.5
v 0 1.1 0.4
v 0 1.2 0.4
v 0.1 1.1 0.4
v 0.1 1.2 0.4
v 0 1.3 0
v 0 1.4 0
v 0.1 1.3 0
v 0.1 1.4 0
v -0.6 0.8 -0.1
v -0.6 0.9 -0.1
v -0.4 0.8 -0.1
v -0.4 0.9 -0.1
v 0 1.2 -0.1
v 0 1.3 -0.1
v 0.1 1.2 -0.1
v 0.1 1.3 -0.1
v 0.3 1 -0.1
v 0.3 1.2 -0.1
v 0.5 1 -0.1
v 0.5 1.2 -0.1
v -0.8 0 -0.2
v -0.8 0.1 -0.2
v -0.7 0 -0.2
v -0.7 0.1 -0.2
v -0.7 0.4 -0.2
v -0.7 0.5 -0.2
v -0.6 0.4 -0.2
v -0.6 0.5 -0.2
v -0.6 0.6 -0.2
v -0.6 0.8 -0.2
v -0.4 0.6 -0.2
v -0.4 0.8 -0.2
v -0.3 1.3 -0.2
v -0.3 1.4 -0.2
v 0 1.1 -0.2
v 0 1.2 -0.2
v 0 1.3 -0.2
v 0 1.4 -0.2
v 0.1 1 -0.2
v 0.1 1.1 -0.2
v 0.1 1.2 -0.2
v 0.2 1 -0.2
v 0.2 1.2 -0.2
v 0.6 0.4 -0.2
v 0.6 0.5 -0.2
v 0.7 0 -0.2
v 0.7 0.1 -0.2
v 0.7 0.4 -0.2
v 0.7 0.5 -0.2
v 0.8 0 -0.2
v 0.8 0.1 -0.2
v -0.7 0.3 -0.3
v -0.7 0.4 -0.3
v -0.6 0.3 -0.3
v -0.6 0.4 -0.3
v -0.4 1 -0.3
v -0.4 1.3 -0.3
v -0.1 1 -0.3
v -0.1 1.1 -0.3
v 0 1.1 -0.3
v 0 1.3 -0.3
v 0.1 1.2 -0.3
v 0.1 1.3 -0.3
v 0.2 0.9 -0.3
v 0.2 1 -0.3
v 0.2 1.2 -0.3
v 0.3 1 -0.3
v 0.3 1.3 -0.3
v 0.6 0.3 -0.3
v 0.6 0.4 -0.3
v 0.6 0.9 -0.3
v 0.6 1 -0.3
v 0.7 0.3 -0.3
v 0.7 0.4 -0.3
v -0.7 0.2 -0.4
v -0.7 0.3 -0.4
v -0.6 0.2 -0.4
v -0.6 0.3 -0.4
v 0.1 0.8 -0.4
v 0.1 1 -0.4
v 0.2 0.8 -0.4
v 0.2 0.9 -0.4
v 0.2 1 -0.4
v 0.6 0.2 -0.4
v 0.6 0.3 -0.4
v 0.7 0.2 -0.4
v 0.7 0.3 -0.4
v -0.7 0 -0.5
v -0.7 0.2 -0.5
v -0.6 0.2 -0.5
v -0.6 0.6 -0.5
v -0.5 0 -0.5
v -0.5 0.2 -0.5
v -0.4 0.2 -0.5
v -0.4 0.6 -0.5
v -0.4 0.9 -0.5
v -0.4 1 -0.5
v -0.1 1 -0.5
v -0.1 1.1 -0.5
v 0.1 0.6 -0.5
v 0.1 0.8 -0.5
v 0.1 0.9 -0.5
v 0.1 1.1 -0.5
v 0.2 0.6 -0.5
v 0.2 0.8 -0.5
v 0.2 0.9 -0.5
v 0.3 0.5 -0.5
v 0.3 0.6 -0.5
v 0.4 0.3 -0.5
v 0.4 0.5 -0.5
v 0.6 0 -0.5
v 0.6 0.2 -0.5
v 0.6 0.3 -0.5
v 0.6 0.9 -0.5
v 0.7 0 -0.5
v 0.7 0.2 -0.5
v -0.4 0.2 -0.6
v -0.4 0.9 -0.6
v -0.3 0.2 -0.6
v -0.3 0.5 -0.6
v -0.2 0.5 -0.6
v -0.2 0.7 -0.6
v 0.1 0.5 -0.6
v 0.1 0.6 -0.6
v 0.1 0.7 -0.6
v 0.1 0.9 -0.6
v 0.2 0.5 -0.6
v 0.2 0.6 -0.6
v -0.5 0 -0.7
v -0.5 0.2 -0.7
v -0.3 0.2 -0.7
v -0.3 0.5 -0.7
v -0.2 0 -0.7
v -0.2 0.1 -0.7
v -0.2 0.5 -0.7
v -0.2 0.7 -0.7
v 0.1 0.4 -0.7
v 0.1 0.5 -0.7
v 0.1 0.7 -0.7
v 0.2 0 -0.7
v 0.2 0.1 -0.7
v 0.2 0.4 -0.7
v 0.2 0.5 -0.7
v 0.2 0.6 -0.7
v 0.3 0.5 -0.7
v 0.3 0.6 -0.7
v 0.4 0.3 -0.7
v 0.4 0.5 -0.7
v 0.6 0 -0.7
v 0.6 0.3 -0.7
v -0.2 0 -0.8
v -0.2 0.1 -0.8
v 0.2 0 -0.8
v 0.2 0.1 -0.8
v -0.4 0 0.8
v 0.4 0 0.8
v -0.6 0 0.7
v -0.4 0 0.7
v 0.4 0 0.7
v 0.6 0 0.7
v -0.7 0 0.5
v -0.6 0 0.5
v 0.6 0 0.5
v 0.7 0 0.5
v -0.8 0 0.2
v -0.7 0 0.2
v 0.7 0 0.2
v 0.8 0 0.2
v -0.8 0 -0.2
v -0.7 0 -0.2
v 0.7 0 -0.2
v 0.8 0 -0.2
v -0.7 0 -0.5
v -0.5 0 -0.5
v 0.6 0 -0.5
v 0.7 0 -0.5
v -0.5 0 -0.7
v -0.2 0 -0.7
v 0.2 0 -0.7
v 0.6 0 -0.7
v -0.2 0 -0.8
v 0.2 0 -0.8
v -0.5 0.6 0.6
v -0.4 0.6 0.6
v 0.3 0.6 0.6
v 0.4 0.6 0.6
v -0.5 0.6 0.5
v -0.4 0.6 0.5
v 0.3 0.6 0.5
v 0.4 0.6 0.5
v 0.2 1 0.4
v 0.3 1 0.4
v 0.2 1 0.3
v 0.3 1 0.3
v 0.1 1.2 -0.2
v 0.2 1.2 -0.2
v 0.1 1.2 -0.3
v 0.2 1.2 -0.3
v -0.4 0.1 0.8
v -0.3 0.1 0.8
v 0.3 0.1 0.8
v 0.4 0.1 0.8
v -0.4 0.1 0.7
v -0.3 0.1 0.7
v 0.3 0.1 0.7
v 0.4 0.1 0.7
v -0.8 0.1 0.2
v -0.7 0.1 0.2
v 0.7 0.1 0.2
v 0.8 0.1 0.2
v -0.8 0.1 -0.2
v -0.7 0.1 -0.2
v 0.7 0.1 -0.2
v 0.8 0.1 -0.2
v -0.2 0.1 -0.7
v 0.2 0.1 -0.7
v -0.2 0.1 -0.8
v 0.2 0.1 -0.8
v -0.3 0.2 0.8
v -0.2 0.2 0.8
v 0.2 0.2 0.8
v 0.3 0.2 0.8
v -0.6 0.2 0.7
v -0.4 0.2 0.7
v -0.3 0.2 0.7
v -0.2 0.2 0.7
v 0.2 0.2 0.7
v 0.3 0.2 0.7
v -0.6 0.2 0.6
v -0.4 0.2 0.6
v -0.7 0.2 0.5
v -0.6 0.2 0.5
v -0.7 0.2 0.4
v -0.6 0.2 0.4
v -0.7 0.2 -0.4
v -0.6 0.2 -0.4
v 0.6 0.2 -0.4
v 0.7 0.2 -0.4
v -0.7 0.2 -0.5
v -0.6 0.2 -0.5
v -0.5 0.2 -0.5
v -0.4 0.2 -0.5
v 0.6 0.2 -0.5
v 0.7 0.2 -0.5
v -0.4 0.2 -0.6
v -0.3 0.2 -0.6
v -0.5 0.2 -0.7
v -0.3 0.2 -0.7
v -0.2 0.3 0.8
v 0.2 0.3 0.8
v -0.2 0.3 0.7
v 0.2 0.3 0.7
v 0.6 0.3 0.5
v 0.7 0.3 0.5
v -0.7 0.3 0.4
v -0.6 0.3 0.4
v -0.7 0.3 0.3
v -0.6 0.3 0.3
v 0.6 0.3 0.3
v 0.7 0.3 0.3
v -0.7 0.3 -0.3
v -0.6 0.3 -0.3
v 0.6 0.3 -0.3
v 0.7 0.3 -0.3
v -0.7 0.3 -0.4
v -0.6 0.3 -0.4
v 0.6 0.3 -0.4
v 0.7 0.3 -0.4
v 0.4 0.3 -0.5
v 0.6 0.3 -0.5
v 0.4 0.3 -0.7
v 0.6 0.3 -0.7
v 0.3 0.4 0.7
v 0.4 0.4 0.7
v -0.5 0.4 0.6
v -0.4 0.4 0.6
v 0.3 0.4 0.6
v 0.4 0.4 0.6
v -0.5 0.4 0.5
v -0.4 0.4 0.5
v 0.6 0.4 0.3
v 0.7 0.4 0.3
v 0.6 0.4 0.2
v 0.7 0.4 0.2
v -0.7 0.4 -0.2
v -0.6 0.4 -0.2
v 0.6 0.4 -0.2
v 0.7 0.4 -0.2
v -0.7 0.4 -0.3
v -0.6 0.4 -0.3
v 0.6 0.4 -0.3
v 0.7 0.4 -0.3
v -0.4 0.5 0.7
v -0.3 0.5 0.7
v 0.4 0.5 0.7
v 0.6 0.5 0.7
v 0.3 0.5 0.6
v 0.4 0.5 0.6
v 0.6 0.5 0.6
v -0.4 0.5 0.5
v -0.3 0.5 0.5
v 0.3 0.5 0.5
v 0.4 0.5 0.5
v -0.7 0.5 0.3
v -0.6 0.5 0.3
v 0.6 0.5 0.2
v 0.7 0.5 0.2
v -0.7 0.5 -0.2
v -0.6 0.5 -0.2
v 0.6 0.5 -0.2
v 0.7 0.5 -0.2
v 0.3 0.5 -0.5
v 0.4 0.5 -0.5
v -0.3 0.5 -0.6
v -0.2 0.5 -0.6
v 0.1 0.5 -0.6
v 0.2 0.5 -0.6
v 0.3 0.5 -0.6
v -0.3 0.5 -0.7
v -0.2 0.5 -0.7
v 0.1 0.5 -0.7
v 0.2 0.5 -0.7
v 0.3 0.5 -0.7
v 0.4 0.5 -0.7
v -0.3 0.6 0.7
v -0.2 0.6 0.7
v 0.2 0.6 0.7
v 0.3 0.6 0.7
v -0.3 0.6 0.6
v -0.2 0.6 0.6
v 0.3 0.6 0.6
v 0.2 0.6 0.5
v 0.3 0.6 0.5
v -0.6 0.6 -0.2
v -0.4 0.6 -0.2
v -0.6 0.6 -0.5
v -0.4 0.6 -0.5
v 0.1 0.6 -0.5
v 0.2 0.6 -0.5
v 0.3 0.6 -0.5
v 0.1 0.6 -0.6
v 0.2 0.6 -0.6
v 0.3 0.6 -0.6
v 0.2 0.6 -0.7
v 0.3 0.6 -0.7
v -0.2 0.7 0.7
v 0.2 0.7 0.7
v -0.6 0.7 0.6
v -0.4 0.7 0.6
v -0.2 0.7 0.6
v 0.2 0.7 0.6
v -0.5 0.7 0.5
v -0.4 0.7 0.5
v -0.6 0.7 0.3
v -0.5 0.7 0.3
v -0.2 0.7 -0.6
v 0.1 0.7 -0.6
v -0.2 0.7 -0.7
v 0.1 0.7 -0.7
v 0.3 0.8 0.6
v 0.6 0.8 0.6
v 0.2 0.8 0.5
v 0.3 0.8 0.5
v 0.2 0.8 0.4
v 0.3 0.8 0.4
v 0.6 0.8 0.4
v 0.2 0.8 0.3
v 0.3 0.8 0.3
v -0.6 0.8 -0.1
v -0.4 0.8 -0.1
v -0.6 0.8 -0.2
v -0.4 0.8 -0.2
v 0.1 0.8 -0.4
v 0.2 0.8 -0.4
v 0.1 0.8 -0.5
v 0.2 0.8 -0.5
v -0.3 0.9 0.6
v -0.2 0.9 0.6
v -0.5 0.9 0.5
v -0.4 0.9 0.5
v -0.3 0.9 0.5
v -0.2 0.9 0.5
v -0.6 0.9 0.3
v -0.5 0.9 0.3
v -0.6 0.9 -0.1
v -0.4 0.9 -0.1
v 0.2 0.9 -0.3
v 0.6 0.9 -0.3
v 0.2 0.9 -0.4
v -0.4 0.9 -0.5
v 0.1 0.9 -0.5
v 0.2 0.9 -0.5
v 0.6 0.9 -0.5
v -0.4 0.9 -0.6
v 0.1 0.9 -0.6
v -0.2 1 0.6
v -0.1 1 0.6
v -0.3 1 0.5
v -0.2 1 0.5
v -0.3 1 0.4
v -0.2 1 0.4
v -0.1 1 0.4
v 0.5 1 0.4
v 0.6 1 0.4
v 0.3 1 -0.1
v 0.5 1 -0.1
v 0.1 1 -0.2
v 0.2 1 -0.2
v -0.4 1 -0.3
v -0.1 1 -0.3
v 0.1 1 -0.3
v 0.2 1 -0.3
v 0.3 1 -0.3
v 0.6 1 -0.3
v 0.1 1 -0.4
v 0.2 1 -0.4
v -0.4 1 -0.5
v -0.1 1 -0.5
v 0.1 1.1 0.5
v 0.2 1.1 0.5
v -0.2 1.1 0.4
v -0.1 1.1 0.4
v 0 1.1 0.4
v 0.1 1.1 0.4
v 0.2 1.1 0.4
v -0.2 1.1 0.3
v -0.1 1.1 0.3
v 0 1.1 0.3
v 0.1 1.1 0.3
v 0 1.1 -0.2
v 0.1 1.1 -0.2
v -0.1 1.1 -0.3
v 0 1.1 -0.3
v 0.1 1.1 -0.3
v -0.1 1.1 -0.5
v 0.1 1.1 -0.5
v -0.1 1.2 0.6
v 0.2 1.2 0.6
v -0.4 1.2 0.5
v -0.3 1.2 0.5
v 0.1 1.2 0.5
v 0.2 1.2 0.5
v -0.3 1.2 0.4
v -0.1 1.2 0.4
v 0 1.2 0.4
v 0.1 1.2 0.4
v 0.2 1.2 0.4
v 0.5 1.2 0.4
v -0.4 1.2 0.3
v -0.3 1.2 0.3
v 0.1 1.2 0.3
v 0.2 1.2 0.3
v 0.3 1.2 0.3
v 0 1.2 -0.1
v 0.1 1.2 -0.1
v 0.3 1.2 -0.1
v 0.5 1.2 -0.1
v 0 1.2 -0.2
v 0.1 1.2 -0.2
v -0.1 1.3 0.4
v 0 1.3 0.4
v -0.4 1.3 0.3
v -0.3 1.3 0.3
v -0.2 1.3 0.3
v -0.1 1.3 0.3
v 0 1.3 0.3
v 0.1 1.3 0.3
v 0.3 1.3 0.3
v -0.2 1.3 0.2
v -0.1 1.3 0.2
v -0.1 1.3 0
v 0 1.3 0
v 0.1 1.3 0
v 0 1.3 -0.1
v 0.1 1.3 -0.1
v -0.3 1.3 -0.2
v 0 1.3 -0.2
v -0.4 1.3 -0.3
v 0 1.3 -0.3
v 0.1 1.3 -0.3
v 0.3 1.3 -0.3
v -0.3 1.4 0.4
v -0.2 1.4 0.4
v 0 1.4 0.3
v 0.1 1.4 0.3
v -0.2 1.4 0.2
v -0.1 1.4 0.2
v -0.1 1.4 0
v 0 1.4 0
v 0.1 1.4 0
v -0.3 1.4 -0.2
v 0 1.4 -0.2

# faces
f 3/1/1 2/1/1 1/1/1
f 4/1/1 2/1/1 3/1/1
f 9/1/1 6/1/1 5/1/1
f 10/1/1 8/1/1 7/1/1
f 11/1/1 9/1/1 5/1/1
f 11/1/1 10/1/1 9/1/1
f 12/1/1 10/1/1 11/1/1
f 13/1/1 8/1/1 10/1/1
f 13/1/1 10/1/1 12/1/1
f 14/1/1 8/1/1 13/1/1
f 15/1/1 13/1/1 12/1/1
f 16/1/1 13/1/1 15/1/1
f 17/1/1 13/1/1 16/1/1
f 18/1/1 13/1/1 17/1/1
f 19/1/1 17/1/1 16/1/1
f 20/1/1 17/1/1 19/1/1
f 21/1/1 19/1/1 16/1/1
f 22/1/1 19/1/1 21/1/1
f 25/1/1 24/1/1 23/1/1
f 26/1/1 24/1/1 25/1/1
f 27/1/1 24/1/1 26/1/1
f 31/1/1 27/1/1 26/1/1
f 31/1/1 28/1/1 27/1/1
f 34/1/1 30/1/1 29/1/1
f 36/1/1 34/1/1 33/1/1
f 37/1/1 32/1/1 31/1/1
f 38/1/1 36/1/1 35/1/1
f 39/1/1 36/1/1 38/1/1
f 39/1/1 38/1/1 37/1/1
f 40/1/1 30/1/1 34/1/1
f 40/1/1 36/1/1 39/1/1
f 40/1/1 34/1/1 36/1/1
f 41/1/1 37/1/1 31/1/1
f 41/1/1 31/1/1 26/1/1
f 41/1/1 39/1/1 37/1/1
f 42/1/1 39/1/1 41/1/1
f 43/1/1 39/1/1 42/1/1
f 44/1/1 39/1/1 43/1/1
f 45/1/1 43/1/1 42/1/1
f 46/1/1 43/1/1 45/1/1
f 49/1/1 48/1/1 47/1/1
f 50/1/1 48/1/1 49/1/1
f 53/1/1 52/1/1 51/1/1
f 54/1/1 52/1/1 53/1/1
f 57/1/1 56/1/1 55/1/1
f 58/1/1 56/1/1 57/1/1
f 63/1/1 60/1/1 59/1/1
f 64/1/1 60/1/1 63/1/1
f 66/2/1 64/2/1 63/2/1
f 66/2/1 65/2/1 64/2/1
f 67/2/1 65/2/1 66/2/1
f 69/1/1 62/1/1 61/1/1
f 71/1/1 69/1/1 68/1/1
f 73/1/1 71/1/1 70/1/1
f 74/1/1 62/1/1 69/1/1
f 74/1/1 69/1/1 71/1/1
f 74/1/1 71/1/1 73/1/1
f 75/1/1 62/1/1 74/1/1
f 76/1/1 73/1/1 72/1/1
f 76/1/1 74/1/1 73/1/1
f 77/1/1 74/1/1 76/1/1
f 78/1/1 76/1/1 72/1/1
f 79/1/1 76/1/1 78/1/1
f 80/1/1 76/1/1 79/1/1
f 81/1/1 76/1/1 80/1/1
f 84/1/1 83/1/1 82/1/1
f 85/1/1 83/1/1 84/1/1
f 90/1/1 87/1/1 86/1/1
f 91/1/1 87/1/1 90/1/1
f 92/1/1 89/1/1 88/1/1
f 93/1/1 89/1/1 92/1/1
f 94/1/1 89/1/1 93/1/1
f 95/1/1 89/1/1 94/1/1
f 96/2/1 95/2/1 94/2/1
f 97/2/1 95/2/1 96/2/1
f 100/1/1 99/1/1 98/1/1
f 102/1/1 100/1/1 98/1/1
f 102/1/1 101/1/1 100/1/1
f 103/1/1 101/1/1 102/1/1
f 106/1/1 105/1/1 104/1/1
f 107/1/1 105/1/1 106/1/1
f 110/1/1 109/1/1 108/1/1
f 111/1/1 109/1/1 110/1/1
f 116/1/1 115/1/1 114/1/1
f 117/1/1 115/1/1 116/1/1
f 118/1/1 113/1/1 112/1/1
f 119/1/1 113/1/1 118/1/1
f 122/1/1 121/1/1 120/1/1
f 123/1/1 121/1/1 122/1/1
f 128/1/1 125/1/1 124/1/1
f 130/1/1 127/1/1 126/1/1
f 131/1/1 127/1/1 130/1/1
f 132/1/1 129/1/1 128/1/1
f 132/1/1 128/1/1 124/1/1
f 133/1/1 129/1/1 132/1/1
f 134/1/1 129/1/1 133/1/1
f 135/1/1 129/1/1 134/1/1
f 138/1/1 137/1/1 136/1/1
f 139/1/1 137/1/1 138/1/1
f 142/2/1 141/2/1 140/2/1
f 143/2/1 141/2/1 142/2/1
f 147/1/1 146/1/1 145/1/1
f 147/1/1 145/1/1 144/1/1
f 148/1/1 146/1/1 147/1/1
f 151/1/1 150/1/1 149/1/1
f 152/1/1 150/1/1 151/1/1
f 155/1/1 154/1/1 153/1/1
f 156/1/1 154/1/1 155/1/1
f 159/1/1 158/1/1 157/1/1
f 160/1/1 158/1/1 159/1/1
f 163/1/1 162/1/1 161/1/1
f 164/1/1 162/1/1 163/1/1
f 167/1/1 166/1/1 165/1/1
f 168/1/1 166/1/1 167/1/1
f 171/1/1 170/1/1 169/1/1
f 172/1/1 170/1/1 171/1/1
f 174/1/1 173/1/1 172/1/1
f 175/1/1 173/1/1 174/1/1
f 176/1/2 177/1/2 178/1/2
f 178/1/2 177/1/2 179/1/2
f 180/1/2 181/1/2 182/1/2
f 182/1/2 181/1/2 183/1/2
f 184/1/2 185/1/2 186/1/2
f 184/1/2 186/1/2 187/1/2
f 187/1/2 186/1/2 188/1/2
f 189/1/2 190/1/2 191/1/2
f 189/1/2 191/1/2 193/1/2
f 191/1/2 192/1/2 193/1/2
f 193/1/2 192/1/2 194/1/2
f 195/1/2 196/1/2 197/1/2
f 197/1/2 196/1/2 198/1/2
f 199/1/2 200/1/2 203/1/2
f 201/1/2 202/1/2 205/1/2
f 203/1/2 200/1/2 206/1/2
f 206/1/2 200/1/2 207/1/2
f 204/1/2 205/1/2 209/1/2
f 205/1/2 202/1/2 210/1/2
f 209/1/2 205/1/2 210/1/2
f 210/1/2 202/1/2 211/1/2
f 208/1/2 209/1/2 212/1/2
f 209/1/2 210/1/2 212/1/2
f 212/1/2 210/1/2 213/1/2
f 214/1/2 215/1/2 217/1/2
f 217/1/2 215/1/2 218/1/2
f 216/1/2 217/1/2 218/1/2
f 218/1/2 215/1/2 219/1/2
f 216/1/2 218/1/2 221/1/2
f 221/1/2 218/1/2 222/1/2
f 220/1/2 221/1/2 222/1/2
f 222/1/2 218/1/2 223/1/2
f 220/1/2 222/1/2 226/1/2
f 224/2/2 225/2/2 229/2/2
f 225/1/2 226/1/2 230/1/2
f 229/2/2 225/2/2 230/2/2
f 226/1/2 222/1/2 231/1/2
f 230/1/2 226/1/2 231/1/2
f 227/1/2 228/1/2 232/1/2
f 232/1/2 228/1/2 233/1/2
f 234/1/2 235/1/2 236/1/2
f 236/1/2 235/1/2 237/1/2
f 238/1/2 239/1/2 240/1/2
f 240/1/2 239/1/2 241/1/2
f 242/1/2 243/1/2 244/1/2
f 244/1/2 243/1/2 245/1/2
f 246/1/2 247/1/2 248/1/2
f 248/1/2 247/1/2 249/1/2
f 249/1/2 247/1/2 250/1/2
f 249/1/2 250/1/2 253/1/2
f 250/1/2 251/1/2 253/1/2
f 251/2/2 252/2/2 254/2/2
f 253/1/2 251/1/2 254/1/2
f 253/2/2 254/2/2 257/2/2
f 254/2/2 252/2/2 257/2/2
f 257/2/2 252/2/2 258/2/2
f 255/2/2 256/2/2 259/2/2
f 259/2/2 256/2/2 260/2/2
f 249/1/2 253/1/2 261/1/2
f 253/2/2 257/2/2 261/2/2
f 261/2/2 257/2/2 262/2/2
f 249/1/2 261/1/2 263/1/2
f 263/1/2 261/1/2 264/1/2
f 265/1/2 266/1/2 267/1/2
f 267/1/2 266/1/2 268/1/2
f 269/1/2 270/1/2 271/1/2
f 271/1/2 270/1/2 272/1/2
f 271/2/2 272/2/2 277/2/2
f 272/2/2 273/2/2 277/2/2
f 277/2/2 273/2/2 278/2/2
f 278/2/2 273/2/2 279/2/2
f 274/2/2 275/2/2 280/2/2
f 275/1/2 276/1/2 281/1/2
f 280/2/2 275/2/2 281/2/2
f 281/1/2 276/1/2 282/1/2
f 283/1/2 284/1/2 286/1/2
f 285/1/2 286/1/2 287/1/2
f 286/1/2 284/1/2 288/1/2
f 287/1/2 286/1/2 288/1/2
f 289/1/2 290/1/2 291/1/2
f 291/1/2 290/1/2 292/1/2
f 293/1/2 294/1/2 295/1/2
f 295/1/2 294/1/2 296/1/2
f 297/1/2 298/1/2 299/1/2
f 299/1/2 298/1/2 300/1/2
f 303/1/2 304/1/2 306/1/2
f 301/1/2 302/1/2 307/1/2
f 305/1/2 306/1/2 310/1/2
f 306/1/2 304/1/2 311/1/2
f 310/1/2 306/1/2 311/1/2
f 311/1/2 304/1/2 312/1/2
f 307/1/2 308/1/2 313/1/2
f 309/1/2 310/1/2 316/1/2
f 310/1/2 311/1/2 316/1/2
f 313/1/2 314/1/2 317/1/2
f 301/1/2 307/1/2 317/1/2
f 307/1/2 313/1/2 317/1/2
f 317/1/2 314/1/2 318/1/2
f 318/1/2 314/1/2 319/1/2
f 315/1/2 316/1/2 320/1/2
f 318/1/2 319/1/2 321/1/2
f 319/1/2 320/1/2 321/1/2
f 321/1/2 320/1/2 322/1/2
f 320/1/2 316/1/2 323/1/2
f 322/1/2 320/1/2 323/1/2
f 316/1/2 311/1/2 323/1/2
f 323/1/2 311/1/2 324/1/2
f 322/1/2 323/1/2 325/1/2
f 325/1/2 323/1/2 326/1/2
f 327/1/2 328/1/2 331/1/2
f 329/1/2 330/1/2 332/1/2
f 332/1/2 330/1/2 333/1/2
f 331/1/2 332/1/2 333/1/2
f 333/1/2 330/1/2 334/1/2
f 327/1/2 331/1/2 335/1/2
f 331/1/2 333/1/2 335/1/2
f 335/1/2 333/1/2 336/1/2
f 336/1/2 333/1/2 337/1/2
f 337/1/2 333/1/2 338/1/2
f 336/1/2 337/1/2 339/1/2
f 339/1/2 337/1/2 340/1/2
f 340/1/2 337/1/2 341/1/2
f 341/1/2 337/1/2 342/1/2
f 340/1/2 341/1/2 343/1/2
f 343/1/2 341/1/2 344/1/2
f 345/1/2 346/1/2 347/1/2
f 347/1/2 346/1/2 348/1/2
f 351/1/3 350/1/3 349/1/3
f 353/1/3 352/1/3 351/1/3
f 355/1/3 353/1/3 351/1/3
f 355/1/3 354/1/3 353/1/3
f 356/1/3 354/1/3 355/1/3
f 357/1/3 351/1/3 349/1/3
f 357/1/3 355/1/3 351/1/3
f 358/1/3 355/1/3 357/1/3
f 359/1/3 357/1/3 349/1/3
f 360/1/3 357/1/3 359/1/3
f 363/1/3 362/1/3 361/1/3
f 364/1/3 362/1/3 363/1/3
f 365/1/3 362/1/3 364/1/3
f 368/1/3 365/1/3 364/1/3
f 368/1/3 366/1/3 365/1/3
f 369/1/3 366/1/3 368/1/3
f 370/2/3 367/2/3 366/2/3
f 370/1/3 366/1/3 369/1/3
f 371/2/3 367/2/3 370/2/3
f 373/1/3 372/1/3 371/1/3
f 373/1/3 371/1/3 370/1/3
f 373/1/3 370/1/3 369/1/3
f 374/1/3 372/1/3 373/1/3
f 375/1/3 372/1/3 374/1/3
f 377/1/3 376/1/3 375/1/3
f 377/1/3 375/1/3 374/1/3
f 378/1/3 376/1/3 377/1/3
f 380/1/3 377/1/3 374/1/3
f 381/2/3 378/2/3 377/2/3
f 381/1/3 377/1/3 380/1/3
f 382/2/3 378/2/3 381/2/3
f 383/1/3 376/1/3 378/1/3
f 383/2/3 378/2/3 382/2/3
f 384/1/3 376/1/3 383/1/3
f 386/1/3 382/1/3 381/1/3
f 386/1/3 380/1/3 379/1/3
f 386/1/3 381/1/3 380/1/3
f 387/1/3 382/1/3 386/1/3
f 388/2/3 383/2/3 382/2/3
f 388/1/3 382/1/3 387/1/3
f 389/2/3 383/2/3 388/2/3
f 391/1/3 387/1/3 386/1/3
f 391/1/3 386/1/3 385/1/3
f 392/1/3 387/1/3 391/1/3
f 394/1/3 391/1/3 390/1/3
f 394/1/3 393/1/3 392/1/3
f 394/1/3 392/1/3 391/1/3
f 395/1/3 393/1/3 394/1/3
f 398/1/3 397/1/3 396/1/3
f 399/1/3 397/1/3 398/1/3
f 400/1/3 398/1/3 396/1/3
f 401/1/3 398/1/3 400/1/3
f 402/1/3 397/1/3 399/1/3
f 403/1/3 397/1/3 402/1/3
f 407/1/3 405/1/3 404/1/3
f 408/1/3 405/1/3 407/1/3
f 409/2/3 406/2/3 405/2/3
f 409/1/3 405/1/3 408/1/3
f 410/2/3 406/2/3 409/2/3
f 412/1/3 411/1/3 410/1/3
f 412/1/3 410/1/3 409/1/3
f 412/1/3 409/1/3 408/1/3
f 414/1/3 412/1/3 408/1/3
f 414/1/3 413/1/3 412/1/3
f 415/1/3 413/1/3 414/1/3
f 420/2/3 417/2/3 416/2/3
f 421/2/3 417/2/3 420/2/3
f 422/1/3 419/1/3 418/1/3
f 423/1/3 422/1/3 421/1/3
f 424/1/3 419/1/3 422/1/3
f 424/1/3 422/1/3 423/1/3
f 427/1/3 426/1/3 425/1/3
f 428/1/3 426/1/3 427/1/3
f 433/2/3 430/2/3 429/2/3
f 434/2/3 430/2/3 433/2/3
f 435/2/3 430/2/3 434/2/3
f 436/1/3 432/1/3 431/1/3
f 437/1/3 432/1/3 436/1/3
f 439/2/3 435/2/3 434/2/3
f 439/2/3 437/2/3 436/2/3
f 439/2/3 436/2/3 435/2/3
f 440/2/3 437/2/3 439/2/3
f 441/1/3 438/1/3 437/1/3
f 441/2/3 437/2/3 440/2/3
f 442/1/3 438/1/3 441/1/3
f 443/1/3 438/1/3 442/1/3
f 444/2/3 442/2/3 441/2/3
f 445/2/3 442/2/3 444/2/3
f 449/2/3 447/2/3 446/2/3
f 450/2/3 447/2/3 449/2/3
f 451/1/3 449/1/3 448/1/3
f 452/1/3 449/1/3 451/1/3
f 455/1/3 454/1/3 453/1/3
f 456/1/3 454/1/3 455/1/3
f 459/1/3 458/1/3 457/1/3
f 460/1/3 458/1/3 459/1/3
f 465/2/3 462/2/3 461/2/3
f 466/1/3 464/1/3 463/1/3
f 466/2/3 462/2/3 465/2/3
f 466/1/3 463/1/3 462/1/3
f 467/1/3 464/1/3 466/1/3
f 468/2/3 466/2/3 465/2/3
f 469/2/3 466/2/3 468/2/3
f 472/1/3 471/1/3 470/1/3
f 473/1/3 471/1/3 472/1/3
f 477/2/3 475/2/3 474/2/3
f 478/2/3 475/2/3 477/2/3
f 480/1/3 477/1/3 476/1/3
f 480/1/3 478/1/3 477/1/3
f 481/1/3 478/1/3 480/1/3
f 481/1/3 480/1/3 479/1/3
f 482/1/3 478/1/3 481/1/3
f 483/1/3 481/1/3 479/1/3
f 484/1/3 481/1/3 483/1/3
f 487/1/3 486/1/3 485/1/3
f 488/1/3 486/1/3 487/1/3
f 491/1/3 490/1/3 489/1/3
f 492/1/3 490/1/3 491/1/3
f 495/1/3 494/1/3 493/1/3
f 496/1/3 494/1/3 495/1/3
f 499/2/3 498/2/3 497/2/3
f 500/2/3 498/2/3 499/2/3
f 504/2/3 502/2/3 501/2/3
f 505/2/3 502/2/3 504/2/3
f 506/1/3 503/1/3 502/1/3
f 506/2/3 502/2/3 505/2/3
f 507/1/3 503/1/3 506/1/3
f 510/1/3 506/1/3 505/1/3
f 511/2/3 509/2/3 508/2/3
f 512/2/3 509/2/3 511/2/3
f 513/1/3 506/1/3 510/1/3
f 514/1/3 506/1/3 513/1/3
f 517/1/3 516/1/3 515/1/3
f 518/1/3 516/1/3 517/1/3
f 521/1/3 520/1/3 519/1/3
f 522/1/3 520/1/3 521/1/3
f 525/1/3 524/1/3 523/1/3
f 526/1/3 524/1/3 525/1/3
f 531/1/3 528/1/3 527/1/3
f 532/1/3 528/1/3 531/1/3
f 533/1/3 530/1/3 529/1/3
f 534/1/3 530/1/3 533/1/3
f 537/1/3 536/1/3 535/1/3
f 538/1/3 536/1/3 537/1/3
f 539/1/4 540/1/4 541/1/4
f 541/1/4 540/1/4 542/1/4
f 543/1/4 544/1/4 545/1/4
f 545/1/4 544/1/4 546/1/4
f 547/1/4 548/1/4 549/1/4
f 549/1/4 548/1/4 550/1/4
f 551/1/4 552/1/4 553/1/4
f 553/1/4 552/1/4 554/1/4
f 555/2/4 556/2/4 557/2/4
f 557/2/4 556/2/4 558/2/4
f 559/1/4 560/1/4 561/1/4
f 561/1/4 560/1/4 562/1/4
f 563/1/4 564/1/4 565/1/4
f 565/1/4 564/1/4 566/1/4
f 567/1/4 568/1/4 569/1/4
f 569/1/4 568/1/4 570/1/4
f 571/1/4 572/1/4 573/1/4
f 573/1/4 572/1/4 574/1/4
f 575/1/4 576/1/4 579/1/4
f 579/1/4 576/1/4 580/1/4
f 577/2/4 578/2/4 582/2/4
f 582/2/4 578/2/4 583/2/4
f 581/1/4 582/1/4 584/1/4
f 582/1/4 583/1/4 584/1/4
f 584/1/4 583/1/4 585/1/4
f 586/1/4 587/1/4 590/1/4
f 590/1/4 587/1/4 591/1/4
f 588/1/4 589/1/4 592/1/4
f 592/1/4 589/1/4 593/1/4
f 594/1/4 595/1/4 596/1/4
f 596/1/4 595/1/4 597/1/4
f 598/1/4 599/1/4 600/1/4
f 600/1/4 599/1/4 601/1/4
f 601/1/4 599/1/4 602/1/4
f 602/1/4 599/1/4 603/1/4
f 604/1/4 605/1/4 608/1/4
f 606/1/4 607/1/4 609/1/4
f 607/1/4 608/1/4 609/1/4
f 608/1/4 605/1/4 610/1/4
f 609/1/4 608/1/4 610/1/4
f 606/1/4 609/1/4 613/1/4
f 613/1/4 609/1/4 614/1/4
f 611/1/4 612/1/4 615/1/4
f 615/1/4 612/1/4 616/1/4
f 617/1/4 618/1/4 619/1/4
f 619/1/4 618/1/4 620/1/4
f 621/2/4 622/2/4 623/2/4
f 623/2/4 622/2/4 624/2/4
f 624/2/4 622/2/4 625/2/4
f 626/1/4 627/1/4 628/1/4
f 628/1/4 627/1/4 629/1/4
f 630/1/4 631/1/4 632/1/4
f 630/1/4 632/1/4 634/1/4
f 632/1/4 633/1/4 634/1/4
f 634/1/4 633/1/4 635/1/4
f 635/1/4 633/1/4 636/1/4
f 636/1/4 633/1/4 637/1/4
f 638/1/4 639/1/4 640/1/4
f 638/1/4 640/1/4 644/1/4
f 640/1/4 641/1/4 644/1/4
f 644/1/4 641/1/4 645/1/4
f 642/2/4 643/2/4 646/2/4
f 646/2/4 643/2/4 647/2/4
f 646/1/4 647/1/4 650/1/4
f 647/1/4 648/1/4 650/1/4
f 649/1/4 650/1/4 652/1/4
f 651/1/4 652/1/4 655/1/4
f 650/1/4 648/1/4 656/1/4
f 655/1/4 652/1/4 656/1/4
f 652/1/4 650/1/4 656/1/4
f 653/1/4 654/1/4 657/1/4
f 657/1/4 654/1/4 658/1/4
f 659/1/4 660/1/4 661/1/4
f 661/1/4 660/1/4 662/1/4
f 662/1/4 660/1/4 663/1/4
f 663/1/4 660/1/4 664/1/4
f 664/1/4 660/1/4 667/1/4
f 667/1/4 660/1/4 668/1/4
f 665/2/4 666/2/4 669/2/4
f 669/2/4 666/2/4 670/2/4
f 671/1/4 672/1/4 673/1/4
f 671/1/4 673/1/4 675/1/4
f 673/1/4 674/1/4 675/1/4
f 675/1/4 674/1/4 676/1/4
f 676/1/4 674/1/4 677/1/4
f 677/1/4 678/1/4 679/1/4
f 676/1/4 677/1/4 679/1/4
f 679/1/4 678/1/4 680/1/4
f 680/1/4 678/1/4 681/1/4
f 676/1/4 679/1/4 683/1/4
f 679/2/4 680/2/4 684/2/4
f 683/1/4 679/1/4 684/1/4
f 684/2/4 680/2/4 685/2/4
f 682/1/4 683/1/4 687/1/4
f 685/1/4 686/1/4 687/1/4
f 684/1/4 685/1/4 687/1/4
f 683/1/4 684/1/4 687/1/4
f 687/1/4 686/1/4 688/1/4
f 682/1/4 687/1/4 689/1/4
f 689/1/4 687/1/4 690/1/4
f 682/1/4 689/1/4 691/1/4
f 691/1/4 689/1/4 692/1/4
f 693/1/4 694/1/4 695/1/4
f 695/1/4 694/1/4 696/1/4
f 700/1/5 698/1/5 697/1/5
f 701/1/5 698/1/5 700/1/5
f 704/1/5 700/1/5 699/1/5
f 704/1/5 702/1/5 701/1/5
f 704/1/5 701/1/5 700/1/5
f 705/1/5 702/1/5 704/1/5
f 708/1/5 704/1/5 703/1/5
f 708/1/5 706/1/5 705/1/5
f 708/1/5 705/1/5 704/1/5
f 709/1/5 706/1/5 708/1/5
f 711/1/5 708/1/5 707/1/5
f 711/1/5 710/1/5 709/1/5
f 711/1/5 709/1/5 708/1/5
f 712/1/5 710/1/5 711/1/5
f 713/1/5 710/1/5 712/1/5
f 714/1/5 710/1/5 713/1/5
f 715/1/5 713/1/5 712/1/5
f 716/1/5 713/1/5 715/1/5
f 717/1/5 713/1/5 716/1/5
f 718/1/5 713/1/5 717/1/5
f 719/1/5 717/1/5 716/1/5
f 720/1/5 717/1/5 719/1/5
f 721/1/5 717/1/5 720/1/5
f 722/1/5 717/1/5 721/1/5
f 723/1/5 721/1/5 720/1/5
f 724/1/5 721/1/5 723/1/5
f 729/1/5 726/1/5 725/1/5
f 730/1/5 726/1/5 729/1/5
f 731/1/5 728/1/5 727/1/5
f 732/1/5 728/1/5 731/1/5
f 735/1/5 734/1/5 733/1/5
f 736/1/5 734/1/5 735/1/5
f 739/1/5 738/1/5 737/1/5
f 740/1/5 738/1/5 739/1/5
f 741/1/6 742/1/6 745/1/6
f 745/1/6 742/1/6 746/1/6
f 743/1/6 744/1/6 747/1/6
f 747/1/6 744/1/6 748/1/6
f 749/1/6 750/1/6 753/1/6
f 753/1/6 750/1/6 754/1/6
f 751/1/6 752/1/6 755/1/6
f 755/1/6 752/1/6 756/1/6
f 757/1/6 758/1/6 759/1/6
f 759/1/6 758/1/6 760/1/6
f 761/1/6 762/1/6 767/1/6
f 767/1/6 762/1/6 768/1/6
f 763/1/6 764/1/6 769/1/6
f 769/1/6 764/1/6 770/1/6
f 765/1/6 766/1/6 771/1/6
f 771/1/6 766/1/6 772/1/6
f 773/1/6 774/1/6 775/1/6
f 775/1/6 774/1/6 776/1/6
f 777/1/6 778/1/6 781/1/6
f 781/1/6 778/1/6 782/1/6
f 779/1/6 780/1/6 785/1/6
f 785/1/6 780/1/6 786/1/6
f 783/1/6 784/1/6 787/1/6
f 783/1/6 787/1/6 789/1/6
f 787/1/6 788/1/6 789/1/6
f 789/1/6 788/1/6 790/1/6
f 791/1/6 792/1/6 793/1/6
f 793/1/6 792/1/6 794/1/6
f 797/1/6 798/1/6 799/1/6
f 799/1/6 798/1/6 800/1/6
f 795/1/6 796/1/6 801/1/6
f 801/1/6 796/1/6 802/1/6
f 803/1/6 804/1/6 807/1/6
f 807/1/6 804/1/6 808/1/6
f 805/1/6 806/1/6 809/1/6
f 809/1/6 806/1/6 810/1/6
f 811/1/6 812/1/6 813/1/6
f 813/1/6 812/1/6 814/1/6
f 815/1/6 816/1/6 819/1/6
f 819/1/6 816/1/6 820/1/6
f 817/1/6 818/1/6 821/1/6
f 821/1/6 818/1/6 822/1/6
f 823/1/6 824/1/6 825/1/6
f 825/1/6 824/1/6 826/1/6
f 827/1/6 828/1/6 831/1/6
f 831/1/6 828/1/6 832/1/6
f 829/1/6 830/1/6 833/1/6
f 833/1/6 830/1/6 834/1/6
f 837/1/6 838/1/6 840/1/6
f 840/1/6 838/1/6 841/1/6
f 835/2/6 836/2/6 842/2/6
f 842/2/6 836/2/6 843/2/6
f 839/2/6 840/2/6 844/2/6
f 844/2/6 840/2/6 845/2/6
f 846/1/6 847/1/6 850/1/6
f 850/1/6 847/1/6 851/1/6
f 848/1/6 849/1/6 852/1/6
f 852/1/6 849/1/6 853/1/6
f 854/1/6 855/1/6 860/1/6
f 856/1/6 857/1/6 861/1/6
f 861/1/6 857/1/6 862/1/6
f 858/2/6 859/2/6 863/2/6
f 863/2/6 859/2/6 864/2/6
f 860/1/6 855/1/6 865/1/6
f 865/1/6 855/1/6 866/1/6
f 867/1/6 868/1/6 871/1/6
f 871/1/6 868/1/6 872/1/6
f 869/2/6 870/2/6 873/2/6
f 869/2/6 873/2/6 874/2/6
f 874/2/6 873/2/6 875/2/6
f 876/1/6 877/1/6 878/1/6
f 878/1/6 877/1/6 879/1/6
f 881/2/6 882/2/6 883/2/6
f 880/2/6 881/2/6 883/2/6
f 883/2/6 882/2/6 884/2/6
f 884/2/6 882/2/6 885/2/6
f 884/1/6 885/1/6 886/1/6
f 886/1/6 885/1/6 887/1/6
f 888/1/6 889/1/6 892/1/6
f 892/1/6 889/1/6 893/1/6
f 890/1/6 891/1/6 894/1/6
f 894/1/6 891/1/6 895/1/6
f 890/1/6 894/1/6 896/1/6
f 896/1/6 894/1/6 897/1/6
f 898/1/6 899/1/6 900/1/6
f 900/1/6 899/1/6 901/1/6
f 902/1/6 903/1/6 905/1/6
f 904/2/6 905/2/6 906/2/6
f 905/1/6 903/1/6 907/1/6
f 906/2/6 905/2/6 907/2/6
f 907/1/6 903/1/6 908/1/6
f 906/2/6 907/2/6 909/2/6
f 909/2/6 907/2/6 910/2/6
f 911/1/6 912/1/6 913/1/6
f 913/1/6 912/1/6 914/1/6
f 915/2/6 916/2/6 917/2/6
f 917/2/6 916/2/6 918/2/6
f 919/2/6 920/2/6 923/2/6
f 923/2/6 920/2/6 924/2/6
f 921/1/6 922/1/6 926/1/6
f 925/1/6 926/1/6 927/1/6
f 926/1/6 922/1/6 928/1/6
f 927/1/6 926/1/6 928/1/6
f 929/1/6 930/1/6 931/1/6
f 931/1/6 930/1/6 934/1/6
f 934/1/6 930/1/6 935/1/6
f 932/1/6 933/1/6 936/1/6
f 936/1/6 933/1/6 937/1/6
f 938/1/6 939/1/6 941/1/6
f 940/2/6 941/2/6 942/2/6
f 941/1/6 939/1/6 943/1/6
f 942/2/6 941/2/6 943/2/6
f 943/1/6 939/1/6 944/1/6
f 945/1/6 946/1/6 948/1/6
f 949/2/6 950/2/6 953/2/6
f 953/2/6 950/2/6 954/2/6
f 947/1/6 948/1/6 955/1/6
f 948/1/6 946/1/6 956/1/6
f 955/1/6 948/1/6 956/1/6
f 953/2/6 954/2/6 957/2/6
f 957/2/6 954/2/6 958/2/6
f 951/1/6 952/1/6 959/1/6
f 959/1/6 952/1/6 960/1/6
f 961/2/6 962/2/6 966/2/6
f 966/2/6 962/2/6 967/2/6
f 963/2/6 964/2/6 968/2/6
f 968/2/6 964/2/6 969/2/6
f 965/2/6 966/2/6 970/2/6
f 970/2/6 966/2/6 971/2/6
f 972/2/6 973/2/6 975/2/6
f 975/2/6 973/2/6 976/2/6
f 974/1/6 975/1/6 977/1/6
f 975/1/6 976/1/6 977/1/6
f 977/1/6 976/1/6 978/1/6
f 979/1/6 980/1/6 983/1/6
f 983/1/6 980/1/6 984/1/6
f 981/1/6 982/1/6 985/1/6
f 979/1/6 983/1/6 986/1/6
f 986/1/6 983/1/6 987/1/6
f 987/1/6 983/1/6 988/1/6
f 981/1/6 985/1/6 991/1/6
f 991/1/6 985/1/6 992/1/6
f 988/2/6 989/2/6 993/2/6
f 989/1/6 990/1/6 994/1/6
f 993/2/6 989/2/6 994/2/6
f 994/1/6 990/1/6 995/1/6
f 995/1/6 990/1/6 998/1/6
f 998/1/6 990/1/6 999/1/6
f 996/2/6 997/2/6 1000/2/6
f 1000/2/6 997/2/6 1001/2/6
f 1002/1/6 1003/1/6 1007/1/6
f 1007/1/6 1003/1/6 1008/1/6
f 1006/2/6 1007/2/6 1011/2/6
f 1007/2/6 1008/2/6 1011/2/6
f 1011/2/6 1008/2/6 1012/2/6
f 1012/2/6 1008/2/6 1013/2/6
f 1013/2/6 1008/2/6 1014/2/6
f 1009/1/6 1010/1/6 1015/1/6
f 1014/2/6 1015/2/6 1016/2/6
f 1015/1/6 1010/1/6 1017/1/6
f 1016/2/6 1015/2/6 1017/2/6
f 1004/1/6 1005/1/6 1018/1/6
f 1004/1/6 1018/1/6 1020/1/6
f 1018/1/6 1019/1/6 1020/1/6
f 1020/1/6 1019/1/6 1021/1/6
f 1017/1/6 1010/1/6 1022/1/6
f 1022/1/6 1010/1/6 1023/1/6
f 1024/1/6 1025/1/6 1028/1/6
f 1028/1/6 1029/1/6 1030/1/6
f 1026/1/6 1027/1/6 1031/1/6
f 1031/1/6 1027/1/6 1032/1/6
f 1028/1/6 1030/1/6 1033/1/6
f 1024/1/6 1028/1/6 1033/1/6
f 1030/1/6 1031/1/6 1033/1/6
f 1033/1/6 1031/1/6 1034/1/6
