# MagicaVoxel @ Ephtracy

# group
o 

# material
mtllib trolley.mtl
usemtl palette

# normals
vn -1 0 0
vn 1 0 0
vn 0 0 1
vn 0 0 -1
vn 0 -1 0
vn 0 1 0

# texcoords
vt 0.927734 0.5
vt 0.931641 0.5
vt 0.935547 0.5
vt 0.982422 0.5
vt 0.986328 0.5
vt 0.990234 0.5
vt 0.994141 0.5

# verts
v -0.7 0 0.8
v -0.7 0 0.6
v -0.7 0 0.5
v -0.7 0 0.3
v -0.7 0 0.2
v -0.7 0 -0.2
v -0.7 0 -0.3
v -0.7 0 -0.5
v -0.7 0 -0.6
v -0.7 0 -0.8
v -0.7 0.1 0.7
v -0.7 0.1 0.6
v -0.7 0.1 0.5
v -0.7 0.1 0.3
v -0.7 0.1 0.2
v -0.7 0.1 -0.2
v -0.7 0.1 -0.3
v -0.7 0.1 -0.5
v -0.7 0.1 -0.6
v -0.7 0.1 -0.7
v -0.7 0.2 0.8
v -0.7 0.2 0.7
v -0.7 0.2 0.6
v -0.7 0.2 0.5
v -0.7 0.2 0.3
v -0.7 0.2 -0.3
v -0.7 0.2 -0.5
v -0.7 0.2 -0.6
v -0.7 0.2 -0.7
v -0.7 0.2 -0.8
v -0.7 0.3 0.7
v -0.7 0.3 0.6
v -0.7 0.3 -0.6
v -0.7 0.3 -0.7
v -0.7 0.4 0.8
v -0.7 0.4 0.7
v -0.7 0.4 0.3
v -0.7 0.4 0.2
v -0.7 0.4 0.1
v -0.7 0.4 -0.1
v -0.7 0.4 -0.2
v -0.7 0.4 -0.3
v -0.7 0.4 -0.7
v -0.7 0.4 -0.8
v -0.7 0.5 0.8
v -0.7 0.5 0.7
v -0.7 0.5 0.3
v -0.7 0.5 0.2
v -0.7 0.5 0.1
v -0.7 0.5 -0.1
v -0.7 0.5 -0.2
v -0.7 0.5 -0.3
v -0.7 0.5 -0.7
v -0.7 0.5 -0.8
v -0.7 0.6 0.5
v -0.7 0.6 0.3
v -0.7 0.6 0.2
v -0.7 0.6 -0.2
v -0.7 0.6 -0.3
v -0.7 0.6 -0.5
v -0.7 0.7 0.5
v -0.7 0.7 0.3
v -0.7 0.7 0.2
v -0.7 0.7 -0.2
v -0.7 0.7 -0.3
v -0.7 0.7 -0.5
v -0.7 0.8 0.7
v -0.7 0.8 0.5
v -0.7 0.8 0.4
v -0.7 0.8 0.3
v -0.7 0.8 0.2
v -0.7 0.8 0.1
v -0.7 0.8 -0.1
v -0.7 0.8 -0.2
v -0.7 0.8 -0.3
v -0.7 0.8 -0.4
v -0.7 0.8 -0.5
v -0.7 0.8 -0.7
v -0.7 0.9 0.7
v -0.7 0.9 0.5
v -0.7 0.9 0.4
v -0.7 0.9 0.3
v -0.7 0.9 0.2
v -0.7 0.9 0.1
v -0.7 0.9 -0.1
v -0.7 0.9 -0.2
v -0.7 0.9 -0.3
v -0.7 0.9 -0.4
v -0.7 0.9 -0.5
v -0.7 0.9 -0.7
v -0.7 1 0.8
v -0.7 1 -0.8
v 0.5 0.2 0.7
v 0.5 0.2 0.6
v 0.5 0.2 -0.6
v 0.5 0.2 -0.7
v 0.5 0.6 0.7
v 0.5 0.6 -0.7
v 0.5 0.7 0.7
v 0.5 0.7 -0.7
v 0.5 0.8 0.7
v 0.5 0.8 -0.7
v 0.5 0.9 0.7
v 0.5 0.9 -0.7
v 0.5 1 0.7
v 0.5 1 0.6
v 0.5 1 -0.6
v 0.5 1 -0.7
v 0.6 0.2 0.6
v 0.6 0.2 -0.6
v 0.6 0.4 0.3
v 0.6 0.4 0.2
v 0.6 0.4 0.1
v 0.6 0.4 -0.1
v 0.6 0.4 -0.2
v 0.6 0.4 -0.3
v 0.6 0.5 0.3
v 0.6 0.5 0.2
v 0.6 0.5 0.1
v 0.6 0.5 -0.1
v 0.6 0.5 -0.2
v 0.6 0.5 -0.3
v 0.6 0.6 0.5
v 0.6 0.6 0.3
v 0.6 0.6 0.2
v 0.6 0.6 -0.2
v 0.6 0.6 -0.3
v 0.6 0.6 -0.5
v 0.6 0.7 0.5
v 0.6 0.7 0.3
v 0.6 0.7 0.2
v 0.6 0.7 -0.2
v 0.6 0.7 -0.3
v 0.6 0.7 -0.5
v 0.6 0.8 0.6
v 0.6 0.8 0.5
v 0.6 0.8 0.4
v 0.6 0.8 0.3
v 0.6 0.8 0.2
v 0.6 0.8 0.1
v 0.6 0.8 -0.1
v 0.6 0.8 -0.2
v 0.6 0.8 -0.3
v 0.6 0.8 -0.4
v 0.6 0.8 -0.5
v 0.6 0.8 -0.6
v 0.6 0.9 0.6
v 0.6 0.9 0.5
v 0.6 0.9 0.4
v 0.6 0.9 0.3
v 0.6 0.9 0.2
v 0.6 0.9 0.1
v 0.6 0.9 -0.1
v 0.6 0.9 -0.2
v 0.6 0.9 -0.3
v 0.6 0.9 -0.4
v 0.6 0.9 -0.5
v 0.6 0.9 -0.6
v 0.6 1 0.6
v 0.6 1 -0.6
v -0.6 0.2 0.6
v -0.6 0.2 -0.6
v -0.6 0.4 0.3
v -0.6 0.4 0.2
v -0.6 0.4 0.1
v -0.6 0.4 -0.1
v -0.6 0.4 -0.2
v -0.6 0.4 -0.3
v -0.6 0.5 0.3
v -0.6 0.5 0.2
v -0.6 0.5 0.1
v -0.6 0.5 -0.1
v -0.6 0.5 -0.2
v -0.6 0.5 -0.3
v -0.6 0.6 0.5
v -0.6 0.6 0.3
v -0.6 0.6 0.2
v -0.6 0.6 -0.2
v -0.6 0.6 -0.3
v -0.6 0.6 -0.5
v -0.6 0.7 0.5
v -0.6 0.7 0.3
v -0.6 0.7 0.2
v -0.6 0.7 -0.2
v -0.6 0.7 -0.3
v -0.6 0.7 -0.5
v -0.6 0.8 0.6
v -0.6 0.8 0.5
v -0.6 0.8 0.4
v -0.6 0.8 0.3
v -0.6 0.8 0.2
v -0.6 0.8 0.1
v -0.6 0.8 -0.1
v -0.6 0.8 -0.2
v -0.6 0.8 -0.3
v -0.6 0.8 -0.4
v -0.6 0.8 -0.5
v -0.6 0.8 -0.6
v -0.6 0.9 0.6
v -0.6 0.9 0.5
v -0.6 0.9 0.4
v -0.6 0.9 0.3
v -0.6 0.9 0.2
v -0.6 0.9 0.1
v -0.6 0.9 -0.1
v -0.6 0.9 -0.2
v -0.6 0.9 -0.3
v -0.6 0.9 -0.4
v -0.6 0.9 -0.5
v -0.6 0.9 -0.6
v -0.6 1 0.6
v -0.6 1 -0.6
v -0.5 0.2 0.7
v -0.5 0.2 0.6
v -0.5 0.2 -0.6
v -0.5 0.2 -0.7
v -0.5 0.6 0.7
v -0.5 0.6 -0.7
v -0.5 0.7 0.7
v -0.5 0.7 -0.7
v -0.5 0.8 0.7
v -0.5 0.8 -0.7
v -0.5 0.9 0.7
v -0.5 0.9 -0.7
v -0.5 1 0.7
v -0.5 1 0.6
v -0.5 1 -0.6
v -0.5 1 -0.7
v 0.7 0 0.8
v 0.7 0 0.6
v 0.7 0 0.5
v 0.7 0 0.3
v 0.7 0 0.2
v 0.7 0 -0.2
v 0.7 0 -0.3
v 0.7 0 -0.5
v 0.7 0 -0.6
v 0.7 0 -0.8
v 0.7 0.1 0.7
v 0.7 0.1 0.6
v 0.7 0.1 0.5
v 0.7 0.1 0.3
v 0.7 0.1 0.2
v 0.7 0.1 -0.2
v 0.7 0.1 -0.3
v 0.7 0.1 -0.5
v 0.7 0.1 -0.6
v 0.7 0.1 -0.7
v 0.7 0.2 0.8
v 0.7 0.2 0.7
v 0.7 0.2 0.6
v 0.7 0.2 0.5
v 0.7 0.2 0.3
v 0.7 0.2 -0.3
v 0.7 0.2 -0.5
v 0.7 0.2 -0.6
v 0.7 0.2 -0.7
v 0.7 0.2 -0.8
v 0.7 0.3 0.7
v 0.7 0.3 0.6
v 0.7 0.3 -0.6
v 0.7 0.3 -0.7
v 0.7 0.4 0.8
v 0.7 0.4 0.7
v 0.7 0.4 0.3
v 0.7 0.4 0.2
v 0.7 0.4 0.1
v 0.7 0.4 -0.1
v 0.7 0.4 -0.2
v 0.7 0.4 -0.3
v 0.7 0.4 -0.7
v 0.7 0.4 -0.8
v 0.7 0.5 0.8
v 0.7 0.5 0.7
v 0.7 0.5 0.3
v 0.7 0.5 0.2
v 0.7 0.5 0.1
v 0.7 0.5 -0.1
v 0.7 0.5 -0.2
v 0.7 0.5 -0.3
v 0.7 0.5 -0.7
v 0.7 0.5 -0.8
v 0.7 0.6 0.5
v 0.7 0.6 0.3
v 0.7 0.6 0.2
v 0.7 0.6 -0.2
v 0.7 0.6 -0.3
v 0.7 0.6 -0.5
v 0.7 0.7 0.5
v 0.7 0.7 0.3
v 0.7 0.7 0.2
v 0.7 0.7 -0.2
v 0.7 0.7 -0.3
v 0.7 0.7 -0.5
v 0.7 0.8 0.7
v 0.7 0.8 0.5
v 0.7 0.8 0.4
v 0.7 0.8 0.3
v 0.7 0.8 0.2
v 0.7 0.8 0.1
v 0.7 0.8 -0.1
v 0.7 0.8 -0.2
v 0.7 0.8 -0.3
v 0.7 0.8 -0.4
v 0.7 0.8 -0.5
v 0.7 0.8 -0.7
v 0.7 0.9 0.7
v 0.7 0.9 0.5
v 0.7 0.9 0.4
v 0.7 0.9 0.3
v 0.7 0.9 0.2
v 0.7 0.9 0.1
v 0.7 0.9 -0.1
v 0.7 0.9 -0.2
v 0.7 0.9 -0.3
v 0.7 0.9 -0.4
v 0.7 0.9 -0.5
v 0.7 0.9 -0.7
v 0.7 1 0.8
v 0.7 1 -0.8
v -0.7 0 0.8
v -0.7 0.2 0.8
v -0.7 0.4 0.8
v -0.7 0.5 0.8
v -0.7 1 0.8
v -0.6 0.1 0.8
v -0.6 0.2 0.8
v -0.6 0.3 0.8
v -0.6 0.4 0.8
v -0.6 0.5 0.8
v -0.6 0.8 0.8
v -0.6 0.9 0.8
v -0.5 0.1 0.8
v -0.5 0.2 0.8
v -0.5 0.3 0.8
v -0.5 0.6 0.8
v -0.5 0.7 0.8
v -0.4 0.2 0.8
v -0.4 0.3 0.8
v -0.4 0.8 0.8
v -0.4 0.9 0.8
v -0.3 0.2 0.8
v -0.3 0.3 0.8
v -0.3 0.4 0.8
v -0.3 0.5 0.8
v -0.3 0.6 0.8
v -0.3 0.7 0.8
v -0.3 0.8 0.8
v -0.3 0.9 0.8
v -0.2 0.2 0.8
v -0.2 0.3 0.8
v -0.2 0.4 0.8
v -0.2 0.5 0.8
v -0.2 0.6 0.8
v -0.2 0.7 0.8
v -0.2 0.8 0.8
v -0.2 0.9 0.8
v -0.1 0.2 0.8
v -0.1 0.3 0.8
v -0.1 0.4 0.8
v -0.1 0.5 0.8
v -0.1 0.6 0.8
v -0.1 0.7 0.8
v -0.1 0.8 0.8
v -0.1 0.9 0.8
v 0.1 0.2 0.8
v 0.1 0.3 0.8
v 0.1 0.4 0.8
v 0.1 0.5 0.8
v 0.1 0.6 0.8
v 0.1 0.7 0.8
v 0.1 0.8 0.8
v 0.1 0.9 0.8
v 0.2 0.2 0.8
v 0.2 0.3 0.8
v 0.2 0.4 0.8
v 0.2 0.5 0.8
v 0.2 0.6 0.8
v 0.2 0.7 0.8
v 0.2 0.8 0.8
v 0.2 0.9 0.8
v 0.3 0.2 0.8
v 0.3 0.3 0.8
v 0.3 0.4 0.8
v 0.3 0.5 0.8
v 0.3 0.6 0.8
v 0.3 0.7 0.8
v 0.3 0.8 0.8
v 0.3 0.9 0.8
v 0.4 0.2 0.8
v 0.4 0.3 0.8
v 0.4 0.8 0.8
v 0.4 0.9 0.8
v 0.5 0.1 0.8
v 0.5 0.2 0.8
v 0.5 0.3 0.8
v 0.5 0.6 0.8
v 0.5 0.7 0.8
v 0.6 0.1 0.8
v 0.6 0.2 0.8
v 0.6 0.3 0.8
v 0.6 0.4 0.8
v 0.6 0.5 0.8
v 0.6 0.8 0.8
v 0.6 0.9 0.8
v 0.7 0 0.8
v 0.7 0.2 0.8
v 0.7 0.4 0.8
v 0.7 0.5 0.8
v 0.7 1 0.8
v -0.6 0.2 -0.6
v -0.6 0.8 -0.6
v -0.6 0.9 -0.6
v -0.6 1 -0.6
v -0.5 0.2 -0.6
v -0.5 1 -0.6
v 0.5 0.2 -0.6
v 0.5 1 -0.6
v 0.6 0.2 -0.6
v 0.6 0.8 -0.6
v 0.6 0.9 -0.6
v 0.6 1 -0.6
v -0.5 0.2 -0.7
v -0.5 0.6 -0.7
v -0.5 0.7 -0.7
v -0.5 0.8 -0.7
v -0.5 0.9 -0.7
v -0.5 1 -0.7
v -0.4 0.2 -0.7
v -0.4 0.3 -0.7
v -0.4 0.8 -0.7
v -0.4 0.9 -0.7
v -0.3 0.2 -0.7
v -0.3 0.3 -0.7
v -0.3 0.4 -0.7
v -0.3 0.5 -0.7
v -0.3 0.6 -0.7
v -0.3 0.7 -0.7
v -0.3 0.8 -0.7
v -0.3 0.9 -0.7
v -0.2 0.2 -0.7
v -0.2 0.3 -0.7
v -0.2 0.4 -0.7
v -0.2 0.5 -0.7
v -0.2 0.6 -0.7
v -0.2 0.7 -0.7
v -0.2 0.8 -0.7
v -0.2 0.9 -0.7
v -0.1 0.2 -0.7
v -0.1 0.3 -0.7
v -0.1 0.4 -0.7
v -0.1 0.5 -0.7
v -0.1 0.6 -0.7
v -0.1 0.7 -0.7
v -0.1 0.8 -0.7
v -0.1 0.9 -0.7
v 0.1 0.2 -0.7
v 0.1 0.3 -0.7
v 0.1 0.4 -0.7
v 0.1 0.5 -0.7
v 0.1 0.6 -0.7
v 0.1 0.7 -0.7
v 0.1 0.8 -0.7
v 0.1 0.9 -0.7
v 0.2 0.2 -0.7
v 0.2 0.3 -0.7
v 0.2 0.4 -0.7
v 0.2 0.5 -0.7
v 0.2 0.6 -0.7
v 0.2 0.7 -0.7
v 0.2 0.8 -0.7
v 0.2 0.9 -0.7
v 0.3 0.2 -0.7
v 0.3 0.3 -0.7
v 0.3 0.4 -0.7
v 0.3 0.5 -0.7
v 0.3 0.6 -0.7
v 0.3 0.7 -0.7
v 0.3 0.8 -0.7
v 0.3 0.9 -0.7
v 0.4 0.2 -0.7
v 0.4 0.3 -0.7
v 0.4 0.8 -0.7
v 0.4 0.9 -0.7
v 0.5 0.2 -0.7
v 0.5 0.6 -0.7
v 0.5 0.7 -0.7
v 0.5 0.8 -0.7
v 0.5 0.9 -0.7
v 0.5 1 -0.7
v -0.5 0.2 0.7
v -0.5 0.6 0.7
v -0.5 0.7 0.7
v -0.5 0.8 0.7
v -0.5 0.9 0.7
v -0.5 1 0.7
v -0.4 0.2 0.7
v -0.4 0.3 0.7
v -0.4 0.8 0.7
v -0.4 0.9 0.7
v -0.3 0.2 0.7
v -0.3 0.3 0.7
v -0.3 0.4 0.7
v -0.3 0.5 0.7
v -0.3 0.6 0.7
v -0.3 0.7 0.7
v -0.3 0.8 0.7
v -0.3 0.9 0.7
v -0.2 0.2 0.7
v -0.2 0.3 0.7
v -0.2 0.4 0.7
v -0.2 0.5 0.7
v -0.2 0.6 0.7
v -0.2 0.7 0.7
v -0.2 0.8 0.7
v -0.2 0.9 0.7
v -0.1 0.2 0.7
v -0.1 0.3 0.7
v -0.1 0.4 0.7
v -0.1 0.5 0.7
v -0.1 0.6 0.7
v -0.1 0.7 0.7
v -0.1 0.8 0.7
v -0.1 0.9 0.7
v 0.1 0.2 0.7
v 0.1 0.3 0.7
v 0.1 0.4 0.7
v 0.1 0.5 0.7
v 0.1 0.6 0.7
v 0.1 0.7 0.7
v 0.1 0.8 0.7
v 0.1 0.9 0.7
v 0.2 0.2 0.7
v 0.2 0.3 0.7
v 0.2 0.4 0.7
v 0.2 0.5 0.7
v 0.2 0.6 0.7
v 0.2 0.7 0.7
v 0.2 0.8 0.7
v 0.2 0.9 0.7
v 0.3 0.2 0.7
v 0.3 0.3 0.7
v 0.3 0.4 0.7
v 0.3 0.5 0.7
v 0.3 0.6 0.7
v 0.3 0.7 0.7
v 0.3 0.8 0.7
v 0.3 0.9 0.7
v 0.4 0.2 0.7
v 0.4 0.3 0.7
v 0.4 0.8 0.7
v 0.4 0.9 0.7
v 0.5 0.2 0.7
v 0.5 0.6 0.7
v 0.5 0.7 0.7
v 0.5 0.8 0.7
v 0.5 0.9 0.7
v 0.5 1 0.7
v -0.6 0.2 0.6
v -0.6 0.8 0.6
v -0.6 0.9 0.6
v -0.6 1 0.6
v -0.5 0.2 0.6
v -0.5 1 0.6
v 0.5 0.2 0.6
v 0.5 1 0.6
v 0.6 0.2 0.6
v 0.6 0.8 0.6
v 0.6 0.9 0.6
v 0.6 1 0.6
v -0.7 0 -0.8
v -0.7 0.2 -0.8
v -0.7 0.4 -0.8
v -0.7 0.5 -0.8
v -0.7 1 -0.8
v -0.6 0.1 -0.8
v -0.6 0.2 -0.8
v -0.6 0.3 -0.8
v -0.6 0.4 -0.8
v -0.6 0.5 -0.8
v -0.6 0.8 -0.8
v -0.6 0.9 -0.8
v -0.5 0.1 -0.8
v -0.5 0.2 -0.8
v -0.5 0.3 -0.8
v -0.5 0.6 -0.8
v -0.5 0.7 -0.8
v -0.4 0.2 -0.8
v -0.4 0.3 -0.8
v -0.4 0.8 -0.8
v -0.4 0.9 -0.8
v -0.3 0.2 -0.8
v -0.3 0.3 -0.8
v -0.3 0.4 -0.8
v -0.3 0.5 -0.8
v -0.3 0.6 -0.8
v -0.3 0.7 -0.8
v -0.3 0.8 -0.8
v -0.3 0.9 -0.8
v -0.2 0.2 -0.8
v -0.2 0.3 -0.8
v -0.2 0.4 -0.8
v -0.2 0.5 -0.8
v -0.2 0.6 -0.8
v -0.2 0.7 -0.8
v -0.2 0.8 -0.8
v -0.2 0.9 -0.8
v -0.1 0.2 -0.8
v -0.1 0.3 -0.8
v -0.1 0.4 -0.8
v -0.1 0.5 -0.8
v -0.1 0.6 -0.8
v -0.1 0.7 -0.8
v -0.1 0.8 -0.8
v -0.1 0.9 -0.8
v 0.1 0.2 -0.8
v 0.1 0.3 -0.8
v 0.1 0.4 -0.8
v 0.1 0.5 -0.8
v 0.1 0.6 -0.8
v 0.1 0.7 -0.8
v 0.1 0.8 -0.8
v 0.1 0.9 -0.8
v 0.2 0.2 -0.8
v 0.2 0.3 -0.8
v 0.2 0.4 -0.8
v 0.2 0.5 -0.8
v 0.2 0.6 -0.8
v 0.2 0.7 -0.8
v 0.2 0.8 -0.8
v 0.2 0.9 -0.8
v 0.3 0.2 -0.8
v 0.3 0.3 -0.8
v 0.3 0.4 -0.8
v 0.3 0.5 -0.8
v 0.3 0.6 -0.8
v 0.3 0.7 -0.8
v 0.3 0.8 -0.8
v 0.3 0.9 -0.8
v 0.4 0.2 -0.8
v 0.4 0.3 -0.8
v 0.4 0.8 -0.8
v 0.4 0.9 -0.8
v 0.5 0.1 -0.8
v 0.5 0.2 -0.8
v 0.5 0.3 -0.8
v 0.5 0.6 -0.8
v 0.5 0.7 -0.8
v 0.6 0.1 -0.8
v 0.6 0.2 -0.8
v 0.6 0.3 -0.8
v 0.6 0.4 -0.8
v 0.6 0.5 -0.8
v 0.6 0.8 -0.8
v 0.6 0.9 -0.8
v 0.7 0 -0.8
v 0.7 0.2 -0.8
v 0.7 0.4 -0.8
v 0.7 0.5 -0.8
v 0.7 1 -0.8
v -0.7 0 0.8
v 0.7 0 0.8
v -0.7 0 0.6
v -0.6 0 0.6
v 0.6 0 0.6
v 0.7 0 0.6
v -0.7 0 0.5
v -0.6 0 0.5
v 0.6 0 0.5
v 0.7 0 0.5
v -0.7 0 0.3
v -0.6 0 0.3
v 0.6 0 0.3
v 0.7 0 0.3
v -0.7 0 0.2
v -0.6 0 0.2
v 0.6 0 0.2
v 0.7 0 0.2
v -0.7 0 -0.2
v -0.6 0 -0.2
v 0.6 0 -0.2
v 0.7 0 -0.2
v -0.7 0 -0.3
v -0.6 0 -0.3
v 0.6 0 -0.3
v 0.7 0 -0.3
v -0.7 0 -0.5
v -0.6 0 -0.5
v 0.6 0 -0.5
v 0.7 0 -0.5
v -0.7 0 -0.6
v -0.6 0 -0.6
v 0.6 0 -0.6
v 0.7 0 -0.6
v -0.7 0 -0.8
v 0.7 0 -0.8
v -0.5 0.2 0.7
v -0.4 0.2 0.7
v -0.3 0.2 0.7
v -0.2 0.2 0.7
v -0.1 0.2 0.7
v 0.1 0.2 0.7
v 0.2 0.2 0.7
v 0.3 0.2 0.7
v 0.4 0.2 0.7
v 0.5 0.2 0.7
v -0.6 0.2 0.6
v -0.5 0.2 0.6
v 0.5 0.2 0.6
v 0.6 0.2 0.6
v -0.6 0.2 -0.6
v -0.5 0.2 -0.6
v 0.5 0.2 -0.6
v 0.6 0.2 -0.6
v -0.5 0.2 -0.7
v -0.4 0.2 -0.7
v -0.3 0.2 -0.7
v -0.2 0.2 -0.7
v -0.1 0.2 -0.7
v 0.1 0.2 -0.7
v 0.2 0.2 -0.7
v 0.3 0.2 -0.7
v 0.4 0.2 -0.7
v 0.5 0.2 -0.7
v -0.7 1 0.8
v 0.7 1 0.8
v -0.5 1 0.7
v 0.5 1 0.7
v -0.6 1 0.6
v -0.5 1 0.6
v 0.5 1 0.6
v 0.6 1 0.6
v -0.6 1 -0.6
v -0.5 1 -0.6
v 0.5 1 -0.6
v 0.6 1 -0.6
v -0.5 1 -0.7
v 0.5 1 -0.7
v -0.7 1 -0.8
v 0.7 1 -0.8

# faces
f 11/3/1 2/3/1 1/3/1
f 12/6/1 3/6/1 2/6/1
f 12/3/1 2/3/1 11/3/1
f 13/7/1 4/7/1 3/7/1
f 13/6/1 3/6/1 12/6/1
f 14/6/1 5/6/1 4/6/1
f 14/7/1 4/7/1 13/7/1
f 15/3/1 6/3/1 5/3/1
f 15/6/1 5/6/1 14/6/1
f 16/6/1 7/6/1 6/6/1
f 16/3/1 6/3/1 15/3/1
f 17/7/1 8/7/1 7/7/1
f 17/6/1 7/6/1 16/6/1
f 18/6/1 9/6/1 8/6/1
f 18/7/1 8/7/1 17/7/1
f 19/3/1 10/3/1 9/3/1
f 19/6/1 9/6/1 18/6/1
f 20/3/1 10/3/1 19/3/1
f 21/3/1 11/3/1 1/3/1
f 22/2/1 12/2/1 11/2/1
f 22/3/1 11/3/1 21/3/1
f 23/1/1 13/1/1 12/1/1
f 23/2/1 12/2/1 22/2/1
f 24/6/1 14/6/1 13/6/1
f 24/1/1 13/1/1 23/1/1
f 25/1/1 15/1/1 14/1/1
f 25/6/1 14/6/1 24/6/1
f 25/1/1 16/1/1 15/1/1
f 25/1/1 17/1/1 16/1/1
f 26/6/1 18/6/1 17/6/1
f 26/1/1 17/1/1 25/1/1
f 27/1/1 19/1/1 18/1/1
f 27/6/1 18/6/1 26/6/1
f 28/2/1 20/2/1 19/2/1
f 28/1/1 19/1/1 27/1/1
f 29/3/1 10/3/1 20/3/1
f 29/2/1 20/2/1 28/2/1
f 30/3/1 10/3/1 29/3/1
f 31/2/1 22/2/1 21/2/1
f 31/1/1 23/1/1 22/1/1
f 32/4/1 25/4/1 24/4/1
f 32/1/1 23/1/1 31/1/1
f 32/4/1 28/4/1 27/4/1
f 32/4/1 24/4/1 23/4/1
f 32/4/1 26/4/1 25/4/1
f 32/4/1 27/4/1 26/4/1
f 33/1/1 29/1/1 28/1/1
f 33/4/1 28/4/1 32/4/1
f 34/2/1 30/2/1 29/2/1
f 34/1/1 29/1/1 33/1/1
f 35/2/1 31/2/1 21/2/1
f 36/4/1 32/4/1 31/4/1
f 36/2/1 31/2/1 35/2/1
f 36/4/1 33/4/1 32/4/1
f 36/4/1 34/4/1 33/4/1
f 37/4/1 34/4/1 36/4/1
f 38/4/1 34/4/1 37/4/1
f 39/4/1 34/4/1 38/4/1
f 40/4/1 34/4/1 39/4/1
f 41/4/1 34/4/1 40/4/1
f 42/4/1 34/4/1 41/4/1
f 43/2/1 30/2/1 34/2/1
f 43/4/1 34/4/1 42/4/1
f 44/2/1 30/2/1 43/2/1
f 45/1/1 36/1/1 35/1/1
f 46/4/1 37/4/1 36/4/1
f 46/1/1 36/1/1 45/1/1
f 47/5/1 38/5/1 37/5/1
f 47/4/1 37/4/1 46/4/1
f 48/4/1 39/4/1 38/4/1
f 48/5/1 38/5/1 47/5/1
f 49/5/1 40/5/1 39/5/1
f 49/4/1 39/4/1 48/4/1
f 50/4/1 41/4/1 40/4/1
f 50/5/1 40/5/1 49/5/1
f 51/5/1 42/5/1 41/5/1
f 51/4/1 41/4/1 50/4/1
f 52/4/1 43/4/1 42/4/1
f 52/5/1 42/5/1 51/5/1
f 53/1/1 44/1/1 43/1/1
f 53/4/1 43/4/1 52/4/1
f 54/1/1 44/1/1 53/1/1
f 55/4/1 50/4/1 49/4/1
f 55/4/1 46/4/1 45/4/1
f 55/4/1 54/4/1 53/4/1
f 55/4/1 53/4/1 52/4/1
f 55/4/1 52/4/1 51/4/1
f 55/4/1 51/4/1 50/4/1
f 55/4/1 49/4/1 48/4/1
f 55/4/1 48/4/1 47/4/1
f 55/4/1 47/4/1 46/4/1
f 56/4/1 54/4/1 55/4/1
f 57/4/1 54/4/1 56/4/1
f 58/4/1 54/4/1 57/4/1
f 59/4/1 54/4/1 58/4/1
f 60/4/1 54/4/1 59/4/1
f 61/4/1 55/4/1 45/4/1
f 61/5/1 56/5/1 55/5/1
f 62/4/1 57/4/1 56/4/1
f 62/5/1 56/5/1 61/5/1
f 63/5/1 58/5/1 57/5/1
f 63/4/1 57/4/1 62/4/1
f 64/4/1 59/4/1 58/4/1
f 64/5/1 58/5/1 63/5/1
f 65/5/1 60/5/1 59/5/1
f 65/4/1 59/4/1 64/4/1
f 66/4/1 54/4/1 60/4/1
f 66/5/1 60/5/1 65/5/1
f 67/4/1 65/4/1 64/4/1
f 67/4/1 64/4/1 63/4/1
f 67/4/1 66/4/1 65/4/1
f 67/4/1 63/4/1 62/4/1
f 67/4/1 62/4/1 61/4/1
f 67/4/1 61/4/1 45/4/1
f 68/4/1 66/4/1 67/4/1
f 69/4/1 66/4/1 68/4/1
f 70/4/1 66/4/1 69/4/1
f 71/4/1 66/4/1 70/4/1
f 72/4/1 66/4/1 71/4/1
f 73/4/1 66/4/1 72/4/1
f 74/4/1 66/4/1 73/4/1
f 75/4/1 66/4/1 74/4/1
f 76/4/1 66/4/1 75/4/1
f 77/4/1 54/4/1 66/4/1
f 77/4/1 66/4/1 76/4/1
f 78/4/1 54/4/1 77/4/1
f 79/4/1 67/4/1 45/4/1
f 79/5/1 68/5/1 67/5/1
f 80/4/1 69/4/1 68/4/1
f 80/5/1 68/5/1 79/5/1
f 81/5/1 70/5/1 69/5/1
f 81/4/1 69/4/1 80/4/1
f 82/4/1 71/4/1 70/4/1
f 82/5/1 70/5/1 81/5/1
f 83/5/1 72/5/1 71/5/1
f 83/4/1 71/4/1 82/4/1
f 84/4/1 73/4/1 72/4/1
f 84/5/1 72/5/1 83/5/1
f 85/5/1 74/5/1 73/5/1
f 85/4/1 73/4/1 84/4/1
f 86/4/1 75/4/1 74/4/1
f 86/5/1 74/5/1 85/5/1
f 87/5/1 76/5/1 75/5/1
f 87/4/1 75/4/1 86/4/1
f 88/4/1 77/4/1 76/4/1
f 88/5/1 76/5/1 87/5/1
f 89/5/1 78/5/1 77/5/1
f 89/4/1 77/4/1 88/4/1
f 90/4/1 54/4/1 78/4/1
f 90/5/1 78/5/1 89/5/1
f 91/4/1 86/4/1 85/4/1
f 91/4/1 89/4/1 88/4/1
f 91/4/1 90/4/1 89/4/1
f 91/4/1 87/4/1 86/4/1
f 91/4/1 85/4/1 84/4/1
f 91/4/1 84/4/1 83/4/1
f 91/4/1 83/4/1 82/4/1
f 91/4/1 82/4/1 81/4/1
f 91/4/1 81/4/1 80/4/1
f 91/4/1 80/4/1 79/4/1
f 91/4/1 79/4/1 45/4/1
f 91/4/1 88/4/1 87/4/1
f 92/4/1 54/4/1 90/4/1
f 92/4/1 90/4/1 91/4/1
f 97/4/1 94/4/1 93/4/1
f 98/4/1 96/4/1 95/4/1
f 99/4/1 94/4/1 97/4/1
f 100/4/1 98/4/1 95/4/1
f 101/4/1 94/4/1 99/4/1
f 102/4/1 100/4/1 95/4/1
f 103/4/1 94/4/1 101/4/1
f 104/4/1 102/4/1 95/4/1
f 105/4/1 94/4/1 103/4/1
f 106/4/1 94/4/1 105/4/1
f 107/4/1 104/4/1 95/4/1
f 108/4/1 104/4/1 107/4/1
f 111/4/1 110/4/1 109/4/1
f 112/4/1 110/4/1 111/4/1
f 113/4/1 110/4/1 112/4/1
f 114/4/1 110/4/1 113/4/1
f 115/4/1 110/4/1 114/4/1
f 116/4/1 110/4/1 115/4/1
f 117/4/1 111/4/1 109/4/1
f 117/5/1 112/5/1 111/5/1
f 118/4/1 113/4/1 112/4/1
f 118/5/1 112/5/1 117/5/1
f 119/5/1 114/5/1 113/5/1
f 119/4/1 113/4/1 118/4/1
f 120/4/1 115/4/1 114/4/1
f 120/5/1 114/5/1 119/5/1
f 121/5/1 116/5/1 115/5/1
f 121/4/1 115/4/1 120/4/1
f 122/4/1 110/4/1 116/4/1
f 122/5/1 116/5/1 121/5/1
f 123/4/1 121/4/1 120/4/1
f 123/4/1 120/4/1 119/4/1
f 123/4/1 122/4/1 121/4/1
f 123/4/1 119/4/1 118/4/1
f 123/4/1 118/4/1 117/4/1
f 123/4/1 117/4/1 109/4/1
f 124/4/1 122/4/1 123/4/1
f 125/4/1 122/4/1 124/4/1
f 126/4/1 122/4/1 125/4/1
f 127/4/1 110/4/1 122/4/1
f 127/4/1 122/4/1 126/4/1
f 128/4/1 110/4/1 127/4/1
f 129/4/1 123/4/1 109/4/1
f 129/5/1 124/5/1 123/5/1
f 130/4/1 125/4/1 124/4/1
f 130/5/1 124/5/1 129/5/1
f 131/5/1 126/5/1 125/5/1
f 131/4/1 125/4/1 130/4/1
f 132/4/1 127/4/1 126/4/1
f 132/5/1 126/5/1 131/5/1
f 133/5/1 128/5/1 127/5/1
f 133/4/1 127/4/1 132/4/1
f 134/4/1 110/4/1 128/4/1
f 134/5/1 128/5/1 133/5/1
f 135/4/1 130/4/1 129/4/1
f 135/4/1 133/4/1 132/4/1
f 135/4/1 134/4/1 133/4/1
f 135/4/1 131/4/1 130/4/1
f 135/4/1 129/4/1 109/4/1
f 135/4/1 132/4/1 131/4/1
f 136/4/1 134/4/1 135/4/1
f 137/4/1 134/4/1 136/4/1
f 138/4/1 134/4/1 137/4/1
f 139/4/1 134/4/1 138/4/1
f 140/4/1 134/4/1 139/4/1
f 141/4/1 134/4/1 140/4/1
f 142/4/1 134/4/1 141/4/1
f 143/4/1 134/4/1 142/4/1
f 144/4/1 134/4/1 143/4/1
f 145/4/1 110/4/1 134/4/1
f 145/4/1 134/4/1 144/4/1
f 146/4/1 110/4/1 145/4/1
f 147/5/1 136/5/1 135/5/1
f 148/4/1 137/4/1 136/4/1
f 148/5/1 136/5/1 147/5/1
f 149/5/1 138/5/1 137/5/1
f 149/4/1 137/4/1 148/4/1
f 150/4/1 139/4/1 138/4/1
f 150/5/1 138/5/1 149/5/1
f 151/5/1 140/5/1 139/5/1
f 151/4/1 139/4/1 150/4/1
f 152/4/1 141/4/1 140/4/1
f 152/5/1 140/5/1 151/5/1
f 153/5/1 142/5/1 141/5/1
f 153/4/1 141/4/1 152/4/1
f 154/4/1 143/4/1 142/4/1
f 154/5/1 142/5/1 153/5/1
f 155/5/1 144/5/1 143/5/1
f 155/4/1 143/4/1 154/4/1
f 156/4/1 145/4/1 144/4/1
f 156/5/1 144/5/1 155/5/1
f 157/5/1 146/5/1 145/5/1
f 157/4/1 145/4/1 156/4/1
f 158/5/1 146/5/1 157/5/1
f 159/4/1 154/4/1 153/4/1
f 159/4/1 148/4/1 147/4/1
f 159/4/1 158/4/1 157/4/1
f 159/4/1 157/4/1 156/4/1
f 159/4/1 156/4/1 155/4/1
f 159/4/1 155/4/1 154/4/1
f 159/4/1 153/4/1 152/4/1
f 159/4/1 152/4/1 151/4/1
f 159/4/1 151/4/1 150/4/1
f 159/4/1 150/4/1 149/4/1
f 159/4/1 149/4/1 148/4/1
f 160/4/1 158/4/1 159/4/1
f 161/4/2 162/4/2 163/4/2
f 163/4/2 162/4/2 164/4/2
f 164/4/2 162/4/2 165/4/2
f 165/4/2 162/4/2 166/4/2
f 166/4/2 162/4/2 167/4/2
f 167/4/2 162/4/2 168/4/2
f 161/4/2 163/4/2 169/4/2
f 163/5/2 164/5/2 169/5/2
f 164/4/2 165/4/2 170/4/2
f 169/5/2 164/5/2 170/5/2
f 165/5/2 166/5/2 171/5/2
f 170/4/2 165/4/2 171/4/2
f 166/4/2 167/4/2 172/4/2
f 171/5/2 166/5/2 172/5/2
f 167/5/2 168/5/2 173/5/2
f 172/4/2 167/4/2 173/4/2
f 168/4/2 162/4/2 174/4/2
f 173/5/2 168/5/2 174/5/2
f 172/4/2 173/4/2 175/4/2
f 171/4/2 172/4/2 175/4/2
f 173/4/2 174/4/2 175/4/2
f 170/4/2 171/4/2 175/4/2
f 169/4/2 170/4/2 175/4/2
f 161/4/2 169/4/2 175/4/2
f 175/4/2 174/4/2 176/4/2
f 176/4/2 174/4/2 177/4/2
f 177/4/2 174/4/2 178/4/2
f 174/4/2 162/4/2 179/4/2
f 178/4/2 174/4/2 179/4/2
f 179/4/2 162/4/2 180/4/2
f 161/4/2 175/4/2 181/4/2
f 175/5/2 176/5/2 181/5/2
f 176/4/2 177/4/2 182/4/2
f 181/5/2 176/5/2 182/5/2
f 177/5/2 178/5/2 183/5/2
f 182/4/2 177/4/2 183/4/2
f 178/4/2 179/4/2 184/4/2
f 183/5/2 178/5/2 184/5/2
f 179/5/2 180/5/2 185/5/2
f 184/4/2 179/4/2 185/4/2
f 180/4/2 162/4/2 186/4/2
f 185/5/2 180/5/2 186/5/2
f 181/4/2 182/4/2 187/4/2
f 184/4/2 185/4/2 187/4/2
f 185/4/2 186/4/2 187/4/2
f 182/4/2 183/4/2 187/4/2
f 161/4/2 181/4/2 187/4/2
f 183/4/2 184/4/2 187/4/2
f 187/4/2 186/4/2 188/4/2
f 188/4/2 186/4/2 189/4/2
f 189/4/2 186/4/2 190/4/2
f 190/4/2 186/4/2 191/4/2
f 191/4/2 186/4/2 192/4/2
f 192/4/2 186/4/2 193/4/2
f 193/4/2 186/4/2 194/4/2
f 194/4/2 186/4/2 195/4/2
f 195/4/2 186/4/2 196/4/2
f 186/4/2 162/4/2 197/4/2
f 196/4/2 186/4/2 197/4/2
f 197/4/2 162/4/2 198/4/2
f 187/5/2 188/5/2 199/5/2
f 188/4/2 189/4/2 200/4/2
f 199/5/2 188/5/2 200/5/2
f 189/5/2 190/5/2 201/5/2
f 200/4/2 189/4/2 201/4/2
f 190/4/2 191/4/2 202/4/2
f 201/5/2 190/5/2 202/5/2
f 191/5/2 192/5/2 203/5/2
f 202/4/2 191/4/2 203/4/2
f 192/4/2 193/4/2 204/4/2
f 203/5/2 192/5/2 204/5/2
f 193/5/2 194/5/2 205/5/2
f 204/4/2 193/4/2 205/4/2
f 194/4/2 195/4/2 206/4/2
f 205/5/2 194/5/2 206/5/2
f 195/5/2 196/5/2 207/5/2
f 206/4/2 195/4/2 207/4/2
f 196/4/2 197/4/2 208/4/2
f 207/5/2 196/5/2 208/5/2
f 197/5/2 198/5/2 209/5/2
f 208/4/2 197/4/2 209/4/2
f 209/5/2 198/5/2 210/5/2
f 205/4/2 206/4/2 211/4/2
f 199/4/2 200/4/2 211/4/2
f 209/4/2 210/4/2 211/4/2
f 208/4/2 209/4/2 211/4/2
f 207/4/2 208/4/2 211/4/2
f 206/4/2 207/4/2 211/4/2
f 204/4/2 205/4/2 211/4/2
f 203/4/2 204/4/2 211/4/2
f 202/4/2 203/4/2 211/4/2
f 201/4/2 202/4/2 211/4/2
f 200/4/2 201/4/2 211/4/2
f 211/4/2 210/4/2 212/4/2
f 213/4/2 214/4/2 217/4/2
f 215/4/2 216/4/2 218/4/2
f 217/4/2 214/4/2 219/4/2
f 215/4/2 218/4/2 220/4/2
f 219/4/2 214/4/2 221/4/2
f 215/4/2 220/4/2 222/4/2
f 221/4/2 214/4/2 223/4/2
f 215/4/2 222/4/2 224/4/2
f 223/4/2 214/4/2 225/4/2
f 225/4/2 214/4/2 226/4/2
f 215/4/2 224/4/2 227/4/2
f 227/4/2 224/4/2 228/4/2
f 229/3/2 230/3/2 239/3/2
f 230/6/2 231/6/2 240/6/2
f 239/3/2 230/3/2 240/3/2
f 231/7/2 232/7/2 241/7/2
f 240/6/2 231/6/2 241/6/2
f 232/6/2 233/6/2 242/6/2
f 241/7/2 232/7/2 242/7/2
f 233/3/2 234/3/2 243/3/2
f 242/6/2 233/6/2 243/6/2
f 234/6/2 235/6/2 244/6/2
f 243/3/2 234/3/2 244/3/2
f 235/7/2 236/7/2 245/7/2
f 244/6/2 235/6/2 245/6/2
f 236/6/2 237/6/2 246/6/2
f 245/7/2 236/7/2 246/7/2
f 237/3/2 238/3/2 247/3/2
f 246/6/2 237/6/2 247/6/2
f 247/3/2 238/3/2 248/3/2
f 229/3/2 239/3/2 249/3/2
f 239/2/2 240/2/2 250/2/2
f 249/3/2 239/3/2 250/3/2
f 240/1/2 241/1/2 251/1/2
f 250/2/2 240/2/2 251/2/2
f 241/6/2 242/6/2 252/6/2
f 251/1/2 241/1/2 252/1/2
f 242/1/2 243/1/2 253/1/2
f 252/6/2 242/6/2 253/6/2
f 243/1/2 244/1/2 253/1/2
f 244/1/2 245/1/2 253/1/2
f 245/6/2 246/6/2 254/6/2
f 253/1/2 245/1/2 254/1/2
f 246/1/2 247/1/2 255/1/2
f 254/6/2 246/6/2 255/6/2
f 247/2/2 248/2/2 256/2/2
f 255/1/2 247/1/2 256/1/2
f 248/3/2 238/3/2 257/3/2
f 256/2/2 248/2/2 257/2/2
f 257/3/2 238/3/2 258/3/2
f 249/2/2 250/2/2 259/2/2
f 250/1/2 251/1/2 259/1/2
f 252/4/2 253/4/2 260/4/2
f 259/1/2 251/1/2 260/1/2
f 255/4/2 256/4/2 260/4/2
f 251/4/2 252/4/2 260/4/2
f 253/4/2 254/4/2 260/4/2
f 254/4/2 255/4/2 260/4/2
f 256/1/2 257/1/2 261/1/2
f 260/4/2 256/4/2 261/4/2
f 257/2/2 258/2/2 262/2/2
f 261/1/2 257/1/2 262/1/2
f 249/2/2 259/2/2 263/2/2
f 259/4/2 260/4/2 264/4/2
f 263/2/2 259/2/2 264/2/2
f 260/4/2 261/4/2 264/4/2
f 261/4/2 262/4/2 264/4/2
f 264/4/2 262/4/2 265/4/2
f 265/4/2 262/4/2 266/4/2
f 266/4/2 262/4/2 267/4/2
f 267/4/2 262/4/2 268/4/2
f 268/4/2 262/4/2 269/4/2
f 269/4/2 262/4/2 270/4/2
f 262/2/2 258/2/2 271/2/2
f 270/4/2 262/4/2 271/4/2
f 271/2/2 258/2/2 272/2/2
f 263/1/2 264/1/2 273/1/2
f 264/4/2 265/4/2 274/4/2
f 273/1/2 264/1/2 274/1/2
f 265/5/2 266/5/2 275/5/2
f 274/4/2 265/4/2 275/4/2
f 266/4/2 267/4/2 276/4/2
f 275/5/2 266/5/2 276/5/2
f 267/5/2 268/5/2 277/5/2
f 276/4/2 267/4/2 277/4/2
f 268/4/2 269/4/2 278/4/2
f 277/5/2 268/5/2 278/5/2
f 269/5/2 270/5/2 279/5/2
f 278/4/2 269/4/2 279/4/2
f 270/4/2 271/4/2 280/4/2
f 279/5/2 270/5/2 280/5/2
f 271/1/2 272/1/2 281/1/2
f 280/4/2 271/4/2 281/4/2
f 281/1/2 272/1/2 282/1/2
f 277/4/2 278/4/2 283/4/2
f 273/4/2 274/4/2 283/4/2
f 281/4/2 282/4/2 283/4/2
f 280/4/2 281/4/2 283/4/2
f 279/4/2 280/4/2 283/4/2
f 278/4/2 279/4/2 283/4/2
f 276/4/2 277/4/2 283/4/2
f 275/4/2 276/4/2 283/4/2
f 274/4/2 275/4/2 283/4/2
f 283/4/2 282/4/2 284/4/2
f 284/4/2 282/4/2 285/4/2
f 285/4/2 282/4/2 286/4/2
f 286/4/2 282/4/2 287/4/2
f 287/4/2 282/4/2 288/4/2
f 273/4/2 283/4/2 289/4/2
f 283/5/2 284/5/2 289/5/2
f 284/4/2 285/4/2 290/4/2
f 289/5/2 284/5/2 290/5/2
f 285/5/2 286/5/2 291/5/2
f 290/4/2 285/4/2 291/4/2
f 286/4/2 287/4/2 292/4/2
f 291/5/2 286/5/2 292/5/2
f 287/5/2 288/5/2 293/5/2
f 292/4/2 287/4/2 293/4/2
f 288/4/2 282/4/2 294/4/2
f 293/5/2 288/5/2 294/5/2
f 292/4/2 293/4/2 295/4/2
f 291/4/2 292/4/2 295/4/2
f 293/4/2 294/4/2 295/4/2
f 290/4/2 291/4/2 295/4/2
f 289/4/2 290/4/2 295/4/2
f 273/4/2 289/4/2 295/4/2
f 295/4/2 294/4/2 296/4/2
f 296/4/2 294/4/2 297/4/2
f 297/4/2 294/4/2 298/4/2
f 298/4/2 294/4/2 299/4/2
f 299/4/2 294/4/2 300/4/2
f 300/4/2 294/4/2 301/4/2
f 301/4/2 294/4/2 302/4/2
f 302/4/2 294/4/2 303/4/2
f 303/4/2 294/4/2 304/4/2
f 294/4/2 282/4/2 305/4/2
f 304/4/2 294/4/2 305/4/2
f 305/4/2 282/4/2 306/4/2
f 273/4/2 295/4/2 307/4/2
f 295/5/2 296/5/2 307/5/2
f 296/4/2 297/4/2 308/4/2
f 307/5/2 296/5/2 308/5/2
f 297/5/2 298/5/2 309/5/2
f 308/4/2 297/4/2 309/4/2
f 298/4/2 299/4/2 310/4/2
f 309/5/2 298/5/2 310/5/2
f 299/5/2 300/5/2 311/5/2
f 310/4/2 299/4/2 311/4/2
f 300/4/2 301/4/2 312/4/2
f 311/5/2 300/5/2 312/5/2
f 301/5/2 302/5/2 313/5/2
f 312/4/2 301/4/2 313/4/2
f 302/4/2 303/4/2 314/4/2
f 313/5/2 302/5/2 314/5/2
f 303/5/2 304/5/2 315/5/2
f 314/4/2 303/4/2 315/4/2
f 304/4/2 305/4/2 316/4/2
f 315/5/2 304/5/2 316/5/2
f 305/5/2 306/5/2 317/5/2
f 316/4/2 305/4/2 317/4/2
f 306/4/2 282/4/2 318/4/2
f 317/5/2 306/5/2 318/5/2
f 313/4/2 314/4/2 319/4/2
f 316/4/2 317/4/2 319/4/2
f 317/4/2 318/4/2 319/4/2
f 314/4/2 315/4/2 319/4/2
f 312/4/2 313/4/2 319/4/2
f 311/4/2 312/4/2 319/4/2
f 310/4/2 311/4/2 319/4/2
f 309/4/2 310/4/2 319/4/2
f 308/4/2 309/4/2 319/4/2
f 307/4/2 308/4/2 319/4/2
f 273/4/2 307/4/2 319/4/2
f 315/4/2 316/4/2 319/4/2
f 318/4/2 282/4/2 320/4/2
f 319/4/2 318/4/2 320/4/2
f 326/3/3 322/3/3 321/3/3
f 327/2/3 323/2/3 322/2/3
f 327/3/3 322/3/3 326/3/3
f 328/2/3 323/2/3 327/2/3
f 329/1/3 324/1/3 323/1/3
f 329/2/3 323/2/3 328/2/3
f 330/4/3 325/4/3 324/4/3
f 330/1/3 324/1/3 329/1/3
f 331/4/3 325/4/3 330/4/3
f 332/4/3 325/4/3 331/4/3
f 333/3/3 326/3/3 321/3/3
f 333/2/3 327/2/3 326/2/3
f 334/1/3 328/1/3 327/1/3
f 334/2/3 327/2/3 333/2/3
f 335/4/3 329/4/3 328/4/3
f 335/1/3 328/1/3 334/1/3
f 335/4/3 330/4/3 329/4/3
f 335/4/3 331/4/3 330/4/3
f 336/4/3 331/4/3 335/4/3
f 337/4/3 331/4/3 336/4/3
f 338/1/3 334/1/3 333/1/3
f 338/4/3 335/4/3 334/4/3
f 338/4/3 336/4/3 335/4/3
f 339/4/3 336/4/3 338/4/3
f 340/4/3 331/4/3 337/4/3
f 340/5/3 332/5/3 331/5/3
f 341/4/3 325/4/3 332/4/3
f 341/5/3 332/5/3 340/5/3
f 342/5/3 339/5/3 338/5/3
f 342/1/3 338/1/3 333/1/3
f 343/4/3 336/4/3 339/4/3
f 343/5/3 339/5/3 342/5/3
f 344/4/3 336/4/3 343/4/3
f 345/4/3 336/4/3 344/4/3
f 346/5/3 337/5/3 336/5/3
f 346/4/3 336/4/3 345/4/3
f 347/4/3 340/4/3 337/4/3
f 347/5/3 337/5/3 346/5/3
f 347/4/3 341/4/3 340/4/3
f 348/4/3 341/4/3 347/4/3
f 349/4/3 325/4/3 341/4/3
f 349/4/3 341/4/3 348/4/3
f 350/1/3 342/1/3 333/1/3
f 350/4/3 344/4/3 343/4/3
f 350/4/3 343/4/3 342/4/3
f 351/4/3 344/4/3 350/4/3
f 352/5/3 345/5/3 344/5/3
f 352/4/3 344/4/3 351/4/3
f 353/4/3 346/4/3 345/4/3
f 353/5/3 345/5/3 352/5/3
f 353/4/3 348/4/3 347/4/3
f 353/4/3 347/4/3 346/4/3
f 354/4/3 348/4/3 353/4/3
f 355/4/3 348/4/3 354/4/3
f 356/5/3 349/5/3 348/5/3
f 356/4/3 348/4/3 355/4/3
f 357/4/3 325/4/3 349/4/3
f 357/5/3 349/5/3 356/5/3
f 358/1/3 350/1/3 333/1/3
f 358/5/3 351/5/3 350/5/3
f 359/4/3 352/4/3 351/4/3
f 359/5/3 351/5/3 358/5/3
f 359/4/3 353/4/3 352/4/3
f 359/4/3 354/4/3 353/4/3
f 360/4/3 354/4/3 359/4/3
f 361/4/3 354/4/3 360/4/3
f 362/5/3 355/5/3 354/5/3
f 362/4/3 354/4/3 361/4/3
f 363/4/3 356/4/3 355/4/3
f 363/5/3 355/5/3 362/5/3
f 363/4/3 357/4/3 356/4/3
f 364/4/3 357/4/3 363/4/3
f 365/4/3 325/4/3 357/4/3
f 365/4/3 357/4/3 364/4/3
f 366/1/3 358/1/3 333/1/3
f 366/4/3 360/4/3 359/4/3
f 366/4/3 359/4/3 358/4/3
f 367/4/3 360/4/3 366/4/3
f 368/5/3 361/5/3 360/5/3
f 368/4/3 360/4/3 367/4/3
f 369/4/3 362/4/3 361/4/3
f 369/5/3 361/5/3 368/5/3
f 369/4/3 364/4/3 363/4/3
f 369/4/3 363/4/3 362/4/3
f 370/4/3 364/4/3 369/4/3
f 371/4/3 364/4/3 370/4/3
f 372/5/3 365/5/3 364/5/3
f 372/4/3 364/4/3 371/4/3
f 373/4/3 325/4/3 365/4/3
f 373/5/3 365/5/3 372/5/3
f 374/1/3 366/1/3 333/1/3
f 374/5/3 367/5/3 366/5/3
f 375/4/3 368/4/3 367/4/3
f 375/5/3 367/5/3 374/5/3
f 375/4/3 369/4/3 368/4/3
f 375/4/3 370/4/3 369/4/3
f 376/4/3 370/4/3 375/4/3
f 377/4/3 370/4/3 376/4/3
f 378/5/3 371/5/3 370/5/3
f 378/4/3 370/4/3 377/4/3
f 379/4/3 372/4/3 371/4/3
f 379/5/3 371/5/3 378/5/3
f 379/4/3 373/4/3 372/4/3
f 380/4/3 373/4/3 379/4/3
f 381/4/3 325/4/3 373/4/3
f 381/4/3 373/4/3 380/4/3
f 382/1/3 374/1/3 333/1/3
f 382/4/3 376/4/3 375/4/3
f 382/4/3 375/4/3 374/4/3
f 383/4/3 376/4/3 382/4/3
f 384/5/3 377/5/3 376/5/3
f 384/4/3 376/4/3 383/4/3
f 385/4/3 378/4/3 377/4/3
f 385/5/3 377/5/3 384/5/3
f 385/4/3 380/4/3 379/4/3
f 385/4/3 379/4/3 378/4/3
f 386/4/3 380/4/3 385/4/3
f 387/4/3 380/4/3 386/4/3
f 388/5/3 381/5/3 380/5/3
f 388/4/3 380/4/3 387/4/3
f 389/4/3 325/4/3 381/4/3
f 389/5/3 381/5/3 388/5/3
f 390/1/3 382/1/3 333/1/3
f 390/5/3 383/5/3 382/5/3
f 391/4/3 384/4/3 383/4/3
f 391/5/3 383/5/3 390/5/3
f 391/4/3 385/4/3 384/4/3
f 391/4/3 386/4/3 385/4/3
f 392/4/3 388/4/3 387/4/3
f 392/4/3 389/4/3 388/4/3
f 393/4/3 325/4/3 389/4/3
f 393/4/3 389/4/3 392/4/3
f 394/1/3 390/1/3 333/1/3
f 394/3/3 333/3/3 321/3/3
f 395/4/3 391/4/3 390/4/3
f 395/1/3 390/1/3 394/1/3
f 396/4/3 386/4/3 391/4/3
f 396/4/3 391/4/3 395/4/3
f 397/5/3 387/5/3 386/5/3
f 397/4/3 386/4/3 396/4/3
f 398/4/3 392/4/3 387/4/3
f 398/5/3 387/5/3 397/5/3
f 399/2/3 395/2/3 394/2/3
f 399/3/3 394/3/3 321/3/3
f 400/1/3 396/1/3 395/1/3
f 400/2/3 395/2/3 399/2/3
f 401/4/3 397/4/3 396/4/3
f 401/1/3 396/1/3 400/1/3
f 401/4/3 398/4/3 397/4/3
f 402/4/3 398/4/3 401/4/3
f 403/4/3 398/4/3 402/4/3
f 404/4/3 392/4/3 398/4/3
f 404/4/3 398/4/3 403/4/3
f 404/5/3 393/5/3 392/5/3
f 405/4/3 325/4/3 393/4/3
f 405/5/3 393/5/3 404/5/3
f 406/3/3 400/3/3 399/3/3
f 406/3/3 399/3/3 321/3/3
f 407/2/3 402/2/3 401/2/3
f 407/3/3 400/3/3 406/3/3
f 407/2/3 401/2/3 400/2/3
f 408/1/3 403/1/3 402/1/3
f 408/2/3 402/2/3 407/2/3
f 409/4/3 404/4/3 403/4/3
f 409/1/3 403/1/3 408/1/3
f 409/4/3 405/4/3 404/4/3
f 410/4/3 325/4/3 405/4/3
f 410/4/3 405/4/3 409/4/3
f 415/4/3 412/4/3 411/4/3
f 415/4/3 414/4/3 413/4/3
f 415/4/3 413/4/3 412/4/3
f 416/4/3 414/4/3 415/4/3
f 419/4/3 418/4/3 417/4/3
f 420/4/3 418/4/3 419/4/3
f 421/4/3 418/4/3 420/4/3
f 422/4/3 418/4/3 421/4/3
f 429/4/3 424/4/3 423/4/3
f 430/4/3 424/4/3 429/4/3
f 431/4/3 426/4/3 425/4/3
f 431/5/3 427/5/3 426/5/3
f 432/4/3 428/4/3 427/4/3
f 432/5/3 427/5/3 431/5/3
f 433/5/3 430/5/3 429/5/3
f 434/4/3 424/4/3 430/4/3
f 434/5/3 430/5/3 433/5/3
f 435/4/3 424/4/3 434/4/3
f 436/4/3 424/4/3 435/4/3
f 437/5/3 425/5/3 424/5/3
f 437/4/3 424/4/3 436/4/3
f 438/4/3 431/4/3 425/4/3
f 438/5/3 425/5/3 437/5/3
f 438/4/3 432/4/3 431/4/3
f 439/4/3 432/4/3 438/4/3
f 440/4/3 428/4/3 432/4/3
f 440/4/3 432/4/3 439/4/3
f 441/4/3 435/4/3 434/4/3
f 441/4/3 434/4/3 433/4/3
f 442/4/3 435/4/3 441/4/3
f 443/5/3 436/5/3 435/5/3
f 443/4/3 435/4/3 442/4/3
f 444/4/3 437/4/3 436/4/3
f 444/5/3 436/5/3 443/5/3
f 444/4/3 439/4/3 438/4/3
f 444/4/3 438/4/3 437/4/3
f 445/4/3 439/4/3 444/4/3
f 446/4/3 439/4/3 445/4/3
f 447/5/3 440/5/3 439/5/3
f 447/4/3 439/4/3 446/4/3
f 448/4/3 428/4/3 440/4/3
f 448/5/3 440/5/3 447/5/3
f 449/5/3 442/5/3 441/5/3
f 450/4/3 443/4/3 442/4/3
f 450/5/3 442/5/3 449/5/3
f 450/4/3 444/4/3 443/4/3
f 450/4/3 445/4/3 444/4/3
f 451/4/3 445/4/3 450/4/3
f 452/4/3 445/4/3 451/4/3
f 453/5/3 446/5/3 445/5/3
f 453/4/3 445/4/3 452/4/3
f 454/4/3 447/4/3 446/4/3
f 454/5/3 446/5/3 453/5/3
f 454/4/3 448/4/3 447/4/3
f 455/4/3 448/4/3 454/4/3
f 456/4/3 428/4/3 448/4/3
f 456/4/3 448/4/3 455/4/3
f 457/4/3 451/4/3 450/4/3
f 457/4/3 450/4/3 449/4/3
f 458/4/3 451/4/3 457/4/3
f 459/5/3 452/5/3 451/5/3
f 459/4/3 451/4/3 458/4/3
f 460/4/3 455/4/3 454/4/3
f 460/5/3 452/5/3 459/5/3
f 460/4/3 453/4/3 452/4/3
f 460/4/3 454/4/3 453/4/3
f 461/4/3 455/4/3 460/4/3
f 462/4/3 455/4/3 461/4/3
f 463/5/3 456/5/3 455/5/3
f 463/4/3 455/4/3 462/4/3
f 464/4/3 428/4/3 456/4/3
f 464/5/3 456/5/3 463/5/3
f 465/5/3 458/5/3 457/5/3
f 466/4/3 459/4/3 458/4/3
f 466/5/3 458/5/3 465/5/3
f 466/4/3 460/4/3 459/4/3
f 466/4/3 461/4/3 460/4/3
f 467/4/3 461/4/3 466/4/3
f 468/4/3 461/4/3 467/4/3
f 469/5/3 462/5/3 461/5/3
f 469/4/3 461/4/3 468/4/3
f 470/4/3 463/4/3 462/4/3
f 470/5/3 462/5/3 469/5/3
f 470/4/3 464/4/3 463/4/3
f 471/4/3 464/4/3 470/4/3
f 472/4/3 428/4/3 464/4/3
f 472/4/3 464/4/3 471/4/3
f 473/4/3 467/4/3 466/4/3
f 473/4/3 466/4/3 465/4/3
f 474/4/3 467/4/3 473/4/3
f 475/5/3 468/5/3 467/5/3
f 475/4/3 467/4/3 474/4/3
f 476/4/3 471/4/3 470/4/3
f 476/5/3 468/5/3 475/5/3
f 476/4/3 469/4/3 468/4/3
f 476/4/3 470/4/3 469/4/3
f 477/4/3 471/4/3 476/4/3
f 478/4/3 471/4/3 477/4/3
f 479/5/3 472/5/3 471/5/3
f 479/4/3 471/4/3 478/4/3
f 480/4/3 428/4/3 472/4/3
f 480/5/3 472/5/3 479/5/3
f 481/5/3 474/5/3 473/5/3
f 482/4/3 475/4/3 474/4/3
f 482/5/3 474/5/3 481/5/3
f 482/4/3 476/4/3 475/4/3
f 482/4/3 477/4/3 476/4/3
f 483/4/3 479/4/3 478/4/3
f 483/4/3 480/4/3 479/4/3
f 484/4/3 428/4/3 480/4/3
f 484/4/3 480/4/3 483/4/3
f 485/4/3 482/4/3 481/4/3
f 486/4/3 477/4/3 482/4/3
f 486/4/3 482/4/3 485/4/3
f 486/5/3 478/5/3 477/5/3
f 487/4/3 483/4/3 478/4/3
f 487/5/3 478/5/3 486/5/3
f 488/5/3 484/5/3 483/5/3
f 488/4/3 483/4/3 487/4/3
f 489/4/3 428/4/3 484/4/3
f 489/5/3 484/5/3 488/5/3
f 490/4/3 428/4/3 489/4/3
f 491/4/4 492/4/4 497/4/4
f 497/4/4 492/4/4 498/4/4
f 493/4/4 494/4/4 499/4/4
f 494/5/4 495/5/4 499/5/4
f 495/4/4 496/4/4 500/4/4
f 499/5/4 495/5/4 500/5/4
f 497/5/4 498/5/4 501/5/4
f 498/4/4 492/4/4 502/4/4
f 501/5/4 498/5/4 502/5/4
f 502/4/4 492/4/4 503/4/4
f 503/4/4 492/4/4 504/4/4
f 492/5/4 493/5/4 505/5/4
f 504/4/4 492/4/4 505/4/4
f 493/4/4 499/4/4 506/4/4
f 505/5/4 493/5/4 506/5/4
f 499/4/4 500/4/4 506/4/4
f 506/4/4 500/4/4 507/4/4
f 500/4/4 496/4/4 508/4/4
f 507/4/4 500/4/4 508/4/4
f 502/4/4 503/4/4 509/4/4
f 501/4/4 502/4/4 509/4/4
f 509/4/4 503/4/4 510/4/4
f 503/5/4 504/5/4 511/5/4
f 510/4/4 503/4/4 511/4/4
f 504/4/4 505/4/4 512/4/4
f 511/5/4 504/5/4 512/5/4
f 506/4/4 507/4/4 512/4/4
f 505/4/4 506/4/4 512/4/4
f 512/4/4 507/4/4 513/4/4
f 513/4/4 507/4/4 514/4/4
f 507/5/4 508/5/4 515/5/4
f 514/4/4 507/4/4 515/4/4
f 508/4/4 496/4/4 516/4/4
f 515/5/4 508/5/4 516/5/4
f 509/5/4 510/5/4 517/5/4
f 510/4/4 511/4/4 518/4/4
f 517/5/4 510/5/4 518/5/4
f 511/4/4 512/4/4 518/4/4
f 512/4/4 513/4/4 518/4/4
f 518/4/4 513/4/4 519/4/4
f 519/4/4 513/4/4 520/4/4
f 513/5/4 514/5/4 521/5/4
f 520/4/4 513/4/4 521/4/4
f 514/4/4 515/4/4 522/4/4
f 521/5/4 514/5/4 522/5/4
f 515/4/4 516/4/4 522/4/4
f 522/4/4 516/4/4 523/4/4
f 516/4/4 496/4/4 524/4/4
f 523/4/4 516/4/4 524/4/4
f 518/4/4 519/4/4 525/4/4
f 517/4/4 518/4/4 525/4/4
f 525/4/4 519/4/4 526/4/4
f 519/5/4 520/5/4 527/5/4
f 526/4/4 519/4/4 527/4/4
f 522/4/4 523/4/4 528/4/4
f 527/5/4 520/5/4 528/5/4
f 520/4/4 521/4/4 528/4/4
f 521/4/4 522/4/4 528/4/4
f 528/4/4 523/4/4 529/4/4
f 529/4/4 523/4/4 530/4/4
f 523/5/4 524/5/4 531/5/4
f 530/4/4 523/4/4 531/4/4
f 524/4/4 496/4/4 532/4/4
f 531/5/4 524/5/4 532/5/4
f 525/5/4 526/5/4 533/5/4
f 526/4/4 527/4/4 534/4/4
f 533/5/4 526/5/4 534/5/4
f 527/4/4 528/4/4 534/4/4
f 528/4/4 529/4/4 534/4/4
f 534/4/4 529/4/4 535/4/4
f 535/4/4 529/4/4 536/4/4
f 529/5/4 530/5/4 537/5/4
f 536/4/4 529/4/4 537/4/4
f 530/4/4 531/4/4 538/4/4
f 537/5/4 530/5/4 538/5/4
f 531/4/4 532/4/4 538/4/4
f 538/4/4 532/4/4 539/4/4
f 532/4/4 496/4/4 540/4/4
f 539/4/4 532/4/4 540/4/4
f 534/4/4 535/4/4 541/4/4
f 533/4/4 534/4/4 541/4/4
f 541/4/4 535/4/4 542/4/4
f 535/5/4 536/5/4 543/5/4
f 542/4/4 535/4/4 543/4/4
f 538/4/4 539/4/4 544/4/4
f 543/5/4 536/5/4 544/5/4
f 536/4/4 537/4/4 544/4/4
f 537/4/4 538/4/4 544/4/4
f 544/4/4 539/4/4 545/4/4
f 545/4/4 539/4/4 546/4/4
f 539/5/4 540/5/4 547/5/4
f 546/4/4 539/4/4 547/4/4
f 540/4/4 496/4/4 548/4/4
f 547/5/4 540/5/4 548/5/4
f 541/5/4 542/5/4 549/5/4
f 542/4/4 543/4/4 550/4/4
f 549/5/4 542/5/4 550/5/4
f 543/4/4 544/4/4 550/4/4
f 544/4/4 545/4/4 550/4/4
f 546/4/4 547/4/4 551/4/4
f 547/4/4 548/4/4 551/4/4
f 548/4/4 496/4/4 552/4/4
f 551/4/4 548/4/4 552/4/4
f 549/4/4 550/4/4 553/4/4
f 550/4/4 545/4/4 554/4/4
f 553/4/4 550/4/4 554/4/4
f 545/5/4 546/5/4 554/5/4
f 546/4/4 551/4/4 555/4/4
f 554/5/4 546/5/4 555/5/4
f 551/5/4 552/5/4 556/5/4
f 555/4/4 551/4/4 556/4/4
f 552/4/4 496/4/4 557/4/4
f 556/5/4 552/5/4 557/5/4
f 557/4/4 496/4/4 558/4/4
f 559/4/4 560/4/4 563/4/4
f 561/4/4 562/4/4 563/4/4
f 560/4/4 561/4/4 563/4/4
f 563/4/4 562/4/4 564/4/4
f 565/4/4 566/4/4 567/4/4
f 567/4/4 566/4/4 568/4/4
f 568/4/4 566/4/4 569/4/4
f 569/4/4 566/4/4 570/4/4
f 571/3/4 572/3/4 576/3/4
f 572/2/4 573/2/4 577/2/4
f 576/3/4 572/3/4 577/3/4
f 577/2/4 573/2/4 578/2/4
f 573/1/4 574/1/4 579/1/4
f 578/2/4 573/2/4 579/2/4
f 574/4/4 575/4/4 580/4/4
f 579/1/4 574/1/4 580/1/4
f 580/4/4 575/4/4 581/4/4
f 581/4/4 575/4/4 582/4/4
f 571/3/4 576/3/4 583/3/4
f 576/2/4 577/2/4 583/2/4
f 577/1/4 578/1/4 584/1/4
f 583/2/4 577/2/4 584/2/4
f 578/4/4 579/4/4 585/4/4
f 584/1/4 578/1/4 585/1/4
f 579/4/4 580/4/4 585/4/4
f 580/4/4 581/4/4 585/4/4
f 585/4/4 581/4/4 586/4/4
f 586/4/4 581/4/4 587/4/4
f 583/1/4 584/1/4 588/1/4
f 584/4/4 585/4/4 588/4/4
f 585/4/4 586/4/4 588/4/4
f 588/4/4 586/4/4 589/4/4
f 587/4/4 581/4/4 590/4/4
f 581/5/4 582/5/4 590/5/4
f 582/4/4 575/4/4 591/4/4
f 590/5/4 582/5/4 591/5/4
f 588/5/4 589/5/4 592/5/4
f 583/1/4 588/1/4 592/1/4
f 589/4/4 586/4/4 593/4/4
f 592/5/4 589/5/4 593/5/4
f 593/4/4 586/4/4 594/4/4
f 594/4/4 586/4/4 595/4/4
f 586/5/4 587/5/4 596/5/4
f 595/4/4 586/4/4 596/4/4
f 587/4/4 590/4/4 597/4/4
f 596/5/4 587/5/4 597/5/4
f 590/4/4 591/4/4 597/4/4
f 597/4/4 591/4/4 598/4/4
f 591/4/4 575/4/4 599/4/4
f 598/4/4 591/4/4 599/4/4
f 583/1/4 592/1/4 600/1/4
f 593/4/4 594/4/4 600/4/4
f 592/4/4 593/4/4 600/4/4
f 600/4/4 594/4/4 601/4/4
f 594/5/4 595/5/4 602/5/4
f 601/4/4 594/4/4 602/4/4
f 595/4/4 596/4/4 603/4/4
f 602/5/4 595/5/4 603/5/4
f 597/4/4 598/4/4 603/4/4
f 596/4/4 597/4/4 603/4/4
f 603/4/4 598/4/4 604/4/4
f 604/4/4 598/4/4 605/4/4
f 598/5/4 599/5/4 606/5/4
f 605/4/4 598/4/4 606/4/4
f 599/4/4 575/4/4 607/4/4
f 606/5/4 599/5/4 607/5/4
f 583/1/4 600/1/4 608/1/4
f 600/5/4 601/5/4 608/5/4
f 601/4/4 602/4/4 609/4/4
f 608/5/4 601/5/4 609/5/4
f 602/4/4 603/4/4 609/4/4
f 603/4/4 604/4/4 609/4/4
f 609/4/4 604/4/4 610/4/4
f 610/4/4 604/4/4 611/4/4
f 604/5/4 605/5/4 612/5/4
f 611/4/4 604/4/4 612/4/4
f 605/4/4 606/4/4 613/4/4
f 612/5/4 605/5/4 613/5/4
f 606/4/4 607/4/4 613/4/4
f 613/4/4 607/4/4 614/4/4
f 607/4/4 575/4/4 615/4/4
f 614/4/4 607/4/4 615/4/4
f 583/1/4 608/1/4 616/1/4
f 609/4/4 610/4/4 616/4/4
f 608/4/4 609/4/4 616/4/4
f 616/4/4 610/4/4 617/4/4
f 610/5/4 611/5/4 618/5/4
f 617/4/4 610/4/4 618/4/4
f 611/4/4 612/4/4 619/4/4
f 618/5/4 611/5/4 619/5/4
f 613/4/4 614/4/4 619/4/4
f 612/4/4 613/4/4 619/4/4
f 619/4/4 614/4/4 620/4/4
f 620/4/4 614/4/4 621/4/4
f 614/5/4 615/5/4 622/5/4
f 621/4/4 614/4/4 622/4/4
f 615/4/4 575/4/4 623/4/4
f 622/5/4 615/5/4 623/5/4
f 583/1/4 616/1/4 624/1/4
f 616/5/4 617/5/4 624/5/4
f 617/4/4 618/4/4 625/4/4
f 624/5/4 617/5/4 625/5/4
f 618/4/4 619/4/4 625/4/4
f 619/4/4 620/4/4 625/4/4
f 625/4/4 620/4/4 626/4/4
f 626/4/4 620/4/4 627/4/4
f 620/5/4 621/5/4 628/5/4
f 627/4/4 620/4/4 628/4/4
f 621/4/4 622/4/4 629/4/4
f 628/5/4 621/5/4 629/5/4
f 622/4/4 623/4/4 629/4/4
f 629/4/4 623/4/4 630/4/4
f 623/4/4 575/4/4 631/4/4
f 630/4/4 623/4/4 631/4/4
f 583/1/4 624/1/4 632/1/4
f 625/4/4 626/4/4 632/4/4
f 624/4/4 625/4/4 632/4/4
f 632/4/4 626/4/4 633/4/4
f 626/5/4 627/5/4 634/5/4
f 633/4/4 626/4/4 634/4/4
f 627/4/4 628/4/4 635/4/4
f 634/5/4 627/5/4 635/5/4
f 629/4/4 630/4/4 635/4/4
f 628/4/4 629/4/4 635/4/4
f 635/4/4 630/4/4 636/4/4
f 636/4/4 630/4/4 637/4/4
f 630/5/4 631/5/4 638/5/4
f 637/4/4 630/4/4 638/4/4
f 631/4/4 575/4/4 639/4/4
f 638/5/4 631/5/4 639/5/4
f 583/1/4 632/1/4 640/1/4
f 632/5/4 633/5/4 640/5/4
f 633/4/4 634/4/4 641/4/4
f 640/5/4 633/5/4 641/5/4
f 634/4/4 635/4/4 641/4/4
f 635/4/4 636/4/4 641/4/4
f 637/4/4 638/4/4 642/4/4
f 638/4/4 639/4/4 642/4/4
f 639/4/4 575/4/4 643/4/4
f 642/4/4 639/4/4 643/4/4
f 583/1/4 640/1/4 644/1/4
f 571/3/4 583/3/4 644/3/4
f 640/4/4 641/4/4 645/4/4
f 644/1/4 640/1/4 645/1/4
f 641/4/4 636/4/4 646/4/4
f 645/4/4 641/4/4 646/4/4
f 636/5/4 637/5/4 647/5/4
f 646/4/4 636/4/4 647/4/4
f 637/4/4 642/4/4 648/4/4
f 647/5/4 637/5/4 648/5/4
f 644/2/4 645/2/4 649/2/4
f 571/3/4 644/3/4 649/3/4
f 645/1/4 646/1/4 650/1/4
f 649/2/4 645/2/4 650/2/4
f 646/4/4 647/4/4 651/4/4
f 650/1/4 646/1/4 651/1/4
f 647/4/4 648/4/4 651/4/4
f 651/4/4 648/4/4 652/4/4
f 652/4/4 648/4/4 653/4/4
f 648/4/4 642/4/4 654/4/4
f 653/4/4 648/4/4 654/4/4
f 642/5/4 643/5/4 654/5/4
f 643/4/4 575/4/4 655/4/4
f 654/5/4 643/5/4 655/5/4
f 649/3/4 650/3/4 656/3/4
f 571/3/4 649/3/4 656/3/4
f 651/2/4 652/2/4 657/2/4
f 656/3/4 650/3/4 657/3/4
f 650/2/4 651/2/4 657/2/4
f 652/1/4 653/1/4 658/1/4
f 657/2/4 652/2/4 658/2/4
f 653/4/4 654/4/4 659/4/4
f 658/1/4 653/1/4 659/1/4
f 654/4/4 655/4/4 659/4/4
f 655/4/4 575/4/4 660/4/4
f 659/4/4 655/4/4 660/4/4
f 663/3/5 662/3/5 661/3/5
f 664/3/5 662/3/5 663/3/5
f 665/3/5 662/3/5 664/3/5
f 666/3/5 662/3/5 665/3/5
f 667/6/5 664/6/5 663/6/5
f 668/3/5 665/3/5 664/3/5
f 668/6/5 664/6/5 667/6/5
f 669/6/5 666/6/5 665/6/5
f 669/3/5 665/3/5 668/3/5
f 670/6/5 666/6/5 669/6/5
f 671/7/5 668/7/5 667/7/5
f 672/3/5 669/3/5 668/3/5
f 672/7/5 668/7/5 671/7/5
f 673/7/5 670/7/5 669/7/5
f 673/3/5 669/3/5 672/3/5
f 674/7/5 670/7/5 673/7/5
f 675/6/5 672/6/5 671/6/5
f 676/3/5 673/3/5 672/3/5
f 676/6/5 672/6/5 675/6/5
f 677/6/5 674/6/5 673/6/5
f 677/3/5 673/3/5 676/3/5
f 678/6/5 674/6/5 677/6/5
f 679/3/5 676/3/5 675/3/5
f 679/3/5 677/3/5 676/3/5
f 679/3/5 678/3/5 677/3/5
f 680/3/5 678/3/5 679/3/5
f 681/3/5 678/3/5 680/3/5
f 682/3/5 678/3/5 681/3/5
f 683/6/5 680/6/5 679/6/5
f 684/3/5 681/3/5 680/3/5
f 684/6/5 680/6/5 683/6/5
f 685/6/5 682/6/5 681/6/5
f 685/3/5 681/3/5 684/3/5
f 686/6/5 682/6/5 685/6/5
f 687/7/5 684/7/5 683/7/5
f 688/3/5 685/3/5 684/3/5
f 688/7/5 684/7/5 687/7/5
f 689/7/5 686/7/5 685/7/5
f 689/3/5 685/3/5 688/3/5
f 690/7/5 686/7/5 689/7/5
f 691/6/5 688/6/5 687/6/5
f 692/3/5 689/3/5 688/3/5
f 692/6/5 688/6/5 691/6/5
f 693/6/5 690/6/5 689/6/5
f 693/3/5 689/3/5 692/3/5
f 694/6/5 690/6/5 693/6/5
f 695/3/5 692/3/5 691/3/5
f 695/3/5 693/3/5 692/3/5
f 695/3/5 694/3/5 693/3/5
f 696/3/5 694/3/5 695/3/5
f 697/4/6 698/4/6 708/4/6
f 705/4/6 706/4/6 708/4/6
f 704/4/6 705/4/6 708/4/6
f 703/4/6 704/4/6 708/4/6
f 702/4/6 703/4/6 708/4/6
f 701/4/6 702/4/6 708/4/6
f 700/4/6 701/4/6 708/4/6
f 699/4/6 700/4/6 708/4/6
f 698/4/6 699/4/6 708/4/6
f 708/4/6 706/4/6 709/4/6
f 707/4/6 708/4/6 711/4/6
f 709/4/6 710/4/6 711/4/6
f 708/4/6 709/4/6 711/4/6
f 711/4/6 710/4/6 712/4/6
f 712/4/6 710/4/6 713/4/6
f 713/4/6 710/4/6 714/4/6
f 712/4/6 713/4/6 715/4/6
f 715/4/6 713/4/6 716/4/6
f 716/4/6 713/4/6 717/4/6
f 717/4/6 713/4/6 718/4/6
f 718/4/6 713/4/6 719/4/6
f 719/4/6 713/4/6 720/4/6
f 720/4/6 713/4/6 721/4/6
f 721/4/6 713/4/6 722/4/6
f 722/4/6 713/4/6 723/4/6
f 723/4/6 713/4/6 724/4/6
f 725/4/6 726/4/6 727/4/6
f 727/4/6 726/4/6 728/4/6
f 725/4/6 727/4/6 729/4/6
f 729/4/6 727/4/6 730/4/6
f 728/4/6 726/4/6 731/4/6
f 731/4/6 726/4/6 732/4/6
f 725/4/6 729/4/6 733/4/6
f 732/4/6 726/4/6 736/4/6
f 733/4/6 734/4/6 737/4/6
f 735/4/6 736/4/6 738/4/6
f 733/4/6 737/4/6 739/4/6
f 737/4/6 738/4/6 739/4/6
f 725/4/6 733/4/6 739/4/6
f 738/4/6 736/4/6 740/4/6
f 739/4/6 738/4/6 740/4/6
f 736/4/6 726/4/6 740/4/6
