{
	"asset":{
		"generator":"Khronos glTF Blender I/O v5.0.21",
		"version":"2.0"
	},
	"scene":0,
	"scenes":[
		{
			"name":"Scene",
			"nodes":[
				0
			]
		}
	],
	"nodes":[
		{
			"mesh":0,
			"name":"NotchRock_A"
		}
	],
	"materials":[
		{
			"name":"NotchRock_A_NotchRockA",
			"normalTexture":{
				"index":0
			},
			"occlusionTexture":{
				"index":1
			},
			"pbrMetallicRoughness":{
				"baseColorTexture":{
					"index":2
				},
				"metallicRoughnessTexture":{
					"index":1
				}
			}
		}
	],
	"meshes":[
		{
			"name":"NotchRock_A",
			"primitives":[
				{
					"attributes":{
						"POSITION":0,
						"NORMAL":1,
						"TEXCOORD_0":2,
						"TANGENT":3
					},
					"indices":4,
					"material":0
				}
			]
		}
	],
	"textures":[
		{
			"sampler":0,
			"source":0
		},
		{
			"sampler":0,
			"source":1
		},
		{
			"sampler":0,
			"source":2
		}
	],
	"images":[
		{
			"mimeType":"image/png",
			"name":"NotchRock_A_NotchRockA_Normal",
			"uri":"NotchRock_A_NotchRockA_Normal.png"
		},
		{
			"mimeType":"image/png",
			"name":"NotchRock_A_NotchRockA_ORM",
			"uri":"NotchRock_A_NotchRockA_ORM.png"
		},
		{
			"mimeType":"image/png",
			"name":"NotchRock_A_NotchRockA_BaseColor",
			"uri":"NotchRock_A_NotchRockA_BaseColor.png"
		}
	],
	"accessors":[
		{
			"bufferView":0,
			"componentType":5126,
			"count":11826,
			"max":[
				3.827841281890869,
				5.335513114929199,
				3.4539763927459717
			],
			"min":[
				-3.5070276260375977,
				-0.5208667516708374,
				-3.8926498889923096
			],
			"type":"VEC3"
		},
		{
			"bufferView":1,
			"componentType":5126,
			"count":11826,
			"type":"VEC3"
		},
		{
			"bufferView":2,
			"componentType":5126,
			"count":11826,
			"type":"VEC2"
		},
		{
			"bufferView":3,
			"componentType":5126,
			"count":11826,
			"type":"VEC4"
		},
		{
			"bufferView":4,
			"componentType":5123,
			"count":36000,
			"type":"SCALAR"
		}
	],
	"bufferViews":[
		{
			"buffer":0,
			"byteLength":141912,
			"byteOffset":0,
			"target":34962
		},
		{
			"buffer":0,
			"byteLength":141912,
			"byteOffset":141912,
			"target":34962
		},
		{
			"buffer":0,
			"byteLength":94608,
			"byteOffset":283824,
			"target":34962
		},
		{
			"buffer":0,
			"byteLength":189216,
			"byteOffset":378432,
			"target":34962
		},
		{
			"buffer":0,
			"byteLength":72000,
			"byteOffset":567648,
			"target":34963
		}
	],
	"samplers":[
		{
			"magFilter":9729,
			"minFilter":9987
		}
	],
	"buffers":[
		{
			"byteLength":639648,
			"uri":"NotchRock_A.bin"
		}
	]
}
