{
	"asset":{
		"generator":"Khronos glTF Blender I/O v5.0.21",
		"version":"2.0"
	},
	"scene":0,
	"scenes":[
		{
			"name":"Scene",
			"nodes":[
				0
			]
		}
	],
	"nodes":[
		{
			"mesh":0,
			"name":"Tetrapod_B"
		}
	],
	"materials":[
		{
			"name":"Tetrapod_B_TetrapodConcreteB",
			"normalTexture":{
				"index":0
			},
			"occlusionTexture":{
				"index":1
			},
			"pbrMetallicRoughness":{
				"baseColorTexture":{
					"index":2
				},
				"metallicRoughnessTexture":{
					"index":1
				}
			}
		}
	],
	"meshes":[
		{
			"name":"Tetrapod_B",
			"primitives":[
				{
					"attributes":{
						"POSITION":0,
						"NORMAL":1,
						"TEXCOORD_0":2,
						"TANGENT":3
					},
					"indices":4,
					"material":0
				}
			]
		}
	],
	"textures":[
		{
			"sampler":0,
			"source":0
		},
		{
			"sampler":0,
			"source":1
		},
		{
			"sampler":0,
			"source":2
		}
	],
	"images":[
		{
			"mimeType":"image/png",
			"name":"Tetrapod_B_TetrapodConcreteB_Normal",
			"uri":"Tetrapod_B_TetrapodConcreteB_Normal.png"
		},
		{
			"mimeType":"image/png",
			"name":"Tetrapod_B_TetrapodConcreteB_ORM",
			"uri":"Tetrapod_B_TetrapodConcreteB_ORM.png"
		},
		{
			"mimeType":"image/png",
			"name":"Tetrapod_B_TetrapodConcreteB_BaseColor",
			"uri":"Tetrapod_B_TetrapodConcreteB_BaseColor.png"
		}
	],
	"accessors":[
		{
			"bufferView":0,
			"componentType":5126,
			"count":3360,
			"max":[
				1.0437949895858765,
				1.7360479831695557,
				1.1442126035690308
			],
			"min":[
				-1.0495522022247314,
				0,
				-0.7264297604560852
			],
			"type":"VEC3"
		},
		{
			"bufferView":1,
			"componentType":5126,
			"count":3360,
			"type":"VEC3"
		},
		{
			"bufferView":2,
			"componentType":5126,
			"count":3360,
			"type":"VEC2"
		},
		{
			"bufferView":3,
			"componentType":5126,
			"count":3360,
			"type":"VEC4"
		},
		{
			"bufferView":4,
			"componentType":5123,
			"count":15000,
			"type":"SCALAR"
		}
	],
	"bufferViews":[
		{
			"buffer":0,
			"byteLength":40320,
			"byteOffset":0,
			"target":34962
		},
		{
			"buffer":0,
			"byteLength":40320,
			"byteOffset":40320,
			"target":34962
		},
		{
			"buffer":0,
			"byteLength":26880,
			"byteOffset":80640,
			"target":34962
		},
		{
			"buffer":0,
			"byteLength":53760,
			"byteOffset":107520,
			"target":34962
		},
		{
			"buffer":0,
			"byteLength":30000,
			"byteOffset":161280,
			"target":34963
		}
	],
	"samplers":[
		{
			"magFilter":9729,
			"minFilter":9987
		}
	],
	"buffers":[
		{
			"byteLength":191280,
			"uri":"Tetrapod_B.bin"
		}
	]
}
