{
	"asset":{
		"generator":"Khronos glTF Blender I/O v5.0.21",
		"version":"2.0"
	},
	"scene":0,
	"scenes":[
		{
			"name":"Scene",
			"nodes":[
				0
			]
		}
	],
	"nodes":[
		{
			"mesh":0,
			"name":"BeachTerrain_Shore"
		}
	],
	"materials":[
		{
			"name":"BeachTerrain_Shore_BeachSandShore",
			"normalTexture":{
				"index":0
			},
			"occlusionTexture":{
				"index":1
			},
			"pbrMetallicRoughness":{
				"baseColorTexture":{
					"index":2
				},
				"metallicRoughnessTexture":{
					"index":1
				}
			}
		}
	],
	"meshes":[
		{
			"name":"BeachTerrain_Shore",
			"primitives":[
				{
					"attributes":{
						"POSITION":0,
						"NORMAL":1,
						"TEXCOORD_0":2,
						"TANGENT":3
					},
					"indices":4,
					"material":0
				}
			]
		}
	],
	"textures":[
		{
			"sampler":0,
			"source":0
		},
		{
			"sampler":0,
			"source":1
		},
		{
			"sampler":0,
			"source":2
		}
	],
	"images":[
		{
			"mimeType":"image/png",
			"name":"BeachTerrain_Shore_BeachSandShore_Normal",
			"uri":"BeachTerrain_Shore_BeachSandShore_Normal.png"
		},
		{
			"mimeType":"image/png",
			"name":"BeachTerrain_Shore_BeachSandShore_ORM",
			"uri":"BeachTerrain_Shore_BeachSandShore_ORM.png"
		},
		{
			"mimeType":"image/png",
			"name":"BeachTerrain_Shore_BeachSandShore_BaseColor",
			"uri":"BeachTerrain_Shore_BeachSandShore_BaseColor.png"
		}
	],
	"accessors":[
		{
			"bufferView":0,
			"componentType":5126,
			"count":16641,
			"max":[
				20,
				2.1691267490386963,
				20
			],
			"min":[
				-20,
				-3.3252687454223633,
				-20
			],
			"type":"VEC3"
		},
		{
			"bufferView":1,
			"componentType":5126,
			"count":16641,
			"type":"VEC3"
		},
		{
			"bufferView":2,
			"componentType":5126,
			"count":16641,
			"type":"VEC2"
		},
		{
			"bufferView":3,
			"componentType":5126,
			"count":16641,
			"type":"VEC4"
		},
		{
			"bufferView":4,
			"componentType":5123,
			"count":98304,
			"type":"SCALAR"
		}
	],
	"bufferViews":[
		{
			"buffer":0,
			"byteLength":199692,
			"byteOffset":0,
			"target":34962
		},
		{
			"buffer":0,
			"byteLength":199692,
			"byteOffset":199692,
			"target":34962
		},
		{
			"buffer":0,
			"byteLength":133128,
			"byteOffset":399384,
			"target":34962
		},
		{
			"buffer":0,
			"byteLength":266256,
			"byteOffset":532512,
			"target":34962
		},
		{
			"buffer":0,
			"byteLength":196608,
			"byteOffset":798768,
			"target":34963
		}
	],
	"samplers":[
		{
			"magFilter":9729,
			"minFilter":9987
		}
	],
	"buffers":[
		{
			"byteLength":995376,
			"uri":"BeachTerrain_Shore.bin"
		}
	]
}
