{
	"asset":{
		"generator":"Khronos glTF Blender I/O v5.0.21",
		"version":"2.0"
	},
	"scene":0,
	"scenes":[
		{
			"name":"Scene",
			"nodes":[
				0
			]
		}
	],
	"nodes":[
		{
			"mesh":0,
			"name":"Seagrass_Patch_B"
		}
	],
	"materials":[
		{
			"alphaMode":"MASK",
			"doubleSided":true,
			"name":"Seagrass_Patch_B_SeagrassLeaf",
			"normalTexture":{
				"index":0
			},
			"occlusionTexture":{
				"index":1
			},
			"pbrMetallicRoughness":{
				"baseColorTexture":{
					"index":2
				},
				"metallicRoughnessTexture":{
					"index":1
				}
			}
		}
	],
	"meshes":[
		{
			"name":"Seagrass_Patch_B",
			"primitives":[
				{
					"attributes":{
						"POSITION":0,
						"NORMAL":1,
						"TEXCOORD_0":2,
						"TANGENT":3
					},
					"indices":4,
					"material":0
				}
			]
		}
	],
	"textures":[
		{
			"sampler":0,
			"source":0
		},
		{
			"sampler":0,
			"source":1
		},
		{
			"sampler":0,
			"source":2
		}
	],
	"images":[
		{
			"mimeType":"image/png",
			"name":"Seagrass_Patch_B_SeagrassLeaf_Normal",
			"uri":"Seagrass_Patch_B_SeagrassLeaf_Normal.png"
		},
		{
			"mimeType":"image/png",
			"name":"Seagrass_Patch_B_SeagrassLeaf_ORM",
			"uri":"Seagrass_Patch_B_SeagrassLeaf_ORM.png"
		},
		{
			"mimeType":"image/png",
			"name":"Seagrass_Patch_B_SeagrassLeaf_BaseColor",
			"uri":"Seagrass_Patch_B_SeagrassLeaf_BaseColor.png"
		}
	],
	"accessors":[
		{
			"bufferView":0,
			"componentType":5126,
			"count":14870,
			"max":[
				0.6633634567260742,
				0.24773165583610535,
				0.6322105526924133
			],
			"min":[
				-0.6151191592216492,
				-0.02500000037252903,
				-0.7205213904380798
			],
			"type":"VEC3"
		},
		{
			"bufferView":1,
			"componentType":5126,
			"count":14870,
			"type":"VEC3"
		},
		{
			"bufferView":2,
			"componentType":5126,
			"count":14870,
			"type":"VEC2"
		},
		{
			"bufferView":3,
			"componentType":5126,
			"count":14870,
			"type":"VEC4"
		},
		{
			"bufferView":4,
			"componentType":5123,
			"count":29394,
			"type":"SCALAR"
		}
	],
	"bufferViews":[
		{
			"buffer":0,
			"byteLength":178440,
			"byteOffset":0,
			"target":34962
		},
		{
			"buffer":0,
			"byteLength":178440,
			"byteOffset":178440,
			"target":34962
		},
		{
			"buffer":0,
			"byteLength":118960,
			"byteOffset":356880,
			"target":34962
		},
		{
			"buffer":0,
			"byteLength":237920,
			"byteOffset":475840,
			"target":34962
		},
		{
			"buffer":0,
			"byteLength":58788,
			"byteOffset":713760,
			"target":34963
		}
	],
	"samplers":[
		{
			"magFilter":9729,
			"minFilter":9987
		}
	],
	"buffers":[
		{
			"byteLength":772548,
			"uri":"Seagrass_Patch_B.bin"
		}
	]
}
