{
	"asset":{
		"generator":"Khronos glTF Blender I/O v4.4.56",
		"version":"2.0"
	},
	"scene":0,
	"scenes":[
		{
			"name":"Scene",
			"nodes":[
				0,
				1,
				2,
				3
			]
		}
	],
	"nodes":[
		{
			"mesh":0,
			"name":"coast_rocks_03_LOD0"
		},
		{
			"mesh":1,
			"name":"coast_rocks_03_LOD1"
		},
		{
			"mesh":2,
			"name":"coast_rocks_03_LOD2"
		},
		{
			"mesh":3,
			"name":"coast_rocks_03_LOD3"
		}
	],
	"materials":[
		{
			"doubleSided":true,
			"name":"coast_rocks_03",
			"normalTexture":{
				"index":0
			},
			"pbrMetallicRoughness":{
				"baseColorTexture":{
					"index":1
				},
				"metallicFactor":0,
				"metallicRoughnessTexture":{
					"index":2
				}
			}
		}
	],
	"meshes":[
		{
			"name":"Plane1.001",
			"primitives":[
				{
					"attributes":{
						"POSITION":0,
						"NORMAL":1,
						"TEXCOORD_0":2
					},
					"indices":3,
					"material":0
				}
			]
		},
		{
			"name":"Plane1.002",
			"primitives":[
				{
					"attributes":{
						"POSITION":4,
						"NORMAL":5,
						"TEXCOORD_0":6
					},
					"indices":7,
					"material":0
				}
			]
		},
		{
			"name":"Plane1.003",
			"primitives":[
				{
					"attributes":{
						"POSITION":8,
						"NORMAL":9,
						"TEXCOORD_0":10
					},
					"indices":11,
					"material":0
				}
			]
		},
		{
			"name":"Plane1.004",
			"primitives":[
				{
					"attributes":{
						"POSITION":12,
						"NORMAL":13,
						"TEXCOORD_0":14
					},
					"indices":15,
					"material":0
				}
			]
		}
	],
	"textures":[
		{
			"sampler":0,
			"source":0
		},
		{
			"sampler":0,
			"source":1
		},
		{
			"sampler":0,
			"source":2
		}
	],
	"images":[
		{
			"mimeType":"image/png",
			"name":"coast_rocks_03_nor_gl",
			"uri":"coast_rocks_03_nor_gl.png"
		},
		{
			"mimeType":"image/jpeg",
			"name":"coast_rocks_03_diff",
			"uri":"coast_rocks_03_diff.jpg"
		},
		{
			"mimeType":"image/png",
			"name":"coast_rocks_03_rough",
			"uri":"coast_rocks_03_rough.png"
		}
	],
	"accessors":[
		{
			"bufferView":0,
			"componentType":5126,
			"count":415339,
			"max":[
				11.475523948669434,
				1.7569206953048706,
				13.357389450073242
			],
			"min":[
				-9.645445823669434,
				-1.4408175945281982,
				-14.913028717041016
			],
			"type":"VEC3"
		},
		{
			"bufferView":1,
			"componentType":5126,
			"count":415339,
			"type":"VEC3"
		},
		{
			"bufferView":2,
			"componentType":5126,
			"count":415339,
			"type":"VEC2"
		},
		{
			"bufferView":3,
			"componentType":5125,
			"count":2440392,
			"type":"SCALAR"
		},
		{
			"bufferView":4,
			"componentType":5126,
			"count":209818,
			"max":[
				11.475523948669434,
				1.7569206953048706,
				13.357162475585938
			],
			"min":[
				-9.645605087280273,
				-1.4408175945281982,
				-14.913022994995117
			],
			"type":"VEC3"
		},
		{
			"bufferView":5,
			"componentType":5126,
			"count":209818,
			"type":"VEC3"
		},
		{
			"bufferView":6,
			"componentType":5126,
			"count":209818,
			"type":"VEC2"
		},
		{
			"bufferView":7,
			"componentType":5125,
			"count":1220193,
			"type":"SCALAR"
		},
		{
			"bufferView":8,
			"componentType":5126,
			"count":106468,
			"max":[
				11.474775314331055,
				1.7569206953048706,
				13.357644081115723
			],
			"min":[
				-9.645791053771973,
				-1.4408175945281982,
				-14.91307258605957
			],
			"type":"VEC3"
		},
		{
			"bufferView":9,
			"componentType":5126,
			"count":106468,
			"type":"VEC3"
		},
		{
			"bufferView":10,
			"componentType":5126,
			"count":106468,
			"type":"VEC2"
		},
		{
			"bufferView":11,
			"componentType":5125,
			"count":610095,
			"type":"SCALAR"
		},
		{
			"bufferView":12,
			"componentType":5126,
			"count":54340,
			"max":[
				11.476937294006348,
				1.7569043636322021,
				13.36071491241455
			],
			"min":[
				-9.645791053771973,
				-1.4408175945281982,
				-14.91307258605957
			],
			"type":"VEC3"
		},
		{
			"bufferView":13,
			"componentType":5126,
			"count":54340,
			"type":"VEC3"
		},
		{
			"bufferView":14,
			"componentType":5126,
			"count":54340,
			"type":"VEC2"
		},
		{
			"bufferView":15,
			"componentType":5123,
			"count":305046,
			"type":"SCALAR"
		}
	],
	"bufferViews":[
		{
			"buffer":0,
			"byteLength":4984068,
			"byteOffset":0,
			"target":34962
		},
		{
			"buffer":0,
			"byteLength":4984068,
			"byteOffset":4984068,
			"target":34962
		},
		{
			"buffer":0,
			"byteLength":3322712,
			"byteOffset":9968136,
			"target":34962
		},
		{
			"buffer":0,
			"byteLength":9761568,
			"byteOffset":13290848,
			"target":34963
		},
		{
			"buffer":0,
			"byteLength":2517816,
			"byteOffset":23052416,
			"target":34962
		},
		{
			"buffer":0,
			"byteLength":2517816,
			"byteOffset":25570232,
			"target":34962
		},
		{
			"buffer":0,
			"byteLength":1678544,
			"byteOffset":28088048,
			"target":34962
		},
		{
			"buffer":0,
			"byteLength":4880772,
			"byteOffset":29766592,
			"target":34963
		},
		{
			"buffer":0,
			"byteLength":1277616,
			"byteOffset":34647364,
			"target":34962
		},
		{
			"buffer":0,
			"byteLength":1277616,
			"byteOffset":35924980,
			"target":34962
		},
		{
			"buffer":0,
			"byteLength":851744,
			"byteOffset":37202596,
			"target":34962
		},
		{
			"buffer":0,
			"byteLength":2440380,
			"byteOffset":38054340,
			"target":34963
		},
		{
			"buffer":0,
			"byteLength":652080,
			"byteOffset":40494720,
			"target":34962
		},
		{
			"buffer":0,
			"byteLength":652080,
			"byteOffset":41146800,
			"target":34962
		},
		{
			"buffer":0,
			"byteLength":434720,
			"byteOffset":41798880,
			"target":34962
		},
		{
			"buffer":0,
			"byteLength":610092,
			"byteOffset":42233600,
			"target":34963
		}
	],
	"samplers":[
		{
			"magFilter":9729,
			"minFilter":9987
		}
	],
	"buffers":[
		{
			"byteLength":42843692,
			"uri":"Terrain.bin"
		}
	]
}
