{
	"asset":{
		"generator":"Khronos glTF Blender I/O v5.0.21",
		"version":"2.0"
	},
	"scene":0,
	"scenes":[
		{
			"name":"Scene",
			"nodes":[
				0
			]
		}
	],
	"nodes":[
		{
			"mesh":0,
			"name":"Adan_B"
		}
	],
	"materials":[
		{
			"alphaMode":"MASK",
			"doubleSided":true,
			"name":"Adan_B_AdanLeaf",
			"normalTexture":{
				"index":0
			},
			"occlusionTexture":{
				"index":1
			},
			"pbrMetallicRoughness":{
				"baseColorTexture":{
					"index":2
				},
				"metallicRoughnessTexture":{
					"index":1
				}
			}
		},
		{
			"name":"Adan_B_AdanFruit",
			"normalTexture":{
				"index":3
			},
			"occlusionTexture":{
				"index":4
			},
			"pbrMetallicRoughness":{
				"baseColorTexture":{
					"index":5
				},
				"metallicRoughnessTexture":{
					"index":4
				}
			}
		},
		{
			"name":"Adan_B_AdanBark",
			"normalTexture":{
				"index":6
			},
			"occlusionTexture":{
				"index":7
			},
			"pbrMetallicRoughness":{
				"baseColorTexture":{
					"index":8
				},
				"metallicRoughnessTexture":{
					"index":7
				}
			}
		}
	],
	"meshes":[
		{
			"name":"Adan_B",
			"primitives":[
				{
					"attributes":{
						"POSITION":0,
						"NORMAL":1,
						"TEXCOORD_0":2
					},
					"indices":3,
					"material":0
				},
				{
					"attributes":{
						"POSITION":4,
						"NORMAL":5,
						"TEXCOORD_0":6
					},
					"indices":7,
					"material":1
				},
				{
					"attributes":{
						"POSITION":8,
						"NORMAL":9,
						"TEXCOORD_0":10
					},
					"indices":11,
					"material":2
				}
			]
		}
	],
	"textures":[
		{
			"sampler":0,
			"source":0
		},
		{
			"sampler":0,
			"source":1
		},
		{
			"sampler":0,
			"source":2
		},
		{
			"sampler":0,
			"source":3
		},
		{
			"sampler":0,
			"source":4
		},
		{
			"sampler":0,
			"source":5
		},
		{
			"sampler":0,
			"source":6
		},
		{
			"sampler":0,
			"source":7
		},
		{
			"sampler":0,
			"source":8
		}
	],
	"images":[
		{
			"mimeType":"image/png",
			"name":"Adan_B_AdanLeaf_Normal",
			"uri":"Adan_B_AdanLeaf_Normal.png"
		},
		{
			"mimeType":"image/png",
			"name":"Adan_B_AdanLeaf_ORM",
			"uri":"Adan_B_AdanLeaf_ORM.png"
		},
		{
			"mimeType":"image/png",
			"name":"Adan_B_AdanLeaf_BaseColor",
			"uri":"Adan_B_AdanLeaf_BaseColor.png"
		},
		{
			"mimeType":"image/png",
			"name":"Adan_B_AdanFruit_Normal",
			"uri":"Adan_B_AdanFruit_Normal.png"
		},
		{
			"mimeType":"image/png",
			"name":"Adan_B_AdanFruit_ORM",
			"uri":"Adan_B_AdanFruit_ORM.png"
		},
		{
			"mimeType":"image/png",
			"name":"Adan_B_AdanFruit_BaseColor",
			"uri":"Adan_B_AdanFruit_BaseColor.png"
		},
		{
			"mimeType":"image/png",
			"name":"Adan_B_AdanBark_Normal",
			"uri":"Adan_B_AdanBark_Normal.png"
		},
		{
			"mimeType":"image/png",
			"name":"Adan_B_AdanBark_ORM",
			"uri":"Adan_B_AdanBark_ORM.png"
		},
		{
			"mimeType":"image/png",
			"name":"Adan_B_AdanBark_BaseColor",
			"uri":"Adan_B_AdanBark_BaseColor.png"
		}
	],
	"accessors":[
		{
			"bufferView":0,
			"componentType":5126,
			"count":16128,
			"max":[
				1.454444408416748,
				2.1003143787384033,
				1.130397915840149
			],
			"min":[
				-1.2629485130310059,
				0.04076361283659935,
				-1.8138905763626099
			],
			"type":"VEC3"
		},
		{
			"bufferView":1,
			"componentType":5126,
			"count":16128,
			"type":"VEC3"
		},
		{
			"bufferView":2,
			"componentType":5126,
			"count":16128,
			"type":"VEC2"
		},
		{
			"bufferView":3,
			"componentType":5123,
			"count":24192,
			"type":"SCALAR"
		},
		{
			"bufferView":4,
			"componentType":5126,
			"count":1536,
			"max":[
				0.38071802258491516,
				0.7034485340118408,
				0.46251341700553894
			],
			"min":[
				0.20747599005699158,
				0.5016083121299744,
				0.2893494665622711
			],
			"type":"VEC3"
		},
		{
			"bufferView":5,
			"componentType":5126,
			"count":1536,
			"type":"VEC3"
		},
		{
			"bufferView":6,
			"componentType":5126,
			"count":1536,
			"type":"VEC2"
		},
		{
			"bufferView":7,
			"componentType":5123,
			"count":2484,
			"type":"SCALAR"
		},
		{
			"bufferView":8,
			"componentType":5126,
			"count":815,
			"max":[
				0.655280351638794,
				1.2782659530639648,
				0.4043276607990265
			],
			"min":[
				-0.40298202633857727,
				-0.23779387772083282,
				-0.8126934170722961
			],
			"type":"VEC3"
		},
		{
			"bufferView":9,
			"componentType":5126,
			"count":815,
			"type":"VEC3"
		},
		{
			"bufferView":10,
			"componentType":5126,
			"count":815,
			"type":"VEC2"
		},
		{
			"bufferView":11,
			"componentType":5123,
			"count":3255,
			"type":"SCALAR"
		}
	],
	"bufferViews":[
		{
			"buffer":0,
			"byteLength":193536,
			"byteOffset":0,
			"target":34962
		},
		{
			"buffer":0,
			"byteLength":193536,
			"byteOffset":193536,
			"target":34962
		},
		{
			"buffer":0,
			"byteLength":129024,
			"byteOffset":387072,
			"target":34962
		},
		{
			"buffer":0,
			"byteLength":48384,
			"byteOffset":516096,
			"target":34963
		},
		{
			"buffer":0,
			"byteLength":18432,
			"byteOffset":564480,
			"target":34962
		},
		{
			"buffer":0,
			"byteLength":18432,
			"byteOffset":582912,
			"target":34962
		},
		{
			"buffer":0,
			"byteLength":12288,
			"byteOffset":601344,
			"target":34962
		},
		{
			"buffer":0,
			"byteLength":4968,
			"byteOffset":613632,
			"target":34963
		},
		{
			"buffer":0,
			"byteLength":9780,
			"byteOffset":618600,
			"target":34962
		},
		{
			"buffer":0,
			"byteLength":9780,
			"byteOffset":628380,
			"target":34962
		},
		{
			"buffer":0,
			"byteLength":6520,
			"byteOffset":638160,
			"target":34962
		},
		{
			"buffer":0,
			"byteLength":6510,
			"byteOffset":644680,
			"target":34963
		}
	],
	"samplers":[
		{
			"magFilter":9729,
			"minFilter":9987
		}
	],
	"buffers":[
		{
			"byteLength":651192,
			"uri":"Adan_B.bin"
		}
	]
}
