{
	"asset":{
		"generator":"Khronos glTF Blender I/O v5.0.21",
		"version":"2.0"
	},
	"scene":0,
	"scenes":[
		{
			"name":"Scene",
			"nodes":[
				0
			]
		}
	],
	"nodes":[
		{
			"mesh":0,
			"name":"Coral_Massive_A"
		}
	],
	"materials":[
		{
			"name":"Coral_Massive_A_Coral_Massive_A",
			"normalTexture":{
				"index":0
			},
			"occlusionTexture":{
				"index":1
			},
			"pbrMetallicRoughness":{
				"baseColorTexture":{
					"index":2
				},
				"metallicRoughnessTexture":{
					"index":1
				}
			}
		}
	],
	"meshes":[
		{
			"name":"Coral_Massive_A",
			"primitives":[
				{
					"attributes":{
						"POSITION":0,
						"NORMAL":1,
						"TEXCOORD_0":2,
						"TANGENT":3
					},
					"indices":4,
					"material":0
				}
			]
		}
	],
	"textures":[
		{
			"sampler":0,
			"source":0
		},
		{
			"sampler":0,
			"source":1
		},
		{
			"sampler":0,
			"source":2
		}
	],
	"images":[
		{
			"mimeType":"image/png",
			"name":"Coral_Massive_A_Coral_Massive_A_Normal",
			"uri":"Coral_Massive_A_Coral_Massive_A_Normal.png"
		},
		{
			"mimeType":"image/png",
			"name":"Coral_Massive_A_Coral_Massive_A_ORM",
			"uri":"Coral_Massive_A_Coral_Massive_A_ORM.png"
		},
		{
			"mimeType":"image/png",
			"name":"Coral_Massive_A_Coral_Massive_A_BaseColor",
			"uri":"Coral_Massive_A_Coral_Massive_A_BaseColor.png"
		}
	],
	"accessors":[
		{
			"bufferView":0,
			"componentType":5126,
			"count":7083,
			"max":[
				1.0804530382156372,
				1.4093111753463745,
				0.9144062995910645
			],
			"min":[
				-1.0613492727279663,
				-0.09999990463256836,
				-1.0082250833511353
			],
			"type":"VEC3"
		},
		{
			"bufferView":1,
			"componentType":5126,
			"count":7083,
			"type":"VEC3"
		},
		{
			"bufferView":2,
			"componentType":5126,
			"count":7083,
			"type":"VEC2"
		},
		{
			"bufferView":3,
			"componentType":5126,
			"count":7083,
			"type":"VEC4"
		},
		{
			"bufferView":4,
			"componentType":5123,
			"count":37500,
			"type":"SCALAR"
		}
	],
	"bufferViews":[
		{
			"buffer":0,
			"byteLength":84996,
			"byteOffset":0,
			"target":34962
		},
		{
			"buffer":0,
			"byteLength":84996,
			"byteOffset":84996,
			"target":34962
		},
		{
			"buffer":0,
			"byteLength":56664,
			"byteOffset":169992,
			"target":34962
		},
		{
			"buffer":0,
			"byteLength":113328,
			"byteOffset":226656,
			"target":34962
		},
		{
			"buffer":0,
			"byteLength":75000,
			"byteOffset":339984,
			"target":34963
		}
	],
	"samplers":[
		{
			"magFilter":9729,
			"minFilter":9987
		}
	],
	"buffers":[
		{
			"byteLength":414984,
			"uri":"Coral_Massive_A.bin"
		}
	]
}
