# MagicaVoxel @ Ephtracy

# group
o 

# material
mtllib monkey.mtl
usemtl palette

# normals
vn -1 0 0
vn 1 0 0
vn 0 0 1
vn 0 0 -1
vn 0 -1 0
vn 0 1 0

# texcoords
vt 0.310547 0.5
vt 0.314453 0.5
vt 0.958984 0.5
vt 0.994141 0.5

# verts
v -0.6 0.8 -0.1
v -0.6 0.8 -0.2
v -0.6 1.2 -0.1
v -0.6 1.2 -0.2
v -0.5 0.6 0.2
v -0.5 0.6 0
v -0.5 0.8 0.2
v -0.5 0.8 0
v -0.5 0.9 -0.2
v -0.5 0.9 -0.3
v -0.5 1.1 -0.2
v -0.5 1.1 -0.3
v -0.4 0.5 0.1
v -0.4 0.5 -0.2
v -0.4 0.6 0.1
v -0.4 0.6 0
v -0.4 0.6 -0.1
v -0.4 0.6 -0.2
v -0.4 0.7 -0.1
v -0.4 0.7 -0.3
v -0.4 0.8 0.1
v -0.4 0.8 0
v -0.4 0.8 -0.1
v -0.4 0.8 -0.2
v -0.4 0.8 -0.3
v -0.4 0.8 -0.4
v -0.4 0.9 -0.1
v -0.4 0.9 -0.2
v -0.4 0.9 -0.3
v -0.4 1 0.1
v -0.4 1 0
v -0.4 1.1 0
v -0.4 1.1 -0.1
v -0.4 1.1 -0.3
v -0.4 1.1 -0.4
v -0.3 0 0
v -0.3 0 -0.2
v -0.3 0.1 0
v -0.3 0.1 -0.2
v -0.3 0.4 0
v -0.3 0.4 -0.2
v -0.3 0.5 0
v -0.3 0.5 -0.2
v -0.3 0.6 -0.1
v -0.3 0.6 -0.2
v -0.3 0.6 -0.3
v -0.3 0.7 -0.1
v -0.3 0.7 -0.3
v -0.3 0.7 -0.4
v -0.3 0.8 0.2
v -0.3 0.8 0.1
v -0.3 0.8 -0.3
v -0.3 0.8 -0.4
v -0.3 0.8 -0.5
v -0.3 0.9 0.3
v -0.3 0.9 0.2
v -0.3 0.9 0.1
v -0.3 1 0.3
v -0.3 1 0.1
v -0.3 1 0
v -0.3 1.1 0
v -0.3 1.1 -0.1
v -0.3 1.1 -0.2
v -0.3 1.1 -0.4
v -0.3 1.1 -0.5
v -0.3 1.2 0.1
v -0.3 1.2 0
v -0.3 1.2 -0.1
v -0.3 1.2 -0.2
v -0.3 1.3 0
v -0.3 1.3 -0.4
v -0.2 0.1 0
v -0.2 0.1 -0.2
v -0.2 0.4 0
v -0.2 0.4 -0.2
v -0.2 0.6 0.3
v -0.2 0.6 0.2
v -0.2 0.7 0.3
v -0.2 0.7 0.2
v -0.2 0.9 0.3
v -0.2 0.9 0.2
v -0.2 1.1 -0.4
v -0.2 1.1 -0.5
v -0.2 1.2 0.1
v -0.2 1.2 0
v -0.2 1.2 -0.4
v -0.2 1.2 -0.5
v -0.2 1.3 0.1
v -0.2 1.3 0
v -0.2 1.3 -0.3
v -0.2 1.4 0
v -0.2 1.4 -0.3
v 0 0.2 -0.2
v 0 0.2 -0.5
v 0 0.3 -0.2
v 0 0.3 -0.4
v 0 0.4 -0.4
v 0 0.4 -0.5
v 0.1 0 0
v 0.1 0 -0.2
v 0.1 0.1 0
v 0.1 0.1 -0.2
v 0.3 0.5 0.1
v 0.3 0.5 0
v 0.3 0.6 0.1
v 0.3 0.6 0
v -0.3 0.5 0.1
v -0.3 0.5 0
v -0.3 0.6 0.1
v -0.3 0.6 0
v -0.1 0 0
v -0.1 0 -0.2
v -0.1 0.1 0
v -0.1 0.1 -0.2
v 0.1 0.2 -0.2
v 0.1 0.2 -0.5
v 0.1 0.3 -0.2
v 0.1 0.3 -0.4
v 0.1 0.4 -0.4
v 0.1 0.4 -0.5
v 0.2 0.1 0
v 0.2 0.1 -0.2
v 0.2 0.4 0
v 0.2 0.4 -0.2
v 0.2 0.6 0.3
v 0.2 0.6 0.2
v 0.2 0.7 0.3
v 0.2 0.7 0.2
v 0.2 0.9 0.3
v 0.2 0.9 0.2
v 0.2 1.1 -0.4
v 0.2 1.1 -0.5
v 0.2 1.2 0.1
v 0.2 1.2 0
v 0.2 1.2 -0.4
v 0.2 1.2 -0.5
v 0.2 1.3 0.1
v 0.2 1.3 0
v 0.2 1.3 -0.3
v 0.2 1.4 0
v 0.2 1.4 -0.3
v 0.3 0 0
v 0.3 0 -0.2
v 0.3 0.1 0
v 0.3 0.1 -0.2
v 0.3 0.4 0
v 0.3 0.4 -0.2
v 0.3 0.5 0
v 0.3 0.5 -0.2
v 0.3 0.6 -0.1
v 0.3 0.6 -0.2
v 0.3 0.6 -0.3
v 0.3 0.7 -0.1
v 0.3 0.7 -0.3
v 0.3 0.7 -0.4
v 0.3 0.8 0.2
v 0.3 0.8 0.1
v 0.3 0.8 -0.3
v 0.3 0.8 -0.4
v 0.3 0.8 -0.5
v 0.3 0.9 0.3
v 0.3 0.9 0.2
v 0.3 0.9 0.1
v 0.3 1 0.3
v 0.3 1 0.1
v 0.3 1 0
v 0.3 1.1 0
v 0.3 1.1 -0.1
v 0.3 1.1 -0.2
v 0.3 1.1 -0.4
v 0.3 1.1 -0.5
v 0.3 1.2 0.1
v 0.3 1.2 0
v 0.3 1.2 -0.1
v 0.3 1.2 -0.2
v 0.3 1.3 0
v 0.3 1.3 -0.4
v 0.4 0.5 0.1
v 0.4 0.5 -0.2
v 0.4 0.6 0.1
v 0.4 0.6 0
v 0.4 0.6 -0.1
v 0.4 0.6 -0.2
v 0.4 0.7 -0.1
v 0.4 0.7 -0.3
v 0.4 0.8 0.1
v 0.4 0.8 0
v 0.4 0.8 -0.1
v 0.4 0.8 -0.2
v 0.4 0.8 -0.3
v 0.4 0.8 -0.4
v 0.4 0.9 -0.1
v 0.4 0.9 -0.2
v 0.4 0.9 -0.3
v 0.4 1 0.1
v 0.4 1 0
v 0.4 1.1 0
v 0.4 1.1 -0.1
v 0.4 1.1 -0.3
v 0.4 1.1 -0.4
v 0.5 0.6 0.2
v 0.5 0.6 0
v 0.5 0.8 0.2
v 0.5 0.8 0
v 0.5 0.9 -0.2
v 0.5 0.9 -0.3
v 0.5 1.1 -0.2
v 0.5 1.1 -0.3
v 0.6 0.8 -0.1
v 0.6 0.8 -0.2
v 0.6 1.2 -0.1
v 0.6 1.2 -0.2
v -0.3 0.9 0.3
v -0.3 1 0.3
v -0.2 0.6 0.3
v -0.2 0.7 0.3
v -0.2 0.9 0.3
v 0.2 0.6 0.3
v 0.2 0.7 0.3
v 0.2 0.9 0.3
v 0.3 0.9 0.3
v 0.3 1 0.3
v -0.5 0.6 0.2
v -0.5 0.8 0.2
v -0.3 0.6 0.2
v -0.3 0.7 0.2
v -0.3 0.8 0.2
v -0.3 0.9 0.2
v -0.2 0.6 0.2
v -0.2 0.7 0.2
v -0.2 0.9 0.2
v 0.2 0.6 0.2
v 0.2 0.7 0.2
v 0.2 0.9 0.2
v 0.3 0.6 0.2
v 0.3 0.7 0.2
v 0.3 0.8 0.2
v 0.3 0.9 0.2
v 0.5 0.6 0.2
v 0.5 0.8 0.2
v -0.4 0.5 0.1
v -0.4 0.6 0.1
v -0.4 0.8 0.1
v -0.4 1 0.1
v -0.3 0.5 0.1
v -0.3 0.6 0.1
v -0.3 0.8 0.1
v -0.3 0.9 0.1
v -0.3 1 0.1
v -0.3 1.2 0.1
v -0.2 1 0.1
v -0.2 1.1 0.1
v -0.2 1.2 0.1
v -0.2 1.3 0.1
v -0.1 1 0.1
v -0.1 1.1 0.1
v -0.1 1.2 0.1
v 0.1 1 0.1
v 0.1 1.1 0.1
v 0.1 1.2 0.1
v 0.2 1 0.1
v 0.2 1.1 0.1
v 0.2 1.2 0.1
v 0.2 1.3 0.1
v 0.3 0.5 0.1
v 0.3 0.6 0.1
v 0.3 0.8 0.1
v 0.3 0.9 0.1
v 0.3 1 0.1
v 0.3 1.2 0.1
v 0.4 0.5 0.1
v 0.4 0.6 0.1
v 0.4 0.8 0.1
v 0.4 1 0.1
v -0.4 1 0
v -0.4 1.1 0
v -0.3 0 0
v -0.3 0.1 0
v -0.3 0.4 0
v -0.3 0.5 0
v -0.3 0.6 0
v -0.3 1 0
v -0.3 1.1 0
v -0.3 1.2 0
v -0.3 1.3 0
v -0.2 0.1 0
v -0.2 0.4 0
v -0.2 1.2 0
v -0.2 1.3 0
v -0.2 1.4 0
v -0.1 0 0
v -0.1 0.1 0
v -0.1 0.2 0
v -0.1 0.4 0
v 0.1 0 0
v 0.1 0.1 0
v 0.1 0.2 0
v 0.1 0.4 0
v 0.2 0.1 0
v 0.2 0.4 0
v 0.2 1.2 0
v 0.2 1.3 0
v 0.2 1.4 0
v 0.3 0 0
v 0.3 0.1 0
v 0.3 0.4 0
v 0.3 0.5 0
v 0.3 0.6 0
v 0.3 1 0
v 0.3 1.1 0
v 0.3 1.2 0
v 0.3 1.3 0
v 0.4 1 0
v 0.4 1.1 0
v -0.6 0.8 -0.1
v -0.6 1.2 -0.1
v -0.5 0.9 -0.1
v -0.5 1.1 -0.1
v -0.4 0.8 -0.1
v -0.4 0.9 -0.1
v -0.4 1.1 -0.1
v -0.3 1.1 -0.1
v -0.3 1.2 -0.1
v 0.3 1.1 -0.1
v 0.3 1.2 -0.1
v 0.4 0.8 -0.1
v 0.4 0.9 -0.1
v 0.4 1.1 -0.1
v 0.5 0.9 -0.1
v 0.5 1.1 -0.1
v 0.6 0.8 -0.1
v 0.6 1.2 -0.1
v 0 0.3 -0.4
v 0 0.4 -0.4
v 0.1 0.3 -0.4
v 0.1 0.4 -0.4
v -0.5 0.6 0
v -0.5 0.8 0
v -0.4 0.6 0
v -0.4 0.8 0
v 0.4 0.6 0
v 0.4 0.8 0
v 0.5 0.6 0
v 0.5 0.8 0
v -0.4 0.6 -0.1
v -0.4 0.7 -0.1
v -0.3 0.6 -0.1
v -0.3 0.7 -0.1
v 0.3 0.6 -0.1
v 0.3 0.7 -0.1
v 0.4 0.6 -0.1
v 0.4 0.7 -0.1
v -0.6 0.8 -0.2
v -0.6 1.2 -0.2
v -0.5 0.9 -0.2
v -0.5 1.1 -0.2
v -0.4 0.5 -0.2
v -0.4 0.6 -0.2
v -0.4 0.8 -0.2
v -0.4 0.9 -0.2
v -0.3 0 -0.2
v -0.3 0.1 -0.2
v -0.3 0.4 -0.2
v -0.3 0.5 -0.2
v -0.3 0.6 -0.2
v -0.3 1.1 -0.2
v -0.3 1.2 -0.2
v -0.2 0.1 -0.2
v -0.2 0.4 -0.2
v -0.1 0 -0.2
v -0.1 0.1 -0.2
v 0 0.2 -0.2
v 0 0.3 -0.2
v 0.1 0 -0.2
v 0.1 0.1 -0.2
v 0.1 0.2 -0.2
v 0.1 0.3 -0.2
v 0.2 0.1 -0.2
v 0.2 0.4 -0.2
v 0.3 0 -0.2
v 0.3 0.1 -0.2
v 0.3 0.4 -0.2
v 0.3 0.5 -0.2
v 0.3 0.6 -0.2
v 0.3 1.1 -0.2
v 0.3 1.2 -0.2
v 0.4 0.5 -0.2
v 0.4 0.6 -0.2
v 0.4 0.8 -0.2
v 0.4 0.9 -0.2
v 0.5 0.9 -0.2
v 0.5 1.1 -0.2
v 0.6 0.8 -0.2
v 0.6 1.2 -0.2
v -0.5 0.9 -0.3
v -0.5 1.1 -0.3
v -0.4 0.7 -0.3
v -0.4 0.8 -0.3
v -0.4 0.9 -0.3
v -0.4 1.1 -0.3
v -0.3 0.6 -0.3
v -0.3 0.7 -0.3
v -0.3 0.8 -0.3
v -0.2 1.3 -0.3
v -0.2 1.4 -0.3
v 0.2 1.3 -0.3
v 0.2 1.4 -0.3
v 0.3 0.6 -0.3
v 0.3 0.7 -0.3
v 0.3 0.8 -0.3
v 0.4 0.7 -0.3
v 0.4 0.8 -0.3
v 0.4 0.9 -0.3
v 0.4 1.1 -0.3
v 0.5 0.9 -0.3
v 0.5 1.1 -0.3
v -0.4 0.8 -0.4
v -0.4 1.1 -0.4
v -0.3 0.7 -0.4
v -0.3 0.8 -0.4
v -0.3 1.1 -0.4
v -0.3 1.3 -0.4
v -0.2 1.1 -0.4
v -0.2 1.2 -0.4
v 0.2 1.1 -0.4
v 0.2 1.2 -0.4
v 0.3 0.7 -0.4
v 0.3 0.8 -0.4
v 0.3 1.1 -0.4
v 0.3 1.3 -0.4
v 0.4 0.8 -0.4
v 0.4 1.1 -0.4
v -0.3 0.8 -0.5
v -0.3 1.1 -0.5
v -0.2 1.1 -0.5
v -0.2 1.2 -0.5
v 0 0.2 -0.5
v 0 0.4 -0.5
v 0.1 0.2 -0.5
v 0.1 0.4 -0.5
v 0.2 1.1 -0.5
v 0.2 1.2 -0.5
v 0.3 0.8 -0.5
v 0.3 1.1 -0.5
v -0.3 0 0
v -0.1 0 0
v 0.1 0 0
v 0.3 0 0
v -0.3 0 -0.2
v -0.1 0 -0.2
v 0.1 0 -0.2
v 0.3 0 -0.2
v -0.1 0.1 0
v 0.1 0.1 0
v -0.1 0.1 -0.2
v 0.1 0.1 -0.2
v 0 0.2 -0.2
v 0.1 0.2 -0.2
v 0 0.2 -0.5
v 0.1 0.2 -0.5
v -0.3 0.4 0
v -0.2 0.4 0
v 0.2 0.4 0
v 0.3 0.4 0
v -0.3 0.4 -0.2
v -0.2 0.4 -0.2
v 0.2 0.4 -0.2
v 0.3 0.4 -0.2
v -0.4 0.5 0.1
v -0.3 0.5 0.1
v 0.3 0.5 0.1
v 0.4 0.5 0.1
v -0.3 0.5 0
v 0.3 0.5 0
v -0.4 0.5 -0.2
v -0.3 0.5 -0.2
v 0.3 0.5 -0.2
v 0.4 0.5 -0.2
v -0.2 0.6 0.3
v 0.2 0.6 0.3
v -0.5 0.6 0.2
v -0.3 0.6 0.2
v -0.2 0.6 0.2
v 0.2 0.6 0.2
v 0.3 0.6 0.2
v 0.5 0.6 0.2
v -0.4 0.6 0.1
v -0.3 0.6 0.1
v 0.3 0.6 0.1
v 0.4 0.6 0.1
v -0.5 0.6 0
v -0.4 0.6 0
v -0.3 0.6 0
v 0.3 0.6 0
v 0.4 0.6 0
v 0.5 0.6 0
v -0.3 0.6 -0.2
v 0.3 0.6 -0.2
v -0.3 0.6 -0.3
v 0.3 0.6 -0.3
v -0.4 0.7 -0.1
v -0.3 0.7 -0.1
v 0.3 0.7 -0.1
v 0.4 0.7 -0.1
v -0.4 0.7 -0.3
v -0.3 0.7 -0.3
v 0.3 0.7 -0.3
v 0.4 0.7 -0.3
v -0.3 0.7 -0.4
v 0.3 0.7 -0.4
v -0.6 0.8 -0.1
v -0.4 0.8 -0.1
v 0.4 0.8 -0.1
v 0.6 0.8 -0.1
v -0.6 0.8 -0.2
v -0.4 0.8 -0.2
v 0.4 0.8 -0.2
v 0.6 0.8 -0.2
v -0.4 0.8 -0.3
v -0.3 0.8 -0.3
v 0.3 0.8 -0.3
v 0.4 0.8 -0.3
v -0.4 0.8 -0.4
v -0.3 0.8 -0.4
v 0.3 0.8 -0.4
v 0.4 0.8 -0.4
v -0.3 0.8 -0.5
v 0.3 0.8 -0.5
v -0.3 0.9 0.3
v -0.2 0.9 0.3
v 0.2 0.9 0.3
v 0.3 0.9 0.3
v -0.3 0.9 0.2
v -0.2 0.9 0.2
v 0.2 0.9 0.2
v 0.3 0.9 0.2
v -0.5 0.9 -0.2
v -0.4 0.9 -0.2
v 0.4 0.9 -0.2
v 0.5 0.9 -0.2
v -0.5 0.9 -0.3
v -0.4 0.9 -0.3
v 0.4 0.9 -0.3
v 0.5 0.9 -0.3
v -0.3 0.1 0
v -0.2 0.1 0
v 0.2 0.1 0
v 0.3 0.1 0
v -0.3 0.1 -0.2
v -0.2 0.1 -0.2
v 0.2 0.1 -0.2
v 0.3 0.1 -0.2
v 0 0.3 -0.2
v 0.1 0.3 -0.2
v 0 0.3 -0.4
v 0.1 0.3 -0.4
v 0 0.4 -0.4
v 0.1 0.4 -0.4
v 0 0.4 -0.5
v 0.1 0.4 -0.5
v -0.4 0.6 -0.1
v -0.3 0.6 -0.1
v 0.3 0.6 -0.1
v 0.4 0.6 -0.1
v -0.4 0.6 -0.2
v -0.3 0.6 -0.2
v 0.3 0.6 -0.2
v 0.4 0.6 -0.2
v -0.5 0.8 0.2
v -0.3 0.8 0.2
v 0.3 0.8 0.2
v 0.5 0.8 0.2
v -0.4 0.8 0.1
v -0.3 0.8 0.1
v 0.3 0.8 0.1
v 0.4 0.8 0.1
v -0.5 0.8 0
v -0.4 0.8 0
v 0.4 0.8 0
v 0.5 0.8 0
v -0.3 1 0.3
v 0.3 1 0.3
v -0.4 1 0.1
v -0.3 1 0.1
v -0.2 1 0.1
v -0.1 1 0.1
v 0.1 1 0.1
v 0.2 1 0.1
v 0.3 1 0.1
v 0.4 1 0.1
v -0.4 1 0
v -0.3 1 0
v 0.3 1 0
v 0.4 1 0
v -0.4 1.1 0
v -0.3 1.1 0
v 0.3 1.1 0
v 0.4 1.1 0
v -0.4 1.1 -0.1
v -0.3 1.1 -0.1
v 0.3 1.1 -0.1
v 0.4 1.1 -0.1
v -0.5 1.1 -0.2
v -0.3 1.1 -0.2
v 0.3 1.1 -0.2
v 0.5 1.1 -0.2
v -0.5 1.1 -0.3
v -0.4 1.1 -0.3
v 0.4 1.1 -0.3
v 0.5 1.1 -0.3
v -0.4 1.1 -0.4
v -0.3 1.1 -0.4
v -0.2 1.1 -0.4
v 0.2 1.1 -0.4
v 0.3 1.1 -0.4
v 0.4 1.1 -0.4
v -0.3 1.1 -0.5
v -0.2 1.1 -0.5
v 0.2 1.1 -0.5
v 0.3 1.1 -0.5
v -0.3 1.2 0.1
v -0.2 1.2 0.1
v 0.2 1.2 0.1
v 0.3 1.2 0.1
v -0.3 1.2 0
v -0.2 1.2 0
v 0.2 1.2 0
v 0.3 1.2 0
v -0.6 1.2 -0.1
v -0.3 1.2 -0.1
v 0.3 1.2 -0.1
v 0.6 1.2 -0.1
v -0.6 1.2 -0.2
v -0.3 1.2 -0.2
v 0.3 1.2 -0.2
v 0.6 1.2 -0.2
v -0.2 1.2 -0.4
v 0.2 1.2 -0.4
v -0.2 1.2 -0.5
v 0.2 1.2 -0.5
v -0.2 1.3 0.1
v 0.2 1.3 0.1
v -0.3 1.3 0
v -0.2 1.3 0
v 0.2 1.3 0
v 0.3 1.3 0
v -0.2 1.3 -0.3
v 0.2 1.3 -0.3
v -0.3 1.3 -0.4
v 0.3 1.3 -0.4
v -0.2 1.4 0
v 0.2 1.4 0
v -0.2 1.4 -0.3
v 0.2 1.4 -0.3

# faces
f 3/1/1 2/1/1 1/1/1
f 4/1/1 2/1/1 3/1/1
f 7/2/1 6/2/1 5/2/1
f 8/2/1 6/2/1 7/2/1
f 11/1/1 10/1/1 9/1/1
f 12/1/1 10/1/1 11/1/1
f 15/1/1 14/1/1 13/1/1
f 16/1/1 14/1/1 15/1/1
f 17/1/1 14/1/1 16/1/1
f 18/1/1 14/1/1 17/1/1
f 19/1/1 17/1/1 16/1/1
f 22/1/1 19/1/1 16/1/1
f 22/1/1 20/1/1 19/1/1
f 23/1/1 20/1/1 22/1/1
f 24/1/1 20/1/1 23/1/1
f 25/1/1 20/1/1 24/1/1
f 27/1/1 22/1/1 21/1/1
f 27/1/1 23/1/1 22/1/1
f 28/1/1 26/1/1 25/1/1
f 28/1/1 25/1/1 24/1/1
f 29/1/1 26/1/1 28/1/1
f 30/1/1 27/1/1 21/1/1
f 31/1/1 27/1/1 30/1/1
f 32/1/1 27/1/1 31/1/1
f 33/1/1 27/1/1 32/1/1
f 34/1/1 26/1/1 29/1/1
f 35/1/1 26/1/1 34/1/1
f 38/2/1 37/2/1 36/2/1
f 39/2/1 37/2/1 38/2/1
f 42/1/1 41/1/1 40/1/1
f 43/1/1 41/1/1 42/1/1
f 47/1/1 45/1/1 44/1/1
f 47/1/1 46/1/1 45/1/1
f 48/1/1 46/1/1 47/1/1
f 52/1/1 49/1/1 48/1/1
f 53/1/1 49/1/1 52/1/1
f 56/3/1 51/3/1 50/3/1
f 57/3/1 51/3/1 56/3/1
f 58/2/1 56/2/1 55/2/1
f 58/2/1 57/2/1 56/2/1
f 59/2/1 57/2/1 58/2/1
f 61/1/1 60/1/1 59/1/1
f 64/1/1 54/1/1 53/1/1
f 65/1/1 54/1/1 64/1/1
f 66/1/1 62/1/1 61/1/1
f 66/1/1 61/1/1 59/1/1
f 67/1/1 62/1/1 66/1/1
f 68/1/1 62/1/1 67/1/1
f 69/1/1 64/1/1 63/1/1
f 70/1/1 68/1/1 67/1/1
f 70/1/1 69/1/1 68/1/1
f 71/1/1 64/1/1 69/1/1
f 71/1/1 69/1/1 70/1/1
f 74/1/1 73/1/1 72/1/1
f 75/1/1 73/1/1 74/1/1
f 78/1/1 77/1/1 76/1/1
f 79/1/1 77/1/1 78/1/1
f 80/3/1 79/3/1 78/3/1
f 81/3/1 79/3/1 80/3/1
f 86/1/1 83/1/1 82/1/1
f 87/1/1 83/1/1 86/1/1
f 88/1/1 85/1/1 84/1/1
f 89/1/1 85/1/1 88/1/1
f 91/1/1 90/1/1 89/1/1
f 92/1/1 90/1/1 91/1/1
f 95/1/1 94/1/1 93/1/1
f 96/1/1 94/1/1 95/1/1
f 97/1/1 94/1/1 96/1/1
f 98/1/1 94/1/1 97/1/1
f 101/2/1 100/2/1 99/2/1
f 102/2/1 100/2/1 101/2/1
f 105/1/1 104/1/1 103/1/1
f 106/1/1 104/1/1 105/1/1
f 107/1/2 108/1/2 109/1/2
f 109/1/2 108/1/2 110/1/2
f 111/2/2 112/2/2 113/2/2
f 113/2/2 112/2/2 114/2/2
f 115/1/2 116/1/2 117/1/2
f 117/1/2 116/1/2 118/1/2
f 118/1/2 116/1/2 119/1/2
f 119/1/2 116/1/2 120/1/2
f 121/1/2 122/1/2 123/1/2
f 123/1/2 122/1/2 124/1/2
f 125/1/2 126/1/2 127/1/2
f 127/1/2 126/1/2 128/1/2
f 127/3/2 128/3/2 129/3/2
f 129/3/2 128/3/2 130/3/2
f 131/1/2 132/1/2 135/1/2
f 135/1/2 132/1/2 136/1/2
f 133/1/2 134/1/2 137/1/2
f 137/1/2 134/1/2 138/1/2
f 138/1/2 139/1/2 140/1/2
f 140/1/2 139/1/2 141/1/2
f 142/2/2 143/2/2 144/2/2
f 144/2/2 143/2/2 145/2/2
f 146/1/2 147/1/2 148/1/2
f 148/1/2 147/1/2 149/1/2
f 150/1/2 151/1/2 153/1/2
f 151/1/2 152/1/2 153/1/2
f 153/1/2 152/1/2 154/1/2
f 154/1/2 155/1/2 158/1/2
f 158/1/2 155/1/2 159/1/2
f 156/3/2 157/3/2 162/3/2
f 162/3/2 157/3/2 163/3/2
f 161/2/2 162/2/2 164/2/2
f 162/2/2 163/2/2 164/2/2
f 164/2/2 163/2/2 165/2/2
f 165/1/2 166/1/2 167/1/2
f 159/1/2 160/1/2 170/1/2
f 170/1/2 160/1/2 171/1/2
f 167/1/2 168/1/2 172/1/2
f 165/1/2 167/1/2 172/1/2
f 172/1/2 168/1/2 173/1/2
f 173/1/2 168/1/2 174/1/2
f 169/1/2 170/1/2 175/1/2
f 173/1/2 174/1/2 176/1/2
f 174/1/2 175/1/2 176/1/2
f 175/1/2 170/1/2 177/1/2
f 176/1/2 175/1/2 177/1/2
f 178/1/2 179/1/2 180/1/2
f 180/1/2 179/1/2 181/1/2
f 181/1/2 179/1/2 182/1/2
f 182/1/2 179/1/2 183/1/2
f 181/1/2 182/1/2 184/1/2
f 181/1/2 184/1/2 187/1/2
f 184/1/2 185/1/2 187/1/2
f 187/1/2 185/1/2 188/1/2
f 188/1/2 185/1/2 189/1/2
f 189/1/2 185/1/2 190/1/2
f 186/1/2 187/1/2 192/1/2
f 187/1/2 188/1/2 192/1/2
f 190/1/2 191/1/2 193/1/2
f 189/1/2 190/1/2 193/1/2
f 193/1/2 191/1/2 194/1/2
f 186/1/2 192/1/2 195/1/2
f 195/1/2 192/1/2 196/1/2
f 196/1/2 192/1/2 197/1/2
f 197/1/2 192/1/2 198/1/2
f 194/1/2 191/1/2 199/1/2
f 199/1/2 191/1/2 200/1/2
f 201/2/2 202/2/2 203/2/2
f 203/2/2 202/2/2 204/2/2
f 205/1/2 206/1/2 207/1/2
f 207/1/2 206/1/2 208/1/2
f 209/1/2 210/1/2 211/1/2
f 211/1/2 210/1/2 212/1/2
f 217/2/3 214/2/3 213/2/3
f 218/1/3 216/1/3 215/1/3
f 219/3/3 217/3/3 216/3/3
f 219/1/3 216/1/3 218/1/3
f 220/2/3 214/2/3 217/2/3
f 220/3/3 217/3/3 219/3/3
f 221/2/3 214/2/3 220/2/3
f 222/2/3 214/2/3 221/2/3
f 225/2/3 224/2/3 223/2/3
f 226/2/3 224/2/3 225/2/3
f 227/2/3 224/2/3 226/2/3
f 229/1/3 226/1/3 225/1/3
f 230/3/3 228/3/3 227/3/3
f 230/1/3 226/1/3 229/1/3
f 230/3/3 227/3/3 226/3/3
f 231/3/3 228/3/3 230/3/3
f 235/1/3 233/1/3 232/1/3
f 236/3/3 234/3/3 233/3/3
f 236/1/3 233/1/3 235/1/3
f 237/3/3 234/3/3 236/3/3
f 238/3/3 234/3/3 237/3/3
f 239/2/3 236/2/3 235/2/3
f 239/2/3 237/2/3 236/2/3
f 240/2/3 237/2/3 239/2/3
f 245/1/3 242/1/3 241/1/3
f 246/1/3 242/1/3 245/1/3
f 247/1/3 244/1/3 243/1/3
f 248/1/3 244/1/3 247/1/3
f 249/1/3 244/1/3 248/1/3
f 251/1/3 250/1/3 249/1/3
f 252/1/3 250/1/3 251/1/3
f 253/1/3 250/1/3 252/1/3
f 255/4/3 252/4/3 251/4/3
f 256/3/3 253/3/3 252/3/3
f 256/4/3 252/4/3 255/4/3
f 257/1/3 254/1/3 253/1/3
f 257/3/3 253/3/3 256/3/3
f 258/2/3 256/2/3 255/2/3
f 258/2/3 257/2/3 256/2/3
f 259/2/3 257/2/3 258/2/3
f 260/1/3 254/1/3 257/1/3
f 260/2/3 257/2/3 259/2/3
f 261/4/3 259/4/3 258/4/3
f 262/3/3 260/3/3 259/3/3
f 262/4/3 259/4/3 261/4/3
f 263/1/3 254/1/3 260/1/3
f 263/3/3 260/3/3 262/3/3
f 264/1/3 254/1/3 263/1/3
f 269/1/3 262/1/3 261/1/3
f 269/1/3 263/1/3 262/1/3
f 270/1/3 263/1/3 269/1/3
f 271/1/3 266/1/3 265/1/3
f 272/1/3 266/1/3 271/1/3
f 273/1/3 268/1/3 267/1/3
f 273/1/3 269/1/3 268/1/3
f 274/1/3 269/1/3 273/1/3
f 282/1/3 276/1/3 275/1/3
f 283/1/3 276/1/3 282/1/3
f 286/2/3 278/2/3 277/2/3
f 287/1/3 281/1/3 280/1/3
f 287/1/3 280/1/3 279/1/3
f 288/1/3 285/1/3 284/1/3
f 289/1/3 285/1/3 288/1/3
f 291/2/3 286/2/3 277/2/3
f 292/1/3 287/1/3 286/1/3
f 292/2/3 286/2/3 291/2/3
f 293/1/3 287/1/3 292/1/3
f 294/1/3 281/1/3 287/1/3
f 294/1/3 287/1/3 293/1/3
f 296/1/3 293/1/3 292/1/3
f 297/2/3 294/2/3 293/2/3
f 297/1/3 293/1/3 296/1/3
f 298/1/3 281/1/3 294/1/3
f 298/2/3 294/2/3 297/2/3
f 299/2/3 296/2/3 295/2/3
f 299/1/3 297/1/3 296/1/3
f 299/1/3 298/1/3 297/1/3
f 300/1/3 281/1/3 298/1/3
f 300/1/3 298/1/3 299/1/3
f 302/1/3 290/1/3 289/1/3
f 303/1/3 290/1/3 302/1/3
f 304/2/3 299/2/3 295/2/3
f 305/2/3 299/2/3 304/2/3
f 306/1/3 281/1/3 300/1/3
f 307/1/3 281/1/3 306/1/3
f 308/1/3 281/1/3 307/1/3
f 311/1/3 302/1/3 301/1/3
f 312/1/3 302/1/3 311/1/3
f 313/1/3 310/1/3 309/1/3
f 314/1/3 310/1/3 313/1/3
f 317/1/3 316/1/3 315/1/3
f 318/1/3 316/1/3 317/1/3
f 319/1/3 317/1/3 315/1/3
f 320/2/3 318/2/3 317/2/3
f 320/1/3 317/1/3 319/1/3
f 321/1/3 316/1/3 318/1/3
f 321/2/3 318/2/3 320/2/3
f 322/1/3 316/1/3 321/1/3
f 323/1/3 316/1/3 322/1/3
f 328/1/3 325/1/3 324/1/3
f 329/1/3 327/1/3 326/1/3
f 329/2/3 328/2/3 327/2/3
f 330/1/3 325/1/3 328/1/3
f 330/2/3 328/2/3 329/2/3
f 331/1/3 329/1/3 326/1/3
f 331/1/3 330/1/3 329/1/3
f 332/1/3 325/1/3 330/1/3
f 332/1/3 330/1/3 331/1/3
f 335/1/3 334/1/3 333/1/3
f 336/1/3 334/1/3 335/1/3
f 337/2/4 338/2/4 339/2/4
f 339/2/4 338/2/4 340/2/4
f 341/2/4 342/2/4 343/2/4
f 343/2/4 342/2/4 344/2/4
f 345/1/4 346/1/4 347/1/4
f 347/1/4 346/1/4 348/1/4
f 349/1/4 350/1/4 351/1/4
f 351/1/4 350/1/4 352/1/4
f 353/1/4 354/1/4 355/1/4
f 355/1/4 354/1/4 356/1/4
f 353/1/4 355/1/4 359/1/4
f 359/1/4 355/1/4 360/1/4
f 357/1/4 358/1/4 364/1/4
f 364/1/4 358/1/4 365/1/4
f 356/1/4 354/1/4 366/1/4
f 366/1/4 354/1/4 367/1/4
f 361/2/4 362/2/4 368/2/4
f 364/1/4 365/1/4 369/1/4
f 363/1/4 364/1/4 369/1/4
f 361/2/4 368/2/4 370/2/4
f 368/1/4 369/1/4 371/1/4
f 370/2/4 368/2/4 371/2/4
f 371/1/4 369/1/4 372/1/4
f 372/1/4 369/1/4 373/1/4
f 371/1/4 372/1/4 375/1/4
f 375/1/4 372/1/4 376/1/4
f 373/1/4 369/1/4 377/1/4
f 375/1/4 376/1/4 378/1/4
f 376/1/4 377/1/4 378/1/4
f 374/2/4 375/2/4 378/2/4
f 369/1/4 365/1/4 379/1/4
f 378/1/4 377/1/4 379/1/4
f 377/1/4 369/1/4 379/1/4
f 374/2/4 378/2/4 380/2/4
f 380/2/4 378/2/4 381/2/4
f 379/1/4 365/1/4 382/1/4
f 382/1/4 365/1/4 383/1/4
f 383/1/4 365/1/4 384/1/4
f 383/1/4 384/1/4 387/1/4
f 387/1/4 384/1/4 388/1/4
f 389/1/4 390/1/4 391/1/4
f 385/1/4 386/1/4 392/1/4
f 389/1/4 391/1/4 393/1/4
f 391/1/4 392/1/4 393/1/4
f 392/1/4 386/1/4 394/1/4
f 393/1/4 392/1/4 394/1/4
f 395/1/4 396/1/4 399/1/4
f 399/1/4 396/1/4 400/1/4
f 397/1/4 398/1/4 402/1/4
f 402/1/4 398/1/4 403/1/4
f 404/1/4 405/1/4 406/1/4
f 406/1/4 405/1/4 407/1/4
f 401/1/4 402/1/4 408/1/4
f 408/1/4 402/1/4 409/1/4
f 409/1/4 410/1/4 411/1/4
f 411/1/4 410/1/4 412/1/4
f 413/1/4 414/1/4 415/1/4
f 415/1/4 414/1/4 416/1/4
f 417/1/4 418/1/4 420/1/4
f 420/1/4 418/1/4 421/1/4
f 421/1/4 422/1/4 423/1/4
f 423/1/4 422/1/4 424/1/4
f 424/1/4 422/1/4 426/1/4
f 419/1/4 420/1/4 427/1/4
f 427/1/4 420/1/4 428/1/4
f 425/1/4 426/1/4 429/1/4
f 426/1/4 422/1/4 430/1/4
f 429/1/4 426/1/4 430/1/4
f 428/1/4 429/1/4 431/1/4
f 431/1/4 429/1/4 432/1/4
f 433/1/4 434/1/4 435/1/4
f 437/1/4 438/1/4 439/1/4
f 439/1/4 438/1/4 440/1/4
f 433/1/4 435/1/4 441/1/4
f 435/1/4 436/1/4 441/1/4
f 441/1/4 436/1/4 442/1/4
f 433/1/4 441/1/4 443/1/4
f 443/1/4 441/1/4 444/1/4
f 449/2/5 446/2/5 445/2/5
f 450/2/5 446/2/5 449/2/5
f 451/2/5 448/2/5 447/2/5
f 452/2/5 448/2/5 451/2/5
f 455/1/5 454/1/5 453/1/5
f 456/1/5 454/1/5 455/1/5
f 459/1/5 458/1/5 457/1/5
f 460/1/5 458/1/5 459/1/5
f 465/1/5 462/1/5 461/1/5
f 466/1/5 462/1/5 465/1/5
f 467/1/5 464/1/5 463/1/5
f 468/1/5 464/1/5 467/1/5
f 473/1/5 470/1/5 469/1/5
f 474/1/5 472/1/5 471/1/5
f 475/1/5 473/1/5 469/1/5
f 476/1/5 473/1/5 475/1/5
f 477/1/5 472/1/5 474/1/5
f 478/1/5 472/1/5 477/1/5
f 483/1/5 480/1/5 479/1/5
f 484/1/5 480/1/5 483/1/5
f 487/2/5 482/2/5 481/2/5
f 488/1/5 483/1/5 482/1/5
f 488/2/5 482/2/5 487/2/5
f 488/1/5 484/1/5 483/1/5
f 488/1/5 485/1/5 484/1/5
f 489/2/5 486/2/5 485/2/5
f 489/1/5 485/1/5 488/1/5
f 490/2/5 486/2/5 489/2/5
f 491/2/5 487/2/5 481/2/5
f 492/2/5 487/2/5 491/2/5
f 493/1/5 489/1/5 488/1/5
f 494/1/5 489/1/5 493/1/5
f 495/2/5 486/2/5 490/2/5
f 496/2/5 486/2/5 495/2/5
f 499/1/5 498/1/5 497/1/5
f 500/1/5 498/1/5 499/1/5
f 505/1/5 502/1/5 501/1/5
f 506/1/5 502/1/5 505/1/5
f 507/1/5 504/1/5 503/1/5
f 508/1/5 504/1/5 507/1/5
f 509/1/5 507/1/5 506/1/5
f 510/1/5 507/1/5 509/1/5
f 515/1/5 512/1/5 511/1/5
f 516/1/5 512/1/5 515/1/5
f 517/1/5 514/1/5 513/1/5
f 518/1/5 514/1/5 517/1/5
f 523/1/5 520/1/5 519/1/5
f 524/1/5 520/1/5 523/1/5
f 525/1/5 522/1/5 521/1/5
f 526/1/5 522/1/5 525/1/5
f 527/1/5 525/1/5 524/1/5
f 528/1/5 525/1/5 527/1/5
f 533/2/5 530/2/5 529/2/5
f 534/2/5 530/2/5 533/2/5
f 535/2/5 532/2/5 531/2/5
f 536/2/5 532/2/5 535/2/5
f 541/1/5 538/1/5 537/1/5
f 542/1/5 538/1/5 541/1/5
f 543/1/5 540/1/5 539/1/5
f 544/1/5 540/1/5 543/1/5
f 545/2/6 546/2/6 549/2/6
f 549/2/6 546/2/6 550/2/6
f 547/2/6 548/2/6 551/2/6
f 551/2/6 548/2/6 552/2/6
f 553/1/6 554/1/6 555/1/6
f 555/1/6 554/1/6 556/1/6
f 557/1/6 558/1/6 559/1/6
f 559/1/6 558/1/6 560/1/6
f 561/1/6 562/1/6 565/1/6
f 565/1/6 562/1/6 566/1/6
f 563/1/6 564/1/6 567/1/6
f 567/1/6 564/1/6 568/1/6
f 569/2/6 570/2/6 573/2/6
f 573/2/6 570/2/6 574/2/6
f 571/2/6 572/2/6 575/2/6
f 575/2/6 572/2/6 576/2/6
f 569/2/6 573/2/6 577/2/6
f 577/2/6 573/2/6 578/2/6
f 576/2/6 572/2/6 579/2/6
f 579/2/6 572/2/6 580/2/6
f 581/2/6 582/2/6 584/2/6
f 584/2/6 582/2/6 585/2/6
f 585/2/6 582/2/6 586/2/6
f 586/2/6 582/2/6 587/2/6
f 587/2/6 582/2/6 588/2/6
f 588/2/6 582/2/6 589/2/6
f 583/1/6 584/1/6 591/1/6
f 591/1/6 584/1/6 592/1/6
f 589/1/6 590/1/6 593/1/6
f 593/1/6 590/1/6 594/1/6
f 595/1/6 596/1/6 599/1/6
f 599/1/6 596/1/6 600/1/6
f 597/1/6 598/1/6 601/1/6
f 601/1/6 598/1/6 602/1/6
f 603/1/6 604/1/6 607/1/6
f 607/1/6 604/1/6 608/1/6
f 605/1/6 606/1/6 609/1/6
f 609/1/6 606/1/6 610/1/6
f 608/1/6 604/1/6 611/1/6
f 611/1/6 604/1/6 612/1/6
f 605/1/6 609/1/6 615/1/6
f 615/1/6 609/1/6 616/1/6
f 612/1/6 613/1/6 617/1/6
f 617/1/6 613/1/6 618/1/6
f 614/1/6 615/1/6 619/1/6
f 619/1/6 615/1/6 620/1/6
f 621/1/6 622/1/6 625/1/6
f 625/1/6 622/1/6 626/1/6
f 623/1/6 624/1/6 627/1/6
f 627/1/6 624/1/6 628/1/6
f 629/1/6 630/1/6 633/1/6
f 633/1/6 630/1/6 634/1/6
f 631/1/6 632/1/6 635/1/6
f 635/1/6 632/1/6 636/1/6
f 637/1/6 638/1/6 639/1/6
f 639/1/6 638/1/6 640/1/6
f 641/1/6 642/1/6 644/1/6
f 644/1/6 642/1/6 645/1/6
f 643/1/6 644/1/6 647/1/6
f 645/1/6 646/1/6 648/1/6
f 643/1/6 647/1/6 649/1/6
f 647/1/6 648/1/6 649/1/6
f 648/1/6 646/1/6 650/1/6
f 649/1/6 648/1/6 650/1/6
f 651/1/6 652/1/6 653/1/6
f 653/1/6 652/1/6 654/1/6
