{
	"asset":{
		"generator":"Khronos glTF Blender I/O v5.0.21",
		"version":"2.0"
	},
	"scene":0,
	"scenes":[
		{
			"name":"Scene",
			"nodes":[
				0
			]
		}
	],
	"nodes":[
		{
			"mesh":0,
			"name":"BeachParasol_A"
		}
	],
	"materials":[
		{
			"name":"BeachParasol_A_ParasolMetal",
			"normalTexture":{
				"index":0
			},
			"occlusionTexture":{
				"index":1
			},
			"pbrMetallicRoughness":{
				"baseColorTexture":{
					"index":2
				},
				"metallicRoughnessTexture":{
					"index":1
				}
			}
		},
		{
			"alphaMode":"MASK",
			"doubleSided":true,
			"name":"BeachParasol_A_ParasolFabric",
			"normalTexture":{
				"index":3
			},
			"occlusionTexture":{
				"index":4
			},
			"pbrMetallicRoughness":{
				"baseColorTexture":{
					"index":5
				},
				"metallicRoughnessTexture":{
					"index":4
				}
			}
		}
	],
	"meshes":[
		{
			"name":"BeachParasol_A",
			"primitives":[
				{
					"attributes":{
						"POSITION":0,
						"NORMAL":1,
						"TEXCOORD_0":2
					},
					"indices":3,
					"material":0
				},
				{
					"attributes":{
						"POSITION":4,
						"NORMAL":5,
						"TEXCOORD_0":6
					},
					"indices":7,
					"material":1
				}
			]
		}
	],
	"textures":[
		{
			"sampler":0,
			"source":0
		},
		{
			"sampler":0,
			"source":1
		},
		{
			"sampler":0,
			"source":2
		},
		{
			"sampler":0,
			"source":3
		},
		{
			"sampler":0,
			"source":4
		},
		{
			"sampler":0,
			"source":5
		}
	],
	"images":[
		{
			"mimeType":"image/png",
			"name":"BeachParasol_A_ParasolMetal_Normal",
			"uri":"BeachParasol_A_ParasolMetal_Normal.png"
		},
		{
			"mimeType":"image/png",
			"name":"BeachParasol_A_ParasolMetal_ORM",
			"uri":"BeachParasol_A_ParasolMetal_ORM.png"
		},
		{
			"mimeType":"image/png",
			"name":"BeachParasol_A_ParasolMetal_BaseColor",
			"uri":"BeachParasol_A_ParasolMetal_BaseColor.png"
		},
		{
			"mimeType":"image/png",
			"name":"BeachParasol_A_ParasolFabric_Normal",
			"uri":"BeachParasol_A_ParasolFabric_Normal.png"
		},
		{
			"mimeType":"image/png",
			"name":"BeachParasol_A_ParasolFabric_ORM",
			"uri":"BeachParasol_A_ParasolFabric_ORM.png"
		},
		{
			"mimeType":"image/png",
			"name":"BeachParasol_A_ParasolFabric_BaseColor",
			"uri":"BeachParasol_A_ParasolFabric_BaseColor.png"
		}
	],
	"accessors":[
		{
			"bufferView":0,
			"componentType":5126,
			"count":1992,
			"max":[
				1.0365928411483765,
				2.4049999713897705,
				1.0365928411483765
			],
			"min":[
				-1.0365928411483765,
				-0.30000001192092896,
				-1.0365928411483765
			],
			"type":"VEC3"
		},
		{
			"bufferView":1,
			"componentType":5126,
			"count":1992,
			"type":"VEC3"
		},
		{
			"bufferView":2,
			"componentType":5126,
			"count":1992,
			"type":"VEC2"
		},
		{
			"bufferView":3,
			"componentType":5123,
			"count":4296,
			"type":"SCALAR"
		},
		{
			"bufferView":4,
			"componentType":5126,
			"count":1392,
			"max":[
				1.028267502784729,
				2.3239998817443848,
				1.028267502784729
			],
			"min":[
				-1.028267502784729,
				1.8179999589920044,
				-1.028267502784729
			],
			"type":"VEC3"
		},
		{
			"bufferView":5,
			"componentType":5126,
			"count":1392,
			"type":"VEC3"
		},
		{
			"bufferView":6,
			"componentType":5126,
			"count":1392,
			"type":"VEC2"
		},
		{
			"bufferView":7,
			"componentType":5123,
			"count":6624,
			"type":"SCALAR"
		}
	],
	"bufferViews":[
		{
			"buffer":0,
			"byteLength":23904,
			"byteOffset":0,
			"target":34962
		},
		{
			"buffer":0,
			"byteLength":23904,
			"byteOffset":23904,
			"target":34962
		},
		{
			"buffer":0,
			"byteLength":15936,
			"byteOffset":47808,
			"target":34962
		},
		{
			"buffer":0,
			"byteLength":8592,
			"byteOffset":63744,
			"target":34963
		},
		{
			"buffer":0,
			"byteLength":16704,
			"byteOffset":72336,
			"target":34962
		},
		{
			"buffer":0,
			"byteLength":16704,
			"byteOffset":89040,
			"target":34962
		},
		{
			"buffer":0,
			"byteLength":11136,
			"byteOffset":105744,
			"target":34962
		},
		{
			"buffer":0,
			"byteLength":13248,
			"byteOffset":116880,
			"target":34963
		}
	],
	"samplers":[
		{
			"magFilter":9729,
			"minFilter":9987
		}
	],
	"buffers":[
		{
			"byteLength":130128,
			"uri":"BeachParasol_A.bin"
		}
	]
}
