{
	"asset":{
		"generator":"Khronos glTF Blender I/O v5.0.21",
		"version":"2.0"
	},
	"scene":0,
	"scenes":[
		{
			"name":"Scene",
			"nodes":[
				0
			]
		}
	],
	"nodes":[
		{
			"mesh":0,
			"name":"FishSchool_Blue"
		}
	],
	"materials":[
		{
			"alphaMode":"MASK",
			"name":"FishSchool_Blue_SapphireDevil",
			"normalTexture":{
				"index":0
			},
			"occlusionTexture":{
				"index":1
			},
			"pbrMetallicRoughness":{
				"baseColorTexture":{
					"index":2
				},
				"metallicRoughnessTexture":{
					"index":1
				}
			}
		}
	],
	"meshes":[
		{
			"name":"FishSchool_Blue",
			"primitives":[
				{
					"attributes":{
						"POSITION":0,
						"NORMAL":1,
						"TEXCOORD_0":2,
						"TANGENT":3
					},
					"indices":4,
					"material":0
				}
			]
		}
	],
	"textures":[
		{
			"sampler":0,
			"source":0
		},
		{
			"sampler":0,
			"source":1
		},
		{
			"sampler":0,
			"source":2
		}
	],
	"images":[
		{
			"mimeType":"image/png",
			"name":"FishSchool_Blue_SapphireDevil_Normal",
			"uri":"FishSchool_Blue_SapphireDevil_Normal.png"
		},
		{
			"mimeType":"image/png",
			"name":"FishSchool_Blue_SapphireDevil_ORM",
			"uri":"FishSchool_Blue_SapphireDevil_ORM.png"
		},
		{
			"mimeType":"image/png",
			"name":"FishSchool_Blue_SapphireDevil_BaseColor",
			"uri":"FishSchool_Blue_SapphireDevil_BaseColor.png"
		}
	],
	"accessors":[
		{
			"bufferView":0,
			"componentType":5126,
			"count":6630,
			"max":[
				0.6145499348640442,
				0.2996639609336853,
				0.4698614180088043
			],
			"min":[
				-0.4988129436969757,
				-0.3297855257987976,
				-0.46760642528533936
			],
			"type":"VEC3"
		},
		{
			"bufferView":1,
			"componentType":5126,
			"count":6630,
			"type":"VEC3"
		},
		{
			"bufferView":2,
			"componentType":5126,
			"count":6630,
			"type":"VEC2"
		},
		{
			"bufferView":3,
			"componentType":5126,
			"count":6630,
			"type":"VEC4"
		},
		{
			"bufferView":4,
			"componentType":5123,
			"count":22848,
			"type":"SCALAR"
		}
	],
	"bufferViews":[
		{
			"buffer":0,
			"byteLength":79560,
			"byteOffset":0,
			"target":34962
		},
		{
			"buffer":0,
			"byteLength":79560,
			"byteOffset":79560,
			"target":34962
		},
		{
			"buffer":0,
			"byteLength":53040,
			"byteOffset":159120,
			"target":34962
		},
		{
			"buffer":0,
			"byteLength":106080,
			"byteOffset":212160,
			"target":34962
		},
		{
			"buffer":0,
			"byteLength":45696,
			"byteOffset":318240,
			"target":34963
		}
	],
	"samplers":[
		{
			"magFilter":9729,
			"minFilter":9987
		}
	],
	"buffers":[
		{
			"byteLength":363936,
			"uri":"FishSchool_Blue.bin"
		}
	]
}
