{
	"asset":{
		"generator":"Khronos glTF Blender I/O v5.0.21",
		"version":"2.0"
	},
	"scene":0,
	"scenes":[
		{
			"name":"Scene",
			"nodes":[
				0
			]
		}
	],
	"nodes":[
		{
			"mesh":0,
			"name":"ReefTerrain_Edge"
		}
	],
	"materials":[
		{
			"name":"ReefTerrain_Edge_ReefEdge",
			"normalTexture":{
				"index":0
			},
			"occlusionTexture":{
				"index":1
			},
			"pbrMetallicRoughness":{
				"baseColorTexture":{
					"index":2
				},
				"metallicRoughnessTexture":{
					"index":1
				}
			}
		}
	],
	"meshes":[
		{
			"name":"ReefTerrain_Edge",
			"primitives":[
				{
					"attributes":{
						"POSITION":0,
						"NORMAL":1,
						"TEXCOORD_0":2,
						"TANGENT":3
					},
					"indices":4,
					"material":0
				}
			]
		}
	],
	"textures":[
		{
			"sampler":0,
			"source":0
		},
		{
			"sampler":0,
			"source":1
		},
		{
			"sampler":0,
			"source":2
		}
	],
	"images":[
		{
			"mimeType":"image/png",
			"name":"ReefTerrain_Edge_ReefEdge_Normal",
			"uri":"ReefTerrain_Edge_ReefEdge_Normal.png"
		},
		{
			"mimeType":"image/png",
			"name":"ReefTerrain_Edge_ReefEdge_ORM",
			"uri":"ReefTerrain_Edge_ReefEdge_ORM.png"
		},
		{
			"mimeType":"image/png",
			"name":"ReefTerrain_Edge_ReefEdge_BaseColor",
			"uri":"ReefTerrain_Edge_ReefEdge_BaseColor.png"
		}
	],
	"accessors":[
		{
			"bufferView":0,
			"componentType":5126,
			"count":38807,
			"max":[
				20,
				-0.3007013201713562,
				20
			],
			"min":[
				-20,
				-22.590858459472656,
				-20
			],
			"type":"VEC3"
		},
		{
			"bufferView":1,
			"componentType":5126,
			"count":38807,
			"type":"VEC3"
		},
		{
			"bufferView":2,
			"componentType":5126,
			"count":38807,
			"type":"VEC2"
		},
		{
			"bufferView":3,
			"componentType":5126,
			"count":38807,
			"type":"VEC4"
		},
		{
			"bufferView":4,
			"componentType":5123,
			"count":230400,
			"type":"SCALAR"
		}
	],
	"bufferViews":[
		{
			"buffer":0,
			"byteLength":465684,
			"byteOffset":0,
			"target":34962
		},
		{
			"buffer":0,
			"byteLength":465684,
			"byteOffset":465684,
			"target":34962
		},
		{
			"buffer":0,
			"byteLength":310456,
			"byteOffset":931368,
			"target":34962
		},
		{
			"buffer":0,
			"byteLength":620912,
			"byteOffset":1241824,
			"target":34962
		},
		{
			"buffer":0,
			"byteLength":460800,
			"byteOffset":1862736,
			"target":34963
		}
	],
	"samplers":[
		{
			"magFilter":9729,
			"minFilter":9987
		}
	],
	"buffers":[
		{
			"byteLength":2323536,
			"uri":"ReefTerrain_Edge.bin"
		}
	]
}
