{
	"asset":{
		"generator":"Khronos glTF Blender I/O v5.0.21",
		"version":"2.0"
	},
	"scene":0,
	"scenes":[
		{
			"name":"Scene",
			"nodes":[
				0
			]
		}
	],
	"nodes":[
		{
			"mesh":0,
			"name":"Driftwood_B"
		}
	],
	"materials":[
		{
			"name":"Driftwood_B_DriftBWood",
			"normalTexture":{
				"index":0
			},
			"occlusionTexture":{
				"index":1
			},
			"pbrMetallicRoughness":{
				"baseColorTexture":{
					"index":2
				},
				"metallicRoughnessTexture":{
					"index":1
				}
			}
		}
	],
	"meshes":[
		{
			"name":"Driftwood_B",
			"primitives":[
				{
					"attributes":{
						"POSITION":0,
						"NORMAL":1,
						"TEXCOORD_0":2
					},
					"indices":3,
					"material":0
				}
			]
		}
	],
	"textures":[
		{
			"sampler":0,
			"source":0
		},
		{
			"sampler":0,
			"source":1
		},
		{
			"sampler":0,
			"source":2
		}
	],
	"images":[
		{
			"mimeType":"image/png",
			"name":"Driftwood_B_DriftBWood_Normal",
			"uri":"Driftwood_B_DriftBWood_Normal.png"
		},
		{
			"mimeType":"image/png",
			"name":"Driftwood_B_DriftBWood_ORM",
			"uri":"Driftwood_B_DriftBWood_ORM.png"
		},
		{
			"mimeType":"image/png",
			"name":"Driftwood_B_DriftBWood_BaseColor",
			"uri":"Driftwood_B_DriftBWood_BaseColor.png"
		}
	],
	"accessors":[
		{
			"bufferView":0,
			"componentType":5126,
			"count":1793,
			"max":[
				0.8276057839393616,
				0.49433445930480957,
				0.3739165663719177
			],
			"min":[
				-0.8954516649246216,
				0,
				-0.44611474871635437
			],
			"type":"VEC3"
		},
		{
			"bufferView":1,
			"componentType":5126,
			"count":1793,
			"type":"VEC3"
		},
		{
			"bufferView":2,
			"componentType":5126,
			"count":1793,
			"type":"VEC2"
		},
		{
			"bufferView":3,
			"componentType":5123,
			"count":8784,
			"type":"SCALAR"
		}
	],
	"bufferViews":[
		{
			"buffer":0,
			"byteLength":21516,
			"byteOffset":0,
			"target":34962
		},
		{
			"buffer":0,
			"byteLength":21516,
			"byteOffset":21516,
			"target":34962
		},
		{
			"buffer":0,
			"byteLength":14344,
			"byteOffset":43032,
			"target":34962
		},
		{
			"buffer":0,
			"byteLength":17568,
			"byteOffset":57376,
			"target":34963
		}
	],
	"samplers":[
		{
			"magFilter":9729,
			"minFilter":9987
		}
	],
	"buffers":[
		{
			"byteLength":74944,
			"uri":"Driftwood_B.bin"
		}
	]
}
