{
	"asset":{
		"generator":"Khronos glTF Blender I/O v5.0.21",
		"version":"2.0"
	},
	"scene":0,
	"scenes":[
		{
			"name":"Scene",
			"nodes":[
				0
			]
		}
	],
	"nodes":[
		{
			"mesh":0,
			"name":"FishSchool_Green"
		}
	],
	"materials":[
		{
			"alphaMode":"MASK",
			"name":"FishSchool_Green_BlueGreenChromis",
			"normalTexture":{
				"index":0
			},
			"occlusionTexture":{
				"index":1
			},
			"pbrMetallicRoughness":{
				"baseColorTexture":{
					"index":2
				},
				"metallicRoughnessTexture":{
					"index":1
				}
			}
		}
	],
	"meshes":[
		{
			"name":"FishSchool_Green",
			"primitives":[
				{
					"attributes":{
						"POSITION":0,
						"NORMAL":1,
						"TEXCOORD_0":2,
						"TANGENT":3
					},
					"indices":4,
					"material":0
				}
			]
		}
	],
	"textures":[
		{
			"sampler":0,
			"source":0
		},
		{
			"sampler":0,
			"source":1
		},
		{
			"sampler":0,
			"source":2
		}
	],
	"images":[
		{
			"mimeType":"image/png",
			"name":"FishSchool_Green_BlueGreenChromis_Normal",
			"uri":"FishSchool_Green_BlueGreenChromis_Normal.png"
		},
		{
			"mimeType":"image/png",
			"name":"FishSchool_Green_BlueGreenChromis_ORM",
			"uri":"FishSchool_Green_BlueGreenChromis_ORM.png"
		},
		{
			"mimeType":"image/png",
			"name":"FishSchool_Green_BlueGreenChromis_BaseColor",
			"uri":"FishSchool_Green_BlueGreenChromis_BaseColor.png"
		}
	],
	"accessors":[
		{
			"bufferView":0,
			"componentType":5126,
			"count":10140,
			"max":[
				0.5429032444953918,
				0.3425517976284027,
				0.45741575956344604
			],
			"min":[
				-0.5320584177970886,
				-0.3203786611557007,
				-0.42801058292388916
			],
			"type":"VEC3"
		},
		{
			"bufferView":1,
			"componentType":5126,
			"count":10140,
			"type":"VEC3"
		},
		{
			"bufferView":2,
			"componentType":5126,
			"count":10140,
			"type":"VEC2"
		},
		{
			"bufferView":3,
			"componentType":5126,
			"count":10140,
			"type":"VEC4"
		},
		{
			"bufferView":4,
			"componentType":5123,
			"count":34944,
			"type":"SCALAR"
		}
	],
	"bufferViews":[
		{
			"buffer":0,
			"byteLength":121680,
			"byteOffset":0,
			"target":34962
		},
		{
			"buffer":0,
			"byteLength":121680,
			"byteOffset":121680,
			"target":34962
		},
		{
			"buffer":0,
			"byteLength":81120,
			"byteOffset":243360,
			"target":34962
		},
		{
			"buffer":0,
			"byteLength":162240,
			"byteOffset":324480,
			"target":34962
		},
		{
			"buffer":0,
			"byteLength":69888,
			"byteOffset":486720,
			"target":34963
		}
	],
	"samplers":[
		{
			"magFilter":9729,
			"minFilter":9987
		}
	],
	"buffers":[
		{
			"byteLength":556608,
			"uri":"FishSchool_Green.bin"
		}
	]
}
