{
	"asset":{
		"generator":"Khronos glTF Blender I/O v5.0.21",
		"version":"2.0"
	},
	"scene":0,
	"scenes":[
		{
			"name":"Scene",
			"nodes":[
				0
			]
		}
	],
	"nodes":[
		{
			"mesh":0,
			"name":"Sabani_A"
		}
	],
	"materials":[
		{
			"name":"Sabani_A_SabaniFittingsA",
			"normalTexture":{
				"index":0
			},
			"occlusionTexture":{
				"index":1
			},
			"pbrMetallicRoughness":{
				"baseColorTexture":{
					"index":2
				},
				"metallicRoughnessTexture":{
					"index":1
				}
			}
		},
		{
			"name":"Sabani_A_SabaniHullA",
			"normalTexture":{
				"index":3
			},
			"occlusionTexture":{
				"index":4
			},
			"pbrMetallicRoughness":{
				"baseColorTexture":{
					"index":5
				},
				"metallicRoughnessTexture":{
					"index":4
				}
			}
		}
	],
	"meshes":[
		{
			"name":"Sabani_A",
			"primitives":[
				{
					"attributes":{
						"POSITION":0,
						"NORMAL":1,
						"TEXCOORD_0":2
					},
					"indices":3,
					"material":0
				},
				{
					"attributes":{
						"POSITION":4,
						"NORMAL":5,
						"TEXCOORD_0":6
					},
					"indices":7,
					"material":1
				}
			]
		}
	],
	"textures":[
		{
			"sampler":0,
			"source":0
		},
		{
			"sampler":0,
			"source":1
		},
		{
			"sampler":0,
			"source":2
		},
		{
			"sampler":0,
			"source":3
		},
		{
			"sampler":0,
			"source":4
		},
		{
			"sampler":0,
			"source":5
		}
	],
	"images":[
		{
			"mimeType":"image/png",
			"name":"Sabani_A_SabaniFittingsA_Normal",
			"uri":"Sabani_A_SabaniFittingsA_Normal.png"
		},
		{
			"mimeType":"image/png",
			"name":"Sabani_A_SabaniFittingsA_ORM",
			"uri":"Sabani_A_SabaniFittingsA_ORM.png"
		},
		{
			"mimeType":"image/png",
			"name":"Sabani_A_SabaniFittingsA_BaseColor",
			"uri":"Sabani_A_SabaniFittingsA_BaseColor.png"
		},
		{
			"mimeType":"image/png",
			"name":"Sabani_A_SabaniHullA_Normal",
			"uri":"Sabani_A_SabaniHullA_Normal.png"
		},
		{
			"mimeType":"image/png",
			"name":"Sabani_A_SabaniHullA_ORM",
			"uri":"Sabani_A_SabaniHullA_ORM.png"
		},
		{
			"mimeType":"image/png",
			"name":"Sabani_A_SabaniHullA_BaseColor",
			"uri":"Sabani_A_SabaniHullA_BaseColor.png"
		}
	],
	"accessors":[
		{
			"bufferView":0,
			"componentType":5126,
			"count":608,
			"max":[
				1.0449999570846558,
				0.5250000357627869,
				0.40252685546875
			],
			"min":[
				-1.8450000286102295,
				0.4569999873638153,
				-0.40252685546875
			],
			"type":"VEC3"
		},
		{
			"bufferView":1,
			"componentType":5126,
			"count":608,
			"type":"VEC3"
		},
		{
			"bufferView":2,
			"componentType":5126,
			"count":608,
			"type":"VEC2"
		},
		{
			"bufferView":3,
			"componentType":5123,
			"count":1632,
			"type":"SCALAR"
		},
		{
			"bufferView":4,
			"componentType":5126,
			"count":5575,
			"max":[
				3.8225090503692627,
				0.9661251902580261,
				0.4659932851791382
			],
			"min":[
				-3.383711338043213,
				-0.0560000017285347,
				-0.4659932851791382
			],
			"type":"VEC3"
		},
		{
			"bufferView":5,
			"componentType":5126,
			"count":5575,
			"type":"VEC3"
		},
		{
			"bufferView":6,
			"componentType":5126,
			"count":5575,
			"type":"VEC2"
		},
		{
			"bufferView":7,
			"componentType":5123,
			"count":24132,
			"type":"SCALAR"
		}
	],
	"bufferViews":[
		{
			"buffer":0,
			"byteLength":7296,
			"byteOffset":0,
			"target":34962
		},
		{
			"buffer":0,
			"byteLength":7296,
			"byteOffset":7296,
			"target":34962
		},
		{
			"buffer":0,
			"byteLength":4864,
			"byteOffset":14592,
			"target":34962
		},
		{
			"buffer":0,
			"byteLength":3264,
			"byteOffset":19456,
			"target":34963
		},
		{
			"buffer":0,
			"byteLength":66900,
			"byteOffset":22720,
			"target":34962
		},
		{
			"buffer":0,
			"byteLength":66900,
			"byteOffset":89620,
			"target":34962
		},
		{
			"buffer":0,
			"byteLength":44600,
			"byteOffset":156520,
			"target":34962
		},
		{
			"buffer":0,
			"byteLength":48264,
			"byteOffset":201120,
			"target":34963
		}
	],
	"samplers":[
		{
			"magFilter":9729,
			"minFilter":9987
		}
	],
	"buffers":[
		{
			"byteLength":249384,
			"uri":"Sabani_A.bin"
		}
	]
}
