# MagicaVoxel @ Ephtracy

# group
o 

# material
mtllib result_monkey.mtl
usemtl palette

# normals
vn -1 0 0
vn 1 0 0
vn 0 0 1
vn 0 0 -1
vn 0 -1 0
vn 0 1 0

# texcoords
vt 0.255859 0.5
vt 0.306641 0.5
vt 0.310547 0.5
vt 0.314453 0.5

# verts
v -0.8 0 0.3
v -0.8 0 -0.3
v -0.8 0.1 0.3
v -0.8 0.1 -0.3
v -0.7 0 0.5
v -0.7 0 0.3
v -0.7 0 -0.3
v -0.7 0 -0.5
v -0.7 0.1 0.5
v -0.7 0.1 0.4
v -0.7 0.1 0.3
v -0.7 0.1 -0.3
v -0.7 0.1 -0.5
v -0.7 0.2 0.4
v -0.7 0.2 -0.3
v -0.6 0 0.6
v -0.6 0 0.5
v -0.6 0 -0.5
v -0.6 0 -0.6
v -0.6 0.1 0.6
v -0.6 0.1 0.5
v -0.6 0.1 0.4
v -0.6 0.1 -0.3
v -0.6 0.1 -0.5
v -0.6 0.1 -0.6
v -0.6 0.2 0.5
v -0.6 0.2 0.4
v -0.6 0.2 -0.3
v -0.6 0.2 -0.5
v -0.5 0 0.7
v -0.5 0 0.6
v -0.5 0 -0.6
v -0.5 0 -0.7
v -0.5 0.1 0.7
v -0.5 0.1 0.6
v -0.5 0.1 0.5
v -0.5 0.1 -0.5
v -0.5 0.1 -0.6
v -0.5 0.1 -0.7
v -0.5 0.2 0.6
v -0.5 0.2 0.5
v -0.5 0.2 -0.5
v -0.5 0.2 -0.6
v -0.4 0.1 0.7
v -0.4 0.1 0.6
v -0.4 0.2 0.7
v -0.4 0.2 0.6
v -0.3 0 0.8
v -0.3 0 0.7
v -0.3 0 -0.7
v -0.3 0 -0.8
v -0.3 0.1 0.8
v -0.3 0.1 0.7
v -0.3 0.1 -0.6
v -0.3 0.1 -0.7
v -0.3 0.1 -0.8
v -0.3 0.2 -0.6
v -0.3 0.2 -0.7
v -0.3 0.5 0.1
v -0.3 0.5 -0.1
v -0.3 0.6 0.1
v -0.3 0.6 -0.1
v -0.2 0.1 0.1
v -0.2 0.1 -0.1
v -0.2 0.5 0.1
v -0.2 0.5 -0.1
v -0.1 0.1 -0.2
v -0.1 0.1 -0.3
v -0.1 0.3 -0.1
v -0.1 0.3 -0.2
v -0.1 0.4 -0.1
v -0.1 0.4 -0.3
v 0.1 0.5 0.1
v 0.1 0.5 -0.1
v 0.1 0.6 0.1
v 0.1 0.6 -0.1
v 0.2 0.1 0.5
v 0.2 0.1 0.4
v 0.2 0.1 -0.4
v 0.2 0.1 -0.5
v 0.2 0.2 0.5
v 0.2 0.2 0.4
v 0.2 0.2 -0.4
v 0.2 0.2 -0.5
v 0.3 0.1 0.4
v 0.3 0.1 0.3
v 0.3 0.1 -0.3
v 0.3 0.1 -0.4
v 0.3 0.2 0.4
v 0.3 0.2 0.3
v 0.3 0.2 -0.3
v 0.3 0.2 -0.4
v 0.4 0.1 0.3
v 0.4 0.1 0.2
v 0.4 0.1 -0.2
v 0.4 0.1 -0.3
v 0.4 0.2 0.3
v 0.4 0.2 0.2
v 0.4 0.2 -0.2
v 0.4 0.2 -0.3
v 0.5 0.1 0.2
v 0.5 0.1 -0.2
v 0.5 0.2 0.2
v 0.5 0.2 -0.2
v -0.5 0.1 0.2
v -0.5 0.1 -0.2
v -0.5 0.2 0.2
v -0.5 0.2 -0.2
v -0.4 0.1 0.3
v -0.4 0.1 0.2
v -0.4 0.1 -0.2
v -0.4 0.1 -0.3
v -0.4 0.2 0.3
v -0.4 0.2 0.2
v -0.4 0.2 -0.2
v -0.4 0.2 -0.3
v -0.3 0.1 0.4
v -0.3 0.1 0.3
v -0.3 0.1 -0.3
v -0.3 0.1 -0.4
v -0.3 0.2 0.4
v -0.3 0.2 0.3
v -0.3 0.2 -0.3
v -0.3 0.2 -0.4
v -0.2 0.1 0.5
v -0.2 0.1 0.4
v -0.2 0.1 -0.4
v -0.2 0.1 -0.5
v -0.2 0.2 0.5
v -0.2 0.2 0.4
v -0.2 0.2 -0.4
v -0.2 0.2 -0.5
v -0.1 0.5 0.1
v -0.1 0.5 -0.1
v -0.1 0.6 0.1
v -0.1 0.6 -0.1
v 0 0.1 -0.2
v 0 0.1 -0.3
v 0 0.3 -0.1
v 0 0.3 -0.2
v 0 0.4 -0.1
v 0 0.4 -0.3
v 0.2 0.1 0.1
v 0.2 0.1 -0.1
v 0.2 0.5 0.1
v 0.2 0.5 -0.1
v 0.3 0 0.8
v 0.3 0 0.7
v 0.3 0 -0.7
v 0.3 0 -0.8
v 0.3 0.1 0.8
v 0.3 0.1 0.7
v 0.3 0.1 0.6
v 0.3 0.1 -0.6
v 0.3 0.1 -0.7
v 0.3 0.1 -0.8
v 0.3 0.2 0.7
v 0.3 0.2 0.6
v 0.3 0.2 -0.6
v 0.3 0.2 -0.7
v 0.3 0.5 0.1
v 0.3 0.5 -0.1
v 0.3 0.6 0.1
v 0.3 0.6 -0.1
v 0.5 0 0.7
v 0.5 0 0.6
v 0.5 0 -0.6
v 0.5 0 -0.7
v 0.5 0.1 0.7
v 0.5 0.1 0.6
v 0.5 0.1 0.5
v 0.5 0.1 -0.5
v 0.5 0.1 -0.6
v 0.5 0.1 -0.7
v 0.5 0.2 0.6
v 0.5 0.2 0.5
v 0.5 0.2 -0.5
v 0.5 0.2 -0.6
v 0.6 0 0.6
v 0.6 0 0.5
v 0.6 0 -0.5
v 0.6 0 -0.6
v 0.6 0.1 0.6
v 0.6 0.1 0.5
v 0.6 0.1 0.3
v 0.6 0.1 -0.3
v 0.6 0.1 -0.5
v 0.6 0.1 -0.6
v 0.6 0.2 0.5
v 0.6 0.2 0.3
v 0.6 0.2 -0.3
v 0.6 0.2 -0.5
v 0.7 0 0.5
v 0.7 0 0.3
v 0.7 0 -0.3
v 0.7 0 -0.5
v 0.7 0.1 0.5
v 0.7 0.1 0.3
v 0.7 0.1 -0.3
v 0.7 0.1 -0.5
v 0.7 0.2 0.3
v 0.7 0.2 -0.3
v 0.8 0 0.3
v 0.8 0 -0.3
v 0.8 0.1 0.3
v 0.8 0.1 -0.3
v -0.3 0 0.8
v -0.3 0.1 0.8
v 0.3 0 0.8
v 0.3 0.1 0.8
v -0.5 0 0.7
v -0.5 0.1 0.7
v -0.4 0.1 0.7
v -0.4 0.2 0.7
v -0.3 0 0.7
v -0.3 0.1 0.7
v 0.3 0 0.7
v 0.3 0.1 0.7
v 0.3 0.2 0.7
v 0.5 0 0.7
v 0.5 0.1 0.7
v -0.6 0 0.6
v -0.6 0.1 0.6
v -0.5 0 0.6
v -0.5 0.1 0.6
v -0.5 0.2 0.6
v -0.4 0.1 0.6
v -0.4 0.2 0.6
v 0.3 0.1 0.6
v 0.3 0.2 0.6
v 0.5 0 0.6
v 0.5 0.1 0.6
v 0.5 0.2 0.6
v 0.6 0 0.6
v 0.6 0.1 0.6
v -0.7 0 0.5
v -0.7 0.1 0.5
v -0.6 0 0.5
v -0.6 0.1 0.5
v -0.6 0.2 0.5
v -0.5 0.1 0.5
v -0.5 0.2 0.5
v 0.5 0.1 0.5
v 0.5 0.2 0.5
v 0.6 0 0.5
v 0.6 0.1 0.5
v 0.6 0.2 0.5
v 0.7 0 0.5
v 0.7 0.1 0.5
v -0.7 0.1 0.4
v -0.7 0.2 0.4
v -0.6 0.1 0.4
v -0.6 0.2 0.4
v -0.8 0 0.3
v -0.8 0.1 0.3
v -0.7 0 0.3
v -0.7 0.1 0.3
v 0.6 0.1 0.3
v 0.6 0.2 0.3
v 0.7 0 0.3
v 0.7 0.1 0.3
v 0.7 0.2 0.3
v 0.8 0 0.3
v 0.8 0.1 0.3
v -0.3 0.5 0.1
v -0.3 0.6 0.1
v -0.2 0.1 0.1
v -0.2 0.5 0.1
v -0.1 0.2 0.1
v -0.1 0.4 0.1
v -0.1 0.5 0.1
v -0.1 0.6 0.1
v 0.1 0.2 0.1
v 0.1 0.4 0.1
v 0.1 0.5 0.1
v 0.1 0.6 0.1
v 0.2 0.1 0.1
v 0.2 0.5 0.1
v 0.3 0.5 0.1
v 0.3 0.6 0.1
v -0.5 0.1 -0.2
v -0.5 0.2 -0.2
v -0.4 0.1 -0.2
v -0.4 0.2 -0.2
v -0.1 0.1 -0.2
v -0.1 0.3 -0.2
v 0 0.1 -0.2
v 0 0.3 -0.2
v 0.4 0.1 -0.2
v 0.4 0.2 -0.2
v 0.5 0.1 -0.2
v 0.5 0.2 -0.2
v -0.4 0.1 -0.3
v -0.4 0.2 -0.3
v -0.3 0.1 -0.3
v -0.3 0.2 -0.3
v 0.3 0.1 -0.3
v 0.3 0.2 -0.3
v 0.4 0.1 -0.3
v 0.4 0.2 -0.3
v -0.3 0.1 -0.4
v -0.3 0.2 -0.4
v -0.2 0.1 -0.4
v -0.2 0.2 -0.4
v 0.2 0.1 -0.4
v 0.2 0.2 -0.4
v 0.3 0.1 -0.4
v 0.3 0.2 -0.4
v -0.2 0.1 -0.5
v -0.2 0.2 -0.5
v 0.2 0.1 -0.5
v 0.2 0.2 -0.5
v -0.2 0.1 0.5
v -0.2 0.2 0.5
v 0.2 0.1 0.5
v 0.2 0.2 0.5
v -0.3 0.1 0.4
v -0.3 0.2 0.4
v -0.2 0.1 0.4
v -0.2 0.2 0.4
v 0.2 0.1 0.4
v 0.2 0.2 0.4
v 0.3 0.1 0.4
v 0.3 0.2 0.4
v -0.4 0.1 0.3
v -0.4 0.2 0.3
v -0.3 0.1 0.3
v -0.3 0.2 0.3
v 0.3 0.1 0.3
v 0.3 0.2 0.3
v 0.4 0.1 0.3
v 0.4 0.2 0.3
v -0.5 0.1 0.2
v -0.5 0.2 0.2
v -0.4 0.1 0.2
v -0.4 0.2 0.2
v 0.4 0.1 0.2
v 0.4 0.2 0.2
v 0.5 0.1 0.2
v 0.5 0.2 0.2
v -0.3 0.5 -0.1
v -0.3 0.6 -0.1
v -0.2 0.1 -0.1
v -0.2 0.5 -0.1
v -0.1 0.3 -0.1
v -0.1 0.4 -0.1
v -0.1 0.5 -0.1
v -0.1 0.6 -0.1
v 0 0.3 -0.1
v 0 0.4 -0.1
v 0.1 0.5 -0.1
v 0.1 0.6 -0.1
v 0.2 0.1 -0.1
v 0.2 0.5 -0.1
v 0.3 0.5 -0.1
v 0.3 0.6 -0.1
v -0.8 0 -0.3
v -0.8 0.1 -0.3
v -0.7 0 -0.3
v -0.7 0.1 -0.3
v -0.7 0.2 -0.3
v -0.6 0.1 -0.3
v -0.6 0.2 -0.3
v -0.1 0.1 -0.3
v -0.1 0.4 -0.3
v 0 0.1 -0.3
v 0 0.4 -0.3
v 0.6 0.1 -0.3
v 0.6 0.2 -0.3
v 0.7 0 -0.3
v 0.7 0.1 -0.3
v 0.7 0.2 -0.3
v 0.8 0 -0.3
v 0.8 0.1 -0.3
v -0.7 0 -0.5
v -0.7 0.1 -0.5
v -0.6 0 -0.5
v -0.6 0.1 -0.5
v -0.6 0.2 -0.5
v -0.5 0.1 -0.5
v -0.5 0.2 -0.5
v 0.5 0.1 -0.5
v 0.5 0.2 -0.5
v 0.6 0 -0.5
v 0.6 0.1 -0.5
v 0.6 0.2 -0.5
v 0.7 0 -0.5
v 0.7 0.1 -0.5
v -0.6 0 -0.6
v -0.6 0.1 -0.6
v -0.5 0 -0.6
v -0.5 0.1 -0.6
v -0.5 0.2 -0.6
v -0.3 0.1 -0.6
v -0.3 0.2 -0.6
v 0.3 0.1 -0.6
v 0.3 0.2 -0.6
v 0.5 0 -0.6
v 0.5 0.1 -0.6
v 0.5 0.2 -0.6
v 0.6 0 -0.6
v 0.6 0.1 -0.6
v -0.5 0 -0.7
v -0.5 0.1 -0.7
v -0.3 0 -0.7
v -0.3 0.1 -0.7
v -0.3 0.2 -0.7
v 0.3 0 -0.7
v 0.3 0.1 -0.7
v 0.3 0.2 -0.7
v 0.5 0 -0.7
v 0.5 0.1 -0.7
v -0.3 0 -0.8
v -0.3 0.1 -0.8
v 0.3 0 -0.8
v 0.3 0.1 -0.8
v -0.3 0 0.8
v 0.3 0 0.8
v -0.5 0 0.7
v -0.3 0 0.7
v 0.3 0 0.7
v 0.5 0 0.7
v -0.6 0 0.6
v -0.5 0 0.6
v 0.5 0 0.6
v 0.6 0 0.6
v -0.7 0 0.5
v -0.6 0 0.5
v -0.2 0 0.5
v 0.2 0 0.5
v 0.6 0 0.5
v 0.7 0 0.5
v -0.3 0 0.4
v -0.2 0 0.4
v 0.2 0 0.4
v 0.3 0 0.4
v -0.8 0 0.3
v -0.7 0 0.3
v -0.4 0 0.3
v -0.3 0 0.3
v 0.3 0 0.3
v 0.4 0 0.3
v 0.7 0 0.3
v 0.8 0 0.3
v -0.5 0 0.2
v -0.4 0 0.2
v 0.4 0 0.2
v 0.5 0 0.2
v -0.2 0 0.1
v 0.2 0 0.1
v -0.2 0 -0.1
v 0.2 0 -0.1
v -0.5 0 -0.2
v -0.4 0 -0.2
v -0.1 0 -0.2
v 0 0 -0.2
v 0.4 0 -0.2
v 0.5 0 -0.2
v -0.8 0 -0.3
v -0.7 0 -0.3
v -0.4 0 -0.3
v -0.3 0 -0.3
v -0.1 0 -0.3
v 0 0 -0.3
v 0.3 0 -0.3
v 0.4 0 -0.3
v 0.7 0 -0.3
v 0.8 0 -0.3
v -0.3 0 -0.4
v -0.2 0 -0.4
v 0.2 0 -0.4
v 0.3 0 -0.4
v -0.7 0 -0.5
v -0.6 0 -0.5
v -0.2 0 -0.5
v 0.2 0 -0.5
v 0.6 0 -0.5
v 0.7 0 -0.5
v -0.6 0 -0.6
v -0.5 0 -0.6
v 0.5 0 -0.6
v 0.6 0 -0.6
v -0.5 0 -0.7
v -0.3 0 -0.7
v 0.3 0 -0.7
v 0.5 0 -0.7
v -0.3 0 -0.8
v 0.3 0 -0.8
v -0.1 0.3 -0.1
v 0 0.3 -0.1
v -0.1 0.3 -0.2
v 0 0.3 -0.2
v -0.3 0.5 0.1
v -0.2 0.5 0.1
v 0.2 0.5 0.1
v 0.3 0.5 0.1
v -0.3 0.5 -0.1
v -0.2 0.5 -0.1
v 0.2 0.5 -0.1
v 0.3 0.5 -0.1
v -0.3 0.1 0.8
v 0.3 0.1 0.8
v -0.5 0.1 0.7
v -0.4 0.1 0.7
v -0.3 0.1 0.7
v 0.3 0.1 0.7
v 0.5 0.1 0.7
v -0.6 0.1 0.6
v -0.5 0.1 0.6
v -0.4 0.1 0.6
v 0.3 0.1 0.6
v 0.5 0.1 0.6
v 0.6 0.1 0.6
v -0.7 0.1 0.5
v -0.6 0.1 0.5
v -0.5 0.1 0.5
v -0.2 0.1 0.5
v 0.2 0.1 0.5
v 0.5 0.1 0.5
v 0.6 0.1 0.5
v 0.7 0.1 0.5
v -0.7 0.1 0.4
v -0.6 0.1 0.4
v -0.3 0.1 0.4
v -0.2 0.1 0.4
v 0.2 0.1 0.4
v 0.3 0.1 0.4
v -0.8 0.1 0.3
v -0.7 0.1 0.3
v -0.4 0.1 0.3
v -0.3 0.1 0.3
v 0.3 0.1 0.3
v 0.4 0.1 0.3
v 0.6 0.1 0.3
v 0.7 0.1 0.3
v 0.8 0.1 0.3
v -0.5 0.1 0.2
v -0.4 0.1 0.2
v 0.4 0.1 0.2
v 0.5 0.1 0.2
v -0.2 0.1 0.1
v 0.2 0.1 0.1
v -0.2 0.1 -0.1
v 0.2 0.1 -0.1
v -0.5 0.1 -0.2
v -0.4 0.1 -0.2
v -0.1 0.1 -0.2
v 0 0.1 -0.2
v 0.4 0.1 -0.2
v 0.5 0.1 -0.2
v -0.8 0.1 -0.3
v -0.7 0.1 -0.3
v -0.6 0.1 -0.3
v -0.4 0.1 -0.3
v -0.3 0.1 -0.3
v -0.1 0.1 -0.3
v 0 0.1 -0.3
v 0.3 0.1 -0.3
v 0.4 0.1 -0.3
v 0.6 0.1 -0.3
v 0.7 0.1 -0.3
v 0.8 0.1 -0.3
v -0.3 0.1 -0.4
v -0.2 0.1 -0.4
v 0.2 0.1 -0.4
v 0.3 0.1 -0.4
v -0.7 0.1 -0.5
v -0.6 0.1 -0.5
v -0.5 0.1 -0.5
v -0.2 0.1 -0.5
v 0.2 0.1 -0.5
v 0.5 0.1 -0.5
v 0.6 0.1 -0.5
v 0.7 0.1 -0.5
v -0.6 0.1 -0.6
v -0.5 0.1 -0.6
v -0.3 0.1 -0.6
v 0.3 0.1 -0.6
v 0.5 0.1 -0.6
v 0.6 0.1 -0.6
v -0.5 0.1 -0.7
v -0.3 0.1 -0.7
v 0.3 0.1 -0.7
v 0.5 0.1 -0.7
v -0.3 0.1 -0.8
v 0.3 0.1 -0.8
v -0.4 0.2 0.7
v 0.3 0.2 0.7
v -0.5 0.2 0.6
v -0.4 0.2 0.6
v 0.3 0.2 0.6
v 0.5 0.2 0.6
v -0.6 0.2 0.5
v -0.5 0.2 0.5
v -0.2 0.2 0.5
v 0.2 0.2 0.5
v 0.5 0.2 0.5
v 0.6 0.2 0.5
v -0.7 0.2 0.4
v -0.6 0.2 0.4
v -0.3 0.2 0.4
v -0.2 0.2 0.4
v 0.2 0.2 0.4
v 0.3 0.2 0.4
v -0.4 0.2 0.3
v -0.3 0.2 0.3
v 0.3 0.2 0.3
v 0.4 0.2 0.3
v 0.6 0.2 0.3
v 0.7 0.2 0.3
v -0.5 0.2 0.2
v -0.4 0.2 0.2
v 0.4 0.2 0.2
v 0.5 0.2 0.2
v -0.5 0.2 -0.2
v -0.4 0.2 -0.2
v 0.4 0.2 -0.2
v 0.5 0.2 -0.2
v -0.7 0.2 -0.3
v -0.6 0.2 -0.3
v -0.4 0.2 -0.3
v -0.3 0.2 -0.3
v 0.3 0.2 -0.3
v 0.4 0.2 -0.3
v 0.6 0.2 -0.3
v 0.7 0.2 -0.3
v -0.3 0.2 -0.4
v -0.2 0.2 -0.4
v 0.2 0.2 -0.4
v 0.3 0.2 -0.4
v -0.6 0.2 -0.5
v -0.5 0.2 -0.5
v -0.2 0.2 -0.5
v 0.2 0.2 -0.5
v 0.5 0.2 -0.5
v 0.6 0.2 -0.5
v -0.5 0.2 -0.6
v -0.3 0.2 -0.6
v 0.3 0.2 -0.6
v 0.5 0.2 -0.6
v -0.3 0.2 -0.7
v 0.3 0.2 -0.7
v -0.1 0.4 -0.1
v 0 0.4 -0.1
v -0.1 0.4 -0.3
v 0 0.4 -0.3
v -0.1 0.5 0.1
v 0.1 0.5 0.1
v -0.1 0.5 -0.1
v 0.1 0.5 -0.1
v -0.3 0.6 0.1
v -0.1 0.6 0.1
v 0.1 0.6 0.1
v 0.3 0.6 0.1
v -0.3 0.6 -0.1
v -0.1 0.6 -0.1
v 0.1 0.6 -0.1
v 0.3 0.6 -0.1

# faces
f 3/3/1 2/3/1 1/3/1
f 4/3/1 2/3/1 3/3/1
f 9/3/1 6/3/1 5/3/1
f 10/3/1 6/3/1 9/3/1
f 11/3/1 6/3/1 10/3/1
f 12/3/1 8/3/1 7/3/1
f 13/3/1 8/3/1 12/3/1
f 14/3/1 11/3/1 10/3/1
f 14/3/1 12/3/1 11/3/1
f 15/3/1 12/3/1 14/3/1
f 20/3/1 17/3/1 16/3/1
f 21/3/1 17/3/1 20/3/1
f 24/3/1 19/3/1 18/3/1
f 25/3/1 19/3/1 24/3/1
f 26/3/1 22/3/1 21/3/1
f 27/3/1 22/3/1 26/3/1
f 28/3/1 24/3/1 23/3/1
f 29/3/1 24/3/1 28/3/1
f 34/3/1 31/3/1 30/3/1
f 35/3/1 31/3/1 34/3/1
f 38/3/1 33/3/1 32/3/1
f 39/3/1 33/3/1 38/3/1
f 40/3/1 36/3/1 35/3/1
f 41/3/1 36/3/1 40/3/1
f 42/3/1 38/3/1 37/3/1
f 43/3/1 38/3/1 42/3/1
f 46/3/1 45/3/1 44/3/1
f 47/3/1 45/3/1 46/3/1
f 52/3/1 49/3/1 48/3/1
f 53/3/1 49/3/1 52/3/1
f 55/3/1 51/3/1 50/3/1
f 56/3/1 51/3/1 55/3/1
f 57/3/1 55/3/1 54/3/1
f 58/3/1 55/3/1 57/3/1
f 61/4/1 60/4/1 59/4/1
f 62/4/1 60/4/1 61/4/1
f 65/2/1 64/2/1 63/2/1
f 66/2/1 64/2/1 65/2/1
f 70/2/1 68/2/1 67/2/1
f 71/2/1 70/2/1 69/2/1
f 72/2/1 68/2/1 70/2/1
f 72/2/1 70/2/1 71/2/1
f 75/4/1 74/4/1 73/4/1
f 76/4/1 74/4/1 75/4/1
f 81/3/1 78/3/1 77/3/1
f 82/3/1 78/3/1 81/3/1
f 83/3/1 80/3/1 79/3/1
f 84/3/1 80/3/1 83/3/1
f 89/3/1 86/3/1 85/3/1
f 90/3/1 86/3/1 89/3/1
f 91/3/1 88/3/1 87/3/1
f 92/3/1 88/3/1 91/3/1
f 97/3/1 94/3/1 93/3/1
f 98/3/1 94/3/1 97/3/1
f 99/3/1 96/3/1 95/3/1
f 100/3/1 96/3/1 99/3/1
f 103/3/1 102/3/1 101/3/1
f 104/3/1 102/3/1 103/3/1
f 105/3/2 106/3/2 107/3/2
f 107/3/2 106/3/2 108/3/2
f 109/3/2 110/3/2 113/3/2
f 113/3/2 110/3/2 114/3/2
f 111/3/2 112/3/2 115/3/2
f 115/3/2 112/3/2 116/3/2
f 117/3/2 118/3/2 121/3/2
f 121/3/2 118/3/2 122/3/2
f 119/3/2 120/3/2 123/3/2
f 123/3/2 120/3/2 124/3/2
f 125/3/2 126/3/2 129/3/2
f 129/3/2 126/3/2 130/3/2
f 127/3/2 128/3/2 131/3/2
f 131/3/2 128/3/2 132/3/2
f 133/4/2 134/4/2 135/4/2
f 135/4/2 134/4/2 136/4/2
f 137/2/2 138/2/2 140/2/2
f 139/2/2 140/2/2 141/2/2
f 140/2/2 138/2/2 142/2/2
f 141/2/2 140/2/2 142/2/2
f 143/2/2 144/2/2 145/2/2
f 145/2/2 144/2/2 146/2/2
f 147/3/2 148/3/2 151/3/2
f 151/3/2 148/3/2 152/3/2
f 149/3/2 150/3/2 155/3/2
f 155/3/2 150/3/2 156/3/2
f 152/3/2 153/3/2 157/3/2
f 157/3/2 153/3/2 158/3/2
f 154/3/2 155/3/2 159/3/2
f 159/3/2 155/3/2 160/3/2
f 161/4/2 162/4/2 163/4/2
f 163/4/2 162/4/2 164/4/2
f 165/3/2 166/3/2 169/3/2
f 169/3/2 166/3/2 170/3/2
f 167/3/2 168/3/2 173/3/2
f 173/3/2 168/3/2 174/3/2
f 170/3/2 171/3/2 175/3/2
f 175/3/2 171/3/2 176/3/2
f 172/3/2 173/3/2 177/3/2
f 177/3/2 173/3/2 178/3/2
f 179/3/2 180/3/2 183/3/2
f 183/3/2 180/3/2 184/3/2
f 181/3/2 182/3/2 187/3/2
f 187/3/2 182/3/2 188/3/2
f 184/3/2 185/3/2 189/3/2
f 189/3/2 185/3/2 190/3/2
f 186/3/2 187/3/2 191/3/2
f 191/3/2 187/3/2 192/3/2
f 193/3/2 194/3/2 197/3/2
f 197/3/2 194/3/2 198/3/2
f 195/3/2 196/3/2 199/3/2
f 199/3/2 196/3/2 200/3/2
f 198/3/2 199/3/2 201/3/2
f 201/3/2 199/3/2 202/3/2
f 203/3/2 204/3/2 205/3/2
f 205/3/2 204/3/2 206/3/2
f 209/3/3 208/3/3 207/3/3
f 210/3/3 208/3/3 209/3/3
f 213/3/3 212/3/3 211/3/3
f 215/3/3 213/3/3 211/3/3
f 215/3/3 214/3/3 213/3/3
f 216/3/3 214/3/3 215/3/3
f 218/3/3 214/3/3 216/3/3
f 219/3/3 214/3/3 218/3/3
f 220/3/3 218/3/3 217/3/3
f 221/3/3 218/3/3 220/3/3
f 224/3/3 223/3/3 222/3/3
f 225/3/3 223/3/3 224/3/3
f 227/3/3 226/3/3 225/3/3
f 228/3/3 226/3/3 227/3/3
f 232/3/3 230/3/3 229/3/3
f 233/3/3 230/3/3 232/3/3
f 234/3/3 232/3/3 231/3/3
f 235/3/3 232/3/3 234/3/3
f 238/3/3 237/3/3 236/3/3
f 239/3/3 237/3/3 238/3/3
f 241/3/3 240/3/3 239/3/3
f 242/3/3 240/3/3 241/3/3
f 246/3/3 244/3/3 243/3/3
f 247/3/3 244/3/3 246/3/3
f 248/3/3 246/3/3 245/3/3
f 249/3/3 246/3/3 248/3/3
f 252/3/3 251/3/3 250/3/3
f 253/3/3 251/3/3 252/3/3
f 256/3/3 255/3/3 254/3/3
f 257/3/3 255/3/3 256/3/3
f 261/3/3 259/3/3 258/3/3
f 262/3/3 259/3/3 261/3/3
f 263/3/3 261/3/3 260/3/3
f 264/3/3 261/3/3 263/3/3
f 268/4/3 266/4/3 265/4/3
f 269/2/3 268/2/3 267/2/3
f 270/2/3 268/2/3 269/2/3
f 271/4/3 266/4/3 268/4/3
f 271/2/3 268/2/3 270/2/3
f 272/4/3 266/4/3 271/4/3
f 273/4/3 270/4/3 269/4/3
f 273/2/3 269/2/3 267/2/3
f 274/2/3 271/2/3 270/2/3
f 274/4/3 270/4/3 273/4/3
f 275/2/3 271/2/3 274/2/3
f 277/2/3 273/2/3 267/2/3
f 277/2/3 274/2/3 273/2/3
f 277/2/3 275/2/3 274/2/3
f 278/4/3 276/4/3 275/4/3
f 278/2/3 275/2/3 277/2/3
f 279/4/3 276/4/3 278/4/3
f 280/4/3 276/4/3 279/4/3
f 283/3/3 282/3/3 281/3/3
f 284/3/3 282/3/3 283/3/3
f 287/2/3 286/2/3 285/2/3
f 288/2/3 286/2/3 287/2/3
f 291/3/3 290/3/3 289/3/3
f 292/3/3 290/3/3 291/3/3
f 295/3/3 294/3/3 293/3/3
f 296/3/3 294/3/3 295/3/3
f 299/3/3 298/3/3 297/3/3
f 300/3/3 298/3/3 299/3/3
f 303/3/3 302/3/3 301/3/3
f 304/3/3 302/3/3 303/3/3
f 307/3/3 306/3/3 305/3/3
f 308/3/3 306/3/3 307/3/3
f 311/3/3 310/3/3 309/3/3
f 312/3/3 310/3/3 311/3/3
f 313/3/4 314/3/4 315/3/4
f 315/3/4 314/3/4 316/3/4
f 317/3/4 318/3/4 319/3/4
f 319/3/4 318/3/4 320/3/4
f 321/3/4 322/3/4 323/3/4
f 323/3/4 322/3/4 324/3/4
f 325/3/4 326/3/4 327/3/4
f 327/3/4 326/3/4 328/3/4
f 329/3/4 330/3/4 331/3/4
f 331/3/4 330/3/4 332/3/4
f 333/3/4 334/3/4 335/3/4
f 335/3/4 334/3/4 336/3/4
f 337/3/4 338/3/4 339/3/4
f 339/3/4 338/3/4 340/3/4
f 341/4/4 342/4/4 344/4/4
f 343/2/4 344/2/4 345/2/4
f 345/2/4 344/2/4 346/2/4
f 344/4/4 342/4/4 347/4/4
f 346/2/4 344/2/4 347/2/4
f 347/4/4 342/4/4 348/4/4
f 343/2/4 345/2/4 349/2/4
f 346/2/4 347/2/4 350/2/4
f 350/2/4 347/2/4 351/2/4
f 349/2/4 350/2/4 351/2/4
f 343/2/4 349/2/4 353/2/4
f 349/2/4 351/2/4 353/2/4
f 351/4/4 352/4/4 354/4/4
f 353/2/4 351/2/4 354/2/4
f 354/4/4 352/4/4 355/4/4
f 355/4/4 352/4/4 356/4/4
f 357/3/4 358/3/4 359/3/4
f 359/3/4 358/3/4 360/3/4
f 360/3/4 361/3/4 362/3/4
f 362/3/4 361/3/4 363/3/4
f 364/2/4 365/2/4 366/2/4
f 366/2/4 365/2/4 367/2/4
f 368/3/4 369/3/4 371/3/4
f 371/3/4 369/3/4 372/3/4
f 370/3/4 371/3/4 373/3/4
f 373/3/4 371/3/4 374/3/4
f 375/3/4 376/3/4 377/3/4
f 377/3/4 376/3/4 378/3/4
f 378/3/4 379/3/4 380/3/4
f 380/3/4 379/3/4 381/3/4
f 382/3/4 383/3/4 385/3/4
f 385/3/4 383/3/4 386/3/4
f 384/3/4 385/3/4 387/3/4
f 387/3/4 385/3/4 388/3/4
f 389/3/4 390/3/4 391/3/4
f 391/3/4 390/3/4 392/3/4
f 392/3/4 393/3/4 394/3/4
f 394/3/4 393/3/4 395/3/4
f 396/3/4 397/3/4 399/3/4
f 399/3/4 397/3/4 400/3/4
f 398/3/4 399/3/4 401/3/4
f 401/3/4 399/3/4 402/3/4
f 403/3/4 404/3/4 405/3/4
f 405/3/4 404/3/4 406/3/4
f 406/3/4 407/3/4 409/3/4
f 409/3/4 407/3/4 410/3/4
f 408/3/4 409/3/4 411/3/4
f 411/3/4 409/3/4 412/3/4
f 413/3/4 414/3/4 415/3/4
f 415/3/4 414/3/4 416/3/4
f 420/3/5 418/3/5 417/3/5
f 421/3/5 418/3/5 420/3/5
f 424/3/5 420/3/5 419/3/5
f 424/3/5 422/3/5 421/3/5
f 424/3/5 421/3/5 420/3/5
f 425/3/5 422/3/5 424/3/5
f 428/3/5 424/3/5 423/3/5
f 428/3/5 426/3/5 425/3/5
f 428/3/5 425/3/5 424/3/5
f 429/3/5 426/3/5 428/3/5
f 430/3/5 426/3/5 429/3/5
f 431/3/5 426/3/5 430/3/5
f 433/3/5 428/3/5 427/3/5
f 433/3/5 429/3/5 428/3/5
f 434/1/5 430/1/5 429/1/5
f 434/3/5 429/3/5 433/3/5
f 435/3/5 432/3/5 431/3/5
f 435/1/5 430/1/5 434/1/5
f 435/3/5 431/3/5 430/3/5
f 436/3/5 432/3/5 435/3/5
f 438/3/5 433/3/5 427/3/5
f 439/3/5 433/3/5 438/3/5
f 440/1/5 434/1/5 433/1/5
f 440/3/5 433/3/5 439/3/5
f 440/1/5 435/1/5 434/1/5
f 440/1/5 436/1/5 435/1/5
f 441/3/5 432/3/5 436/3/5
f 441/1/5 436/1/5 440/1/5
f 442/3/5 432/3/5 441/3/5
f 443/3/5 432/3/5 442/3/5
f 445/3/5 439/3/5 438/3/5
f 445/3/5 438/3/5 437/3/5
f 446/1/5 440/1/5 439/1/5
f 446/3/5 439/3/5 445/3/5
f 446/1/5 441/1/5 440/1/5
f 446/1/5 442/1/5 441/1/5
f 447/3/5 444/3/5 443/3/5
f 447/1/5 442/1/5 446/1/5
f 447/3/5 443/3/5 442/3/5
f 448/3/5 444/3/5 447/3/5
f 449/1/5 446/1/5 445/1/5
f 449/1/5 447/1/5 446/1/5
f 449/1/5 448/1/5 447/1/5
f 450/1/5 448/1/5 449/1/5
f 451/1/5 449/1/5 445/1/5
f 451/3/5 450/3/5 449/3/5
f 452/1/5 448/1/5 450/1/5
f 452/3/5 450/3/5 451/3/5
f 453/3/5 445/3/5 437/3/5
f 453/1/5 451/1/5 445/1/5
f 453/1/5 452/1/5 451/1/5
f 454/1/5 452/1/5 453/1/5
f 455/1/5 452/1/5 454/1/5
f 456/1/5 452/1/5 455/1/5
f 457/1/5 448/1/5 452/1/5
f 457/1/5 452/1/5 456/1/5
f 458/3/5 444/3/5 448/3/5
f 458/1/5 448/1/5 457/1/5
f 459/3/5 453/3/5 437/3/5
f 459/3/5 454/3/5 453/3/5
f 460/3/5 454/3/5 459/3/5
f 461/1/5 455/1/5 454/1/5
f 461/3/5 454/3/5 460/3/5
f 462/1/5 455/1/5 461/1/5
f 463/3/5 456/3/5 455/3/5
f 463/1/5 455/1/5 462/1/5
f 464/1/5 457/1/5 456/1/5
f 464/3/5 456/3/5 463/3/5
f 465/1/5 457/1/5 464/1/5
f 466/3/5 458/3/5 457/3/5
f 466/1/5 457/1/5 465/1/5
f 467/3/5 444/3/5 458/3/5
f 467/3/5 458/3/5 466/3/5
f 468/3/5 444/3/5 467/3/5
f 469/1/5 463/1/5 462/1/5
f 469/3/5 462/3/5 461/3/5
f 469/1/5 465/1/5 464/1/5
f 469/1/5 464/1/5 463/1/5
f 469/3/5 461/3/5 460/3/5
f 470/1/5 465/1/5 469/1/5
f 471/1/5 465/1/5 470/1/5
f 472/3/5 467/3/5 466/3/5
f 472/1/5 465/1/5 471/1/5
f 472/3/5 466/3/5 465/3/5
f 473/3/5 470/3/5 469/3/5
f 473/3/5 469/3/5 460/3/5
f 474/3/5 470/3/5 473/3/5
f 475/1/5 471/1/5 470/1/5
f 475/3/5 470/3/5 474/3/5
f 476/3/5 472/3/5 471/3/5
f 476/1/5 471/1/5 475/1/5
f 477/3/5 467/3/5 472/3/5
f 477/3/5 472/3/5 476/3/5
f 478/3/5 467/3/5 477/3/5
f 479/3/5 476/3/5 475/3/5
f 479/3/5 477/3/5 476/3/5
f 479/3/5 475/3/5 474/3/5
f 480/3/5 477/3/5 479/3/5
f 481/3/5 477/3/5 480/3/5
f 482/3/5 477/3/5 481/3/5
f 483/3/5 481/3/5 480/3/5
f 484/3/5 481/3/5 483/3/5
f 485/3/5 481/3/5 484/3/5
f 486/3/5 481/3/5 485/3/5
f 487/3/5 485/3/5 484/3/5
f 488/3/5 485/3/5 487/3/5
f 491/2/5 490/2/5 489/2/5
f 492/2/5 490/2/5 491/2/5
f 497/4/5 494/4/5 493/4/5
f 498/4/5 494/4/5 497/4/5
f 499/4/5 496/4/5 495/4/5
f 500/4/5 496/4/5 499/4/5
f 501/3/6 502/3/6 505/3/6
f 505/3/6 502/3/6 506/3/6
f 503/3/6 504/3/6 509/3/6
f 509/3/6 504/3/6 510/3/6
f 506/3/6 507/3/6 511/3/6
f 511/3/6 507/3/6 512/3/6
f 508/3/6 509/3/6 515/3/6
f 515/3/6 509/3/6 516/3/6
f 512/3/6 513/3/6 519/3/6
f 519/3/6 513/3/6 520/3/6
f 514/3/6 515/3/6 522/3/6
f 522/3/6 515/3/6 523/3/6
f 517/1/6 518/1/6 525/1/6
f 525/1/6 518/1/6 526/1/6
f 526/1/6 527/1/6 531/1/6
f 524/1/6 525/1/6 531/1/6
f 525/1/6 526/1/6 531/1/6
f 531/1/6 527/1/6 532/1/6
f 520/3/6 521/3/6 534/3/6
f 534/3/6 521/3/6 535/3/6
f 532/1/6 533/1/6 538/1/6
f 530/1/6 531/1/6 538/1/6
f 531/1/6 532/1/6 538/1/6
f 538/1/6 533/1/6 539/1/6
f 537/1/6 538/1/6 541/1/6
f 539/1/6 540/1/6 541/1/6
f 538/1/6 539/1/6 541/1/6
f 541/1/6 540/1/6 542/1/6
f 537/1/6 541/1/6 543/1/6
f 542/1/6 540/1/6 544/1/6
f 537/1/6 543/1/6 545/1/6
f 543/1/6 544/1/6 545/1/6
f 545/1/6 544/1/6 546/1/6
f 546/1/6 544/1/6 547/1/6
f 547/1/6 544/1/6 548/1/6
f 544/1/6 540/1/6 549/1/6
f 548/1/6 544/1/6 549/1/6
f 549/1/6 540/1/6 550/1/6
f 528/3/6 529/3/6 551/3/6
f 551/3/6 529/3/6 552/3/6
f 546/1/6 547/1/6 554/1/6
f 554/1/6 547/1/6 555/1/6
f 555/1/6 547/1/6 556/1/6
f 548/1/6 549/1/6 557/1/6
f 557/1/6 549/1/6 558/1/6
f 558/1/6 549/1/6 559/1/6
f 535/3/6 536/3/6 561/3/6
f 561/3/6 536/3/6 562/3/6
f 557/1/6 558/1/6 563/1/6
f 555/1/6 556/1/6 563/1/6
f 556/1/6 557/1/6 563/1/6
f 563/1/6 558/1/6 564/1/6
f 564/1/6 558/1/6 565/1/6
f 565/1/6 558/1/6 566/1/6
f 552/3/6 553/3/6 567/3/6
f 567/3/6 553/3/6 568/3/6
f 564/1/6 565/1/6 570/1/6
f 570/1/6 565/1/6 571/1/6
f 560/3/6 561/3/6 573/3/6
f 573/3/6 561/3/6 574/3/6
f 568/3/6 569/3/6 575/3/6
f 575/3/6 569/3/6 576/3/6
f 572/3/6 573/3/6 579/3/6
f 579/3/6 573/3/6 580/3/6
f 576/3/6 577/3/6 581/3/6
f 581/3/6 577/3/6 582/3/6
f 578/3/6 579/3/6 583/3/6
f 583/3/6 579/3/6 584/3/6
f 582/3/6 583/3/6 585/3/6
f 585/3/6 583/3/6 586/3/6
f 587/3/6 588/3/6 590/3/6
f 590/3/6 588/3/6 591/3/6
f 589/3/6 590/3/6 594/3/6
f 591/3/6 592/3/6 594/3/6
f 590/3/6 591/3/6 594/3/6
f 594/3/6 592/3/6 595/3/6
f 595/3/6 592/3/6 596/3/6
f 596/3/6 592/3/6 597/3/6
f 593/3/6 594/3/6 600/3/6
f 594/3/6 595/3/6 600/3/6
f 600/3/6 595/3/6 601/3/6
f 601/3/6 595/3/6 602/3/6
f 596/3/6 597/3/6 603/3/6
f 597/3/6 598/3/6 603/3/6
f 603/3/6 598/3/6 604/3/6
f 600/3/6 601/3/6 605/3/6
f 599/3/6 600/3/6 605/3/6
f 605/3/6 601/3/6 606/3/6
f 604/3/6 598/3/6 607/3/6
f 607/3/6 598/3/6 608/3/6
f 608/3/6 598/3/6 609/3/6
f 599/3/6 605/3/6 611/3/6
f 611/3/6 605/3/6 612/3/6
f 609/3/6 610/3/6 613/3/6
f 608/3/6 609/3/6 613/3/6
f 613/3/6 610/3/6 614/3/6
f 599/3/6 611/3/6 615/3/6
f 614/3/6 610/3/6 618/3/6
f 615/3/6 616/3/6 619/3/6
f 599/3/6 615/3/6 619/3/6
f 619/3/6 616/3/6 620/3/6
f 620/3/6 616/3/6 621/3/6
f 617/3/6 618/3/6 624/3/6
f 618/3/6 610/3/6 625/3/6
f 624/3/6 618/3/6 625/3/6
f 625/3/6 610/3/6 626/3/6
f 621/3/6 622/3/6 627/3/6
f 620/3/6 621/3/6 627/3/6
f 623/3/6 624/3/6 630/3/6
f 624/3/6 625/3/6 630/3/6
f 627/3/6 628/3/6 631/3/6
f 620/3/6 627/3/6 631/3/6
f 631/3/6 628/3/6 632/3/6
f 632/3/6 628/3/6 633/3/6
f 629/3/6 630/3/6 634/3/6
f 630/3/6 625/3/6 635/3/6
f 634/3/6 630/3/6 635/3/6
f 635/3/6 625/3/6 636/3/6
f 632/3/6 633/3/6 637/3/6
f 633/3/6 634/3/6 637/3/6
f 634/3/6 635/3/6 637/3/6
f 637/3/6 635/3/6 638/3/6
f 638/3/6 635/3/6 639/3/6
f 639/3/6 635/3/6 640/3/6
f 638/3/6 639/3/6 641/3/6
f 641/3/6 639/3/6 642/3/6
f 643/2/6 644/2/6 645/2/6
f 645/2/6 644/2/6 646/2/6
f 647/2/6 648/2/6 649/2/6
f 649/2/6 648/2/6 650/2/6
f 651/4/6 652/4/6 655/4/6
f 655/4/6 652/4/6 656/4/6
f 653/4/6 654/4/6 657/4/6
f 657/4/6 654/4/6 658/4/6
