{
	"asset":{
		"generator":"Khronos glTF Blender I/O v5.0.21",
		"version":"2.0"
	},
	"scene":0,
	"scenes":[
		{
			"name":"Scene",
			"nodes":[
				0
			]
		}
	],
	"nodes":[
		{
			"mesh":0,
			"name":"Coral_Table_A"
		}
	],
	"materials":[
		{
			"name":"Coral_Table_A_Coral_Table_A",
			"normalTexture":{
				"index":0
			},
			"occlusionTexture":{
				"index":1
			},
			"pbrMetallicRoughness":{
				"baseColorTexture":{
					"index":2
				},
				"metallicRoughnessTexture":{
					"index":1
				}
			}
		}
	],
	"meshes":[
		{
			"name":"Coral_Table_A",
			"primitives":[
				{
					"attributes":{
						"POSITION":0,
						"NORMAL":1,
						"TEXCOORD_0":2,
						"TANGENT":3
					},
					"indices":4,
					"material":0
				}
			]
		}
	],
	"textures":[
		{
			"sampler":0,
			"source":0
		},
		{
			"sampler":0,
			"source":1
		},
		{
			"sampler":0,
			"source":2
		}
	],
	"images":[
		{
			"mimeType":"image/png",
			"name":"Coral_Table_A_Coral_Table_A_Normal",
			"uri":"Coral_Table_A_Coral_Table_A_Normal.png"
		},
		{
			"mimeType":"image/png",
			"name":"Coral_Table_A_Coral_Table_A_ORM",
			"uri":"Coral_Table_A_Coral_Table_A_ORM.png"
		},
		{
			"mimeType":"image/png",
			"name":"Coral_Table_A_Coral_Table_A_BaseColor",
			"uri":"Coral_Table_A_Coral_Table_A_BaseColor.png"
		}
	],
	"accessors":[
		{
			"bufferView":0,
			"componentType":5126,
			"count":9668,
			"max":[
				0.8439276218414307,
				0.5396599173545837,
				0.8410068154335022
			],
			"min":[
				-0.7552692890167236,
				-0.15580815076828003,
				-0.7813787460327148
			],
			"type":"VEC3"
		},
		{
			"bufferView":1,
			"componentType":5126,
			"count":9668,
			"type":"VEC3"
		},
		{
			"bufferView":2,
			"componentType":5126,
			"count":9668,
			"type":"VEC2"
		},
		{
			"bufferView":3,
			"componentType":5126,
			"count":9668,
			"type":"VEC4"
		},
		{
			"bufferView":4,
			"componentType":5123,
			"count":39252,
			"type":"SCALAR"
		}
	],
	"bufferViews":[
		{
			"buffer":0,
			"byteLength":116016,
			"byteOffset":0,
			"target":34962
		},
		{
			"buffer":0,
			"byteLength":116016,
			"byteOffset":116016,
			"target":34962
		},
		{
			"buffer":0,
			"byteLength":77344,
			"byteOffset":232032,
			"target":34962
		},
		{
			"buffer":0,
			"byteLength":154688,
			"byteOffset":309376,
			"target":34962
		},
		{
			"buffer":0,
			"byteLength":78504,
			"byteOffset":464064,
			"target":34963
		}
	],
	"samplers":[
		{
			"magFilter":9729,
			"minFilter":9987
		}
	],
	"buffers":[
		{
			"byteLength":542568,
			"uri":"Coral_Table_A.bin"
		}
	]
}
