{
	"asset":{
		"generator":"Khronos glTF Blender I/O v5.0.21",
		"version":"2.0"
	},
	"scene":0,
	"scenes":[
		{
			"name":"Scene",
			"nodes":[
				0
			]
		}
	],
	"nodes":[
		{
			"mesh":0,
			"name":"BeachRock_B"
		}
	],
	"materials":[
		{
			"name":"BeachRock_B_BeachRockB",
			"normalTexture":{
				"index":0
			},
			"occlusionTexture":{
				"index":1
			},
			"pbrMetallicRoughness":{
				"baseColorTexture":{
					"index":2
				},
				"metallicRoughnessTexture":{
					"index":1
				}
			}
		}
	],
	"meshes":[
		{
			"name":"BeachRock_B",
			"primitives":[
				{
					"attributes":{
						"POSITION":0,
						"NORMAL":1,
						"TEXCOORD_0":2,
						"TANGENT":3
					},
					"indices":4,
					"material":0
				}
			]
		}
	],
	"textures":[
		{
			"sampler":0,
			"source":0
		},
		{
			"sampler":0,
			"source":1
		},
		{
			"sampler":0,
			"source":2
		}
	],
	"images":[
		{
			"mimeType":"image/png",
			"name":"BeachRock_B_BeachRockB_Normal",
			"uri":"BeachRock_B_BeachRockB_Normal.png"
		},
		{
			"mimeType":"image/png",
			"name":"BeachRock_B_BeachRockB_ORM",
			"uri":"BeachRock_B_BeachRockB_ORM.png"
		},
		{
			"mimeType":"image/png",
			"name":"BeachRock_B_BeachRockB_BaseColor",
			"uri":"BeachRock_B_BeachRockB_BaseColor.png"
		}
	],
	"accessors":[
		{
			"bufferView":0,
			"componentType":5126,
			"count":5849,
			"max":[
				1.94492769241333,
				0.4291307032108307,
				0.9569641351699829
			],
			"min":[
				-1.9460382461547852,
				-0.43919244408607483,
				-1.0200790166854858
			],
			"type":"VEC3"
		},
		{
			"bufferView":1,
			"componentType":5126,
			"count":5849,
			"type":"VEC3"
		},
		{
			"bufferView":2,
			"componentType":5126,
			"count":5849,
			"type":"VEC2"
		},
		{
			"bufferView":3,
			"componentType":5126,
			"count":5849,
			"type":"VEC4"
		},
		{
			"bufferView":4,
			"componentType":5123,
			"count":15240,
			"type":"SCALAR"
		}
	],
	"bufferViews":[
		{
			"buffer":0,
			"byteLength":70188,
			"byteOffset":0,
			"target":34962
		},
		{
			"buffer":0,
			"byteLength":70188,
			"byteOffset":70188,
			"target":34962
		},
		{
			"buffer":0,
			"byteLength":46792,
			"byteOffset":140376,
			"target":34962
		},
		{
			"buffer":0,
			"byteLength":93584,
			"byteOffset":187168,
			"target":34962
		},
		{
			"buffer":0,
			"byteLength":30480,
			"byteOffset":280752,
			"target":34963
		}
	],
	"samplers":[
		{
			"magFilter":9729,
			"minFilter":9987
		}
	],
	"buffers":[
		{
			"byteLength":311232,
			"uri":"BeachRock_B.bin"
		}
	]
}
