# MagicaVoxel @ Ephtracy

# group
o 

# material
mtllib tree.mtl
usemtl palette

# normals
vn -1 0 0
vn 1 0 0
vn 0 0 1
vn 0 0 -1
vn 0 -1 0
vn 0 1 0

# texcoords
vt 0.337891 0.5
vt 0.583984 0.5

# verts
v -0.7 1.2 0.6
v -0.7 1.2 0.5
v -0.7 1.3 0.5
v -0.7 1.3 0.4
v -0.7 1.4 0.6
v -0.7 1.4 0.4
v -0.6 1.4 0.5
v -0.6 1.4 0.4
v -0.6 1.4 0.3
v -0.6 1.5 0.5
v -0.6 1.5 0.3
v -0.5 1.3 0.4
v -0.5 1.3 0.3
v -0.5 1.4 0.4
v -0.5 1.4 0.3
v -0.5 1.4 0.2
v -0.5 1.4 -0.4
v -0.5 1.4 -0.5
v -0.5 1.5 0.3
v -0.5 1.5 0.2
v -0.5 1.5 -0.3
v -0.5 1.5 -0.4
v -0.5 1.6 -0.3
v -0.5 1.6 -0.5
v -0.4 1.3 0.3
v -0.4 1.3 0.1
v -0.4 1.4 0.3
v -0.4 1.4 0.2
v -0.4 1.4 0.1
v -0.4 1.5 -0.2
v -0.4 1.5 -0.3
v -0.4 1.6 -0.2
v -0.4 1.6 -0.3
v -0.3 1.2 0.2
v -0.3 1.2 0.1
v -0.3 1.3 0.2
v -0.3 1.3 0.1
v -0.3 1.4 -0.1
v -0.3 1.4 -0.3
v -0.3 1.5 -0.1
v -0.3 1.5 -0.2
v -0.3 1.5 -0.3
v -0.2 0 0.2
v -0.2 0 -0.2
v -0.2 0.1 0.2
v -0.2 0.1 -0.2
v -0.2 1.3 0
v -0.2 1.3 -0.2
v -0.2 1.4 0
v -0.2 1.4 -0.1
v -0.2 1.4 -0.2
v -0.1 0.1 0.1
v -0.1 0.1 -0.2
v -0.1 0.4 0.1
v -0.1 0.4 -0.2
v -0.1 0.8 0
v -0.1 0.8 -0.1
v -0.1 0.9 0.1
v -0.1 0.9 0
v -0.1 1.2 0.1
v -0.1 1.2 -0.1
v -0.1 1.3 0.1
v -0.1 1.3 0
v -0.1 1.3 -0.1
v 0 0.4 0
v 0 0.4 -0.2
v 0 0.8 0.1
v 0 0.8 0
v 0 0.8 -0.1
v 0 0.9 0.1
v 0 0.9 0
v 0 1 -0.1
v 0 1 -0.2
v 0 1.2 0.2
v 0 1.2 0.1
v 0 1.3 0.2
v 0 1.3 0.1
v 0.1 1.3 0.3
v 0.1 1.3 0.2
v 0.1 1.3 0.1
v 0.1 1.4 0.3
v 0.1 1.4 0.1
v 0.2 1.4 0.4
v 0.2 1.4 0.3
v 0.2 1.4 0.2
v 0.2 1.5 0.4
v 0.2 1.5 0.2
v 0.3 1.3 0.5
v 0.3 1.3 0.4
v 0.3 1.4 0.5
v 0.3 1.4 0.4
v 0.4 1.2 0.5
v 0.4 1.2 0.4
v 0.4 1.3 0.5
v 0.4 1.3 0.4
v 0.4 1.3 0.3
v 0.4 1.4 0.4
v 0.4 1.4 0.3
v -0.6 1.2 0.6
v -0.6 1.2 0.5
v -0.6 1.3 0.6
v -0.6 1.3 0.5
v -0.5 1.3 0.6
v -0.5 1.3 0.4
v -0.5 1.4 0.6
v -0.5 1.4 0.5
v -0.5 1.4 0.4
v -0.4 1.3 0.4
v -0.4 1.3 0.3
v -0.4 1.4 0.5
v -0.4 1.4 0.4
v -0.4 1.4 0.3
v -0.4 1.4 -0.4
v -0.4 1.4 -0.5
v -0.4 1.5 0.5
v -0.4 1.5 0.4
v -0.4 1.5 -0.4
v -0.4 1.5 -0.5
v -0.3 1.4 0.4
v -0.3 1.4 0.3
v -0.3 1.4 0.2
v -0.3 1.5 0.4
v -0.3 1.5 0.2
v -0.3 1.5 -0.4
v -0.3 1.5 -0.5
v -0.3 1.6 -0.4
v -0.3 1.6 -0.5
v -0.2 1.3 0.3
v -0.2 1.3 0.2
v -0.2 1.3 0.1
v -0.2 1.4 0.3
v -0.2 1.4 0.1
v -0.2 1.5 -0.2
v -0.2 1.5 -0.3
v -0.2 1.5 -0.4
v -0.2 1.6 -0.2
v -0.2 1.6 -0.4
v -0.1 1.2 0.2
v -0.1 1.2 0.1
v -0.1 1.3 0.2
v -0.1 1.3 0.1
v -0.1 1.4 -0.1
v -0.1 1.4 -0.2
v -0.1 1.4 -0.3
v -0.1 1.5 -0.1
v -0.1 1.5 -0.3
v 0 1.2 0
v 0 1.2 -0.1
v 0 1.3 0
v 0 1.3 -0.1
v 0 1.3 -0.2
v 0 1.4 0
v 0 1.4 -0.2
v 0.1 0.8 0.1
v 0.1 0.8 0
v 0.1 1 0
v 0.1 1 -0.1
v 0.1 1.2 0.1
v 0.1 1.2 0
v 0.1 1.2 -0.1
v 0.1 1.3 0.1
v 0.1 1.3 0
v 0.2 0 0.2
v 0.2 0 -0.2
v 0.2 0.1 0.2
v 0.2 0.1 0.1
v 0.2 0.4 0.1
v 0.2 0.4 0
v 0.2 1 0
v 0.2 1 -0.2
v 0.2 1.2 0.2
v 0.2 1.2 0.1
v 0.2 1.3 0.3
v 0.2 1.3 0.2
v 0.2 1.3 0.1
v 0.2 1.4 0.3
v 0.2 1.4 0.2
v 0.3 1.3 0.2
v 0.3 1.3 0.1
v 0.3 1.4 0.2
v 0.3 1.4 0.1
v 0.4 1.4 0.4
v 0.4 1.4 0.3
v 0.4 1.4 0.2
v 0.4 1.5 0.4
v 0.4 1.5 0.2
v 0.5 1.3 0.4
v 0.5 1.3 0.3
v 0.5 1.4 0.4
v 0.5 1.4 0.3
v 0.6 1.2 0.5
v 0.6 1.2 0.4
v 0.6 1.4 0.5
v 0.6 1.4 0.4
v -0.7 1.2 0.6
v -0.7 1.4 0.6
v -0.6 1.2 0.6
v -0.6 1.3 0.6
v -0.5 1.3 0.6
v -0.5 1.4 0.6
v -0.6 1.4 0.5
v -0.6 1.5 0.5
v -0.5 1.4 0.5
v -0.4 1.4 0.5
v -0.4 1.5 0.5
v 0.3 1.3 0.5
v 0.3 1.4 0.5
v 0.4 1.2 0.5
v 0.4 1.3 0.5
v 0.6 1.2 0.5
v 0.6 1.4 0.5
v -0.5 1.3 0.4
v -0.5 1.4 0.4
v -0.4 1.3 0.4
v -0.4 1.4 0.4
v -0.4 1.5 0.4
v -0.3 1.4 0.4
v -0.3 1.5 0.4
v 0.2 1.4 0.4
v 0.2 1.5 0.4
v 0.3 1.4 0.4
v 0.4 1.4 0.4
v 0.4 1.5 0.4
v -0.4 1.3 0.3
v -0.4 1.4 0.3
v -0.3 1.4 0.3
v -0.2 1.3 0.3
v -0.2 1.4 0.3
v 0.1 1.3 0.3
v 0.1 1.4 0.3
v 0.2 1.3 0.3
v 0.2 1.4 0.3
v -0.3 1.2 0.2
v -0.3 1.3 0.2
v -0.2 0 0.2
v -0.2 0.1 0.2
v -0.2 1.3 0.2
v -0.1 1.2 0.2
v -0.1 1.3 0.2
v 0 1.2 0.2
v 0 1.3 0.2
v 0.1 1.3 0.2
v 0.2 0 0.2
v 0.2 0.1 0.2
v 0.2 1.2 0.2
v 0.2 1.3 0.2
v 0.2 1.4 0.2
v 0.3 1.3 0.2
v 0.3 1.4 0.2
v -0.1 0.1 0.1
v -0.1 0.4 0.1
v -0.1 0.9 0.1
v -0.1 1.2 0.1
v -0.1 1.3 0.1
v 0 0.8 0.1
v 0 0.9 0.1
v 0 1.2 0.1
v 0 1.3 0.1
v 0.1 0.8 0.1
v 0.1 1.2 0.1
v 0.2 0.1 0.1
v 0.2 0.4 0.1
v -0.2 1.3 0
v -0.2 1.4 0
v -0.1 0.8 0
v -0.1 0.9 0
v -0.1 1.3 0
v 0 0.4 0
v 0 0.8 0
v 0 0.9 0
v 0 1.3 0
v 0 1.4 0
v 0.1 0.8 0
v 0.1 1 0
v 0.2 0.4 0
v 0.2 1 0
v -0.3 1.4 -0.1
v -0.3 1.5 -0.1
v -0.2 1.4 -0.1
v -0.1 1.4 -0.1
v -0.1 1.5 -0.1
v -0.4 1.5 -0.2
v -0.4 1.6 -0.2
v -0.3 1.5 -0.2
v -0.2 1.5 -0.2
v -0.2 1.6 -0.2
v -0.5 1.5 -0.3
v -0.5 1.6 -0.3
v -0.4 1.5 -0.3
v -0.4 1.6 -0.3
v -0.5 1.4 -0.4
v -0.5 1.5 -0.4
v -0.4 1.4 -0.4
v -0.4 1.5 -0.4
v -0.7 1.2 0.5
v -0.7 1.3 0.5
v -0.6 1.2 0.5
v -0.6 1.3 0.5
v -0.7 1.3 0.4
v -0.7 1.4 0.4
v -0.6 1.4 0.4
v -0.5 1.3 0.4
v -0.5 1.4 0.4
v 0.3 1.3 0.4
v 0.3 1.4 0.4
v 0.4 1.2 0.4
v 0.4 1.3 0.4
v 0.4 1.4 0.4
v 0.5 1.3 0.4
v 0.5 1.4 0.4
v 0.6 1.2 0.4
v 0.6 1.4 0.4
v -0.6 1.4 0.3
v -0.6 1.5 0.3
v -0.5 1.3 0.3
v -0.5 1.4 0.3
v -0.5 1.5 0.3
v -0.4 1.3 0.3
v -0.4 1.4 0.3
v 0.4 1.3 0.3
v 0.4 1.4 0.3
v 0.5 1.3 0.3
v 0.5 1.4 0.3
v -0.5 1.4 0.2
v -0.5 1.5 0.2
v -0.4 1.4 0.2
v -0.3 1.4 0.2
v -0.3 1.5 0.2
v 0.2 1.4 0.2
v 0.2 1.5 0.2
v 0.3 1.4 0.2
v 0.4 1.4 0.2
v 0.4 1.5 0.2
v -0.4 1.3 0.1
v -0.4 1.4 0.1
v -0.3 1.2 0.1
v -0.3 1.3 0.1
v -0.2 1.3 0.1
v -0.2 1.4 0.1
v -0.1 1.2 0.1
v -0.1 1.3 0.1
v 0.1 1.2 0.1
v 0.1 1.3 0.1
v 0.1 1.4 0.1
v 0.2 1.2 0.1
v 0.2 1.3 0.1
v 0.3 1.3 0.1
v 0.3 1.4 0.1
v 0 1.2 0
v 0 1.3 0
v 0.1 1.2 0
v 0.1 1.3 0
v -0.1 0.8 -0.1
v -0.1 1.2 -0.1
v -0.1 1.3 -0.1
v 0 0.8 -0.1
v 0 1 -0.1
v 0 1.2 -0.1
v 0 1.3 -0.1
v 0.1 1 -0.1
v 0.1 1.2 -0.1
v -0.2 0 -0.2
v -0.2 0.1 -0.2
v -0.2 1.3 -0.2
v -0.2 1.4 -0.2
v -0.1 0.1 -0.2
v -0.1 0.4 -0.2
v -0.1 1.4 -0.2
v 0 0.4 -0.2
v 0 1 -0.2
v 0 1.3 -0.2
v 0 1.4 -0.2
v 0.2 0 -0.2
v 0.2 1 -0.2
v -0.3 1.4 -0.3
v -0.3 1.5 -0.3
v -0.2 1.5 -0.3
v -0.1 1.4 -0.3
v -0.1 1.5 -0.3
v -0.3 1.5 -0.4
v -0.3 1.6 -0.4
v -0.2 1.5 -0.4
v -0.2 1.6 -0.4
v -0.5 1.4 -0.5
v -0.5 1.6 -0.5
v -0.4 1.4 -0.5
v -0.4 1.5 -0.5
v -0.3 1.5 -0.5
v -0.3 1.6 -0.5
v -0.2 0 0.2
v 0.2 0 0.2
v -0.2 0 -0.2
v 0.2 0 -0.2
v 0 0.8 0.1
v 0.1 0.8 0.1
v -0.1 0.8 0
v 0 0.8 0
v 0.1 0.8 0
v -0.1 0.8 -0.1
v 0 0.8 -0.1
v -0.1 0.9 0.1
v 0 0.9 0.1
v -0.1 0.9 0
v 0 0.9 0
v -0.7 1.2 0.6
v -0.6 1.2 0.6
v -0.7 1.2 0.5
v -0.6 1.2 0.5
v 0.4 1.2 0.5
v 0.6 1.2 0.5
v 0.4 1.2 0.4
v 0.6 1.2 0.4
v -0.3 1.2 0.2
v -0.1 1.2 0.2
v 0 1.2 0.2
v 0.2 1.2 0.2
v -0.3 1.2 0.1
v -0.1 1.2 0.1
v 0 1.2 0.1
v 0.1 1.2 0.1
v 0.2 1.2 0.1
v -0.6 1.3 0.6
v -0.5 1.3 0.6
v -0.7 1.3 0.5
v -0.6 1.3 0.5
v 0.3 1.3 0.5
v 0.4 1.3 0.5
v -0.7 1.3 0.4
v -0.5 1.3 0.4
v -0.4 1.3 0.4
v 0.3 1.3 0.4
v 0.4 1.3 0.4
v 0.5 1.3 0.4
v -0.5 1.3 0.3
v -0.4 1.3 0.3
v -0.2 1.3 0.3
v 0.1 1.3 0.3
v 0.2 1.3 0.3
v 0.4 1.3 0.3
v 0.5 1.3 0.3
v -0.3 1.3 0.2
v -0.2 1.3 0.2
v 0.1 1.3 0.2
v 0.2 1.3 0.2
v 0.3 1.3 0.2
v -0.4 1.3 0.1
v -0.3 1.3 0.1
v 0.2 1.3 0.1
v 0.3 1.3 0.1
v -0.2 1.3 0
v -0.1 1.3 0
v -0.1 1.3 -0.1
v 0 1.3 -0.1
v -0.2 1.3 -0.2
v 0 1.3 -0.2
v -0.5 1.4 0.5
v -0.4 1.4 0.5
v -0.6 1.4 0.4
v -0.5 1.4 0.4
v -0.4 1.4 0.4
v -0.3 1.4 0.4
v 0.2 1.4 0.4
v 0.3 1.4 0.4
v 0.4 1.4 0.4
v -0.6 1.4 0.3
v -0.5 1.4 0.3
v -0.4 1.4 0.3
v -0.3 1.4 0.3
v 0.2 1.4 0.3
v 0.4 1.4 0.3
v -0.5 1.4 0.2
v -0.4 1.4 0.2
v 0.2 1.4 0.2
v 0.3 1.4 0.2
v 0.4 1.4 0.2
v -0.3 1.4 -0.1
v -0.2 1.4 -0.1
v -0.2 1.4 -0.2
v -0.1 1.4 -0.2
v -0.3 1.4 -0.3
v -0.1 1.4 -0.3
v -0.5 1.4 -0.4
v -0.4 1.4 -0.4
v -0.5 1.4 -0.5
v -0.4 1.4 -0.5
v -0.4 1.5 -0.2
v -0.3 1.5 -0.2
v -0.5 1.5 -0.3
v -0.4 1.5 -0.3
v -0.3 1.5 -0.3
v -0.2 1.5 -0.3
v -0.5 1.5 -0.4
v -0.4 1.5 -0.4
v -0.3 1.5 -0.4
v -0.2 1.5 -0.4
v -0.4 1.5 -0.5
v -0.3 1.5 -0.5
v -0.2 0.1 0.2
v 0.2 0.1 0.2
v -0.1 0.1 0.1
v 0.2 0.1 0.1
v -0.2 0.1 -0.2
v -0.1 0.1 -0.2
v -0.1 0.4 0.1
v 0.2 0.4 0.1
v 0 0.4 0
v 0.2 0.4 0
v -0.1 0.4 -0.2
v 0 0.4 -0.2
v 0.1 1 0
v 0.2 1 0
v 0 1 -0.1
v 0.1 1 -0.1
v 0 1 -0.2
v 0.2 1 -0.2
v 0 1.2 0
v 0.1 1.2 0
v 0 1.2 -0.1
v 0.1 1.2 -0.1
v -0.2 1.3 0.2
v -0.1 1.3 0.2
v 0 1.3 0.2
v 0.1 1.3 0.2
v -0.2 1.3 0.1
v -0.1 1.3 0.1
v 0 1.3 0.1
v 0.1 1.3 0.1
v -0.1 1.3 0
v 0 1.3 0
v 0.1 1.3 0
v -0.7 1.4 0.6
v -0.5 1.4 0.6
v -0.6 1.4 0.5
v -0.5 1.4 0.5
v 0.3 1.4 0.5
v 0.6 1.4 0.5
v -0.7 1.4 0.4
v -0.6 1.4 0.4
v 0.3 1.4 0.4
v 0.4 1.4 0.4
v 0.5 1.4 0.4
v 0.6 1.4 0.4
v -0.3 1.4 0.3
v -0.2 1.4 0.3
v 0.1 1.4 0.3
v 0.2 1.4 0.3
v 0.4 1.4 0.3
v 0.5 1.4 0.3
v -0.4 1.4 0.2
v -0.3 1.4 0.2
v 0.2 1.4 0.2
v 0.3 1.4 0.2
v -0.4 1.4 0.1
v -0.2 1.4 0.1
v 0.1 1.4 0.1
v 0.3 1.4 0.1
v -0.2 1.4 0
v 0 1.4 0
v -0.2 1.4 -0.1
v -0.1 1.4 -0.1
v -0.1 1.4 -0.2
v 0 1.4 -0.2
v -0.6 1.5 0.5
v -0.4 1.5 0.5
v -0.4 1.5 0.4
v -0.3 1.5 0.4
v 0.2 1.5 0.4
v 0.4 1.5 0.4
v -0.6 1.5 0.3
v -0.5 1.5 0.3
v -0.5 1.5 0.2
v -0.3 1.5 0.2
v 0.2 1.5 0.2
v 0.4 1.5 0.2
v -0.3 1.5 -0.1
v -0.1 1.5 -0.1
v -0.3 1.5 -0.2
v -0.2 1.5 -0.2
v -0.2 1.5 -0.3
v -0.1 1.5 -0.3
v -0.4 1.6 -0.2
v -0.2 1.6 -0.2
v -0.5 1.6 -0.3
v -0.4 1.6 -0.3
v -0.3 1.6 -0.4
v -0.2 1.6 -0.4
v -0.5 1.6 -0.5
v -0.3 1.6 -0.5

# faces
f 3/2/1 2/2/1 1/2/1
f 5/2/1 3/2/1 1/2/1
f 5/2/1 4/2/1 3/2/1
f 6/2/1 4/2/1 5/2/1
f 10/2/1 8/2/1 7/2/1
f 10/2/1 9/2/1 8/2/1
f 11/2/1 9/2/1 10/2/1
f 14/2/1 13/2/1 12/2/1
f 15/2/1 13/2/1 14/2/1
f 19/2/1 16/2/1 15/2/1
f 20/2/1 16/2/1 19/2/1
f 22/2/1 18/2/1 17/2/1
f 23/2/1 22/2/1 21/2/1
f 24/2/1 18/2/1 22/2/1
f 24/2/1 22/2/1 23/2/1
f 27/2/1 26/2/1 25/2/1
f 28/2/1 26/2/1 27/2/1
f 29/2/1 26/2/1 28/2/1
f 32/2/1 31/2/1 30/2/1
f 33/2/1 31/2/1 32/2/1
f 36/2/1 35/2/1 34/2/1
f 37/2/1 35/2/1 36/2/1
f 40/2/1 39/2/1 38/2/1
f 41/2/1 39/2/1 40/2/1
f 42/2/1 39/2/1 41/2/1
f 45/1/1 44/1/1 43/1/1
f 46/1/1 44/1/1 45/1/1
f 49/2/1 48/2/1 47/2/1
f 50/2/1 48/2/1 49/2/1
f 51/2/1 48/2/1 50/2/1
f 54/1/1 53/1/1 52/1/1
f 55/1/1 53/1/1 54/1/1
f 59/1/1 57/1/1 56/1/1
f 60/1/1 59/1/1 58/1/1
f 61/1/1 57/1/1 59/1/1
f 61/1/1 59/1/1 60/1/1
f 62/2/1 61/2/1 60/2/1
f 63/2/1 61/2/1 62/2/1
f 64/2/1 61/2/1 63/2/1
f 68/1/1 66/1/1 65/1/1
f 69/1/1 66/1/1 68/1/1
f 70/1/1 68/1/1 67/1/1
f 71/1/1 68/1/1 70/1/1
f 72/1/1 66/1/1 69/1/1
f 73/1/1 66/1/1 72/1/1
f 76/2/1 75/2/1 74/2/1
f 77/2/1 75/2/1 76/2/1
f 81/2/1 79/2/1 78/2/1
f 81/2/1 80/2/1 79/2/1
f 82/2/1 80/2/1 81/2/1
f 86/2/1 84/2/1 83/2/1
f 86/2/1 85/2/1 84/2/1
f 87/2/1 85/2/1 86/2/1
f 90/2/1 89/2/1 88/2/1
f 91/2/1 89/2/1 90/2/1
f 94/2/1 93/2/1 92/2/1
f 95/2/1 93/2/1 94/2/1
f 97/2/1 96/2/1 95/2/1
f 98/2/1 96/2/1 97/2/1
f 99/2/2 100/2/2 101/2/2
f 101/2/2 100/2/2 102/2/2
f 103/2/2 104/2/2 105/2/2
f 105/2/2 104/2/2 106/2/2
f 106/2/2 104/2/2 107/2/2
f 108/2/2 109/2/2 111/2/2
f 111/2/2 109/2/2 112/2/2
f 110/2/2 111/2/2 115/2/2
f 115/2/2 111/2/2 116/2/2
f 113/2/2 114/2/2 117/2/2
f 117/2/2 114/2/2 118/2/2
f 119/2/2 120/2/2 122/2/2
f 120/2/2 121/2/2 122/2/2
f 122/2/2 121/2/2 123/2/2
f 124/2/2 125/2/2 126/2/2
f 126/2/2 125/2/2 127/2/2
f 128/2/2 129/2/2 131/2/2
f 129/2/2 130/2/2 131/2/2
f 131/2/2 130/2/2 132/2/2
f 133/2/2 134/2/2 136/2/2
f 134/2/2 135/2/2 136/2/2
f 136/2/2 135/2/2 137/2/2
f 138/2/2 139/2/2 140/2/2
f 140/2/2 139/2/2 141/2/2
f 142/2/2 143/2/2 145/2/2
f 143/2/2 144/2/2 145/2/2
f 145/2/2 144/2/2 146/2/2
f 147/2/2 148/2/2 149/2/2
f 149/2/2 148/2/2 150/2/2
f 149/2/2 150/2/2 152/2/2
f 150/2/2 151/2/2 152/2/2
f 152/2/2 151/2/2 153/2/2
f 154/1/2 155/1/2 156/1/2
f 154/1/2 156/1/2 158/1/2
f 156/1/2 157/1/2 158/1/2
f 158/1/2 157/1/2 159/1/2
f 159/1/2 157/1/2 160/1/2
f 158/2/2 159/2/2 161/2/2
f 161/2/2 159/2/2 162/2/2
f 163/1/2 164/1/2 165/1/2
f 165/1/2 164/1/2 166/1/2
f 166/1/2 164/1/2 167/1/2
f 167/1/2 164/1/2 168/1/2
f 168/1/2 164/1/2 169/1/2
f 169/1/2 164/1/2 170/1/2
f 171/2/2 172/2/2 174/2/2
f 174/2/2 172/2/2 175/2/2
f 173/2/2 174/2/2 176/2/2
f 176/2/2 174/2/2 177/2/2
f 178/2/2 179/2/2 180/2/2
f 180/2/2 179/2/2 181/2/2
f 182/2/2 183/2/2 185/2/2
f 183/2/2 184/2/2 185/2/2
f 185/2/2 184/2/2 186/2/2
f 187/2/2 188/2/2 189/2/2
f 189/2/2 188/2/2 190/2/2
f 191/2/2 192/2/2 193/2/2
f 193/2/2 192/2/2 194/2/2
f 197/2/3 196/2/3 195/2/3
f 198/2/3 196/2/3 197/2/3
f 199/2/3 196/2/3 198/2/3
f 200/2/3 196/2/3 199/2/3
f 203/2/3 202/2/3 201/2/3
f 204/2/3 202/2/3 203/2/3
f 205/2/3 202/2/3 204/2/3
f 209/2/3 207/2/3 206/2/3
f 210/2/3 209/2/3 208/2/3
f 211/2/3 207/2/3 209/2/3
f 211/2/3 209/2/3 210/2/3
f 214/2/3 213/2/3 212/2/3
f 215/2/3 213/2/3 214/2/3
f 217/2/3 216/2/3 215/2/3
f 218/2/3 216/2/3 217/2/3
f 221/2/3 220/2/3 219/2/3
f 222/2/3 220/2/3 221/2/3
f 223/2/3 220/2/3 222/2/3
f 226/2/3 225/2/3 224/2/3
f 227/2/3 226/2/3 224/2/3
f 228/2/3 226/2/3 227/2/3
f 231/2/3 230/2/3 229/2/3
f 232/2/3 230/2/3 231/2/3
f 237/2/3 234/2/3 233/2/3
f 238/2/3 237/2/3 233/2/3
f 239/2/3 237/2/3 238/2/3
f 242/2/3 241/2/3 240/2/3
f 243/1/3 236/1/3 235/1/3
f 244/1/3 236/1/3 243/1/3
f 245/2/3 242/2/3 240/2/3
f 246/2/3 242/2/3 245/2/3
f 248/2/3 247/2/3 246/2/3
f 249/2/3 247/2/3 248/2/3
f 256/1/3 253/1/3 252/1/3
f 257/2/3 254/2/3 253/2/3
f 257/1/3 253/1/3 256/1/3
f 258/2/3 254/2/3 257/2/3
f 259/1/3 256/1/3 255/1/3
f 259/1/3 257/1/3 256/1/3
f 260/1/3 257/1/3 259/1/3
f 261/1/3 251/1/3 250/1/3
f 262/1/3 251/1/3 261/1/3
f 267/2/3 264/2/3 263/2/3
f 269/1/3 266/1/3 265/1/3
f 270/1/3 266/1/3 269/1/3
f 271/2/3 264/2/3 267/2/3
f 272/2/3 264/2/3 271/2/3
f 273/1/3 269/1/3 268/1/3
f 275/1/3 273/1/3 268/1/3
f 275/1/3 274/1/3 273/1/3
f 276/1/3 274/1/3 275/1/3
f 279/2/3 278/2/3 277/2/3
f 280/2/3 278/2/3 279/2/3
f 281/2/3 278/2/3 280/2/3
f 284/2/3 283/2/3 282/2/3
f 285/2/3 283/2/3 284/2/3
f 286/2/3 283/2/3 285/2/3
f 289/2/3 288/2/3 287/2/3
f 290/2/3 288/2/3 289/2/3
f 293/2/3 292/2/3 291/2/3
f 294/2/3 292/2/3 293/2/3
f 295/2/4 296/2/4 297/2/4
f 297/2/4 296/2/4 298/2/4
f 299/2/4 300/2/4 301/2/4
f 299/2/4 301/2/4 302/2/4
f 302/2/4 301/2/4 303/2/4
f 304/2/4 305/2/4 307/2/4
f 307/2/4 305/2/4 308/2/4
f 306/2/4 307/2/4 309/2/4
f 306/2/4 309/2/4 311/2/4
f 309/2/4 310/2/4 311/2/4
f 311/2/4 310/2/4 312/2/4
f 313/2/4 314/2/4 316/2/4
f 316/2/4 314/2/4 317/2/4
f 315/2/4 316/2/4 318/2/4
f 318/2/4 316/2/4 319/2/4
f 320/2/4 321/2/4 322/2/4
f 322/2/4 321/2/4 323/2/4
f 324/2/4 325/2/4 326/2/4
f 326/2/4 325/2/4 327/2/4
f 327/2/4 325/2/4 328/2/4
f 329/2/4 330/2/4 331/2/4
f 331/2/4 330/2/4 332/2/4
f 332/2/4 330/2/4 333/2/4
f 334/2/4 335/2/4 337/2/4
f 337/2/4 335/2/4 338/2/4
f 336/2/4 337/2/4 338/2/4
f 338/2/4 335/2/4 339/2/4
f 336/2/4 338/2/4 340/2/4
f 340/2/4 338/2/4 341/2/4
f 342/2/4 343/2/4 345/2/4
f 343/2/4 344/2/4 345/2/4
f 345/2/4 344/2/4 346/2/4
f 346/2/4 344/2/4 347/2/4
f 347/2/4 344/2/4 348/2/4
f 349/2/4 350/2/4 351/2/4
f 351/2/4 350/2/4 352/2/4
f 353/1/4 354/1/4 356/1/4
f 356/1/4 354/1/4 357/1/4
f 354/2/4 355/2/4 358/2/4
f 357/1/4 354/1/4 358/1/4
f 358/2/4 355/2/4 359/2/4
f 357/1/4 358/1/4 360/1/4
f 360/1/4 358/1/4 361/1/4
f 362/1/4 363/1/4 366/1/4
f 364/2/4 365/2/4 368/2/4
f 366/1/4 367/1/4 369/1/4
f 364/2/4 368/2/4 371/2/4
f 371/2/4 368/2/4 372/2/4
f 362/1/4 366/1/4 373/1/4
f 369/1/4 370/1/4 373/1/4
f 366/1/4 369/1/4 373/1/4
f 373/1/4 370/1/4 374/1/4
f 375/2/4 376/2/4 377/2/4
f 375/2/4 377/2/4 378/2/4
f 378/2/4 377/2/4 379/2/4
f 380/2/4 381/2/4 382/2/4
f 382/2/4 381/2/4 383/2/4
f 384/2/4 385/2/4 386/2/4
f 386/2/4 385/2/4 387/2/4
f 387/2/4 385/2/4 388/2/4
f 388/2/4 385/2/4 389/2/4
f 392/1/5 391/1/5 390/1/5
f 393/1/5 391/1/5 392/1/5
f 397/1/5 395/1/5 394/1/5
f 398/1/5 395/1/5 397/1/5
f 399/1/5 397/1/5 396/1/5
f 400/1/5 397/1/5 399/1/5
f 403/1/5 402/1/5 401/1/5
f 404/1/5 402/1/5 403/1/5
f 407/2/5 406/2/5 405/2/5
f 408/2/5 406/2/5 407/2/5
f 411/2/5 410/2/5 409/2/5
f 412/2/5 410/2/5 411/2/5
f 417/2/5 414/2/5 413/2/5
f 418/2/5 414/2/5 417/2/5
f 419/2/5 416/2/5 415/2/5
f 420/2/5 416/2/5 419/2/5
f 421/2/5 416/2/5 420/2/5
f 425/2/5 423/2/5 422/2/5
f 428/2/5 425/2/5 424/2/5
f 429/2/5 423/2/5 425/2/5
f 429/2/5 425/2/5 428/2/5
f 431/2/5 427/2/5 426/2/5
f 432/2/5 427/2/5 431/2/5
f 434/2/5 430/2/5 429/2/5
f 435/2/5 430/2/5 434/2/5
f 439/2/5 433/2/5 432/2/5
f 440/2/5 433/2/5 439/2/5
f 441/2/5 436/2/5 435/2/5
f 442/2/5 436/2/5 441/2/5
f 443/2/5 438/2/5 437/2/5
f 444/2/5 438/2/5 443/2/5
f 446/2/5 441/2/5 435/2/5
f 447/2/5 441/2/5 446/2/5
f 448/2/5 445/2/5 444/2/5
f 449/2/5 445/2/5 448/2/5
f 452/2/5 451/2/5 450/2/5
f 454/2/5 452/2/5 450/2/5
f 454/2/5 453/2/5 452/2/5
f 455/2/5 453/2/5 454/2/5
f 459/2/5 457/2/5 456/2/5
f 460/2/5 457/2/5 459/2/5
f 465/2/5 459/2/5 458/2/5
f 466/2/5 459/2/5 465/2/5
f 467/2/5 461/2/5 460/2/5
f 468/2/5 461/2/5 467/2/5
f 469/2/5 464/2/5 463/2/5
f 469/2/5 463/2/5 462/2/5
f 470/2/5 464/2/5 469/2/5
f 471/2/5 467/2/5 466/2/5
f 472/2/5 467/2/5 471/2/5
f 473/2/5 470/2/5 469/2/5
f 474/2/5 470/2/5 473/2/5
f 475/2/5 470/2/5 474/2/5
f 478/2/5 477/2/5 476/2/5
f 480/2/5 478/2/5 476/2/5
f 480/2/5 479/2/5 478/2/5
f 481/2/5 479/2/5 480/2/5
f 484/2/5 483/2/5 482/2/5
f 485/2/5 483/2/5 484/2/5
f 489/2/5 487/2/5 486/2/5
f 490/2/5 487/2/5 489/2/5
f 492/2/5 489/2/5 488/2/5
f 492/2/5 491/2/5 490/2/5
f 492/2/5 490/2/5 489/2/5
f 493/2/5 491/2/5 492/2/5
f 494/2/5 491/2/5 493/2/5
f 495/2/5 491/2/5 494/2/5
f 496/2/5 494/2/5 493/2/5
f 497/2/5 494/2/5 496/2/5
f 498/1/6 499/1/6 500/1/6
f 500/1/6 499/1/6 501/1/6
f 498/1/6 500/1/6 502/1/6
f 502/1/6 500/1/6 503/1/6
f 504/1/6 505/1/6 506/1/6
f 506/1/6 505/1/6 507/1/6
f 504/1/6 506/1/6 508/1/6
f 508/1/6 506/1/6 509/1/6
f 510/1/6 511/1/6 513/1/6
f 512/1/6 513/1/6 514/1/6
f 513/1/6 511/1/6 515/1/6
f 514/1/6 513/1/6 515/1/6
f 516/1/6 517/1/6 518/1/6
f 518/1/6 517/1/6 519/1/6
f 520/2/6 521/2/6 524/2/6
f 524/2/6 521/2/6 525/2/6
f 522/2/6 523/2/6 526/2/6
f 526/2/6 523/2/6 527/2/6
f 525/2/6 526/2/6 528/2/6
f 526/2/6 527/2/6 528/2/6
f 528/2/6 527/2/6 529/2/6
f 529/2/6 527/2/6 530/2/6
f 531/2/6 532/2/6 533/2/6
f 533/2/6 532/2/6 534/2/6
f 531/2/6 533/2/6 537/2/6
f 537/2/6 533/2/6 538/2/6
f 535/2/6 536/2/6 539/2/6
f 539/2/6 536/2/6 540/2/6
f 540/2/6 536/2/6 541/2/6
f 541/2/6 536/2/6 542/2/6
f 540/2/6 541/2/6 547/2/6
f 547/2/6 541/2/6 548/2/6
f 543/2/6 544/2/6 550/2/6
f 545/2/6 546/2/6 551/2/6
f 549/2/6 550/2/6 553/2/6
f 550/2/6 544/2/6 554/2/6
f 553/2/6 550/2/6 554/2/6
f 551/2/6 552/2/6 555/2/6
f 545/2/6 551/2/6 555/2/6
f 555/2/6 552/2/6 556/2/6
f 557/2/6 558/2/6 559/2/6
f 559/2/6 558/2/6 560/2/6
f 560/2/6 558/2/6 561/2/6
f 561/2/6 558/2/6 562/2/6
f 563/2/6 564/2/6 565/2/6
f 563/2/6 565/2/6 569/2/6
f 565/2/6 566/2/6 569/2/6
f 569/2/6 566/2/6 570/2/6
f 570/2/6 566/2/6 571/2/6
f 571/2/6 566/2/6 572/2/6
f 567/2/6 568/2/6 573/2/6
f 573/2/6 568/2/6 574/2/6
f 575/2/6 576/2/6 577/2/6
f 577/2/6 576/2/6 578/2/6
f 578/2/6 576/2/6 579/2/6
f 579/2/6 576/2/6 580/2/6
f 581/2/6 582/2/6 584/2/6
f 584/2/6 582/2/6 585/2/6
f 583/2/6 584/2/6 585/2/6
f 585/2/6 582/2/6 586/2/6
f 583/2/6 585/2/6 587/2/6
f 587/2/6 585/2/6 588/2/6
