{
	"asset":{
		"generator":"Khronos glTF Blender I/O v5.0.21",
		"version":"2.0"
	},
	"scene":0,
	"scenes":[
		{
			"name":"Scene",
			"nodes":[
				0
			]
		}
	],
	"nodes":[
		{
			"mesh":0,
			"name":"Anemone_Clownfish"
		}
	],
	"materials":[
		{
			"doubleSided":true,
			"name":"Anemone_Clownfish_ClownfishFin",
			"normalTexture":{
				"index":0
			},
			"occlusionTexture":{
				"index":1
			},
			"pbrMetallicRoughness":{
				"baseColorTexture":{
					"index":2
				},
				"metallicRoughnessTexture":{
					"index":1
				}
			}
		},
		{
			"name":"Anemone_Clownfish_AnemoneBody",
			"normalTexture":{
				"index":3
			},
			"occlusionTexture":{
				"index":4
			},
			"pbrMetallicRoughness":{
				"baseColorTexture":{
					"index":5
				},
				"metallicRoughnessTexture":{
					"index":4
				}
			}
		},
		{
			"name":"Anemone_Clownfish_AnemoneTentacle",
			"normalTexture":{
				"index":6
			},
			"occlusionTexture":{
				"index":7
			},
			"pbrMetallicRoughness":{
				"baseColorTexture":{
					"index":8
				},
				"metallicRoughnessTexture":{
					"index":7
				}
			}
		},
		{
			"name":"Anemone_Clownfish_Clownfish",
			"normalTexture":{
				"index":9
			},
			"occlusionTexture":{
				"index":10
			},
			"pbrMetallicRoughness":{
				"baseColorTexture":{
					"index":11
				},
				"metallicRoughnessTexture":{
					"index":10
				}
			}
		}
	],
	"meshes":[
		{
			"name":"Anemone_Clownfish",
			"primitives":[
				{
					"attributes":{
						"POSITION":0,
						"NORMAL":1,
						"TEXCOORD_0":2,
						"TANGENT":3
					},
					"indices":4,
					"material":0
				},
				{
					"attributes":{
						"POSITION":5,
						"NORMAL":6,
						"TEXCOORD_0":7,
						"TANGENT":8
					},
					"indices":9,
					"material":1
				},
				{
					"attributes":{
						"POSITION":10,
						"NORMAL":11,
						"TEXCOORD_0":12,
						"TANGENT":13
					},
					"indices":14,
					"material":2
				},
				{
					"attributes":{
						"POSITION":15,
						"NORMAL":16,
						"TEXCOORD_0":17,
						"TANGENT":18
					},
					"indices":19,
					"material":3
				}
			]
		}
	],
	"textures":[
		{
			"sampler":0,
			"source":0
		},
		{
			"sampler":0,
			"source":1
		},
		{
			"sampler":0,
			"source":2
		},
		{
			"sampler":0,
			"source":3
		},
		{
			"sampler":0,
			"source":4
		},
		{
			"sampler":0,
			"source":5
		},
		{
			"sampler":0,
			"source":6
		},
		{
			"sampler":0,
			"source":7
		},
		{
			"sampler":0,
			"source":8
		},
		{
			"sampler":0,
			"source":9
		},
		{
			"sampler":0,
			"source":10
		},
		{
			"sampler":0,
			"source":11
		}
	],
	"images":[
		{
			"mimeType":"image/png",
			"name":"Anemone_Clownfish_ClownfishFin_Normal",
			"uri":"Anemone_Clownfish_ClownfishFin_Normal.png"
		},
		{
			"mimeType":"image/png",
			"name":"Anemone_Clownfish_ClownfishFin_ORM",
			"uri":"Anemone_Clownfish_ClownfishFin_ORM.png"
		},
		{
			"mimeType":"image/png",
			"name":"Anemone_Clownfish_ClownfishFin_BaseColor",
			"uri":"Anemone_Clownfish_ClownfishFin_BaseColor.png"
		},
		{
			"mimeType":"image/png",
			"name":"Anemone_Clownfish_AnemoneBody_Normal",
			"uri":"Anemone_Clownfish_AnemoneBody_Normal.png"
		},
		{
			"mimeType":"image/png",
			"name":"Anemone_Clownfish_AnemoneBody_ORM",
			"uri":"Anemone_Clownfish_AnemoneBody_ORM.png"
		},
		{
			"mimeType":"image/png",
			"name":"Anemone_Clownfish_AnemoneBody_BaseColor",
			"uri":"Anemone_Clownfish_AnemoneBody_BaseColor.png"
		},
		{
			"mimeType":"image/png",
			"name":"Anemone_Clownfish_AnemoneTentacle_Normal",
			"uri":"Anemone_Clownfish_AnemoneTentacle_Normal.png"
		},
		{
			"mimeType":"image/png",
			"name":"Anemone_Clownfish_AnemoneTentacle_ORM",
			"uri":"Anemone_Clownfish_AnemoneTentacle_ORM.png"
		},
		{
			"mimeType":"image/png",
			"name":"Anemone_Clownfish_AnemoneTentacle_BaseColor",
			"uri":"Anemone_Clownfish_AnemoneTentacle_BaseColor.png"
		},
		{
			"mimeType":"image/png",
			"name":"Anemone_Clownfish_Clownfish_Normal",
			"uri":"Anemone_Clownfish_Clownfish_Normal.png"
		},
		{
			"mimeType":"image/png",
			"name":"Anemone_Clownfish_Clownfish_ORM",
			"uri":"Anemone_Clownfish_Clownfish_ORM.png"
		},
		{
			"mimeType":"image/png",
			"name":"Anemone_Clownfish_Clownfish_BaseColor",
			"uri":"Anemone_Clownfish_Clownfish_BaseColor.png"
		}
	],
	"accessors":[
		{
			"bufferView":0,
			"componentType":5126,
			"count":894,
			"max":[
				0.1115347295999527,
				0.27253228425979614,
				0.0664227157831192
			],
			"min":[
				-0.13690319657325745,
				0.20604148507118225,
				-0.14356546103954315
			],
			"type":"VEC3"
		},
		{
			"bufferView":1,
			"componentType":5126,
			"count":894,
			"type":"VEC3"
		},
		{
			"bufferView":2,
			"componentType":5126,
			"count":894,
			"type":"VEC2"
		},
		{
			"bufferView":3,
			"componentType":5126,
			"count":894,
			"type":"VEC4"
		},
		{
			"bufferView":4,
			"componentType":5123,
			"count":3168,
			"type":"SCALAR"
		},
		{
			"bufferView":5,
			"componentType":5126,
			"count":982,
			"max":[
				0.21442948281764984,
				0.16919544339179993,
				0.21761934459209442
			],
			"min":[
				-0.21407026052474976,
				-0.012000000104308128,
				-0.20656660199165344
			],
			"type":"VEC3"
		},
		{
			"bufferView":6,
			"componentType":5126,
			"count":982,
			"type":"VEC3"
		},
		{
			"bufferView":7,
			"componentType":5126,
			"count":982,
			"type":"VEC2"
		},
		{
			"bufferView":8,
			"componentType":5126,
			"count":982,
			"type":"VEC4"
		},
		{
			"bufferView":9,
			"componentType":5123,
			"count":5472,
			"type":"SCALAR"
		},
		{
			"bufferView":10,
			"componentType":5126,
			"count":9800,
			"max":[
				0.2700680196285248,
				0.2024795264005661,
				0.28896772861480713
			],
			"min":[
				-0.2714325785636902,
				0.0844765156507492,
				-0.28065094351768494
			],
			"type":"VEC3"
		},
		{
			"bufferView":11,
			"componentType":5126,
			"count":9800,
			"type":"VEC3"
		},
		{
			"bufferView":12,
			"componentType":5126,
			"count":9800,
			"type":"VEC2"
		},
		{
			"bufferView":13,
			"componentType":5126,
			"count":9800,
			"type":"VEC4"
		},
		{
			"bufferView":14,
			"componentType":5123,
			"count":29400,
			"type":"SCALAR"
		},
		{
			"bufferView":15,
			"componentType":5126,
			"count":1117,
			"max":[
				0.10957546532154083,
				0.26539164781570435,
				0.0636933371424675
			],
			"min":[
				-0.12428036332130432,
				0.2110404521226883,
				-0.13164782524108887
			],
			"type":"VEC3"
		},
		{
			"bufferView":16,
			"componentType":5126,
			"count":1117,
			"type":"VEC3"
		},
		{
			"bufferView":17,
			"componentType":5126,
			"count":1117,
			"type":"VEC2"
		},
		{
			"bufferView":18,
			"componentType":5126,
			"count":1117,
			"type":"VEC4"
		},
		{
			"bufferView":19,
			"componentType":5123,
			"count":3780,
			"type":"SCALAR"
		}
	],
	"bufferViews":[
		{
			"buffer":0,
			"byteLength":10728,
			"byteOffset":0,
			"target":34962
		},
		{
			"buffer":0,
			"byteLength":10728,
			"byteOffset":10728,
			"target":34962
		},
		{
			"buffer":0,
			"byteLength":7152,
			"byteOffset":21456,
			"target":34962
		},
		{
			"buffer":0,
			"byteLength":14304,
			"byteOffset":28608,
			"target":34962
		},
		{
			"buffer":0,
			"byteLength":6336,
			"byteOffset":42912,
			"target":34963
		},
		{
			"buffer":0,
			"byteLength":11784,
			"byteOffset":49248,
			"target":34962
		},
		{
			"buffer":0,
			"byteLength":11784,
			"byteOffset":61032,
			"target":34962
		},
		{
			"buffer":0,
			"byteLength":7856,
			"byteOffset":72816,
			"target":34962
		},
		{
			"buffer":0,
			"byteLength":15712,
			"byteOffset":80672,
			"target":34962
		},
		{
			"buffer":0,
			"byteLength":10944,
			"byteOffset":96384,
			"target":34963
		},
		{
			"buffer":0,
			"byteLength":117600,
			"byteOffset":107328,
			"target":34962
		},
		{
			"buffer":0,
			"byteLength":117600,
			"byteOffset":224928,
			"target":34962
		},
		{
			"buffer":0,
			"byteLength":78400,
			"byteOffset":342528,
			"target":34962
		},
		{
			"buffer":0,
			"byteLength":156800,
			"byteOffset":420928,
			"target":34962
		},
		{
			"buffer":0,
			"byteLength":58800,
			"byteOffset":577728,
			"target":34963
		},
		{
			"buffer":0,
			"byteLength":13404,
			"byteOffset":636528,
			"target":34962
		},
		{
			"buffer":0,
			"byteLength":13404,
			"byteOffset":649932,
			"target":34962
		},
		{
			"buffer":0,
			"byteLength":8936,
			"byteOffset":663336,
			"target":34962
		},
		{
			"buffer":0,
			"byteLength":17872,
			"byteOffset":672272,
			"target":34962
		},
		{
			"buffer":0,
			"byteLength":7560,
			"byteOffset":690144,
			"target":34963
		}
	],
	"samplers":[
		{
			"magFilter":9729,
			"minFilter":9987
		}
	],
	"buffers":[
		{
			"byteLength":697704,
			"uri":"Anemone_Clownfish.bin"
		}
	]
}
