{
	"asset":{
		"generator":"Khronos glTF Blender I/O v5.0.21",
		"version":"2.0"
	},
	"scene":0,
	"scenes":[
		{
			"name":"Scene",
			"nodes":[
				0
			]
		}
	],
	"nodes":[
		{
			"mesh":0,
			"name":"Adan_A"
		}
	],
	"materials":[
		{
			"alphaMode":"MASK",
			"doubleSided":true,
			"name":"Adan_A_AdanLeaf",
			"normalTexture":{
				"index":0
			},
			"occlusionTexture":{
				"index":1
			},
			"pbrMetallicRoughness":{
				"baseColorTexture":{
					"index":2
				},
				"metallicRoughnessTexture":{
					"index":1
				}
			}
		},
		{
			"name":"Adan_A_AdanFruit",
			"normalTexture":{
				"index":3
			},
			"occlusionTexture":{
				"index":4
			},
			"pbrMetallicRoughness":{
				"baseColorTexture":{
					"index":5
				},
				"metallicRoughnessTexture":{
					"index":4
				}
			}
		},
		{
			"name":"Adan_A_AdanBark",
			"normalTexture":{
				"index":6
			},
			"occlusionTexture":{
				"index":7
			},
			"pbrMetallicRoughness":{
				"baseColorTexture":{
					"index":8
				},
				"metallicRoughnessTexture":{
					"index":7
				}
			}
		}
	],
	"meshes":[
		{
			"name":"Adan_A",
			"primitives":[
				{
					"attributes":{
						"POSITION":0,
						"NORMAL":1,
						"TEXCOORD_0":2
					},
					"indices":3,
					"material":0
				},
				{
					"attributes":{
						"POSITION":4,
						"NORMAL":5,
						"TEXCOORD_0":6
					},
					"indices":7,
					"material":1
				},
				{
					"attributes":{
						"POSITION":8,
						"NORMAL":9,
						"TEXCOORD_0":10
					},
					"indices":11,
					"material":2
				}
			]
		}
	],
	"textures":[
		{
			"sampler":0,
			"source":0
		},
		{
			"sampler":0,
			"source":1
		},
		{
			"sampler":0,
			"source":2
		},
		{
			"sampler":0,
			"source":3
		},
		{
			"sampler":0,
			"source":4
		},
		{
			"sampler":0,
			"source":5
		},
		{
			"sampler":0,
			"source":6
		},
		{
			"sampler":0,
			"source":7
		},
		{
			"sampler":0,
			"source":8
		}
	],
	"images":[
		{
			"mimeType":"image/png",
			"name":"Adan_A_AdanLeaf_Normal",
			"uri":"Adan_A_AdanLeaf_Normal.png"
		},
		{
			"mimeType":"image/png",
			"name":"Adan_A_AdanLeaf_ORM",
			"uri":"Adan_A_AdanLeaf_ORM.png"
		},
		{
			"mimeType":"image/png",
			"name":"Adan_A_AdanLeaf_BaseColor",
			"uri":"Adan_A_AdanLeaf_BaseColor.png"
		},
		{
			"mimeType":"image/png",
			"name":"Adan_A_AdanFruit_Normal",
			"uri":"Adan_A_AdanFruit_Normal.png"
		},
		{
			"mimeType":"image/png",
			"name":"Adan_A_AdanFruit_ORM",
			"uri":"Adan_A_AdanFruit_ORM.png"
		},
		{
			"mimeType":"image/png",
			"name":"Adan_A_AdanFruit_BaseColor",
			"uri":"Adan_A_AdanFruit_BaseColor.png"
		},
		{
			"mimeType":"image/png",
			"name":"Adan_A_AdanBark_Normal",
			"uri":"Adan_A_AdanBark_Normal.png"
		},
		{
			"mimeType":"image/png",
			"name":"Adan_A_AdanBark_ORM",
			"uri":"Adan_A_AdanBark_ORM.png"
		},
		{
			"mimeType":"image/png",
			"name":"Adan_A_AdanBark_BaseColor",
			"uri":"Adan_A_AdanBark_BaseColor.png"
		}
	],
	"accessors":[
		{
			"bufferView":0,
			"componentType":5126,
			"count":24304,
			"max":[
				1.9665963649749756,
				3.530755043029785,
				2.0966298580169678
			],
			"min":[
				-2.0102133750915527,
				0.21778570115566254,
				-1.8999217748641968
			],
			"type":"VEC3"
		},
		{
			"bufferView":1,
			"componentType":5126,
			"count":24304,
			"type":"VEC3"
		},
		{
			"bufferView":2,
			"componentType":5126,
			"count":24304,
			"type":"VEC2"
		},
		{
			"bufferView":3,
			"componentType":5123,
			"count":36456,
			"type":"SCALAR"
		},
		{
			"bufferView":4,
			"componentType":5126,
			"count":4686,
			"max":[
				0.4978780448436737,
				2.0856282711029053,
				0.32829320430755615
			],
			"min":[
				-0.7260752320289612,
				0.9924127459526062,
				-0.1907564103603363
			],
			"type":"VEC3"
		},
		{
			"bufferView":5,
			"componentType":5126,
			"count":4686,
			"type":"VEC3"
		},
		{
			"bufferView":6,
			"componentType":5126,
			"count":4686,
			"type":"VEC2"
		},
		{
			"bufferView":7,
			"componentType":5123,
			"count":7452,
			"type":"SCALAR"
		},
		{
			"bufferView":8,
			"componentType":5126,
			"count":2388,
			"max":[
				0.9168160557746887,
				2.5834407806396484,
				1.0036362409591675
			],
			"min":[
				-0.9589480757713318,
				-0.2842808663845062,
				-0.8962751030921936
			],
			"type":"VEC3"
		},
		{
			"bufferView":9,
			"componentType":5126,
			"count":2388,
			"type":"VEC3"
		},
		{
			"bufferView":10,
			"componentType":5126,
			"count":2388,
			"type":"VEC2"
		},
		{
			"bufferView":11,
			"componentType":5123,
			"count":9624,
			"type":"SCALAR"
		}
	],
	"bufferViews":[
		{
			"buffer":0,
			"byteLength":291648,
			"byteOffset":0,
			"target":34962
		},
		{
			"buffer":0,
			"byteLength":291648,
			"byteOffset":291648,
			"target":34962
		},
		{
			"buffer":0,
			"byteLength":194432,
			"byteOffset":583296,
			"target":34962
		},
		{
			"buffer":0,
			"byteLength":72912,
			"byteOffset":777728,
			"target":34963
		},
		{
			"buffer":0,
			"byteLength":56232,
			"byteOffset":850640,
			"target":34962
		},
		{
			"buffer":0,
			"byteLength":56232,
			"byteOffset":906872,
			"target":34962
		},
		{
			"buffer":0,
			"byteLength":37488,
			"byteOffset":963104,
			"target":34962
		},
		{
			"buffer":0,
			"byteLength":14904,
			"byteOffset":1000592,
			"target":34963
		},
		{
			"buffer":0,
			"byteLength":28656,
			"byteOffset":1015496,
			"target":34962
		},
		{
			"buffer":0,
			"byteLength":28656,
			"byteOffset":1044152,
			"target":34962
		},
		{
			"buffer":0,
			"byteLength":19104,
			"byteOffset":1072808,
			"target":34962
		},
		{
			"buffer":0,
			"byteLength":19248,
			"byteOffset":1091912,
			"target":34963
		}
	],
	"samplers":[
		{
			"magFilter":9729,
			"minFilter":9987
		}
	],
	"buffers":[
		{
			"byteLength":1111160,
			"uri":"Adan_A.bin"
		}
	]
}
