{
	"asset":{
		"generator":"Khronos glTF Blender I/O v5.0.21",
		"version":"2.0"
	},
	"scene":0,
	"scenes":[
		{
			"name":"Scene",
			"nodes":[
				0
			]
		}
	],
	"nodes":[
		{
			"mesh":0,
			"name":"ReefRock_A"
		}
	],
	"materials":[
		{
			"name":"ReefRock_A_ReefRockA",
			"normalTexture":{
				"index":0
			},
			"occlusionTexture":{
				"index":1
			},
			"pbrMetallicRoughness":{
				"baseColorTexture":{
					"index":2
				},
				"metallicRoughnessTexture":{
					"index":1
				}
			}
		}
	],
	"meshes":[
		{
			"name":"ReefRock_A",
			"primitives":[
				{
					"attributes":{
						"POSITION":0,
						"NORMAL":1,
						"TEXCOORD_0":2,
						"TANGENT":3
					},
					"indices":4,
					"material":0
				}
			]
		}
	],
	"textures":[
		{
			"sampler":0,
			"source":0
		},
		{
			"sampler":0,
			"source":1
		},
		{
			"sampler":0,
			"source":2
		}
	],
	"images":[
		{
			"mimeType":"image/png",
			"name":"ReefRock_A_ReefRockA_Normal",
			"uri":"ReefRock_A_ReefRockA_Normal.png"
		},
		{
			"mimeType":"image/png",
			"name":"ReefRock_A_ReefRockA_ORM",
			"uri":"ReefRock_A_ReefRockA_ORM.png"
		},
		{
			"mimeType":"image/png",
			"name":"ReefRock_A_ReefRockA_BaseColor",
			"uri":"ReefRock_A_ReefRockA_BaseColor.png"
		}
	],
	"accessors":[
		{
			"bufferView":0,
			"componentType":5126,
			"count":8089,
			"max":[
				1.9958863258361816,
				0.8100196719169617,
				1.4166481494903564
			],
			"min":[
				-1.8038997650146484,
				-0.3499999940395355,
				-1.0550872087478638
			],
			"type":"VEC3"
		},
		{
			"bufferView":1,
			"componentType":5126,
			"count":8089,
			"type":"VEC3"
		},
		{
			"bufferView":2,
			"componentType":5126,
			"count":8089,
			"type":"VEC2"
		},
		{
			"bufferView":3,
			"componentType":5126,
			"count":8089,
			"type":"VEC4"
		},
		{
			"bufferView":4,
			"componentType":5123,
			"count":15360,
			"type":"SCALAR"
		}
	],
	"bufferViews":[
		{
			"buffer":0,
			"byteLength":97068,
			"byteOffset":0,
			"target":34962
		},
		{
			"buffer":0,
			"byteLength":97068,
			"byteOffset":97068,
			"target":34962
		},
		{
			"buffer":0,
			"byteLength":64712,
			"byteOffset":194136,
			"target":34962
		},
		{
			"buffer":0,
			"byteLength":129424,
			"byteOffset":258848,
			"target":34962
		},
		{
			"buffer":0,
			"byteLength":30720,
			"byteOffset":388272,
			"target":34963
		}
	],
	"samplers":[
		{
			"magFilter":9729,
			"minFilter":9987
		}
	],
	"buffers":[
		{
			"byteLength":418992,
			"uri":"ReefRock_A.bin"
		}
	]
}
