{
	"asset":{
		"generator":"Khronos glTF Blender I/O v5.0.21",
		"version":"2.0"
	},
	"scene":0,
	"scenes":[
		{
			"name":"Scene",
			"nodes":[
				0
			]
		}
	],
	"nodes":[
		{
			"mesh":0,
			"name":"CoralPiece_B"
		}
	],
	"materials":[
		{
			"name":"CoralPiece_B_CoralB",
			"normalTexture":{
				"index":0
			},
			"occlusionTexture":{
				"index":1
			},
			"pbrMetallicRoughness":{
				"baseColorTexture":{
					"index":2
				},
				"metallicRoughnessTexture":{
					"index":1
				}
			}
		}
	],
	"meshes":[
		{
			"name":"CoralPiece_B",
			"primitives":[
				{
					"attributes":{
						"POSITION":0,
						"NORMAL":1,
						"TEXCOORD_0":2,
						"TANGENT":3
					},
					"indices":4,
					"material":0
				}
			]
		}
	],
	"textures":[
		{
			"sampler":0,
			"source":0
		},
		{
			"sampler":0,
			"source":1
		},
		{
			"sampler":0,
			"source":2
		}
	],
	"images":[
		{
			"mimeType":"image/png",
			"name":"CoralPiece_B_CoralB_Normal",
			"uri":"CoralPiece_B_CoralB_Normal.png"
		},
		{
			"mimeType":"image/png",
			"name":"CoralPiece_B_CoralB_ORM",
			"uri":"CoralPiece_B_CoralB_ORM.png"
		},
		{
			"mimeType":"image/png",
			"name":"CoralPiece_B_CoralB_BaseColor",
			"uri":"CoralPiece_B_CoralB_BaseColor.png"
		}
	],
	"accessors":[
		{
			"bufferView":0,
			"componentType":5126,
			"count":5128,
			"max":[
				0.11545546352863312,
				0.14257647097110748,
				0.11795597523450851
			],
			"min":[
				-0.12168039381504059,
				0,
				-0.09440001100301743
			],
			"type":"VEC3"
		},
		{
			"bufferView":1,
			"componentType":5126,
			"count":5128,
			"type":"VEC3"
		},
		{
			"bufferView":2,
			"componentType":5126,
			"count":5128,
			"type":"VEC2"
		},
		{
			"bufferView":3,
			"componentType":5126,
			"count":5128,
			"type":"VEC4"
		},
		{
			"bufferView":4,
			"componentType":5123,
			"count":13500,
			"type":"SCALAR"
		}
	],
	"bufferViews":[
		{
			"buffer":0,
			"byteLength":61536,
			"byteOffset":0,
			"target":34962
		},
		{
			"buffer":0,
			"byteLength":61536,
			"byteOffset":61536,
			"target":34962
		},
		{
			"buffer":0,
			"byteLength":41024,
			"byteOffset":123072,
			"target":34962
		},
		{
			"buffer":0,
			"byteLength":82048,
			"byteOffset":164096,
			"target":34962
		},
		{
			"buffer":0,
			"byteLength":27000,
			"byteOffset":246144,
			"target":34963
		}
	],
	"samplers":[
		{
			"magFilter":9729,
			"minFilter":9987
		}
	],
	"buffers":[
		{
			"byteLength":273144,
			"uri":"CoralPiece_B.bin"
		}
	]
}
