# Blender 4.4.1
# www.blender.org
mtllib rail_left.mtl
o rail_left
v 0.600000 0.100000 0.800000
v 0.588023 0.100000 0.617263
v 0.552296 0.100000 0.437653
v 0.493431 0.100000 0.264243
v 0.412436 0.100000 0.100000
v 0.310695 0.100000 -0.052266
v 0.189949 0.100000 -0.189949
v 0.052266 0.100000 -0.310695
v -0.100000 0.100000 -0.412436
v -0.264243 0.100000 -0.493431
v -0.437653 0.100000 -0.552296
v -0.617263 0.100000 -0.588023
v -0.800000 0.100000 -0.600000
v -0.800000 0.100000 -0.500000
v -0.630316 0.100000 -0.488878
v -0.463535 0.100000 -0.455704
v -0.302512 0.100000 -0.401043
v -0.150000 0.100000 -0.325833
v -0.008610 0.100000 -0.231359
v 0.119239 0.100000 -0.119239
v 0.231359 0.100000 0.008610
v 0.325833 0.100000 0.150000
v 0.401043 0.100000 0.302512
v 0.455704 0.100000 0.463535
v 0.488878 0.100000 0.630316
v 0.500000 0.100000 0.800000
v 0.600000 0.200000 0.800000
v 0.588023 0.200000 0.617263
v 0.552296 0.200000 0.437653
v 0.493431 0.200000 0.264243
v 0.412436 0.200000 0.100000
v 0.310695 0.200000 -0.052266
v 0.189949 0.200000 -0.189949
v 0.052266 0.200000 -0.310695
v -0.100000 0.200000 -0.412436
v -0.264243 0.200000 -0.493431
v -0.437653 0.200000 -0.552296
v -0.617263 0.200000 -0.588023
v -0.800000 0.200000 -0.600000
v -0.800000 0.200000 -0.500000
v -0.630316 0.200000 -0.488878
v -0.463535 0.200000 -0.455704
v -0.302512 0.200000 -0.401043
v -0.150000 0.200000 -0.325833
v -0.008610 0.200000 -0.231359
v 0.119239 0.200000 -0.119239
v 0.231359 0.200000 0.008610
v 0.325833 0.200000 0.150000
v 0.401043 0.200000 0.302512
v 0.455704 0.200000 0.463535
v 0.488878 0.200000 0.630316
v 0.500000 0.200000 0.800000
v -0.500000 0.100000 0.800000
v -0.502567 0.100000 0.760842
v -0.510222 0.100000 0.722354
v -0.522836 0.100000 0.685195
v -0.540192 0.100000 0.650000
v -0.561994 0.100000 0.617372
v -0.587868 0.100000 0.587868
v -0.617372 0.100000 0.561994
v -0.650000 0.100000 0.540192
v -0.685195 0.100000 0.522836
v -0.722354 0.100000 0.510222
v -0.760842 0.100000 0.502567
v -0.800000 0.100000 0.500000
v -0.800000 0.100000 0.600000
v -0.773895 0.100000 0.601711
v -0.748236 0.100000 0.606815
v -0.723463 0.100000 0.615224
v -0.700000 0.100000 0.626795
v -0.678248 0.100000 0.641329
v -0.658579 0.100000 0.658579
v -0.641329 0.100000 0.678248
v -0.626795 0.100000 0.700000
v -0.615224 0.100000 0.723463
v -0.606815 0.100000 0.748236
v -0.601711 0.100000 0.773895
v -0.600000 0.100000 0.800000
v -0.500000 0.200000 0.800000
v -0.502567 0.200000 0.760842
v -0.510222 0.200000 0.722354
v -0.522836 0.200000 0.685195
v -0.540192 0.200000 0.650000
v -0.561994 0.200000 0.617372
v -0.587868 0.200000 0.587868
v -0.617372 0.200000 0.561994
v -0.650000 0.200000 0.540192
v -0.685195 0.200000 0.522836
v -0.722354 0.200000 0.510222
v -0.760842 0.200000 0.502567
v -0.800000 0.200000 0.500000
v -0.800000 0.200000 0.600000
v -0.773895 0.200000 0.601711
v -0.748236 0.200000 0.606815
v -0.723463 0.200000 0.615224
v -0.700000 0.200000 0.626795
v -0.678248 0.200000 0.641329
v -0.658579 0.200000 0.658579
v -0.641329 0.200000 0.678248
v -0.626795 0.200000 0.700000
v -0.615224 0.200000 0.723463
v -0.606815 0.200000 0.748236
v -0.601711 0.200000 0.773895
v -0.600000 0.200000 0.800000
v -0.699971 0.000000 0.790299
v -0.014503 0.000000 0.750812
v 0.769096 0.000000 0.640826
v 0.710569 0.000000 0.346590
v -0.055472 0.000000 0.544847
v -0.703872 0.000000 0.770683
v -0.699971 0.100000 0.790299
v -0.014503 0.100000 0.750812
v 0.769096 0.100000 0.640826
v 0.710569 0.100000 0.346590
v -0.055472 0.100000 0.544847
v -0.703872 0.100000 0.770683
v -0.711297 0.000000 0.752758
v -0.093119 0.000000 0.453960
v 0.588743 0.000000 0.052475
v 0.422072 0.000000 -0.196966
v -0.209789 0.000000 0.279351
v -0.722409 0.000000 0.736128
v -0.711297 0.100000 0.752758
v -0.093119 0.100000 0.453960
v 0.588743 0.100000 0.052475
v 0.422072 0.100000 -0.196966
v -0.209789 0.100000 0.279351
v -0.722409 0.100000 0.736128
v -0.736128 0.000000 0.722409
v -0.279351 0.000000 0.209789
v 0.196966 0.000000 -0.422072
v -0.052475 0.000000 -0.588743
v -0.453960 0.000000 0.093119
v -0.752758 0.000000 0.711297
v -0.736128 0.100000 0.722409
v -0.279351 0.100000 0.209789
v 0.196966 0.100000 -0.422072
v -0.052475 0.100000 -0.588743
v -0.453960 0.100000 0.093119
v -0.752758 0.100000 0.711297
v -0.770683 0.000000 0.703872
v -0.544847 0.000000 0.055472
v -0.346590 0.000000 -0.710569
v -0.640826 0.000000 -0.769096
v -0.750812 0.000000 0.014503
v -0.790299 0.000000 0.699971
v -0.770683 0.100000 0.703872
v -0.544847 0.100000 0.055472
v -0.346590 0.100000 -0.710569
v -0.640826 0.100000 -0.769096
v -0.750812 0.100000 0.014503
v -0.790299 0.100000 0.699971
vn -0.0000 -1.0000 -0.0000
vn -0.0000 1.0000 -0.0000
vn 0.9979 -0.0000 -0.0654
vn 0.9808 -0.0000 -0.1951
vn 0.9469 -0.0000 -0.3214
vn 0.8969 -0.0000 -0.4423
vn 0.8315 -0.0000 -0.5556
vn 0.7518 -0.0000 -0.6593
vn 0.6593 -0.0000 -0.7518
vn 0.5556 -0.0000 -0.8315
vn 0.4423 -0.0000 -0.8969
vn 0.3214 -0.0000 -0.9469
vn 0.1951 -0.0000 -0.9808
vn 0.0654 -0.0000 -0.9979
vn -1.0000 -0.0000 -0.0000
vn -0.0654 -0.0000 0.9979
vn -0.1951 -0.0000 0.9808
vn -0.3214 -0.0000 0.9469
vn -0.4423 -0.0000 0.8969
vn -0.5556 -0.0000 0.8315
vn -0.6593 -0.0000 0.7518
vn -0.7518 -0.0000 0.6593
vn -0.8315 -0.0000 0.5556
vn -0.8969 -0.0000 0.4423
vn -0.9469 -0.0000 0.3214
vn -0.9808 -0.0000 0.1951
vn -0.9979 -0.0000 0.0654
vn -0.0000 -0.0000 1.0000
vn 0.0575 -0.0000 0.9983
vn 0.1390 -0.0000 0.9903
vn -0.2506 -0.0000 -0.9681
vn -0.3289 -0.0000 -0.9444
vn 0.4352 -0.0000 0.9003
vn 0.5074 -0.0000 0.8617
vn -0.6020 -0.0000 -0.7985
vn -0.6653 -0.0000 -0.7466
vn 0.7466 -0.0000 0.6653
vn 0.7985 -0.0000 0.6020
vn -0.8617 -0.0000 -0.5074
vn -0.9003 -0.0000 -0.4352
vn 0.9444 -0.0000 0.3289
vn 0.9681 -0.0000 0.2506
vn -0.9903 -0.0000 -0.1390
vn -0.9983 -0.0000 -0.0575
vt 0.994141 0.500000
vt 0.306641 0.500000
s 0
usemtl Rail_Original_Palette
f 21/1/1 20/1/1 9/1/1
f 30/1/2 34/1/2 46/1/2
f 2/1/3 27/1/3 1/1/3
f 3/1/4 28/1/4 2/1/4
f 4/1/5 29/1/5 3/1/5
f 5/1/6 30/1/6 4/1/6
f 6/1/7 31/1/7 5/1/7
f 7/1/8 32/1/8 6/1/8
f 8/1/9 33/1/9 7/1/9
f 9/1/10 34/1/10 8/1/10
f 10/1/11 35/1/11 9/1/11
f 11/1/12 36/1/12 10/1/12
f 12/1/13 37/1/13 11/1/13
f 13/1/14 38/1/14 12/1/14
f 14/1/15 39/1/15 13/1/15
f 15/1/16 40/1/16 14/1/16
f 16/1/17 41/1/17 15/1/17
f 17/1/18 42/1/18 16/1/18
f 18/1/19 43/1/19 17/1/19
f 19/1/20 44/1/20 18/1/20
f 20/1/21 45/1/21 19/1/21
f 21/1/22 46/1/22 20/1/22
f 22/1/23 47/1/23 21/1/23
f 23/1/24 48/1/24 22/1/24
f 24/1/25 49/1/25 23/1/25
f 25/1/26 50/1/26 24/1/26
f 26/1/27 51/1/27 25/1/27
f 1/1/28 52/1/28 26/1/28
f 72/1/1 71/1/1 61/1/1
f 82/1/2 97/1/2 98/1/2
f 54/1/3 79/1/3 53/1/3
f 55/1/4 80/1/4 54/1/4
f 56/1/5 81/1/5 55/1/5
f 57/1/6 82/1/6 56/1/6
f 58/1/7 83/1/7 57/1/7
f 59/1/8 84/1/8 58/1/8
f 60/1/9 85/1/9 59/1/9
f 61/1/10 86/1/10 60/1/10
f 62/1/11 87/1/11 61/1/11
f 63/1/12 88/1/12 62/1/12
f 64/1/13 89/1/13 63/1/13
f 65/1/14 90/1/14 64/1/14
f 66/1/15 91/1/15 65/1/15
f 67/1/16 92/1/16 66/1/16
f 68/1/17 93/1/17 67/1/17
f 69/1/18 94/1/18 68/1/18
f 70/1/19 95/1/19 69/1/19
f 71/1/20 96/1/20 70/1/20
f 72/1/21 97/1/21 71/1/21
f 73/1/22 98/1/22 72/1/22
f 74/1/23 99/1/23 73/1/23
f 75/1/24 100/1/24 74/1/24
f 76/1/25 101/1/25 75/1/25
f 77/1/26 102/1/26 76/1/26
f 78/1/27 103/1/27 77/1/27
f 53/1/28 104/1/28 78/1/28
f 109/2/1 107/2/1 105/2/1
f 112/2/2 114/2/2 116/2/2
f 106/2/29 111/2/29 105/2/29
f 107/2/30 112/2/30 106/2/30
f 108/2/4 113/2/4 107/2/4
f 109/2/31 114/2/31 108/2/31
f 110/2/32 115/2/32 109/2/32
f 105/2/26 116/2/26 110/2/26
f 121/2/1 119/2/1 117/2/1
f 124/2/2 126/2/2 128/2/2
f 118/2/33 123/2/33 117/2/33
f 119/2/34 124/2/34 118/2/34
f 120/2/7 125/2/7 119/2/7
f 121/2/35 126/2/35 120/2/35
f 122/2/36 127/2/36 121/2/36
f 117/2/23 128/2/23 122/2/23
f 133/2/1 131/2/1 129/2/1
f 136/2/2 138/2/2 140/2/2
f 130/2/37 135/2/37 129/2/37
f 131/2/38 136/2/38 130/2/38
f 132/2/10 137/2/10 131/2/10
f 133/2/39 138/2/39 132/2/39
f 134/2/40 139/2/40 133/2/40
f 129/2/20 140/2/20 134/2/20
f 145/2/1 143/2/1 141/2/1
f 148/2/2 150/2/2 152/2/2
f 142/2/41 147/2/41 141/2/41
f 143/2/42 148/2/42 142/2/42
f 144/2/13 149/2/13 143/2/13
f 145/2/43 150/2/43 144/2/43
f 146/2/44 151/2/44 145/2/44
f 141/2/17 152/2/17 146/2/17
f 1/1/1 26/1/1 25/1/1
f 1/1/1 25/1/1 24/1/1
f 3/1/1 2/1/1 1/1/1
f 5/1/1 4/1/1 3/1/1
f 7/1/1 6/1/1 5/1/1
f 9/1/1 8/1/1 7/1/1
f 11/1/1 10/1/1 9/1/1
f 13/1/1 12/1/1 11/1/1
f 15/1/1 14/1/1 13/1/1
f 16/1/1 15/1/1 13/1/1
f 13/1/1 11/1/1 9/1/1
f 9/1/1 7/1/1 5/1/1
f 5/1/1 3/1/1 1/1/1
f 1/1/1 24/1/1 23/1/1
f 5/1/1 1/1/1 23/1/1
f 16/1/1 13/1/1 9/1/1
f 17/1/1 16/1/1 9/1/1
f 5/1/1 23/1/1 22/1/1
f 5/1/1 22/1/1 21/1/1
f 18/1/1 17/1/1 9/1/1
f 19/1/1 18/1/1 9/1/1
f 9/1/1 5/1/1 21/1/1
f 20/1/1 19/1/1 9/1/1
f 52/1/2 27/1/2 28/1/2
f 28/1/2 29/1/2 30/1/2
f 30/1/2 31/1/2 32/1/2
f 32/1/2 33/1/2 34/1/2
f 34/1/2 35/1/2 36/1/2
f 36/1/2 37/1/2 38/1/2
f 38/1/2 39/1/2 40/1/2
f 38/1/2 40/1/2 41/1/2
f 34/1/2 36/1/2 38/1/2
f 30/1/2 32/1/2 34/1/2
f 52/1/2 28/1/2 30/1/2
f 51/1/2 52/1/2 30/1/2
f 38/1/2 41/1/2 42/1/2
f 38/1/2 42/1/2 43/1/2
f 50/1/2 51/1/2 30/1/2
f 49/1/2 50/1/2 30/1/2
f 34/1/2 38/1/2 43/1/2
f 34/1/2 43/1/2 44/1/2
f 48/1/2 49/1/2 30/1/2
f 47/1/2 48/1/2 30/1/2
f 34/1/2 44/1/2 45/1/2
f 46/1/2 47/1/2 30/1/2
f 34/1/2 45/1/2 46/1/2
f 2/1/3 28/1/3 27/1/3
f 3/1/4 29/1/4 28/1/4
f 4/1/5 30/1/5 29/1/5
f 5/1/6 31/1/6 30/1/6
f 6/1/7 32/1/7 31/1/7
f 7/1/8 33/1/8 32/1/8
f 8/1/9 34/1/9 33/1/9
f 9/1/10 35/1/10 34/1/10
f 10/1/11 36/1/11 35/1/11
f 11/1/12 37/1/12 36/1/12
f 12/1/13 38/1/13 37/1/13
f 13/1/14 39/1/14 38/1/14
f 14/1/15 40/1/15 39/1/15
f 15/1/16 41/1/16 40/1/16
f 16/1/17 42/1/17 41/1/17
f 17/1/18 43/1/18 42/1/18
f 18/1/19 44/1/19 43/1/19
f 19/1/20 45/1/20 44/1/20
f 20/1/21 46/1/21 45/1/21
f 21/1/22 47/1/22 46/1/22
f 22/1/23 48/1/23 47/1/23
f 23/1/24 49/1/24 48/1/24
f 24/1/25 50/1/25 49/1/25
f 25/1/26 51/1/26 50/1/26
f 26/1/27 52/1/27 51/1/27
f 1/1/28 27/1/28 52/1/28
f 53/1/1 78/1/1 77/1/1
f 53/1/1 77/1/1 76/1/1
f 55/1/1 54/1/1 53/1/1
f 57/1/1 56/1/1 55/1/1
f 59/1/1 58/1/1 57/1/1
f 61/1/1 60/1/1 59/1/1
f 63/1/1 62/1/1 61/1/1
f 65/1/1 64/1/1 63/1/1
f 67/1/1 66/1/1 65/1/1
f 68/1/1 67/1/1 65/1/1
f 65/1/1 63/1/1 61/1/1
f 61/1/1 59/1/1 57/1/1
f 57/1/1 55/1/1 53/1/1
f 53/1/1 76/1/1 75/1/1
f 53/1/1 75/1/1 74/1/1
f 61/1/1 57/1/1 53/1/1
f 68/1/1 65/1/1 61/1/1
f 69/1/1 68/1/1 61/1/1
f 61/1/1 53/1/1 74/1/1
f 61/1/1 74/1/1 73/1/1
f 70/1/1 69/1/1 61/1/1
f 71/1/1 70/1/1 61/1/1
f 61/1/1 73/1/1 72/1/1
f 104/1/2 79/1/2 80/1/2
f 80/1/2 81/1/2 82/1/2
f 82/1/2 83/1/2 84/1/2
f 84/1/2 85/1/2 86/1/2
f 86/1/2 87/1/2 88/1/2
f 88/1/2 89/1/2 90/1/2
f 90/1/2 91/1/2 92/1/2
f 90/1/2 92/1/2 93/1/2
f 86/1/2 88/1/2 90/1/2
f 82/1/2 84/1/2 86/1/2
f 104/1/2 80/1/2 82/1/2
f 103/1/2 104/1/2 82/1/2
f 82/1/2 86/1/2 90/1/2
f 90/1/2 93/1/2 94/1/2
f 90/1/2 94/1/2 95/1/2
f 102/1/2 103/1/2 82/1/2
f 101/1/2 102/1/2 82/1/2
f 82/1/2 90/1/2 95/1/2
f 82/1/2 95/1/2 96/1/2
f 100/1/2 101/1/2 82/1/2
f 99/1/2 100/1/2 82/1/2
f 82/1/2 96/1/2 97/1/2
f 98/1/2 99/1/2 82/1/2
f 54/1/3 80/1/3 79/1/3
f 55/1/4 81/1/4 80/1/4
f 56/1/5 82/1/5 81/1/5
f 57/1/6 83/1/6 82/1/6
f 58/1/7 84/1/7 83/1/7
f 59/1/8 85/1/8 84/1/8
f 60/1/9 86/1/9 85/1/9
f 61/1/10 87/1/10 86/1/10
f 62/1/11 88/1/11 87/1/11
f 63/1/12 89/1/12 88/1/12
f 64/1/13 90/1/13 89/1/13
f 65/1/14 91/1/14 90/1/14
f 66/1/15 92/1/15 91/1/15
f 67/1/16 93/1/16 92/1/16
f 68/1/17 94/1/17 93/1/17
f 69/1/18 95/1/18 94/1/18
f 70/1/19 96/1/19 95/1/19
f 71/1/20 97/1/20 96/1/20
f 72/1/21 98/1/21 97/1/21
f 73/1/22 99/1/22 98/1/22
f 74/1/23 100/1/23 99/1/23
f 75/1/24 101/1/24 100/1/24
f 76/1/25 102/1/25 101/1/25
f 77/1/26 103/1/26 102/1/26
f 78/1/27 104/1/27 103/1/27
f 53/1/28 79/1/28 104/1/28
f 105/2/1 110/2/1 109/2/1
f 109/2/1 108/2/1 107/2/1
f 107/2/1 106/2/1 105/2/1
f 116/2/2 111/2/2 112/2/2
f 112/2/2 113/2/2 114/2/2
f 114/2/2 115/2/2 116/2/2
f 106/2/29 112/2/29 111/2/29
f 107/2/30 113/2/30 112/2/30
f 108/2/4 114/2/4 113/2/4
f 109/2/31 115/2/31 114/2/31
f 110/2/32 116/2/32 115/2/32
f 105/2/26 111/2/26 116/2/26
f 117/2/1 122/2/1 121/2/1
f 121/2/1 120/2/1 119/2/1
f 119/2/1 118/2/1 117/2/1
f 128/2/2 123/2/2 124/2/2
f 124/2/2 125/2/2 126/2/2
f 126/2/2 127/2/2 128/2/2
f 118/2/33 124/2/33 123/2/33
f 119/2/34 125/2/34 124/2/34
f 120/2/7 126/2/7 125/2/7
f 121/2/35 127/2/35 126/2/35
f 122/2/36 128/2/36 127/2/36
f 117/2/23 123/2/23 128/2/23
f 129/2/1 134/2/1 133/2/1
f 133/2/1 132/2/1 131/2/1
f 131/2/1 130/2/1 129/2/1
f 140/2/2 135/2/2 136/2/2
f 136/2/2 137/2/2 138/2/2
f 138/2/2 139/2/2 140/2/2
f 130/2/37 136/2/37 135/2/37
f 131/2/38 137/2/38 136/2/38
f 132/2/10 138/2/10 137/2/10
f 133/2/39 139/2/39 138/2/39
f 134/2/40 140/2/40 139/2/40
f 129/2/20 135/2/20 140/2/20
f 141/2/1 146/2/1 145/2/1
f 145/2/1 144/2/1 143/2/1
f 143/2/1 142/2/1 141/2/1
f 152/2/2 147/2/2 148/2/2
f 148/2/2 149/2/2 150/2/2
f 150/2/2 151/2/2 152/2/2
f 142/2/41 148/2/41 147/2/41
f 143/2/42 149/2/42 148/2/42
f 144/2/13 150/2/13 149/2/13
f 145/2/43 151/2/43 150/2/43
f 146/2/44 152/2/44 151/2/44
f 141/2/17 147/2/17 152/2/17
