{
	"asset":{
		"generator":"Khronos glTF Blender I/O v5.0.21",
		"version":"2.0"
	},
	"scene":0,
	"scenes":[
		{
			"name":"Scene",
			"nodes":[
				0
			]
		}
	],
	"nodes":[
		{
			"mesh":0,
			"name":"Pier_End"
		}
	],
	"materials":[
		{
			"name":"Pier_End_PierIron",
			"normalTexture":{
				"index":0
			},
			"occlusionTexture":{
				"index":1
			},
			"pbrMetallicRoughness":{
				"baseColorTexture":{
					"index":2
				},
				"metallicRoughnessTexture":{
					"index":1
				}
			}
		},
		{
			"name":"Pier_End_PierDeck",
			"normalTexture":{
				"index":3
			},
			"occlusionTexture":{
				"index":4
			},
			"pbrMetallicRoughness":{
				"baseColorTexture":{
					"index":5
				},
				"metallicRoughnessTexture":{
					"index":4
				}
			}
		},
		{
			"name":"Pier_End_PierFrame",
			"normalTexture":{
				"index":6
			},
			"occlusionTexture":{
				"index":7
			},
			"pbrMetallicRoughness":{
				"baseColorTexture":{
					"index":8
				},
				"metallicRoughnessTexture":{
					"index":7
				}
			}
		},
		{
			"name":"Pier_End_PierPiling",
			"normalTexture":{
				"index":9
			},
			"occlusionTexture":{
				"index":10
			},
			"pbrMetallicRoughness":{
				"baseColorTexture":{
					"index":11
				},
				"metallicRoughnessTexture":{
					"index":10
				}
			}
		},
		{
			"name":"Pier_End_PierMetal",
			"normalTexture":{
				"index":12
			},
			"occlusionTexture":{
				"index":13
			},
			"pbrMetallicRoughness":{
				"baseColorTexture":{
					"index":14
				},
				"metallicRoughnessTexture":{
					"index":13
				}
			}
		}
	],
	"meshes":[
		{
			"name":"Pier_End",
			"primitives":[
				{
					"attributes":{
						"POSITION":0,
						"NORMAL":1,
						"TEXCOORD_0":2
					},
					"indices":3,
					"material":0
				},
				{
					"attributes":{
						"POSITION":4,
						"NORMAL":5,
						"TEXCOORD_0":6
					},
					"indices":7,
					"material":1
				},
				{
					"attributes":{
						"POSITION":8,
						"NORMAL":9,
						"TEXCOORD_0":10
					},
					"indices":11,
					"material":2
				},
				{
					"attributes":{
						"POSITION":12,
						"NORMAL":13,
						"TEXCOORD_0":14
					},
					"indices":15,
					"material":3
				},
				{
					"attributes":{
						"POSITION":16,
						"NORMAL":17,
						"TEXCOORD_0":18
					},
					"indices":19,
					"material":4
				}
			]
		}
	],
	"textures":[
		{
			"sampler":0,
			"source":0
		},
		{
			"sampler":0,
			"source":1
		},
		{
			"sampler":0,
			"source":2
		},
		{
			"sampler":0,
			"source":3
		},
		{
			"sampler":0,
			"source":4
		},
		{
			"sampler":0,
			"source":5
		},
		{
			"sampler":0,
			"source":6
		},
		{
			"sampler":0,
			"source":7
		},
		{
			"sampler":0,
			"source":8
		},
		{
			"sampler":0,
			"source":9
		},
		{
			"sampler":0,
			"source":10
		},
		{
			"sampler":0,
			"source":11
		},
		{
			"sampler":0,
			"source":12
		},
		{
			"sampler":0,
			"source":13
		},
		{
			"sampler":0,
			"source":14
		}
	],
	"images":[
		{
			"mimeType":"image/png",
			"name":"Pier_End_PierIron_Normal",
			"uri":"Pier_End_PierIron_Normal.png"
		},
		{
			"mimeType":"image/png",
			"name":"Pier_End_PierIron_ORM",
			"uri":"Pier_End_PierIron_ORM.png"
		},
		{
			"mimeType":"image/png",
			"name":"Pier_End_PierIron_BaseColor",
			"uri":"Pier_End_PierIron_BaseColor.png"
		},
		{
			"mimeType":"image/png",
			"name":"Pier_End_PierDeck_Normal",
			"uri":"Pier_End_PierDeck_Normal.png"
		},
		{
			"mimeType":"image/png",
			"name":"Pier_End_PierDeck_ORM",
			"uri":"Pier_End_PierDeck_ORM.png"
		},
		{
			"mimeType":"image/png",
			"name":"Pier_End_PierDeck_BaseColor",
			"uri":"Pier_End_PierDeck_BaseColor.png"
		},
		{
			"mimeType":"image/png",
			"name":"Pier_End_PierFrame_Normal",
			"uri":"Pier_End_PierFrame_Normal.png"
		},
		{
			"mimeType":"image/png",
			"name":"Pier_End_PierFrame_ORM",
			"uri":"Pier_End_PierFrame_ORM.png"
		},
		{
			"mimeType":"image/png",
			"name":"Pier_End_PierFrame_BaseColor",
			"uri":"Pier_End_PierFrame_BaseColor.png"
		},
		{
			"mimeType":"image/png",
			"name":"Pier_End_PierPiling_Normal",
			"uri":"Pier_End_PierPiling_Normal.png"
		},
		{
			"mimeType":"image/png",
			"name":"Pier_End_PierPiling_ORM",
			"uri":"Pier_End_PierPiling_ORM.png"
		},
		{
			"mimeType":"image/png",
			"name":"Pier_End_PierPiling_BaseColor",
			"uri":"Pier_End_PierPiling_BaseColor.png"
		},
		{
			"mimeType":"image/png",
			"name":"Pier_End_PierMetal_Normal",
			"uri":"Pier_End_PierMetal_Normal.png"
		},
		{
			"mimeType":"image/png",
			"name":"Pier_End_PierMetal_ORM",
			"uri":"Pier_End_PierMetal_ORM.png"
		},
		{
			"mimeType":"image/png",
			"name":"Pier_End_PierMetal_BaseColor",
			"uri":"Pier_End_PierMetal_BaseColor.png"
		}
	],
	"accessors":[
		{
			"bufferView":0,
			"componentType":5126,
			"count":2362,
			"max":[
				0.9259999990463257,
				1.3300000429153442,
				-1.7400000095367432
			],
			"min":[
				-0.9259999990463257,
				1,
				-3.6280250549316406
			],
			"type":"VEC3"
		},
		{
			"bufferView":1,
			"componentType":5126,
			"count":2362,
			"type":"VEC3"
		},
		{
			"bufferView":2,
			"componentType":5126,
			"count":2362,
			"type":"VEC2"
		},
		{
			"bufferView":3,
			"componentType":5123,
			"count":3576,
			"type":"SCALAR"
		},
		{
			"bufferView":4,
			"componentType":5126,
			"count":2496,
			"max":[
				1.0161004066467285,
				1.0002286434173584,
				-0.001828111708164215
			],
			"min":[
				-1.0183600187301636,
				0.9478964805603027,
				-3.993675470352173
			],
			"type":"VEC3"
		},
		{
			"bufferView":5,
			"componentType":5126,
			"count":2496,
			"type":"VEC3"
		},
		{
			"bufferView":6,
			"componentType":5126,
			"count":2496,
			"type":"VEC2"
		},
		{
			"bufferView":7,
			"componentType":5123,
			"count":3432,
			"type":"SCALAR"
		},
		{
			"bufferView":8,
			"componentType":5126,
			"count":1536,
			"max":[
				1.1591535806655884,
				1,
				-0.001999974250793457
			],
			"min":[
				-1.1522761583328247,
				-1.5992217063903809,
				-4.125
			],
			"type":"VEC3"
		},
		{
			"bufferView":9,
			"componentType":5126,
			"count":1536,
			"type":"VEC3"
		},
		{
			"bufferView":10,
			"componentType":5126,
			"count":1536,
			"type":"VEC2"
		},
		{
			"bufferView":11,
			"componentType":5123,
			"count":2112,
			"type":"SCALAR"
		},
		{
			"bufferView":12,
			"componentType":5126,
			"count":840,
			"max":[
				1.0530692338943481,
				0.751535177230835,
				-0.8375731706619263
			],
			"min":[
				-1.0642924308776855,
				-2.501581907272339,
				-4.008869647979736
			],
			"type":"VEC3"
		},
		{
			"bufferView":13,
			"componentType":5126,
			"count":840,
			"type":"VEC3"
		},
		{
			"bufferView":14,
			"componentType":5126,
			"count":840,
			"type":"VEC2"
		},
		{
			"bufferView":15,
			"componentType":5123,
			"count":4032,
			"type":"SCALAR"
		},
		{
			"bufferView":16,
			"componentType":5126,
			"count":9477,
			"max":[
				1.1110000610351562,
				1.8695565462112427,
				-0.7639999389648438
			],
			"min":[
				-1.1110000610351562,
				-1.600000023841858,
				-4.2230000495910645
			],
			"type":"VEC3"
		},
		{
			"bufferView":17,
			"componentType":5126,
			"count":9477,
			"type":"VEC3"
		},
		{
			"bufferView":18,
			"componentType":5126,
			"count":9477,
			"type":"VEC2"
		},
		{
			"bufferView":19,
			"componentType":5123,
			"count":17568,
			"type":"SCALAR"
		}
	],
	"bufferViews":[
		{
			"buffer":0,
			"byteLength":28344,
			"byteOffset":0,
			"target":34962
		},
		{
			"buffer":0,
			"byteLength":28344,
			"byteOffset":28344,
			"target":34962
		},
		{
			"buffer":0,
			"byteLength":18896,
			"byteOffset":56688,
			"target":34962
		},
		{
			"buffer":0,
			"byteLength":7152,
			"byteOffset":75584,
			"target":34963
		},
		{
			"buffer":0,
			"byteLength":29952,
			"byteOffset":82736,
			"target":34962
		},
		{
			"buffer":0,
			"byteLength":29952,
			"byteOffset":112688,
			"target":34962
		},
		{
			"buffer":0,
			"byteLength":19968,
			"byteOffset":142640,
			"target":34962
		},
		{
			"buffer":0,
			"byteLength":6864,
			"byteOffset":162608,
			"target":34963
		},
		{
			"buffer":0,
			"byteLength":18432,
			"byteOffset":169472,
			"target":34962
		},
		{
			"buffer":0,
			"byteLength":18432,
			"byteOffset":187904,
			"target":34962
		},
		{
			"buffer":0,
			"byteLength":12288,
			"byteOffset":206336,
			"target":34962
		},
		{
			"buffer":0,
			"byteLength":4224,
			"byteOffset":218624,
			"target":34963
		},
		{
			"buffer":0,
			"byteLength":10080,
			"byteOffset":222848,
			"target":34962
		},
		{
			"buffer":0,
			"byteLength":10080,
			"byteOffset":232928,
			"target":34962
		},
		{
			"buffer":0,
			"byteLength":6720,
			"byteOffset":243008,
			"target":34962
		},
		{
			"buffer":0,
			"byteLength":8064,
			"byteOffset":249728,
			"target":34963
		},
		{
			"buffer":0,
			"byteLength":113724,
			"byteOffset":257792,
			"target":34962
		},
		{
			"buffer":0,
			"byteLength":113724,
			"byteOffset":371516,
			"target":34962
		},
		{
			"buffer":0,
			"byteLength":75816,
			"byteOffset":485240,
			"target":34962
		},
		{
			"buffer":0,
			"byteLength":35136,
			"byteOffset":561056,
			"target":34963
		}
	],
	"samplers":[
		{
			"magFilter":9729,
			"minFilter":9987
		}
	],
	"buffers":[
		{
			"byteLength":596192,
			"uri":"Pier_End.bin"
		}
	]
}
