{
	"asset":{
		"generator":"Khronos glTF Blender I/O v5.0.21",
		"version":"2.0"
	},
	"scene":0,
	"scenes":[
		{
			"name":"Scene",
			"nodes":[
				0
			]
		}
	],
	"nodes":[
		{
			"mesh":0,
			"name":"Tetrapod_A"
		}
	],
	"materials":[
		{
			"name":"Tetrapod_A_TetrapodConcreteA",
			"normalTexture":{
				"index":0
			},
			"occlusionTexture":{
				"index":1
			},
			"pbrMetallicRoughness":{
				"baseColorTexture":{
					"index":2
				},
				"metallicRoughnessTexture":{
					"index":1
				}
			}
		}
	],
	"meshes":[
		{
			"name":"Tetrapod_A",
			"primitives":[
				{
					"attributes":{
						"POSITION":0,
						"NORMAL":1,
						"TEXCOORD_0":2,
						"TANGENT":3
					},
					"indices":4,
					"material":0
				}
			]
		}
	],
	"textures":[
		{
			"sampler":0,
			"source":0
		},
		{
			"sampler":0,
			"source":1
		},
		{
			"sampler":0,
			"source":2
		}
	],
	"images":[
		{
			"mimeType":"image/png",
			"name":"Tetrapod_A_TetrapodConcreteA_Normal",
			"uri":"Tetrapod_A_TetrapodConcreteA_Normal.png"
		},
		{
			"mimeType":"image/png",
			"name":"Tetrapod_A_TetrapodConcreteA_ORM",
			"uri":"Tetrapod_A_TetrapodConcreteA_ORM.png"
		},
		{
			"mimeType":"image/png",
			"name":"Tetrapod_A_TetrapodConcreteA_BaseColor",
			"uri":"Tetrapod_A_TetrapodConcreteA_BaseColor.png"
		}
	],
	"accessors":[
		{
			"bufferView":0,
			"componentType":5126,
			"count":3417,
			"max":[
				1.0535589456558228,
				1.7404911518096924,
				1.1493256092071533
			],
			"min":[
				-1.0543628931045532,
				0,
				-0.7305004596710205
			],
			"type":"VEC3"
		},
		{
			"bufferView":1,
			"componentType":5126,
			"count":3417,
			"type":"VEC3"
		},
		{
			"bufferView":2,
			"componentType":5126,
			"count":3417,
			"type":"VEC2"
		},
		{
			"bufferView":3,
			"componentType":5126,
			"count":3417,
			"type":"VEC4"
		},
		{
			"bufferView":4,
			"componentType":5123,
			"count":15000,
			"type":"SCALAR"
		}
	],
	"bufferViews":[
		{
			"buffer":0,
			"byteLength":41004,
			"byteOffset":0,
			"target":34962
		},
		{
			"buffer":0,
			"byteLength":41004,
			"byteOffset":41004,
			"target":34962
		},
		{
			"buffer":0,
			"byteLength":27336,
			"byteOffset":82008,
			"target":34962
		},
		{
			"buffer":0,
			"byteLength":54672,
			"byteOffset":109344,
			"target":34962
		},
		{
			"buffer":0,
			"byteLength":30000,
			"byteOffset":164016,
			"target":34963
		}
	],
	"samplers":[
		{
			"magFilter":9729,
			"minFilter":9987
		}
	],
	"buffers":[
		{
			"byteLength":194016,
			"uri":"Tetrapod_A.bin"
		}
	]
}
