{
	"asset":{
		"generator":"Khronos glTF Blender I/O v5.0.21",
		"version":"2.0"
	},
	"scene":0,
	"scenes":[
		{
			"name":"Scene",
			"nodes":[
				0
			]
		}
	],
	"nodes":[
		{
			"mesh":0,
			"name":"Ishigaki_Corner"
		}
	],
	"materials":[
		{
			"name":"Ishigaki_Corner_IshigakiCorner",
			"normalTexture":{
				"index":0
			},
			"occlusionTexture":{
				"index":1
			},
			"pbrMetallicRoughness":{
				"baseColorTexture":{
					"index":2
				},
				"metallicRoughnessTexture":{
					"index":1
				}
			}
		}
	],
	"meshes":[
		{
			"name":"Ishigaki_Corner",
			"primitives":[
				{
					"attributes":{
						"POSITION":0,
						"NORMAL":1,
						"TEXCOORD_0":2
					},
					"indices":3,
					"material":0
				}
			]
		}
	],
	"textures":[
		{
			"sampler":0,
			"source":0
		},
		{
			"sampler":0,
			"source":1
		},
		{
			"sampler":0,
			"source":2
		}
	],
	"images":[
		{
			"mimeType":"image/png",
			"name":"Ishigaki_Corner_IshigakiCorner_Normal",
			"uri":"Ishigaki_Corner_IshigakiCorner_Normal.png"
		},
		{
			"mimeType":"image/png",
			"name":"Ishigaki_Corner_IshigakiCorner_ORM",
			"uri":"Ishigaki_Corner_IshigakiCorner_ORM.png"
		},
		{
			"mimeType":"image/png",
			"name":"Ishigaki_Corner_IshigakiCorner_BaseColor",
			"uri":"Ishigaki_Corner_IshigakiCorner_BaseColor.png"
		}
	],
	"accessors":[
		{
			"bufferView":0,
			"componentType":5126,
			"count":13630,
			"max":[
				2.40934157371521,
				1.3910865783691406,
				0.4044199585914612
			],
			"min":[
				-3.725290298461914e-09,
				-0.09497807174921036,
				-2
			],
			"type":"VEC3"
		},
		{
			"bufferView":1,
			"componentType":5126,
			"count":13630,
			"type":"VEC3"
		},
		{
			"bufferView":2,
			"componentType":5126,
			"count":13630,
			"type":"VEC2"
		},
		{
			"bufferView":3,
			"componentType":5123,
			"count":42720,
			"type":"SCALAR"
		}
	],
	"bufferViews":[
		{
			"buffer":0,
			"byteLength":163560,
			"byteOffset":0,
			"target":34962
		},
		{
			"buffer":0,
			"byteLength":163560,
			"byteOffset":163560,
			"target":34962
		},
		{
			"buffer":0,
			"byteLength":109040,
			"byteOffset":327120,
			"target":34962
		},
		{
			"buffer":0,
			"byteLength":85440,
			"byteOffset":436160,
			"target":34963
		}
	],
	"samplers":[
		{
			"magFilter":9729,
			"minFilter":9987
		}
	],
	"buffers":[
		{
			"byteLength":521600,
			"uri":"Ishigaki_Corner.bin"
		}
	]
}
