{
	"asset":{
		"generator":"Khronos glTF Blender I/O v5.0.21",
		"version":"2.0"
	},
	"scene":0,
	"scenes":[
		{
			"name":"Scene",
			"nodes":[
				0
			]
		}
	],
	"nodes":[
		{
			"mesh":0,
			"name":"Seagrass_Patch_A"
		}
	],
	"materials":[
		{
			"alphaMode":"MASK",
			"doubleSided":true,
			"name":"Seagrass_Patch_A_SeagrassLeaf",
			"normalTexture":{
				"index":0
			},
			"occlusionTexture":{
				"index":1
			},
			"pbrMetallicRoughness":{
				"baseColorTexture":{
					"index":2
				},
				"metallicRoughnessTexture":{
					"index":1
				}
			},
			"extras":{
				"vertexAnimation":"seagrass"
			}
		}
	],
	"meshes":[
		{
			"name":"Seagrass_Patch_A",
			"primitives":[
				{
					"attributes":{
						"POSITION":0,
						"NORMAL":1,
						"TEXCOORD_0":2,
						"TEXCOORD_1":3,
						"TEXCOORD_2":4,
						"TANGENT":5
					},
					"indices":6,
					"material":0
				}
			]
		}
	],
	"textures":[
		{
			"sampler":0,
			"source":0
		},
		{
			"sampler":0,
			"source":1
		},
		{
			"sampler":0,
			"source":2
		}
	],
	"images":[
		{
			"mimeType":"image/png",
			"name":"Seagrass_Patch_A_SeagrassLeaf_Normal",
			"uri":"Seagrass_Patch_A_SeagrassLeaf_Normal.png"
		},
		{
			"mimeType":"image/png",
			"name":"Seagrass_Patch_A_SeagrassLeaf_ORM",
			"uri":"Seagrass_Patch_A_SeagrassLeaf_ORM.png"
		},
		{
			"mimeType":"image/png",
			"name":"Seagrass_Patch_A_SeagrassLeaf_BaseColor",
			"uri":"Seagrass_Patch_A_SeagrassLeaf_BaseColor.png"
		}
	],
	"accessors":[
		{
			"bufferView":0,
			"componentType":5126,
			"count":44698,
			"max":[
				2.1955697536468506,
				0.29495447874069214,
				1.4589228630065918
			],
			"min":[
				-1.9849460124969482,
				-0.02500000037252903,
				-1.682621955871582
			],
			"type":"VEC3"
		},
		{
			"bufferView":1,
			"componentType":5126,
			"count":44698,
			"type":"VEC3"
		},
		{
			"bufferView":2,
			"componentType":5126,
			"count":44698,
			"type":"VEC2"
		},
		{
			"bufferView":3,
			"componentType":5126,
			"count":44698,
			"type":"VEC2"
		},
		{
			"bufferView":4,
			"componentType":5126,
			"count":44698,
			"type":"VEC2"
		},
		{
			"bufferView":5,
			"componentType":5126,
			"count":44698,
			"type":"VEC4"
		},
		{
			"bufferView":6,
			"componentType":5123,
			"count":88194,
			"type":"SCALAR"
		}
	],
	"bufferViews":[
		{
			"buffer":0,
			"byteLength":536376,
			"byteOffset":0,
			"target":34962
		},
		{
			"buffer":0,
			"byteLength":536376,
			"byteOffset":536376,
			"target":34962
		},
		{
			"buffer":0,
			"byteLength":357584,
			"byteOffset":1072752,
			"target":34962
		},
		{
			"buffer":0,
			"byteLength":357584,
			"byteOffset":1430336,
			"target":34962
		},
		{
			"buffer":0,
			"byteLength":357584,
			"byteOffset":1787920,
			"target":34962
		},
		{
			"buffer":0,
			"byteLength":715168,
			"byteOffset":2145504,
			"target":34962
		},
		{
			"buffer":0,
			"byteLength":176388,
			"byteOffset":2860672,
			"target":34963
		}
	],
	"samplers":[
		{
			"magFilter":9729,
			"minFilter":9987
		}
	],
	"buffers":[
		{
			"byteLength":3037060,
			"uri":"Seagrass_Patch_A.bin"
		}
	]
}
