{
	"asset":{
		"generator":"Khronos glTF Blender I/O v5.0.21",
		"version":"2.0"
	},
	"scene":0,
	"scenes":[
		{
			"name":"Scene",
			"nodes":[
				0
			]
		}
	],
	"nodes":[
		{
			"mesh":0,
			"name":"Coconut_Husk"
		}
	],
	"materials":[
		{
			"name":"Coconut_Husk_CoconutFibre",
			"normalTexture":{
				"index":0
			},
			"occlusionTexture":{
				"index":1
			},
			"pbrMetallicRoughness":{
				"baseColorTexture":{
					"index":2
				},
				"metallicRoughnessTexture":{
					"index":1
				}
			}
		},
		{
			"name":"Coconut_Husk_CoconutHusk",
			"normalTexture":{
				"index":3
			},
			"occlusionTexture":{
				"index":4
			},
			"pbrMetallicRoughness":{
				"baseColorTexture":{
					"index":5
				},
				"metallicRoughnessTexture":{
					"index":4
				}
			}
		}
	],
	"meshes":[
		{
			"name":"Coconut_Husk",
			"primitives":[
				{
					"attributes":{
						"POSITION":0,
						"NORMAL":1,
						"TEXCOORD_0":2
					},
					"indices":3,
					"material":0
				},
				{
					"attributes":{
						"POSITION":4,
						"NORMAL":5,
						"TEXCOORD_0":6
					},
					"indices":7,
					"material":1
				}
			]
		}
	],
	"textures":[
		{
			"sampler":0,
			"source":0
		},
		{
			"sampler":0,
			"source":1
		},
		{
			"sampler":0,
			"source":2
		},
		{
			"sampler":0,
			"source":3
		},
		{
			"sampler":0,
			"source":4
		},
		{
			"sampler":0,
			"source":5
		}
	],
	"images":[
		{
			"mimeType":"image/png",
			"name":"Coconut_Husk_CoconutFibre_Normal",
			"uri":"Coconut_Husk_CoconutFibre_Normal.png"
		},
		{
			"mimeType":"image/png",
			"name":"Coconut_Husk_CoconutFibre_ORM",
			"uri":"Coconut_Husk_CoconutFibre_ORM.png"
		},
		{
			"mimeType":"image/png",
			"name":"Coconut_Husk_CoconutFibre_BaseColor",
			"uri":"Coconut_Husk_CoconutFibre_BaseColor.png"
		},
		{
			"mimeType":"image/png",
			"name":"Coconut_Husk_CoconutHusk_Normal",
			"uri":"Coconut_Husk_CoconutHusk_Normal.png"
		},
		{
			"mimeType":"image/png",
			"name":"Coconut_Husk_CoconutHusk_ORM",
			"uri":"Coconut_Husk_CoconutHusk_ORM.png"
		},
		{
			"mimeType":"image/png",
			"name":"Coconut_Husk_CoconutHusk_BaseColor",
			"uri":"Coconut_Husk_CoconutHusk_BaseColor.png"
		}
	],
	"accessors":[
		{
			"bufferView":0,
			"componentType":5126,
			"count":1034,
			"max":[
				0.19387958943843842,
				0.142536923289299,
				-0.18160021305084229
			],
			"min":[
				-0.07795390486717224,
				0.042606741189956665,
				-0.37834805250167847
			],
			"type":"VEC3"
		},
		{
			"bufferView":1,
			"componentType":5126,
			"count":1034,
			"type":"VEC3"
		},
		{
			"bufferView":2,
			"componentType":5126,
			"count":1034,
			"type":"VEC2"
		},
		{
			"bufferView":3,
			"componentType":5123,
			"count":3678,
			"type":"SCALAR"
		},
		{
			"bufferView":4,
			"componentType":5126,
			"count":1982,
			"max":[
				0.19524532556533813,
				0.2156883329153061,
				0.09986089169979095
			],
			"min":[
				-0.15388822555541992,
				0,
				-0.37939733266830444
			],
			"type":"VEC3"
		},
		{
			"bufferView":5,
			"componentType":5126,
			"count":1982,
			"type":"VEC3"
		},
		{
			"bufferView":6,
			"componentType":5126,
			"count":1982,
			"type":"VEC2"
		},
		{
			"bufferView":7,
			"componentType":5123,
			"count":8418,
			"type":"SCALAR"
		}
	],
	"bufferViews":[
		{
			"buffer":0,
			"byteLength":12408,
			"byteOffset":0,
			"target":34962
		},
		{
			"buffer":0,
			"byteLength":12408,
			"byteOffset":12408,
			"target":34962
		},
		{
			"buffer":0,
			"byteLength":8272,
			"byteOffset":24816,
			"target":34962
		},
		{
			"buffer":0,
			"byteLength":7356,
			"byteOffset":33088,
			"target":34963
		},
		{
			"buffer":0,
			"byteLength":23784,
			"byteOffset":40444,
			"target":34962
		},
		{
			"buffer":0,
			"byteLength":23784,
			"byteOffset":64228,
			"target":34962
		},
		{
			"buffer":0,
			"byteLength":15856,
			"byteOffset":88012,
			"target":34962
		},
		{
			"buffer":0,
			"byteLength":16836,
			"byteOffset":103868,
			"target":34963
		}
	],
	"samplers":[
		{
			"magFilter":9729,
			"minFilter":9987
		}
	],
	"buffers":[
		{
			"byteLength":120704,
			"uri":"Coconut_Husk.bin"
		}
	]
}
