{
	"asset":{
		"generator":"Khronos glTF Blender I/O v5.0.21",
		"version":"2.0"
	},
	"scene":0,
	"scenes":[
		{
			"name":"Scene",
			"nodes":[
				0
			]
		}
	],
	"nodes":[
		{
			"mesh":0,
			"name":"CoconutPalm_C"
		}
	],
	"materials":[
		{
			"alphaMode":"MASK",
			"doubleSided":true,
			"name":"CoconutPalm_C_PalmFrond",
			"normalTexture":{
				"index":0
			},
			"occlusionTexture":{
				"index":1
			},
			"pbrMetallicRoughness":{
				"baseColorTexture":{
					"index":2
				},
				"metallicRoughnessTexture":{
					"index":1
				}
			},
			"extras":{
				"vertexAnimation":"plant"
			}
		},
		{
			"name":"CoconutPalm_C_PalmTrunk",
			"normalTexture":{
				"index":3
			},
			"occlusionTexture":{
				"index":4
			},
			"pbrMetallicRoughness":{
				"baseColorTexture":{
					"index":5
				},
				"metallicRoughnessTexture":{
					"index":4
				}
			},
			"extras":{
				"vertexAnimation":"plant"
			}
		}
	],
	"meshes":[
		{
			"name":"CoconutPalm_C",
			"primitives":[
				{
					"attributes":{
						"POSITION":0,
						"NORMAL":1,
						"TEXCOORD_0":2,
						"TEXCOORD_1":3,
						"TEXCOORD_2":4,
						"TANGENT":5
					},
					"indices":6,
					"material":0
				},
				{
					"attributes":{
						"POSITION":7,
						"NORMAL":8,
						"TEXCOORD_0":9,
						"TEXCOORD_1":10,
						"TEXCOORD_2":11,
						"TANGENT":12
					},
					"indices":13,
					"material":1
				}
			]
		}
	],
	"textures":[
		{
			"sampler":0,
			"source":0
		},
		{
			"sampler":0,
			"source":1
		},
		{
			"sampler":0,
			"source":2
		},
		{
			"sampler":0,
			"source":3
		},
		{
			"sampler":0,
			"source":4
		},
		{
			"sampler":0,
			"source":5
		}
	],
	"images":[
		{
			"mimeType":"image/png",
			"name":"CoconutPalm_C_PalmFrond_Normal",
			"uri":"CoconutPalm_C_PalmFrond_Normal.png"
		},
		{
			"mimeType":"image/png",
			"name":"CoconutPalm_C_PalmFrond_ORM",
			"uri":"CoconutPalm_C_PalmFrond_ORM.png"
		},
		{
			"mimeType":"image/png",
			"name":"CoconutPalm_C_PalmFrond_BaseColor",
			"uri":"CoconutPalm_C_PalmFrond_BaseColor.png"
		},
		{
			"mimeType":"image/png",
			"name":"CoconutPalm_C_PalmTrunk_Normal",
			"uri":"CoconutPalm_C_PalmTrunk_Normal.png"
		},
		{
			"mimeType":"image/png",
			"name":"CoconutPalm_C_PalmTrunk_ORM",
			"uri":"CoconutPalm_C_PalmTrunk_ORM.png"
		},
		{
			"mimeType":"image/png",
			"name":"CoconutPalm_C_PalmTrunk_BaseColor",
			"uri":"CoconutPalm_C_PalmTrunk_BaseColor.png"
		}
	],
	"accessors":[
		{
			"bufferView":0,
			"componentType":5126,
			"count":17074,
			"max":[
				3.8110127449035645,
				4.902578353881836,
				3.2379403114318848
			],
			"min":[
				-3.0243020057678223,
				0.8315180540084839,
				-3.5243782997131348
			],
			"type":"VEC3"
		},
		{
			"bufferView":1,
			"componentType":5126,
			"count":17074,
			"type":"VEC3"
		},
		{
			"bufferView":2,
			"componentType":5126,
			"count":17074,
			"type":"VEC2"
		},
		{
			"bufferView":3,
			"componentType":5126,
			"count":17074,
			"type":"VEC2"
		},
		{
			"bufferView":4,
			"componentType":5126,
			"count":17074,
			"type":"VEC2"
		},
		{
			"bufferView":5,
			"componentType":5126,
			"count":17074,
			"type":"VEC4"
		},
		{
			"bufferView":6,
			"componentType":5123,
			"count":25560,
			"type":"SCALAR"
		},
		{
			"bufferView":7,
			"componentType":5126,
			"count":729,
			"max":[
				0.5502949357032776,
				4.025296688079834,
				0.2924031615257263
			],
			"min":[
				-0.286532461643219,
				-0.30477041006088257,
				-0.3537016808986664
			],
			"type":"VEC3"
		},
		{
			"bufferView":8,
			"componentType":5126,
			"count":729,
			"type":"VEC3"
		},
		{
			"bufferView":9,
			"componentType":5126,
			"count":729,
			"type":"VEC2"
		},
		{
			"bufferView":10,
			"componentType":5126,
			"count":729,
			"type":"VEC2"
		},
		{
			"bufferView":11,
			"componentType":5126,
			"count":729,
			"type":"VEC2"
		},
		{
			"bufferView":12,
			"componentType":5126,
			"count":729,
			"type":"VEC4"
		},
		{
			"bufferView":13,
			"componentType":5123,
			"count":3828,
			"type":"SCALAR"
		}
	],
	"bufferViews":[
		{
			"buffer":0,
			"byteLength":204888,
			"byteOffset":0,
			"target":34962
		},
		{
			"buffer":0,
			"byteLength":204888,
			"byteOffset":204888,
			"target":34962
		},
		{
			"buffer":0,
			"byteLength":136592,
			"byteOffset":409776,
			"target":34962
		},
		{
			"buffer":0,
			"byteLength":136592,
			"byteOffset":546368,
			"target":34962
		},
		{
			"buffer":0,
			"byteLength":136592,
			"byteOffset":682960,
			"target":34962
		},
		{
			"buffer":0,
			"byteLength":273184,
			"byteOffset":819552,
			"target":34962
		},
		{
			"buffer":0,
			"byteLength":51120,
			"byteOffset":1092736,
			"target":34963
		},
		{
			"buffer":0,
			"byteLength":8748,
			"byteOffset":1143856,
			"target":34962
		},
		{
			"buffer":0,
			"byteLength":8748,
			"byteOffset":1152604,
			"target":34962
		},
		{
			"buffer":0,
			"byteLength":5832,
			"byteOffset":1161352,
			"target":34962
		},
		{
			"buffer":0,
			"byteLength":5832,
			"byteOffset":1167184,
			"target":34962
		},
		{
			"buffer":0,
			"byteLength":5832,
			"byteOffset":1173016,
			"target":34962
		},
		{
			"buffer":0,
			"byteLength":11664,
			"byteOffset":1178848,
			"target":34962
		},
		{
			"buffer":0,
			"byteLength":7656,
			"byteOffset":1190512,
			"target":34963
		}
	],
	"samplers":[
		{
			"magFilter":9729,
			"minFilter":9987
		}
	],
	"buffers":[
		{
			"byteLength":1198168,
			"uri":"CoconutPalm_C.bin"
		}
	]
}
