# 1x1x1 cube centered at the origin
mtllib cube.mtl

v -0.5 -0.5 -0.5
v 0.5 -0.5 -0.5
v 0.5 0.5 -0.5
v -0.5 0.5 -0.5
v -0.5 -0.5 0.5
v 0.5 -0.5 0.5
v 0.5 0.5 0.5
v -0.5 0.5 0.5

vt 0.0 0.0
vt 1.0 0.0
vt 1.0 1.0
vt 0.0 1.0

vn 0.0 0.0 -1.0
vn 0.0 0.0 1.0
vn -1.0 0.0 0.0
vn 1.0 0.0 0.0
vn 0.0 -1.0 0.0
vn 0.0 1.0 0.0

usemtl cube

# -Z
f 1/1/1 3/3/1 2/2/1
f 1/1/1 4/4/1 3/3/1
# +Z
f 6/1/2 8/3/2 5/2/2
f 6/1/2 7/4/2 8/3/2
# -X
f 5/1/3 4/3/3 1/2/3
f 5/1/3 8/4/3 4/3/3
# +X
f 2/1/4 7/3/4 6/2/4
f 2/1/4 3/4/4 7/3/4
# -Y
f 5/1/5 2/3/5 6/2/5
f 5/1/5 1/4/5 2/3/5
# +Y
f 4/1/6 7/3/6 3/2/6
f 4/1/6 8/4/6 7/3/6
