{
	"asset":{
		"generator":"Khronos glTF Blender I/O v5.0.21",
		"version":"2.0"
	},
	"scene":0,
	"scenes":[
		{
			"name":"Scene",
			"nodes":[
				0
			]
		}
	],
	"nodes":[
		{
			"mesh":0,
			"name":"Hibiscus_B"
		}
	],
	"materials":[
		{
			"alphaMode":"MASK",
			"doubleSided":true,
			"name":"Hibiscus_B_HibiscusFlower",
			"normalTexture":{
				"index":0
			},
			"occlusionTexture":{
				"index":1
			},
			"pbrMetallicRoughness":{
				"baseColorTexture":{
					"index":2
				},
				"metallicRoughnessTexture":{
					"index":1
				}
			}
		},
		{
			"name":"Hibiscus_B_ShrubBark",
			"normalTexture":{
				"index":3
			},
			"occlusionTexture":{
				"index":4
			},
			"pbrMetallicRoughness":{
				"baseColorTexture":{
					"index":5
				},
				"metallicRoughnessTexture":{
					"index":4
				}
			}
		},
		{
			"alphaMode":"MASK",
			"doubleSided":true,
			"name":"Hibiscus_B_HibiscusLeaf",
			"normalTexture":{
				"index":6
			},
			"occlusionTexture":{
				"index":7
			},
			"pbrMetallicRoughness":{
				"baseColorTexture":{
					"index":8
				},
				"metallicRoughnessTexture":{
					"index":7
				}
			}
		}
	],
	"meshes":[
		{
			"name":"Hibiscus_B",
			"primitives":[
				{
					"attributes":{
						"POSITION":0,
						"NORMAL":1,
						"TEXCOORD_0":2
					},
					"indices":3,
					"material":0
				},
				{
					"attributes":{
						"POSITION":4,
						"NORMAL":5,
						"TEXCOORD_0":6
					},
					"indices":7,
					"material":1
				},
				{
					"attributes":{
						"POSITION":8,
						"NORMAL":9,
						"TEXCOORD_0":10
					},
					"indices":11,
					"material":2
				}
			]
		}
	],
	"textures":[
		{
			"sampler":0,
			"source":0
		},
		{
			"sampler":0,
			"source":1
		},
		{
			"sampler":0,
			"source":2
		},
		{
			"sampler":0,
			"source":3
		},
		{
			"sampler":0,
			"source":4
		},
		{
			"sampler":0,
			"source":5
		},
		{
			"sampler":0,
			"source":6
		},
		{
			"sampler":0,
			"source":7
		},
		{
			"sampler":0,
			"source":8
		}
	],
	"images":[
		{
			"mimeType":"image/png",
			"name":"Hibiscus_B_HibiscusFlower_Normal",
			"uri":"Hibiscus_B_HibiscusFlower_Normal.png"
		},
		{
			"mimeType":"image/png",
			"name":"Hibiscus_B_HibiscusFlower_ORM",
			"uri":"Hibiscus_B_HibiscusFlower_ORM.png"
		},
		{
			"mimeType":"image/png",
			"name":"Hibiscus_B_HibiscusFlower_BaseColor",
			"uri":"Hibiscus_B_HibiscusFlower_BaseColor.png"
		},
		{
			"mimeType":"image/png",
			"name":"Hibiscus_B_ShrubBark_Normal",
			"uri":"Hibiscus_B_ShrubBark_Normal.png"
		},
		{
			"mimeType":"image/png",
			"name":"Hibiscus_B_ShrubBark_ORM",
			"uri":"Hibiscus_B_ShrubBark_ORM.png"
		},
		{
			"mimeType":"image/png",
			"name":"Hibiscus_B_ShrubBark_BaseColor",
			"uri":"Hibiscus_B_ShrubBark_BaseColor.png"
		},
		{
			"mimeType":"image/png",
			"name":"Hibiscus_B_HibiscusLeaf_Normal",
			"uri":"Hibiscus_B_HibiscusLeaf_Normal.png"
		},
		{
			"mimeType":"image/png",
			"name":"Hibiscus_B_HibiscusLeaf_ORM",
			"uri":"Hibiscus_B_HibiscusLeaf_ORM.png"
		},
		{
			"mimeType":"image/png",
			"name":"Hibiscus_B_HibiscusLeaf_BaseColor",
			"uri":"Hibiscus_B_HibiscusLeaf_BaseColor.png"
		}
	],
	"accessors":[
		{
			"bufferView":0,
			"componentType":5126,
			"count":2560,
			"max":[
				0.5276532769203186,
				1.0472220182418823,
				0.3922020494937897
			],
			"min":[
				-0.5507096648216248,
				0.4378245174884796,
				-0.4950583875179291
			],
			"type":"VEC3"
		},
		{
			"bufferView":1,
			"componentType":5126,
			"count":2560,
			"type":"VEC3"
		},
		{
			"bufferView":2,
			"componentType":5126,
			"count":2560,
			"type":"VEC2"
		},
		{
			"bufferView":3,
			"componentType":5123,
			"count":8640,
			"type":"SCALAR"
		},
		{
			"bufferView":4,
			"componentType":5126,
			"count":994,
			"max":[
				0.46944183111190796,
				0.7343275547027588,
				0.2282959222793579
			],
			"min":[
				-0.5096361041069031,
				-0.12795814871788025,
				-0.2734113931655884
			],
			"type":"VEC3"
		},
		{
			"bufferView":5,
			"componentType":5126,
			"count":994,
			"type":"VEC3"
		},
		{
			"bufferView":6,
			"componentType":5126,
			"count":994,
			"type":"VEC2"
		},
		{
			"bufferView":7,
			"componentType":5123,
			"count":2886,
			"type":"SCALAR"
		},
		{
			"bufferView":8,
			"componentType":5126,
			"count":4080,
			"max":[
				0.6734572052955627,
				1.086595058441162,
				0.6169012188911438
			],
			"min":[
				-0.7314918041229248,
				0.04711625352501869,
				-0.581986129283905
			],
			"type":"VEC3"
		},
		{
			"bufferView":9,
			"componentType":5126,
			"count":4080,
			"type":"VEC3"
		},
		{
			"bufferView":10,
			"componentType":5126,
			"count":4080,
			"type":"VEC2"
		},
		{
			"bufferView":11,
			"componentType":5123,
			"count":12240,
			"type":"SCALAR"
		}
	],
	"bufferViews":[
		{
			"buffer":0,
			"byteLength":30720,
			"byteOffset":0,
			"target":34962
		},
		{
			"buffer":0,
			"byteLength":30720,
			"byteOffset":30720,
			"target":34962
		},
		{
			"buffer":0,
			"byteLength":20480,
			"byteOffset":61440,
			"target":34962
		},
		{
			"buffer":0,
			"byteLength":17280,
			"byteOffset":81920,
			"target":34963
		},
		{
			"buffer":0,
			"byteLength":11928,
			"byteOffset":99200,
			"target":34962
		},
		{
			"buffer":0,
			"byteLength":11928,
			"byteOffset":111128,
			"target":34962
		},
		{
			"buffer":0,
			"byteLength":7952,
			"byteOffset":123056,
			"target":34962
		},
		{
			"buffer":0,
			"byteLength":5772,
			"byteOffset":131008,
			"target":34963
		},
		{
			"buffer":0,
			"byteLength":48960,
			"byteOffset":136780,
			"target":34962
		},
		{
			"buffer":0,
			"byteLength":48960,
			"byteOffset":185740,
			"target":34962
		},
		{
			"buffer":0,
			"byteLength":32640,
			"byteOffset":234700,
			"target":34962
		},
		{
			"buffer":0,
			"byteLength":24480,
			"byteOffset":267340,
			"target":34963
		}
	],
	"samplers":[
		{
			"magFilter":9729,
			"minFilter":9987
		}
	],
	"buffers":[
		{
			"byteLength":291820,
			"uri":"Hibiscus_B.bin"
		}
	]
}
