{
	"asset":{
		"generator":"Khronos glTF Blender I/O v5.0.21",
		"version":"2.0"
	},
	"scene":0,
	"scenes":[
		{
			"name":"Scene",
			"nodes":[
				0
			]
		}
	],
	"nodes":[
		{
			"mesh":0,
			"name":"Ishigaki_Low"
		}
	],
	"materials":[
		{
			"name":"Ishigaki_Low_IshigakiLow",
			"normalTexture":{
				"index":0
			},
			"occlusionTexture":{
				"index":1
			},
			"pbrMetallicRoughness":{
				"baseColorTexture":{
					"index":2
				},
				"metallicRoughnessTexture":{
					"index":1
				}
			}
		}
	],
	"meshes":[
		{
			"name":"Ishigaki_Low",
			"primitives":[
				{
					"attributes":{
						"POSITION":0,
						"NORMAL":1,
						"TEXCOORD_0":2
					},
					"indices":3,
					"material":0
				}
			]
		}
	],
	"textures":[
		{
			"sampler":0,
			"source":0
		},
		{
			"sampler":0,
			"source":1
		},
		{
			"sampler":0,
			"source":2
		}
	],
	"images":[
		{
			"mimeType":"image/png",
			"name":"Ishigaki_Low_IshigakiLow_Normal",
			"uri":"Ishigaki_Low_IshigakiLow_Normal.png"
		},
		{
			"mimeType":"image/png",
			"name":"Ishigaki_Low_IshigakiLow_ORM",
			"uri":"Ishigaki_Low_IshigakiLow_ORM.png"
		},
		{
			"mimeType":"image/png",
			"name":"Ishigaki_Low_IshigakiLow_BaseColor",
			"uri":"Ishigaki_Low_IshigakiLow_BaseColor.png"
		}
	],
	"accessors":[
		{
			"bufferView":0,
			"componentType":5126,
			"count":3942,
			"max":[
				2,
				0.7005869150161743,
				0.34601494669914246
			],
			"min":[
				-3.725290298461914e-09,
				-0.0950741395354271,
				-0.36012011766433716
			],
			"type":"VEC3"
		},
		{
			"bufferView":1,
			"componentType":5126,
			"count":3942,
			"type":"VEC3"
		},
		{
			"bufferView":2,
			"componentType":5126,
			"count":3942,
			"type":"VEC2"
		},
		{
			"bufferView":3,
			"componentType":5123,
			"count":12237,
			"type":"SCALAR"
		}
	],
	"bufferViews":[
		{
			"buffer":0,
			"byteLength":47304,
			"byteOffset":0,
			"target":34962
		},
		{
			"buffer":0,
			"byteLength":47304,
			"byteOffset":47304,
			"target":34962
		},
		{
			"buffer":0,
			"byteLength":31536,
			"byteOffset":94608,
			"target":34962
		},
		{
			"buffer":0,
			"byteLength":24474,
			"byteOffset":126144,
			"target":34963
		}
	],
	"samplers":[
		{
			"magFilter":9729,
			"minFilter":9987
		}
	],
	"buffers":[
		{
			"byteLength":150620,
			"uri":"Ishigaki_Low.bin"
		}
	]
}
