{
	"asset":{
		"generator":"Khronos glTF Blender I/O v5.0.21",
		"version":"2.0"
	},
	"scene":0,
	"scenes":[
		{
			"name":"Scene",
			"nodes":[
				0
			]
		}
	],
	"nodes":[
		{
			"mesh":0,
			"name":"BeachRock_C"
		}
	],
	"materials":[
		{
			"name":"BeachRock_C_BeachRockC",
			"normalTexture":{
				"index":0
			},
			"occlusionTexture":{
				"index":1
			},
			"pbrMetallicRoughness":{
				"baseColorTexture":{
					"index":2
				},
				"metallicRoughnessTexture":{
					"index":1
				}
			}
		}
	],
	"meshes":[
		{
			"name":"BeachRock_C",
			"primitives":[
				{
					"attributes":{
						"POSITION":0,
						"NORMAL":1,
						"TEXCOORD_0":2,
						"TANGENT":3
					},
					"indices":4,
					"material":0
				}
			]
		}
	],
	"textures":[
		{
			"sampler":0,
			"source":0
		},
		{
			"sampler":0,
			"source":1
		},
		{
			"sampler":0,
			"source":2
		}
	],
	"images":[
		{
			"mimeType":"image/png",
			"name":"BeachRock_C_BeachRockC_Normal",
			"uri":"BeachRock_C_BeachRockC_Normal.png"
		},
		{
			"mimeType":"image/png",
			"name":"BeachRock_C_BeachRockC_ORM",
			"uri":"BeachRock_C_BeachRockC_ORM.png"
		},
		{
			"mimeType":"image/png",
			"name":"BeachRock_C_BeachRockC_BaseColor",
			"uri":"BeachRock_C_BeachRockC_BaseColor.png"
		}
	],
	"accessors":[
		{
			"bufferView":0,
			"componentType":5126,
			"count":4774,
			"max":[
				1.1370197534561157,
				0.3333311080932617,
				0.8069278001785278
			],
			"min":[
				-1.1591686010360718,
				-0.11308671534061432,
				-0.715092658996582
			],
			"type":"VEC3"
		},
		{
			"bufferView":1,
			"componentType":5126,
			"count":4774,
			"type":"VEC3"
		},
		{
			"bufferView":2,
			"componentType":5126,
			"count":4774,
			"type":"VEC2"
		},
		{
			"bufferView":3,
			"componentType":5126,
			"count":4774,
			"type":"VEC4"
		},
		{
			"bufferView":4,
			"componentType":5123,
			"count":9576,
			"type":"SCALAR"
		}
	],
	"bufferViews":[
		{
			"buffer":0,
			"byteLength":57288,
			"byteOffset":0,
			"target":34962
		},
		{
			"buffer":0,
			"byteLength":57288,
			"byteOffset":57288,
			"target":34962
		},
		{
			"buffer":0,
			"byteLength":38192,
			"byteOffset":114576,
			"target":34962
		},
		{
			"buffer":0,
			"byteLength":76384,
			"byteOffset":152768,
			"target":34962
		},
		{
			"buffer":0,
			"byteLength":19152,
			"byteOffset":229152,
			"target":34963
		}
	],
	"samplers":[
		{
			"magFilter":9729,
			"minFilter":9987
		}
	],
	"buffers":[
		{
			"byteLength":248304,
			"uri":"BeachRock_C.bin"
		}
	]
}
