{
	"asset":{
		"generator":"Khronos glTF Blender I/O v5.0.21",
		"version":"2.0"
	},
	"scene":0,
	"scenes":[
		{
			"name":"Scene",
			"nodes":[
				0
			]
		}
	],
	"nodes":[
		{
			"mesh":0,
			"name":"GlassFloat"
		}
	],
	"materials":[
		{
			"name":"GlassFloat_FloatRope",
			"normalTexture":{
				"index":0
			},
			"occlusionTexture":{
				"index":1
			},
			"pbrMetallicRoughness":{
				"baseColorTexture":{
					"index":2
				},
				"metallicRoughnessTexture":{
					"index":1
				}
			}
		},
		{
			"name":"GlassFloat_FloatGlass",
			"normalTexture":{
				"index":3
			},
			"occlusionTexture":{
				"index":4
			},
			"pbrMetallicRoughness":{
				"baseColorTexture":{
					"index":5
				},
				"metallicRoughnessTexture":{
					"index":4
				}
			}
		}
	],
	"meshes":[
		{
			"name":"GlassFloat",
			"primitives":[
				{
					"attributes":{
						"POSITION":0,
						"NORMAL":1,
						"TEXCOORD_0":2
					},
					"indices":3,
					"material":0
				},
				{
					"attributes":{
						"POSITION":4,
						"NORMAL":5,
						"TEXCOORD_0":6
					},
					"indices":7,
					"material":1
				}
			]
		}
	],
	"textures":[
		{
			"sampler":0,
			"source":0
		},
		{
			"sampler":0,
			"source":1
		},
		{
			"sampler":0,
			"source":2
		},
		{
			"sampler":0,
			"source":3
		},
		{
			"sampler":0,
			"source":4
		},
		{
			"sampler":0,
			"source":5
		}
	],
	"images":[
		{
			"mimeType":"image/png",
			"name":"GlassFloat_FloatRope_Normal",
			"uri":"GlassFloat_FloatRope_Normal.png"
		},
		{
			"mimeType":"image/png",
			"name":"GlassFloat_FloatRope_ORM",
			"uri":"GlassFloat_FloatRope_ORM.png"
		},
		{
			"mimeType":"image/png",
			"name":"GlassFloat_FloatRope_BaseColor",
			"uri":"GlassFloat_FloatRope_BaseColor.png"
		},
		{
			"mimeType":"image/png",
			"name":"GlassFloat_FloatGlass_Normal",
			"uri":"GlassFloat_FloatGlass_Normal.png"
		},
		{
			"mimeType":"image/png",
			"name":"GlassFloat_FloatGlass_ORM",
			"uri":"GlassFloat_FloatGlass_ORM.png"
		},
		{
			"mimeType":"image/png",
			"name":"GlassFloat_FloatGlass_BaseColor",
			"uri":"GlassFloat_FloatGlass_BaseColor.png"
		}
	],
	"accessors":[
		{
			"bufferView":0,
			"componentType":5126,
			"count":2684,
			"max":[
				0.1578836292028427,
				0.3528914451599121,
				0.1561732292175293
			],
			"min":[
				-0.15773683786392212,
				0,
				-0.15541937947273254
			],
			"type":"VEC3"
		},
		{
			"bufferView":1,
			"componentType":5126,
			"count":2684,
			"type":"VEC3"
		},
		{
			"bufferView":2,
			"componentType":5126,
			"count":2684,
			"type":"VEC2"
		},
		{
			"bufferView":3,
			"componentType":5123,
			"count":12948,
			"type":"SCALAR"
		},
		{
			"bufferView":4,
			"componentType":5126,
			"count":1322,
			"max":[
				0.14986278116703033,
				0.3084818720817566,
				0.14971180260181427
			],
			"min":[
				-0.14986291527748108,
				0.00914299488067627,
				-0.1497117429971695
			],
			"type":"VEC3"
		},
		{
			"bufferView":5,
			"componentType":5126,
			"count":1322,
			"type":"VEC3"
		},
		{
			"bufferView":6,
			"componentType":5126,
			"count":1322,
			"type":"VEC2"
		},
		{
			"bufferView":7,
			"componentType":5123,
			"count":5760,
			"type":"SCALAR"
		}
	],
	"bufferViews":[
		{
			"buffer":0,
			"byteLength":32208,
			"byteOffset":0,
			"target":34962
		},
		{
			"buffer":0,
			"byteLength":32208,
			"byteOffset":32208,
			"target":34962
		},
		{
			"buffer":0,
			"byteLength":21472,
			"byteOffset":64416,
			"target":34962
		},
		{
			"buffer":0,
			"byteLength":25896,
			"byteOffset":85888,
			"target":34963
		},
		{
			"buffer":0,
			"byteLength":15864,
			"byteOffset":111784,
			"target":34962
		},
		{
			"buffer":0,
			"byteLength":15864,
			"byteOffset":127648,
			"target":34962
		},
		{
			"buffer":0,
			"byteLength":10576,
			"byteOffset":143512,
			"target":34962
		},
		{
			"buffer":0,
			"byteLength":11520,
			"byteOffset":154088,
			"target":34963
		}
	],
	"samplers":[
		{
			"magFilter":9729,
			"minFilter":9987
		}
	],
	"buffers":[
		{
			"byteLength":165608,
			"uri":"GlassFloat.bin"
		}
	]
}
